<svg width="71" height="71" viewBox="0 0 71 71" fill="none" xmlns="http://www.w3.org/2000/svg">
<path fill-rule="evenodd" clip-rule="evenodd" d="M35.5 71C55.1061 71 71 55.1061 71 35.5C71 15.8939 55.1061 0 35.5 0C15.8939 0 0 15.8939 0 35.5C0 55.1061 15.8939 71 35.5 71Z" fill="#4D17BC"/>
<mask id="mask0" mask-type="alpha" maskUnits="userSpaceOnUse" x="52" y="36" width="11" height="10">
<path fill-rule="evenodd" clip-rule="evenodd" d="M52.0298 36.8199H62.1499V45.37H52.0298V36.8199Z" fill="white"/>
</mask>
<g mask="url(#mask0)">
<path fill-rule="evenodd" clip-rule="evenodd" d="M59.9778 38.244C60.8536 38.4937 60.3342 40.0922 59.8283 41.3247C59.267 42.6912 58.5589 43.9724 57.564 45.37C58.9397 43.9974 60.2957 42.5207 61.1566 40.8978C62.0054 39.298 62.7338 36.9851 61.4677 36.8241C60.8374 36.7443 59.8791 37.83 59.173 38.2799C58.1355 38.9401 57.0717 39.1079 56.1837 39.2026C54.9569 39.3325 53.6245 39.0727 52.0298 40.2329C53.5968 39.7431 54.7499 40.1503 56.2872 39.6836C57.4376 39.3338 59.0959 37.9924 59.9778 38.244Z" fill="#67A183"/>
</g>
<path fill-rule="evenodd" clip-rule="evenodd" d="M50.689 41.518C51.8664 41.081 52.8883 41.0681 53.8812 41.0059C54.8889 40.9416 56.2922 40.4235 56.9117 40.8835C57.5217 41.3347 57.5096 42.3758 57.0977 43.6333C56.5972 45.1588 55.6768 46.5313 54.4039 48.0892C55.0431 47.5941 55.6599 47.0948 56.2821 46.557C56.7007 46.1958 57.141 45.7818 57.5637 45.3698C58.5592 43.9722 59.2673 42.691 59.8286 41.3245C60.3345 40.0927 60.8532 38.4935 59.9774 38.2439C59.0962 37.9922 57.4379 39.3337 56.2868 39.6834C54.7495 40.1508 53.5971 39.7429 52.0294 40.2334C51.8326 40.3795 51.652 40.5358 51.485 40.6873C51.1955 40.9498 50.9284 41.2244 50.689 41.518Z" fill="#7CC68E"/>
<path fill-rule="evenodd" clip-rule="evenodd" d="M49.1692 48.2385C49.178 49.3919 49.2564 50.4188 50.3839 50.3281C51.4193 50.2442 53.1026 49.0807 54.4038 48.089C55.6767 46.5318 56.5971 45.1585 57.0976 43.6331C57.5095 42.3755 57.5216 41.3351 56.9116 40.8832C56.2921 40.4232 54.8888 40.9421 53.8811 41.0064C52.8882 41.0679 51.8663 41.0808 50.6889 41.5178C48.6897 44.0309 49.1557 46.4986 49.1692 48.2385Z" fill="#B6382E"/>
<mask id="mask1" mask-type="alpha" maskUnits="userSpaceOnUse" x="9" y="37" width="12" height="10">
<path fill-rule="evenodd" clip-rule="evenodd" d="M9 37.729H20.1566V46.5188H9V37.729Z" fill="white"/>
</mask>
<g mask="url(#mask1)">
<path fill-rule="evenodd" clip-rule="evenodd" d="M11.4004 39.0486C10.3974 39.5092 10.8242 41.1761 11.2868 42.4647C11.7913 43.8738 12.4676 45.1571 13.4591 46.5188C12.0368 45.2626 10.6558 43.8928 9.83133 42.2625C8.99744 40.6132 8.47127 38.2591 9.84824 37.7646C10.5171 37.5238 11.5722 38.5703 12.3046 38.9241C13.4334 39.4714 14.6074 39.4274 15.5834 39.3624C16.8886 39.2759 18.5145 38.6691 20.1566 39.7101C18.4286 39.4213 17.0787 40.1309 15.4217 39.9226C14.1834 39.767 12.3986 38.5899 11.4004 39.0486Z" fill="#67A183"/>
</g>
<path fill-rule="evenodd" clip-rule="evenodd" d="M21.5376 40.8877C20.2499 40.6929 19.136 40.8045 18.0018 40.9303C16.8737 41.0568 15.467 40.7957 14.6074 41.3869C12.6481 42.7338 14.6142 46.5153 16.7446 48.9154C16.0757 48.4906 15.4325 48.0576 14.7866 47.5827C14.3511 47.2641 13.8946 46.8914 13.459 46.5186C12.4676 45.1576 11.7913 43.8736 11.2867 42.4646C10.8241 41.1759 10.3967 39.5091 11.4003 39.0484C12.3972 38.5904 14.1834 39.7675 15.4217 39.9224C17.078 40.1307 18.4279 39.4211 20.1565 39.71C20.3628 39.8365 20.5508 39.9751 20.724 40.1131C21.0236 40.3513 21.2975 40.6063 21.5376 40.8877Z" fill="#7CC68E"/>
<path fill-rule="evenodd" clip-rule="evenodd" d="M22.5899 48.0687C22.4675 49.3438 22.2883 50.506 21.0256 50.621C19.8853 50.7252 18.1066 49.7612 16.7445 48.9156C14.6142 46.5155 12.6488 42.7333 14.6074 41.3872C15.4677 40.7959 16.8744 41.057 18.0025 40.9305C19.1367 40.8047 20.2499 40.6931 21.5376 40.8879C23.5577 43.3408 22.7759 46.1312 22.5899 48.0687Z" fill="#B6382E"/>
<path fill-rule="evenodd" clip-rule="evenodd" d="M56.6945 35.2065C56.6945 46.0185 47.1849 54.7835 35.4543 54.7835C23.7237 54.7835 14.2134 46.0185 14.2134 35.2065C14.2134 24.3944 23.7237 15.6294 35.4543 15.6294C47.1849 15.6294 56.6945 24.3944 56.6945 35.2065Z" fill="#1AB169"/>
<path fill-rule="evenodd" clip-rule="evenodd" d="M40.5049 8.99988C40.628 9.73047 40.3812 11.5766 38.6099 13.583C37.8294 14.4678 37.8998 14.2878 37.6015 14.733C37.3026 15.1794 36.9333 15.5792 36.4829 15.9236C36.0244 16.2631 35.8715 16.4627 35.1445 16.621C35.0194 15.8891 34.9247 15.749 34.8733 14.8405C34.8422 14.2743 34.9673 13.4828 35.2682 13.0384C35.5699 12.594 35.9033 12.1218 36.627 11.6286C37.0862 11.2891 39.8523 10.2338 40.5049 8.99988Z" fill="#1AB169"/>
<path fill-rule="evenodd" clip-rule="evenodd" d="M18.374 31.3736C18.374 36.3071 21.9578 40.3071 26.3856 40.3071C30.8087 40.3071 34.3925 36.3071 34.3925 31.3736C34.3925 26.4387 30.8087 22.4421 26.3856 22.4421C21.9578 22.4421 18.374 26.4387 18.374 31.3736Z" fill="#FEFEFE"/>
<path fill-rule="evenodd" clip-rule="evenodd" d="M23.0126 31.4899C23.0126 32.924 22.1247 34.0902 21.0331 34.0902C19.9402 34.0902 19.0542 32.924 19.0542 31.4899C19.0542 30.0524 19.9402 28.8895 21.0331 28.8895C22.1247 28.8895 23.0126 30.0524 23.0126 31.4899Z" fill="#221E1F"/>
<path fill-rule="evenodd" clip-rule="evenodd" d="M20.4964 30.6482C20.4964 31.002 20.2773 31.2895 20.0081 31.2895C19.739 31.2895 19.5205 31.002 19.5205 30.6482C19.5205 30.2944 19.739 30.0076 20.0081 30.0076C20.2773 30.0076 20.4964 30.2944 20.4964 30.6482Z" fill="#FEFEFE"/>
<path fill-rule="evenodd" clip-rule="evenodd" d="M42.1098 11.3173C42.2349 12.0465 41.328 14.8072 40.3649 15.8665C39.9828 16.2859 38.1216 18.2348 36.2151 18.6035C36.09 17.8709 35.9385 16.6844 36.0812 16.131C36.232 15.5858 36.6446 14.703 38.1121 14.0522C40.2391 13.1106 41.14 12.5511 42.1098 11.3173Z" fill="#1AB169"/>
<path fill-rule="evenodd" clip-rule="evenodd" d="M35.5786 30.1647C35.5786 35.0982 39.1624 39.0982 43.5902 39.0982C48.0133 39.0982 51.597 35.0982 51.597 30.1647C51.597 25.2299 48.0133 21.2333 43.5902 21.2333C39.1624 21.2333 35.5786 25.2299 35.5786 30.1647Z" fill="#FEFEFE"/>
<path fill-rule="evenodd" clip-rule="evenodd" d="M50.8695 31.4899C50.8695 32.924 50.0052 34.0902 48.9427 34.0902C47.8782 34.0902 47.0166 32.924 47.0166 31.4899C47.0166 30.0524 47.8782 28.8895 48.9427 28.8895C50.0052 28.8895 50.8695 30.0524 50.8695 31.4899Z" fill="#221E1F"/>
<path fill-rule="evenodd" clip-rule="evenodd" d="M48.4199 30.6482C48.4199 31.002 48.2069 31.2895 47.9445 31.2895C47.6821 31.2895 47.4697 31.002 47.4697 30.6482C47.4697 30.2944 47.6821 30.0076 47.9445 30.0076C48.2069 30.0076 48.4199 30.2944 48.4199 30.6482Z" fill="#FEFEFE"/>
<path fill-rule="evenodd" clip-rule="evenodd" d="M41.5301 44.2094C41.5301 47.3861 38.5394 49.9621 34.8508 49.9621C31.1615 49.9621 28.1709 47.3861 28.1709 44.2094C28.1709 41.0327 31.1615 38.4567 34.8508 38.4567C38.5394 38.4567 41.5301 41.0327 41.5301 44.2094Z" fill="#F05A2A"/>
<path fill-rule="evenodd" clip-rule="evenodd" d="M37.5163 47.7219C37.5163 47.7219 37.7794 47.5385 38.2163 47.2321C38.6565 46.9257 39.2713 46.4975 39.9821 46.0077C44.2111 42.4495 52.3823 40.1792 51.7019 33.3685C51.7019 33.1412 51.5748 31.8289 51.378 32.2375C50.0159 35.0698 42.9964 40.7001 41.5302 32.5324C41.0987 30.133 39.9936 25.1846 38.5443 24.4926C37.8091 24.1956 37.1003 23.9345 36.4626 23.7491C35.8248 23.5631 35.2581 23.4535 34.811 23.4535V48.5052C35.7897 48.5052 36.7737 48.2448 37.5163 47.7219Z" fill="#FAAF41"/>
<path fill-rule="evenodd" clip-rule="evenodd" d="M32.1429 47.7219C32.1429 47.7219 31.8805 47.5385 31.4429 47.2321C31.0033 46.9257 30.3885 46.4975 29.6771 46.0077C25.4481 42.4495 17.2776 40.1792 17.958 33.3685C17.958 33.1412 18.0851 31.8289 18.2819 32.2375C19.644 35.0698 26.6628 40.7001 28.1297 32.5324C28.5605 30.133 29.6656 25.1846 31.1149 24.4926C31.8501 24.1956 32.5588 23.9345 33.1973 23.7491C33.8344 23.5631 34.4018 23.4535 34.8488 23.4535V48.5052C33.8695 48.5052 32.8855 48.2448 32.1429 47.7219Z" fill="#F69420"/>
</svg>
