<svg width="201" height="56" viewBox="0 0 201 56" fill="none" xmlns="http://www.w3.org/2000/svg">
<path d="M47.81 47.05C47.69 47.05 47.5933 47.0133 47.52 46.94C47.4467 46.86 47.4133 46.7567 47.42 46.63L47.89 40.65H45.75C45.6367 40.65 45.5467 40.62 45.48 40.56C45.42 40.4933 45.39 40.41 45.39 40.31C45.39 40.1967 45.4233 40.11 45.49 40.05C45.5567 39.9833 45.6533 39.95 45.78 39.95H50.91C51.03 39.95 51.12 39.98 51.18 40.04C51.24 40.1 51.27 40.1833 51.27 40.29C51.27 40.53 51.14 40.65 50.88 40.65H48.71L48.24 46.66C48.2267 46.7733 48.18 46.8667 48.1 46.94C48.0267 47.0133 47.93 47.05 47.81 47.05ZM54.3066 42.01C54.8532 42.01 55.2699 42.1533 55.5566 42.44C55.8432 42.7267 55.9866 43.1433 55.9866 43.69C55.9866 43.81 55.9832 43.9 55.9766 43.96L55.7666 46.65C55.7532 46.7833 55.7066 46.8833 55.6266 46.95C55.5466 47.0167 55.4499 47.05 55.3366 47.05C55.2099 47.05 55.1099 47.0167 55.0366 46.95C54.9699 46.8833 54.9432 46.7833 54.9566 46.65L55.1666 44.01C55.1732 43.9633 55.1766 43.8933 55.1766 43.8C55.1766 43.06 54.8199 42.69 54.1066 42.69C53.6532 42.69 53.2932 42.8267 53.0266 43.1C52.7599 43.3667 52.6066 43.7367 52.5666 44.21L52.3666 46.65C52.3599 46.7833 52.3166 46.8833 52.2366 46.95C52.1566 47.0167 52.0566 47.05 51.9366 47.05C51.8166 47.05 51.7199 47.0167 51.6466 46.95C51.5799 46.8833 51.5499 46.7833 51.5566 46.65L52.0666 40.26C52.0732 40.1467 52.1199 40.0567 52.2066 39.99C52.2932 39.9233 52.3932 39.89 52.5066 39.89C52.6266 39.89 52.7199 39.9233 52.7866 39.99C52.8532 40.05 52.8832 40.14 52.8766 40.26L52.6666 42.86C52.8399 42.5867 53.0666 42.3767 53.3466 42.23C53.6332 42.0833 53.9532 42.01 54.3066 42.01ZM57.9302 44.69V44.73C57.9302 45.2633 58.0602 45.6767 58.3202 45.97C58.5868 46.2633 58.9702 46.41 59.4702 46.41C59.9968 46.41 60.4602 46.2633 60.8602 45.97C60.9268 45.9233 60.9935 45.9 61.0602 45.9C61.1402 45.9 61.2035 45.93 61.2502 45.99C61.3035 46.05 61.3302 46.12 61.3302 46.2C61.3302 46.32 61.2768 46.43 61.1702 46.53C60.9902 46.69 60.7368 46.82 60.4102 46.92C60.0902 47.02 59.7635 47.07 59.4302 47.07C58.7235 47.07 58.1602 46.8567 57.7402 46.43C57.3268 46.0033 57.1202 45.43 57.1202 44.71C57.1202 44.1767 57.2168 43.7067 57.4102 43.3C57.6102 42.8933 57.8902 42.5767 58.2502 42.35C58.6168 42.1233 59.0402 42.01 59.5202 42.01C60.1735 42.01 60.6735 42.2067 61.0202 42.6C61.3668 42.9867 61.5402 43.55 61.5402 44.29C61.5402 44.4167 61.5068 44.5167 61.4402 44.59C61.3735 44.6567 61.2835 44.69 61.1702 44.69H57.9302ZM59.5502 42.64C59.1035 42.64 58.7468 42.7733 58.4802 43.04C58.2135 43.3 58.0435 43.6767 57.9702 44.17H60.8102C60.8302 43.67 60.7268 43.29 60.5002 43.03C60.2802 42.77 59.9635 42.64 59.5502 42.64ZM67.8017 42.01C68.2151 42.01 68.5784 42.1067 68.8917 42.3C69.2051 42.4933 69.4484 42.7667 69.6217 43.12C69.7951 43.4733 69.8817 43.8867 69.8817 44.36C69.8817 44.9 69.7851 45.3733 69.5917 45.78C69.3984 46.1867 69.1284 46.5033 68.7817 46.73C68.4351 46.9567 68.0384 47.07 67.5917 47.07C67.2117 47.07 66.8784 46.9867 66.5917 46.82C66.3051 46.6533 66.0917 46.42 65.9517 46.12L65.7617 48.49C65.7551 48.61 65.7117 48.7 65.6317 48.76C65.5517 48.8267 65.4517 48.86 65.3317 48.86C65.2117 48.86 65.1151 48.8267 65.0417 48.76C64.9751 48.7 64.9451 48.61 64.9517 48.49L65.4317 42.43C65.4451 42.2967 65.4917 42.1967 65.5717 42.13C65.6517 42.0633 65.7484 42.03 65.8617 42.03C65.9817 42.03 66.0751 42.0667 66.1417 42.14C66.2151 42.2067 66.2484 42.3033 66.2417 42.43L66.2017 42.86C66.3617 42.5933 66.5817 42.3867 66.8617 42.24C67.1484 42.0867 67.4617 42.01 67.8017 42.01ZM67.5117 46.4C67.9917 46.4 68.3684 46.22 68.6417 45.86C68.9151 45.5 69.0517 45.01 69.0517 44.39C69.0517 43.85 68.9251 43.43 68.6717 43.13C68.4184 42.83 68.0617 42.68 67.6017 42.68C67.1217 42.68 66.7451 42.8633 66.4717 43.23C66.1984 43.59 66.0617 44.0867 66.0617 44.72C66.0617 45.2667 66.1851 45.6833 66.4317 45.97C66.6851 46.2567 67.0451 46.4 67.5117 46.4ZM73.052 47.07C72.5987 47.07 72.1987 46.9733 71.852 46.78C71.512 46.5867 71.2487 46.3133 71.062 45.96C70.882 45.6 70.792 45.1833 70.792 44.71C70.792 44.17 70.8887 43.6967 71.082 43.29C71.282 42.8833 71.5587 42.57 71.912 42.35C72.272 42.1233 72.6887 42.01 73.162 42.01C73.622 42.01 74.022 42.1067 74.362 42.3C74.702 42.4933 74.9654 42.77 75.152 43.13C75.3387 43.49 75.432 43.9067 75.432 44.38C75.432 44.92 75.332 45.3933 75.132 45.8C74.9387 46.2067 74.662 46.52 74.302 46.74C73.942 46.96 73.5254 47.07 73.052 47.07ZM73.062 46.4C73.5487 46.4 73.9254 46.2167 74.192 45.85C74.4654 45.4833 74.602 44.9833 74.602 44.35C74.602 43.8167 74.4754 43.4067 74.222 43.12C73.9754 42.8267 73.622 42.68 73.162 42.68C72.6754 42.68 72.2954 42.8667 72.022 43.24C71.7487 43.6133 71.612 44.1133 71.612 44.74C71.612 45.28 71.7354 45.6933 71.982 45.98C72.2287 46.26 72.5887 46.4 73.062 46.4ZM83.2803 42.31C83.3603 42.1567 83.4803 42.08 83.6403 42.08C83.747 42.08 83.837 42.1133 83.9103 42.18C83.9903 42.2467 84.0303 42.33 84.0303 42.43C84.0303 42.49 84.017 42.5467 83.9903 42.6L82.1003 46.74C82.0536 46.8333 81.987 46.9067 81.9003 46.96C81.8136 47.0133 81.717 47.04 81.6103 47.04C81.497 47.04 81.397 47.0133 81.3103 46.96C81.2236 46.9 81.1636 46.8133 81.1303 46.7L80.1203 43.24L78.5703 46.74C78.5303 46.8333 78.467 46.9067 78.3803 46.96C78.2936 47.0133 78.197 47.04 78.0903 47.04C77.977 47.04 77.8736 47.01 77.7803 46.95C77.6936 46.89 77.6336 46.8067 77.6003 46.7L76.3803 42.58C76.367 42.5133 76.3603 42.47 76.3603 42.45C76.3603 42.3367 76.4003 42.2467 76.4803 42.18C76.567 42.1067 76.6636 42.07 76.7703 42.07C76.9503 42.07 77.0703 42.16 77.1303 42.34L78.1603 46.04L79.7603 42.4C79.807 42.2933 79.8736 42.2133 79.9603 42.16C80.047 42.1 80.1336 42.07 80.2203 42.07C80.3136 42.07 80.4003 42.1 80.4803 42.16C80.5603 42.22 80.6136 42.3 80.6403 42.4L81.6603 46.03L83.2803 42.31ZM85.4497 44.69V44.73C85.4497 45.2633 85.5797 45.6767 85.8397 45.97C86.1064 46.2633 86.4897 46.41 86.9897 46.41C87.5164 46.41 87.9797 46.2633 88.3797 45.97C88.4464 45.9233 88.513 45.9 88.5797 45.9C88.6597 45.9 88.723 45.93 88.7697 45.99C88.823 46.05 88.8497 46.12 88.8497 46.2C88.8497 46.32 88.7964 46.43 88.6897 46.53C88.5097 46.69 88.2564 46.82 87.9297 46.92C87.6097 47.02 87.283 47.07 86.9497 47.07C86.243 47.07 85.6797 46.8567 85.2597 46.43C84.8464 46.0033 84.6397 45.43 84.6397 44.71C84.6397 44.1767 84.7364 43.7067 84.9297 43.3C85.1297 42.8933 85.4097 42.5767 85.7697 42.35C86.1364 42.1233 86.5597 42.01 87.0397 42.01C87.693 42.01 88.193 42.2067 88.5397 42.6C88.8864 42.9867 89.0597 43.55 89.0597 44.29C89.0597 44.4167 89.0264 44.5167 88.9597 44.59C88.893 44.6567 88.803 44.69 88.6897 44.69H85.4497ZM87.0697 42.64C86.623 42.64 86.2664 42.7733 85.9997 43.04C85.733 43.3 85.563 43.6767 85.4897 44.17H88.3297C88.3497 43.67 88.2464 43.29 88.0197 43.03C87.7997 42.77 87.483 42.64 87.0697 42.64ZM92.8531 42.03C92.9665 42.0167 93.0531 42.04 93.1131 42.1C93.1798 42.1533 93.2131 42.2333 93.2131 42.34C93.2131 42.58 93.0831 42.71 92.8231 42.73L92.5531 42.76C92.0665 42.8067 91.6998 42.95 91.4531 43.19C91.2131 43.43 91.0765 43.7733 91.0431 44.22L90.8431 46.65C90.8365 46.7833 90.7898 46.8833 90.7031 46.95C90.6231 47.0167 90.5265 47.05 90.4131 47.05C90.2998 47.05 90.2065 47.0167 90.1331 46.95C90.0598 46.8833 90.0265 46.7833 90.0331 46.65L90.3831 42.41C90.3898 42.29 90.4331 42.1967 90.5131 42.13C90.5998 42.0633 90.6998 42.03 90.8131 42.03C90.9265 42.03 91.0131 42.0633 91.0731 42.13C91.1398 42.19 91.1698 42.28 91.1631 42.4L91.1231 42.92C91.2965 42.6467 91.5165 42.44 91.7831 42.3C92.0498 42.16 92.3698 42.0733 92.7431 42.04L92.8531 42.03ZM98.2766 47.07C97.8233 47.07 97.4233 46.9733 97.0766 46.78C96.7366 46.5867 96.4733 46.3133 96.2866 45.96C96.1066 45.6 96.0166 45.1833 96.0166 44.71C96.0166 44.17 96.1133 43.6967 96.3066 43.29C96.5066 42.8833 96.7833 42.57 97.1366 42.35C97.4966 42.1233 97.9133 42.01 98.3866 42.01C98.8466 42.01 99.2466 42.1067 99.5866 42.3C99.9266 42.4933 100.19 42.77 100.377 43.13C100.563 43.49 100.657 43.9067 100.657 44.38C100.657 44.92 100.557 45.3933 100.357 45.8C100.163 46.2067 99.8866 46.52 99.5266 46.74C99.1666 46.96 98.75 47.07 98.2766 47.07ZM98.2866 46.4C98.7733 46.4 99.15 46.2167 99.4166 45.85C99.69 45.4833 99.8266 44.9833 99.8266 44.35C99.8266 43.8167 99.7 43.4067 99.4466 43.12C99.2 42.8267 98.8466 42.68 98.3866 42.68C97.9 42.68 97.52 42.8667 97.2466 43.24C96.9733 43.6133 96.8366 44.1133 96.8366 44.74C96.8366 45.28 96.96 45.6933 97.2066 45.98C97.4533 46.26 97.8133 46.4 98.2866 46.4ZM104.544 39.94C104.677 39.9267 104.777 39.9467 104.844 40C104.917 40.0467 104.954 40.1233 104.954 40.23C104.954 40.4367 104.84 40.55 104.614 40.57L104.324 40.59C103.944 40.6167 103.66 40.7333 103.474 40.94C103.287 41.14 103.177 41.4433 103.144 41.85L103.124 42.13H104.214C104.32 42.13 104.4 42.16 104.454 42.22C104.514 42.2733 104.544 42.3467 104.544 42.44C104.544 42.54 104.514 42.62 104.454 42.68C104.394 42.74 104.307 42.77 104.194 42.77H103.074L102.764 46.66C102.757 46.7867 102.714 46.8833 102.634 46.95C102.554 47.0167 102.457 47.05 102.344 47.05C102.23 47.05 102.134 47.0167 102.054 46.95C101.98 46.8833 101.947 46.7867 101.954 46.66L102.264 42.77H101.594C101.487 42.77 101.404 42.7433 101.344 42.69C101.29 42.63 101.264 42.5533 101.264 42.46C101.264 42.36 101.294 42.28 101.354 42.22C101.414 42.16 101.504 42.13 101.624 42.13H102.314L102.324 41.95C102.37 41.3033 102.56 40.82 102.894 40.5C103.227 40.1733 103.71 39.99 104.344 39.95L104.544 39.94ZM108.733 45.24C108.726 45.2867 108.723 45.3533 108.723 45.44C108.723 45.76 108.796 46.0033 108.943 46.17C109.09 46.3367 109.296 46.42 109.563 46.42C109.65 46.42 109.733 46.4167 109.813 46.41C109.893 46.3967 109.953 46.39 109.993 46.39C110.06 46.39 110.113 46.4167 110.153 46.47C110.2 46.5233 110.223 46.5967 110.223 46.69C110.223 46.83 110.163 46.93 110.043 46.99C109.93 47.0433 109.726 47.07 109.433 47.07C108.953 47.07 108.58 46.9333 108.313 46.66C108.046 46.3867 107.913 46 107.913 45.5C107.913 45.4067 107.916 45.3333 107.923 45.28L108.113 42.77H107.453C107.346 42.77 107.263 42.7433 107.203 42.69C107.15 42.63 107.123 42.5533 107.123 42.46C107.123 42.3533 107.153 42.2733 107.213 42.22C107.28 42.16 107.37 42.13 107.483 42.13H108.163L108.253 40.99C108.266 40.8767 108.31 40.7867 108.383 40.72C108.463 40.6467 108.563 40.61 108.683 40.61C108.81 40.61 108.906 40.6467 108.973 40.72C109.046 40.7933 109.076 40.89 109.063 41.01L108.973 42.13H110.073C110.173 42.13 110.253 42.16 110.313 42.22C110.373 42.2733 110.403 42.3467 110.403 42.44C110.403 42.5467 110.373 42.63 110.313 42.69C110.253 42.7433 110.166 42.77 110.053 42.77H108.923L108.733 45.24ZM113.752 42.03C113.865 42.0167 113.952 42.04 114.012 42.1C114.078 42.1533 114.112 42.2333 114.112 42.34C114.112 42.58 113.982 42.71 113.722 42.73L113.452 42.76C112.965 42.8067 112.598 42.95 112.352 43.19C112.112 43.43 111.975 43.7733 111.942 44.22L111.742 46.65C111.735 46.7833 111.688 46.8833 111.602 46.95C111.522 47.0167 111.425 47.05 111.312 47.05C111.198 47.05 111.105 47.0167 111.032 46.95C110.958 46.8833 110.925 46.7833 110.932 46.65L111.282 42.41C111.288 42.29 111.332 42.1967 111.412 42.13C111.498 42.0633 111.598 42.03 111.712 42.03C111.825 42.03 111.912 42.0633 111.972 42.13C112.038 42.19 112.068 42.28 112.062 42.4L112.022 42.92C112.195 42.6467 112.415 42.44 112.682 42.3C112.948 42.16 113.268 42.0733 113.642 42.04L113.752 42.03ZM118.527 42.03C118.647 42.03 118.74 42.0667 118.807 42.14C118.88 42.2067 118.91 42.3033 118.897 42.43L118.557 46.68C118.55 46.7933 118.504 46.8833 118.417 46.95C118.337 47.0167 118.24 47.05 118.127 47.05C118.014 47.05 117.924 47.02 117.857 46.96C117.79 46.8933 117.76 46.8033 117.767 46.69L117.807 46.21C117.64 46.4833 117.417 46.6967 117.137 46.85C116.857 46.9967 116.544 47.07 116.197 47.07C115.657 47.07 115.247 46.93 114.967 46.65C114.687 46.3633 114.547 45.9467 114.547 45.4C114.547 45.28 114.55 45.19 114.557 45.13L114.767 42.43C114.78 42.3033 114.827 42.2067 114.907 42.14C114.994 42.0667 115.094 42.03 115.207 42.03C115.327 42.03 115.42 42.0667 115.487 42.14C115.56 42.2067 115.59 42.3033 115.577 42.43L115.367 45.08C115.36 45.1267 115.357 45.1967 115.357 45.29C115.357 46.0233 115.707 46.39 116.407 46.39C116.84 46.39 117.187 46.2567 117.447 45.99C117.707 45.7233 117.854 45.3533 117.887 44.88L118.087 42.43C118.1 42.3033 118.147 42.2067 118.227 42.14C118.314 42.0667 118.414 42.03 118.527 42.03ZM121.722 47.07C121.389 47.07 121.066 47.0233 120.752 46.93C120.446 46.8367 120.192 46.7167 119.992 46.57C119.859 46.4833 119.792 46.3667 119.792 46.22C119.792 46.1267 119.819 46.05 119.872 45.99C119.932 45.9233 120.006 45.89 120.092 45.89C120.152 45.89 120.216 45.91 120.282 45.95C120.516 46.1033 120.752 46.22 120.992 46.3C121.232 46.38 121.492 46.42 121.772 46.42C122.552 46.42 122.942 46.18 122.942 45.7C122.942 45.48 122.849 45.3167 122.662 45.21C122.476 45.1033 122.182 44.99 121.782 44.87C121.436 44.77 121.156 44.6733 120.942 44.58C120.736 44.4867 120.556 44.3533 120.402 44.18C120.256 44 120.182 43.7633 120.182 43.47C120.182 43.03 120.359 42.6767 120.712 42.41C121.072 42.1433 121.546 42.01 122.132 42.01C122.439 42.01 122.736 42.06 123.022 42.16C123.309 42.26 123.539 42.39 123.712 42.55C123.812 42.6233 123.862 42.7233 123.862 42.85C123.862 42.9367 123.832 43.0133 123.772 43.08C123.719 43.1467 123.652 43.18 123.572 43.18C123.499 43.18 123.422 43.15 123.342 43.09C122.962 42.81 122.552 42.67 122.112 42.67C121.746 42.67 121.462 42.7333 121.262 42.86C121.069 42.9867 120.972 43.1767 120.972 43.43C120.972 43.65 121.066 43.8133 121.252 43.92C121.446 44.0267 121.736 44.1367 122.122 44.25C122.462 44.35 122.739 44.4467 122.952 44.54C123.166 44.6333 123.346 44.77 123.492 44.95C123.646 45.13 123.722 45.3667 123.722 45.66C123.722 46.0933 123.542 46.4367 123.182 46.69C122.822 46.9433 122.336 47.07 121.722 47.07ZM126.018 45.24C126.012 45.2867 126.008 45.3533 126.008 45.44C126.008 45.76 126.082 46.0033 126.228 46.17C126.375 46.3367 126.582 46.42 126.848 46.42C126.935 46.42 127.018 46.4167 127.098 46.41C127.178 46.3967 127.238 46.39 127.278 46.39C127.345 46.39 127.398 46.4167 127.438 46.47C127.485 46.5233 127.508 46.5967 127.508 46.69C127.508 46.83 127.448 46.93 127.328 46.99C127.215 47.0433 127.012 47.07 126.718 47.07C126.238 47.07 125.865 46.9333 125.598 46.66C125.332 46.3867 125.198 46 125.198 45.5C125.198 45.4067 125.202 45.3333 125.208 45.28L125.398 42.77H124.738C124.632 42.77 124.548 42.7433 124.488 42.69C124.435 42.63 124.408 42.5533 124.408 42.46C124.408 42.3533 124.438 42.2733 124.498 42.22C124.565 42.16 124.655 42.13 124.768 42.13H125.448L125.538 40.99C125.552 40.8767 125.595 40.7867 125.668 40.72C125.748 40.6467 125.848 40.61 125.968 40.61C126.095 40.61 126.192 40.6467 126.258 40.72C126.332 40.7933 126.362 40.89 126.348 41.01L126.258 42.13H127.358C127.458 42.13 127.538 42.16 127.598 42.22C127.658 42.2733 127.688 42.3467 127.688 42.44C127.688 42.5467 127.658 42.63 127.598 42.69C127.538 42.7433 127.452 42.77 127.338 42.77H126.208L126.018 45.24ZM128.907 44.69V44.73C128.907 45.2633 129.037 45.6767 129.297 45.97C129.563 46.2633 129.947 46.41 130.447 46.41C130.973 46.41 131.437 46.2633 131.837 45.97C131.903 45.9233 131.97 45.9 132.037 45.9C132.117 45.9 132.18 45.93 132.227 45.99C132.28 46.05 132.307 46.12 132.307 46.2C132.307 46.32 132.253 46.43 132.147 46.53C131.967 46.69 131.713 46.82 131.387 46.92C131.067 47.02 130.74 47.07 130.407 47.07C129.7 47.07 129.137 46.8567 128.717 46.43C128.303 46.0033 128.097 45.43 128.097 44.71C128.097 44.1767 128.193 43.7067 128.387 43.3C128.587 42.8933 128.867 42.5767 129.227 42.35C129.593 42.1233 130.017 42.01 130.497 42.01C131.15 42.01 131.65 42.2067 131.997 42.6C132.343 42.9867 132.517 43.55 132.517 44.29C132.517 44.4167 132.483 44.5167 132.417 44.59C132.35 44.6567 132.26 44.69 132.147 44.69H128.907ZM130.527 42.64C130.08 42.64 129.723 42.7733 129.457 43.04C129.19 43.3 129.02 43.6767 128.947 44.17H131.787C131.807 43.67 131.703 43.29 131.477 43.03C131.257 42.77 130.94 42.64 130.527 42.64ZM137.93 39.89C138.05 39.89 138.143 39.9233 138.21 39.99C138.283 40.0567 138.317 40.1467 138.31 40.26L137.81 46.65C137.803 46.7767 137.757 46.8767 137.67 46.95C137.59 47.0167 137.493 47.05 137.38 47.05C137.267 47.05 137.173 47.0167 137.1 46.95C137.033 46.8767 137.003 46.7767 137.01 46.65L137.05 46.22C136.883 46.4867 136.657 46.6967 136.37 46.85C136.083 46.9967 135.773 47.07 135.44 47.07C135.033 47.07 134.673 46.9767 134.36 46.79C134.047 46.5967 133.803 46.3233 133.63 45.97C133.457 45.6167 133.37 45.2033 133.37 44.73C133.37 44.19 133.463 43.7167 133.65 43.31C133.843 42.8967 134.113 42.5767 134.46 42.35C134.807 42.1233 135.207 42.01 135.66 42.01C136.04 42.01 136.37 42.0933 136.65 42.26C136.937 42.4267 137.15 42.6567 137.29 42.95L137.5 40.26C137.507 40.1467 137.55 40.0567 137.63 39.99C137.717 39.9233 137.817 39.89 137.93 39.89ZM135.65 46.4C136.13 46.4 136.507 46.22 136.78 45.86C137.053 45.4933 137.19 44.9967 137.19 44.37C137.19 43.8233 137.063 43.4067 136.81 43.12C136.563 42.8267 136.203 42.68 135.73 42.68C135.257 42.68 134.88 42.86 134.6 43.22C134.327 43.58 134.19 44.0733 134.19 44.7C134.19 45.24 134.317 45.66 134.57 45.96C134.83 46.2533 135.19 46.4 135.65 46.4ZM144.709 42.03C144.822 42.0167 144.909 42.04 144.969 42.1C145.035 42.1533 145.069 42.2333 145.069 42.34C145.069 42.58 144.939 42.71 144.679 42.73L144.409 42.76C143.922 42.8067 143.555 42.95 143.309 43.19C143.069 43.43 142.932 43.7733 142.899 44.22L142.699 46.65C142.692 46.7833 142.645 46.8833 142.559 46.95C142.479 47.0167 142.382 47.05 142.269 47.05C142.155 47.05 142.062 47.0167 141.989 46.95C141.915 46.8833 141.882 46.7833 141.889 46.65L142.239 42.41C142.245 42.29 142.289 42.1967 142.369 42.13C142.455 42.0633 142.555 42.03 142.669 42.03C142.782 42.03 142.869 42.0633 142.929 42.13C142.995 42.19 143.025 42.28 143.019 42.4L142.979 42.92C143.152 42.6467 143.372 42.44 143.639 42.3C143.905 42.16 144.225 42.0733 144.599 42.04L144.709 42.03ZM146.006 44.69V44.73C146.006 45.2633 146.136 45.6767 146.396 45.97C146.663 46.2633 147.046 46.41 147.546 46.41C148.073 46.41 148.536 46.2633 148.936 45.97C149.003 45.9233 149.07 45.9 149.136 45.9C149.216 45.9 149.28 45.93 149.326 45.99C149.38 46.05 149.406 46.12 149.406 46.2C149.406 46.32 149.353 46.43 149.246 46.53C149.066 46.69 148.813 46.82 148.486 46.92C148.166 47.02 147.84 47.07 147.506 47.07C146.8 47.07 146.236 46.8567 145.816 46.43C145.403 46.0033 145.196 45.43 145.196 44.71C145.196 44.1767 145.293 43.7067 145.486 43.3C145.686 42.8933 145.966 42.5767 146.326 42.35C146.693 42.1233 147.116 42.01 147.596 42.01C148.25 42.01 148.75 42.2067 149.096 42.6C149.443 42.9867 149.616 43.55 149.616 44.29C149.616 44.4167 149.583 44.5167 149.516 44.59C149.45 44.6567 149.36 44.69 149.246 44.69H146.006ZM147.626 42.64C147.18 42.64 146.823 42.7733 146.556 43.04C146.29 43.3 146.12 43.6767 146.046 44.17H148.886C148.906 43.67 148.803 43.29 148.576 43.03C148.356 42.77 148.04 42.64 147.626 42.64ZM150.97 47.05C150.856 47.05 150.763 47.0167 150.69 46.95C150.616 46.8833 150.583 46.7833 150.59 46.65L151.1 40.27C151.106 40.1433 151.153 40.05 151.24 39.99C151.326 39.9233 151.426 39.89 151.54 39.89C151.653 39.89 151.743 39.9233 151.81 39.99C151.883 40.05 151.916 40.1433 151.91 40.27L151.4 46.65C151.393 46.7833 151.346 46.8833 151.26 46.95C151.18 47.0167 151.083 47.05 150.97 47.05ZM155.204 42.01C156.377 42.01 156.964 42.5667 156.964 43.68C156.964 43.8 156.961 43.89 156.954 43.95L156.744 46.68C156.737 46.8 156.697 46.8933 156.624 46.96C156.551 47.02 156.457 47.05 156.344 47.05C156.224 47.05 156.127 47.0133 156.054 46.94C155.981 46.86 155.951 46.7633 155.964 46.65L155.994 46.21C155.847 46.4833 155.644 46.6967 155.384 46.85C155.131 46.9967 154.837 47.07 154.504 47.07C154.017 47.07 153.617 46.94 153.304 46.68C152.997 46.4133 152.844 46.0767 152.844 45.67C152.844 45.3033 152.941 45.0133 153.134 44.8C153.327 44.58 153.637 44.42 154.064 44.32C154.491 44.22 155.067 44.17 155.794 44.17H156.154L156.174 43.88L156.184 43.69C156.184 43.3433 156.097 43.09 155.924 42.93C155.757 42.7633 155.497 42.68 155.144 42.68C154.664 42.68 154.147 42.8433 153.594 43.17C153.527 43.2033 153.474 43.22 153.434 43.22C153.354 43.22 153.287 43.19 153.234 43.13C153.181 43.0633 153.154 42.9867 153.154 42.9C153.154 42.7533 153.217 42.64 153.344 42.56C153.584 42.3933 153.871 42.26 154.204 42.16C154.544 42.06 154.877 42.01 155.204 42.01ZM154.674 46.43C155.054 46.43 155.377 46.2967 155.644 46.03C155.911 45.7633 156.057 45.42 156.084 45L156.104 44.69H155.824C155.271 44.69 154.837 44.72 154.524 44.78C154.217 44.8333 153.997 44.9267 153.864 45.06C153.731 45.1867 153.664 45.3667 153.664 45.6C153.664 45.8533 153.754 46.0567 153.934 46.21C154.114 46.3567 154.361 46.43 154.674 46.43ZM159.417 45.24C159.41 45.2867 159.407 45.3533 159.407 45.44C159.407 45.76 159.48 46.0033 159.627 46.17C159.773 46.3367 159.98 46.42 160.247 46.42C160.333 46.42 160.417 46.4167 160.497 46.41C160.577 46.3967 160.637 46.39 160.677 46.39C160.743 46.39 160.797 46.4167 160.837 46.47C160.883 46.5233 160.907 46.5967 160.907 46.69C160.907 46.83 160.847 46.93 160.727 46.99C160.613 47.0433 160.41 47.07 160.117 47.07C159.637 47.07 159.263 46.9333 158.997 46.66C158.73 46.3867 158.597 46 158.597 45.5C158.597 45.4067 158.6 45.3333 158.607 45.28L158.797 42.77H158.137C158.03 42.77 157.947 42.7433 157.887 42.69C157.833 42.63 157.807 42.5533 157.807 42.46C157.807 42.3533 157.837 42.2733 157.897 42.22C157.963 42.16 158.053 42.13 158.167 42.13H158.847L158.937 40.99C158.95 40.8767 158.993 40.7867 159.067 40.72C159.147 40.6467 159.247 40.61 159.367 40.61C159.493 40.61 159.59 40.6467 159.657 40.72C159.73 40.7933 159.76 40.89 159.747 41.01L159.657 42.13H160.757C160.857 42.13 160.937 42.16 160.997 42.22C161.057 42.2733 161.087 42.3467 161.087 42.44C161.087 42.5467 161.057 42.63 160.997 42.69C160.937 42.7433 160.85 42.77 160.737 42.77H159.607L159.417 45.24ZM161.995 47.05C161.882 47.05 161.788 47.0167 161.715 46.95C161.642 46.8833 161.608 46.7833 161.615 46.65L161.965 42.41C161.972 42.2833 162.015 42.19 162.095 42.13C162.182 42.0633 162.282 42.03 162.395 42.03C162.508 42.03 162.602 42.0633 162.675 42.13C162.748 42.19 162.782 42.2833 162.775 42.41L162.425 46.65C162.418 46.7833 162.372 46.8833 162.285 46.95C162.205 47.0167 162.108 47.05 161.995 47.05ZM162.525 40.98C162.365 40.98 162.235 40.9333 162.135 40.84C162.035 40.7467 161.985 40.6233 161.985 40.47C161.985 40.3233 162.035 40.2033 162.135 40.11C162.235 40.0167 162.365 39.97 162.525 39.97C162.685 39.97 162.815 40.0167 162.915 40.11C163.015 40.2033 163.065 40.3233 163.065 40.47C163.065 40.6233 163.015 40.7467 162.915 40.84C162.815 40.9333 162.685 40.98 162.525 40.98ZM166.079 47.07C165.626 47.07 165.226 46.9733 164.879 46.78C164.539 46.5867 164.276 46.3133 164.089 45.96C163.909 45.6 163.819 45.1833 163.819 44.71C163.819 44.17 163.916 43.6967 164.109 43.29C164.309 42.8833 164.586 42.57 164.939 42.35C165.299 42.1233 165.716 42.01 166.189 42.01C166.649 42.01 167.049 42.1067 167.389 42.3C167.729 42.4933 167.993 42.77 168.179 43.13C168.366 43.49 168.459 43.9067 168.459 44.38C168.459 44.92 168.359 45.3933 168.159 45.8C167.966 46.2067 167.689 46.52 167.329 46.74C166.969 46.96 166.553 47.07 166.079 47.07ZM166.089 46.4C166.576 46.4 166.953 46.2167 167.219 45.85C167.493 45.4833 167.629 44.9833 167.629 44.35C167.629 43.8167 167.503 43.4067 167.249 43.12C167.003 42.8267 166.649 42.68 166.189 42.68C165.703 42.68 165.323 42.8667 165.049 43.24C164.776 43.6133 164.639 44.1133 164.639 44.74C164.639 45.28 164.763 45.6933 165.009 45.98C165.256 46.26 165.616 46.4 166.089 46.4ZM172.236 42.01C172.783 42.01 173.2 42.1533 173.486 42.44C173.773 42.7267 173.916 43.1433 173.916 43.69C173.916 43.81 173.913 43.9 173.906 43.96L173.696 46.65C173.683 46.7833 173.636 46.8833 173.556 46.95C173.476 47.0167 173.38 47.05 173.266 47.05C173.14 47.05 173.04 47.0167 172.966 46.95C172.9 46.8833 172.873 46.7833 172.886 46.65L173.096 44.01C173.103 43.9633 173.106 43.8933 173.106 43.8C173.106 43.06 172.75 42.69 172.036 42.69C171.583 42.69 171.223 42.8267 170.956 43.1C170.69 43.3667 170.536 43.7367 170.496 44.21L170.296 46.65C170.29 46.7833 170.246 46.8833 170.166 46.95C170.086 47.0167 169.986 47.05 169.866 47.05C169.746 47.05 169.65 47.0167 169.576 46.95C169.51 46.8833 169.48 46.7833 169.486 46.65L169.836 42.41C169.843 42.29 169.886 42.1967 169.966 42.13C170.053 42.0633 170.153 42.03 170.266 42.03C170.38 42.03 170.47 42.0633 170.536 42.13C170.603 42.1967 170.633 42.2867 170.626 42.4L170.586 42.88C170.753 42.6067 170.98 42.3933 171.266 42.24C171.553 42.0867 171.876 42.01 172.236 42.01ZM176.83 47.07C176.497 47.07 176.173 47.0233 175.86 46.93C175.553 46.8367 175.3 46.7167 175.1 46.57C174.967 46.4833 174.9 46.3667 174.9 46.22C174.9 46.1267 174.927 46.05 174.98 45.99C175.04 45.9233 175.113 45.89 175.2 45.89C175.26 45.89 175.323 45.91 175.39 45.95C175.623 46.1033 175.86 46.22 176.1 46.3C176.34 46.38 176.6 46.42 176.88 46.42C177.66 46.42 178.05 46.18 178.05 45.7C178.05 45.48 177.957 45.3167 177.77 45.21C177.583 45.1033 177.29 44.99 176.89 44.87C176.543 44.77 176.263 44.6733 176.05 44.58C175.843 44.4867 175.663 44.3533 175.51 44.18C175.363 44 175.29 43.7633 175.29 43.47C175.29 43.03 175.467 42.6767 175.82 42.41C176.18 42.1433 176.653 42.01 177.24 42.01C177.547 42.01 177.843 42.06 178.13 42.16C178.417 42.26 178.647 42.39 178.82 42.55C178.92 42.6233 178.97 42.7233 178.97 42.85C178.97 42.9367 178.94 43.0133 178.88 43.08C178.827 43.1467 178.76 43.18 178.68 43.18C178.607 43.18 178.53 43.15 178.45 43.09C178.07 42.81 177.66 42.67 177.22 42.67C176.853 42.67 176.57 42.7333 176.37 42.86C176.177 42.9867 176.08 43.1767 176.08 43.43C176.08 43.65 176.173 43.8133 176.36 43.92C176.553 44.0267 176.843 44.1367 177.23 44.25C177.57 44.35 177.847 44.4467 178.06 44.54C178.273 44.6333 178.453 44.77 178.6 44.95C178.753 45.13 178.83 45.3667 178.83 45.66C178.83 46.0933 178.65 46.4367 178.29 46.69C177.93 46.9433 177.443 47.07 176.83 47.07ZM182.725 42.01C183.271 42.01 183.688 42.1533 183.975 42.44C184.261 42.7267 184.405 43.1433 184.405 43.69C184.405 43.81 184.401 43.9 184.395 43.96L184.185 46.65C184.171 46.7833 184.125 46.8833 184.045 46.95C183.965 47.0167 183.868 47.05 183.755 47.05C183.628 47.05 183.528 47.0167 183.455 46.95C183.388 46.8833 183.361 46.7833 183.375 46.65L183.585 44.01C183.591 43.9633 183.595 43.8933 183.595 43.8C183.595 43.06 183.238 42.69 182.525 42.69C182.071 42.69 181.711 42.8267 181.445 43.1C181.178 43.3667 181.025 43.7367 180.985 44.21L180.785 46.65C180.778 46.7833 180.735 46.8833 180.655 46.95C180.575 47.0167 180.475 47.05 180.355 47.05C180.235 47.05 180.138 47.0167 180.065 46.95C179.998 46.8833 179.968 46.7833 179.975 46.65L180.485 40.26C180.491 40.1467 180.538 40.0567 180.625 39.99C180.711 39.9233 180.811 39.89 180.925 39.89C181.045 39.89 181.138 39.9233 181.205 39.99C181.271 40.05 181.301 40.14 181.295 40.26L181.085 42.86C181.258 42.5867 181.485 42.3767 181.765 42.23C182.051 42.0833 182.371 42.01 182.725 42.01ZM186.038 47.05C185.925 47.05 185.831 47.0167 185.758 46.95C185.685 46.8833 185.651 46.7833 185.658 46.65L186.008 42.41C186.015 42.2833 186.058 42.19 186.138 42.13C186.225 42.0633 186.325 42.03 186.438 42.03C186.551 42.03 186.645 42.0633 186.718 42.13C186.791 42.19 186.825 42.2833 186.818 42.41L186.468 46.65C186.461 46.7833 186.415 46.8833 186.328 46.95C186.248 47.0167 186.151 47.05 186.038 47.05ZM186.568 40.98C186.408 40.98 186.278 40.9333 186.178 40.84C186.078 40.7467 186.028 40.6233 186.028 40.47C186.028 40.3233 186.078 40.2033 186.178 40.11C186.278 40.0167 186.408 39.97 186.568 39.97C186.728 39.97 186.858 40.0167 186.958 40.11C187.058 40.2033 187.108 40.3233 187.108 40.47C187.108 40.6233 187.058 40.7467 186.958 40.84C186.858 40.9333 186.728 40.98 186.568 40.98ZM190.692 42.01C191.106 42.01 191.469 42.1067 191.782 42.3C192.096 42.4933 192.339 42.7667 192.512 43.12C192.686 43.4733 192.772 43.8867 192.772 44.36C192.772 44.9 192.676 45.3733 192.482 45.78C192.289 46.1867 192.019 46.5033 191.672 46.73C191.326 46.9567 190.929 47.07 190.482 47.07C190.102 47.07 189.769 46.9867 189.482 46.82C189.196 46.6533 188.982 46.42 188.842 46.12L188.652 48.49C188.646 48.61 188.602 48.7 188.522 48.76C188.442 48.8267 188.342 48.86 188.222 48.86C188.102 48.86 188.006 48.8267 187.932 48.76C187.866 48.7 187.836 48.61 187.842 48.49L188.322 42.43C188.336 42.2967 188.382 42.1967 188.462 42.13C188.542 42.0633 188.639 42.03 188.752 42.03C188.872 42.03 188.966 42.0667 189.032 42.14C189.106 42.2067 189.139 42.3033 189.132 42.43L189.092 42.86C189.252 42.5933 189.472 42.3867 189.752 42.24C190.039 42.0867 190.352 42.01 190.692 42.01ZM190.402 46.4C190.882 46.4 191.259 46.22 191.532 45.86C191.806 45.5 191.942 45.01 191.942 44.39C191.942 43.85 191.816 43.43 191.562 43.13C191.309 42.83 190.952 42.68 190.492 42.68C190.012 42.68 189.636 42.8633 189.362 43.23C189.089 43.59 188.952 44.0867 188.952 44.72C188.952 45.2667 189.076 45.6833 189.322 45.97C189.576 46.2567 189.936 46.4 190.402 46.4ZM195.463 47.07C195.129 47.07 194.806 47.0233 194.493 46.93C194.186 46.8367 193.933 46.7167 193.733 46.57C193.599 46.4833 193.533 46.3667 193.533 46.22C193.533 46.1267 193.559 46.05 193.613 45.99C193.673 45.9233 193.746 45.89 193.833 45.89C193.893 45.89 193.956 45.91 194.023 45.95C194.256 46.1033 194.493 46.22 194.733 46.3C194.973 46.38 195.233 46.42 195.513 46.42C196.293 46.42 196.683 46.18 196.683 45.7C196.683 45.48 196.589 45.3167 196.403 45.21C196.216 45.1033 195.923 44.99 195.523 44.87C195.176 44.77 194.896 44.6733 194.683 44.58C194.476 44.4867 194.296 44.3533 194.143 44.18C193.996 44 193.923 43.7633 193.923 43.47C193.923 43.03 194.099 42.6767 194.453 42.41C194.813 42.1433 195.286 42.01 195.873 42.01C196.179 42.01 196.476 42.06 196.763 42.16C197.049 42.26 197.279 42.39 197.453 42.55C197.553 42.6233 197.603 42.7233 197.603 42.85C197.603 42.9367 197.573 43.0133 197.513 43.08C197.459 43.1467 197.393 43.18 197.313 43.18C197.239 43.18 197.163 43.15 197.083 43.09C196.703 42.81 196.293 42.67 195.853 42.67C195.486 42.67 195.203 42.7333 195.003 42.86C194.809 42.9867 194.713 43.1767 194.713 43.43C194.713 43.65 194.806 43.8133 194.993 43.92C195.186 44.0267 195.476 44.1367 195.863 44.25C196.203 44.35 196.479 44.4467 196.693 44.54C196.906 44.6333 197.086 44.77 197.233 44.95C197.386 45.13 197.463 45.3667 197.463 45.66C197.463 46.0933 197.283 46.4367 196.923 46.69C196.563 46.9433 196.076 47.07 195.463 47.07Z" fill="white"/>
<path d="M57.441 26.274C58.5237 26.274 59.065 26.7283 59.065 27.637C59.065 28.0623 58.9297 28.4007 58.659 28.652C58.3883 28.884 57.9823 29 57.441 29H47.755C47.2717 29 46.8753 28.8453 46.566 28.536C46.2567 28.2267 46.102 27.8593 46.102 27.434C46.102 26.9893 46.276 26.564 46.624 26.158L54.077 17.545H47.61C47.0687 17.545 46.6627 17.429 46.392 17.197C46.1213 16.965 45.986 16.6267 45.986 16.182C45.986 15.7373 46.1213 15.399 46.392 15.167C46.6627 14.935 47.0687 14.819 47.61 14.819H56.977C57.4797 14.819 57.876 14.9737 58.166 15.283C58.4753 15.573 58.63 15.9403 58.63 16.385C58.63 16.849 58.4657 17.2743 58.137 17.661L50.655 26.274H57.441ZM63.4662 29.174C62.9442 29.174 62.5092 29.029 62.1612 28.739C61.8325 28.4297 61.6682 27.9947 61.6682 27.434V16.24C61.6682 15.6793 61.8325 15.254 62.1612 14.964C62.5092 14.674 62.9442 14.529 63.4662 14.529C63.9882 14.529 64.4232 14.674 64.7712 14.964C65.1192 15.254 65.2932 15.6793 65.2932 16.24V27.434C65.2932 27.9947 65.1192 28.4297 64.7712 28.739C64.4232 29.029 63.9882 29.174 63.4662 29.174ZM63.4662 11.948C62.8089 11.948 62.2869 11.774 61.9002 11.426C61.5135 11.0587 61.3202 10.585 61.3202 10.005C61.3202 9.425 61.5135 8.961 61.9002 8.613C62.2869 8.265 62.8089 8.091 63.4662 8.091C64.1042 8.091 64.6165 8.265 65.0032 8.613C65.4092 8.961 65.6122 9.425 65.6122 10.005C65.6122 10.585 65.4189 11.0587 65.0322 11.426C64.6455 11.774 64.1235 11.948 63.4662 11.948ZM77.1805 14.471C78.3985 14.471 79.4812 14.7803 80.4285 15.399C81.3952 16.0177 82.1395 16.8973 82.6615 18.038C83.2028 19.1593 83.4735 20.4547 83.4735 21.924C83.4735 23.3933 83.2028 24.679 82.6615 25.781C82.1395 26.883 81.4048 27.7337 80.4575 28.333C79.5102 28.9323 78.4178 29.232 77.1805 29.232C76.1752 29.232 75.2762 29.0193 74.4835 28.594C73.6908 28.1687 73.0818 27.579 72.6565 26.825V32.741C72.6565 33.2437 72.4922 33.64 72.1635 33.93C71.8348 34.22 71.3998 34.365 70.8585 34.365C70.3172 34.365 69.8725 34.2103 69.5245 33.901C69.1958 33.5917 69.0315 33.1857 69.0315 32.683V16.24C69.0315 15.718 69.1862 15.3023 69.4955 14.993C69.8242 14.6837 70.2592 14.529 70.8005 14.529C71.3418 14.529 71.7768 14.6837 72.1055 14.993C72.4342 15.3023 72.5985 15.718 72.5985 16.24V16.965C73.0238 16.1723 73.6328 15.5633 74.4255 15.138C75.2375 14.6933 76.1558 14.471 77.1805 14.471ZM76.2235 26.419C77.3642 26.419 78.2535 26.0323 78.8915 25.259C79.5295 24.4663 79.8485 23.3547 79.8485 21.924C79.8485 20.4547 79.5295 19.314 78.8915 18.502C78.2535 17.69 77.3642 17.284 76.2235 17.284C75.0635 17.284 74.1645 17.6803 73.5265 18.473C72.9078 19.2657 72.5985 20.3967 72.5985 21.866C72.5985 23.316 72.9078 24.4373 73.5265 25.23C74.1645 26.0227 75.0635 26.419 76.2235 26.419ZM94.5975 14.471C95.8155 14.471 96.8981 14.7803 97.8455 15.399C98.8121 16.0177 99.5565 16.8973 100.078 18.038C100.62 19.1593 100.89 20.4547 100.89 21.924C100.89 23.3933 100.62 24.679 100.078 25.781C99.5565 26.883 98.8218 27.7337 97.8745 28.333C96.9271 28.9323 95.8348 29.232 94.5975 29.232C93.5921 29.232 92.6931 29.0193 91.9005 28.594C91.1078 28.1687 90.4988 27.579 90.0735 26.825V32.741C90.0735 33.2437 89.9091 33.64 89.5805 33.93C89.2518 34.22 88.8168 34.365 88.2755 34.365C87.7341 34.365 87.2895 34.2103 86.9415 33.901C86.6128 33.5917 86.4485 33.1857 86.4485 32.683V16.24C86.4485 15.718 86.6031 15.3023 86.9125 14.993C87.2411 14.6837 87.6761 14.529 88.2175 14.529C88.7588 14.529 89.1938 14.6837 89.5225 14.993C89.8511 15.3023 90.0155 15.718 90.0155 16.24V16.965C90.4408 16.1723 91.0498 15.5633 91.8425 15.138C92.6545 14.6933 93.5728 14.471 94.5975 14.471ZM93.6405 26.419C94.7811 26.419 95.6705 26.0323 96.3085 25.259C96.9465 24.4663 97.2655 23.3547 97.2655 21.924C97.2655 20.4547 96.9465 19.314 96.3085 18.502C95.6705 17.69 94.7811 17.284 93.6405 17.284C92.4805 17.284 91.5815 17.6803 90.9435 18.473C90.3248 19.2657 90.0155 20.3967 90.0155 21.866C90.0155 23.316 90.3248 24.4373 90.9435 25.23C91.5815 26.0227 92.4805 26.419 93.6405 26.419ZM113.528 15.573C113.683 15.225 113.886 14.9737 114.137 14.819C114.408 14.645 114.698 14.558 115.007 14.558C115.452 14.558 115.848 14.7127 116.196 15.022C116.563 15.312 116.747 15.6793 116.747 16.124C116.747 16.3367 116.689 16.559 116.573 16.791L108.656 33.379C108.327 34.0363 107.815 34.365 107.119 34.365C106.674 34.365 106.278 34.22 105.93 33.93C105.601 33.6593 105.437 33.3113 105.437 32.886C105.437 32.6733 105.495 32.4317 105.611 32.161L107.583 28.014L102.189 16.791C102.092 16.5977 102.044 16.3753 102.044 16.124C102.044 15.6793 102.228 15.3023 102.595 14.993C102.982 14.6837 103.417 14.529 103.9 14.529C104.229 14.529 104.528 14.616 104.799 14.79C105.07 14.9447 105.282 15.196 105.437 15.544L109.497 24.505L113.528 15.573Z" fill="white"/>
<path d="M125.197 29.232C123.785 29.232 122.538 28.9323 121.456 28.333C120.392 27.7337 119.571 26.883 118.991 25.781C118.411 24.679 118.121 23.3933 118.121 21.924C118.121 20.4547 118.42 19.1593 119.02 18.038C119.638 16.8973 120.499 16.0177 121.601 15.399C122.703 14.7803 123.969 14.471 125.4 14.471C126.154 14.471 126.908 14.5773 127.662 14.79C128.435 15.0027 129.112 15.2927 129.692 15.66C130.31 16.066 130.62 16.5783 130.62 17.197C130.62 17.6223 130.513 17.9703 130.301 18.241C130.107 18.4923 129.846 18.618 129.518 18.618C129.305 18.618 129.083 18.5697 128.851 18.473C128.619 18.3763 128.387 18.2603 128.155 18.125C127.729 17.8737 127.323 17.6803 126.937 17.545C126.55 17.3903 126.105 17.313 125.603 17.313C124.404 17.313 123.476 17.7093 122.819 18.502C122.181 19.2753 121.862 20.3967 121.862 21.866C121.862 23.316 122.181 24.4373 122.819 25.23C123.476 26.0033 124.404 26.39 125.603 26.39C126.086 26.39 126.511 26.3223 126.879 26.187C127.265 26.0323 127.691 25.8293 128.155 25.578C128.445 25.404 128.696 25.2783 128.909 25.201C129.121 25.1043 129.334 25.056 129.547 25.056C129.856 25.056 130.117 25.1913 130.33 25.462C130.542 25.7327 130.649 26.071 130.649 26.477C130.649 26.8057 130.571 27.0957 130.417 27.347C130.281 27.579 130.049 27.7917 129.721 27.985C129.121 28.3717 128.425 28.681 127.633 28.913C126.84 29.1257 126.028 29.232 125.197 29.232ZM140.981 14.529C141.483 14.4903 141.88 14.5967 142.17 14.848C142.46 15.0993 142.605 15.4763 142.605 15.979C142.605 16.501 142.479 16.8877 142.228 17.139C141.976 17.3903 141.522 17.5547 140.865 17.632L139.995 17.719C138.854 17.835 138.013 18.2217 137.472 18.879C136.95 19.5363 136.689 20.358 136.689 21.344V27.434C136.689 27.9947 136.515 28.4297 136.167 28.739C135.819 29.029 135.384 29.174 134.862 29.174C134.34 29.174 133.905 29.029 133.557 28.739C133.228 28.4297 133.064 27.9947 133.064 27.434V16.211C133.064 15.6697 133.228 15.254 133.557 14.964C133.905 14.674 134.33 14.529 134.833 14.529C135.335 14.529 135.741 14.674 136.051 14.964C136.36 15.2347 136.515 15.631 136.515 16.153V17.313C136.882 16.4623 137.423 15.805 138.139 15.341C138.873 14.877 139.685 14.616 140.575 14.558L140.981 14.529ZM150.349 29.232C148.899 29.232 147.623 28.9323 146.521 28.333C145.438 27.7337 144.597 26.8733 143.998 25.752C143.399 24.6307 143.099 23.3257 143.099 21.837C143.099 20.3483 143.399 19.053 143.998 17.951C144.597 16.8297 145.438 15.9693 146.521 15.37C147.623 14.7707 148.899 14.471 150.349 14.471C151.799 14.471 153.065 14.7707 154.148 15.37C155.25 15.9693 156.091 16.8297 156.671 17.951C157.27 19.053 157.57 20.3483 157.57 21.837C157.57 23.3257 157.27 24.6307 156.671 25.752C156.091 26.8733 155.25 27.7337 154.148 28.333C153.065 28.9323 151.799 29.232 150.349 29.232ZM150.32 26.419C151.499 26.419 152.398 26.0323 153.017 25.259C153.636 24.4857 153.945 23.345 153.945 21.837C153.945 20.3483 153.636 19.2173 153.017 18.444C152.398 17.6513 151.509 17.255 150.349 17.255C149.189 17.255 148.29 17.6513 147.652 18.444C147.033 19.2173 146.724 20.3483 146.724 21.837C146.724 23.345 147.033 24.4857 147.652 25.259C148.271 26.0323 149.16 26.419 150.32 26.419ZM179.505 15.602C179.641 15.254 179.834 14.993 180.085 14.819C180.356 14.645 180.646 14.558 180.955 14.558C181.4 14.558 181.796 14.7127 182.144 15.022C182.512 15.312 182.695 15.6793 182.695 16.124C182.695 16.3753 182.647 16.5977 182.55 16.791L177.765 28.014C177.611 28.3813 177.369 28.6617 177.04 28.855C176.731 29.0483 176.383 29.145 175.996 29.145C175.629 29.145 175.281 29.0483 174.952 28.855C174.643 28.6617 174.411 28.3813 174.256 28.014L170.805 19.72L167.47 28.014C167.316 28.3813 167.074 28.6617 166.745 28.855C166.436 29.0483 166.088 29.145 165.701 29.145C165.334 29.145 164.986 29.0483 164.657 28.855C164.329 28.6617 164.087 28.3813 163.932 28.014L159.176 16.791C159.08 16.5397 159.031 16.327 159.031 16.153C159.031 15.7083 159.225 15.3313 159.611 15.022C159.998 14.6933 160.423 14.529 160.887 14.529C161.216 14.529 161.516 14.616 161.786 14.79C162.057 14.964 162.26 15.225 162.395 15.573L165.817 24.418L169.326 15.66C169.481 15.2927 169.703 15.022 169.993 14.848C170.283 14.6547 170.602 14.558 170.95 14.558C171.298 14.558 171.617 14.6547 171.907 14.848C172.197 15.022 172.42 15.2927 172.574 15.66L176.112 24.447L179.505 15.602ZM196.779 8.41C197.32 8.41 197.765 8.56467 198.113 8.874C198.461 9.18333 198.635 9.58933 198.635 10.092V27.434C198.635 27.956 198.47 28.3717 198.142 28.681C197.813 28.9903 197.378 29.145 196.837 29.145C196.295 29.145 195.86 28.9903 195.532 28.681C195.203 28.3717 195.039 27.956 195.039 27.434V26.709C194.613 27.5017 193.995 28.1203 193.183 28.565C192.39 29.0097 191.481 29.232 190.457 29.232C189.239 29.232 188.146 28.9227 187.18 28.304C186.232 27.6853 185.488 26.8153 184.947 25.694C184.425 24.5533 184.164 23.2483 184.164 21.779C184.164 20.3097 184.425 19.024 184.947 17.922C185.488 16.82 186.232 15.9693 187.18 15.37C188.127 14.7707 189.219 14.471 190.457 14.471C191.481 14.471 192.39 14.6837 193.183 15.109C193.975 15.5343 194.584 16.1337 195.01 16.907V10.034C195.01 9.55067 195.164 9.164 195.474 8.874C195.802 8.56467 196.237 8.41 196.779 8.41ZM191.414 26.419C192.574 26.419 193.463 26.0227 194.082 25.23C194.72 24.4373 195.039 23.3063 195.039 21.837C195.039 20.3677 194.72 19.2463 194.082 18.473C193.463 17.6803 192.583 17.284 191.443 17.284C190.283 17.284 189.384 17.6707 188.746 18.444C188.108 19.2173 187.789 20.329 187.789 21.779C187.789 23.2483 188.108 24.389 188.746 25.201C189.384 26.013 190.273 26.419 191.414 26.419Z" fill="#1FC39B"/>
<mask id="mask0" mask-type="alpha" maskUnits="userSpaceOnUse" x="27" y="22" width="8" height="6">
<path fill-rule="evenodd" clip-rule="evenodd" d="M27.5262 22.1206H34V27.6898H27.5262V22.1206Z" fill="white"/>
</mask>
<g mask="url(#mask0)">
<path fill-rule="evenodd" clip-rule="evenodd" d="M32.6105 23.0482C33.1708 23.2108 32.8385 24.252 32.5149 25.0548C32.1558 25.9449 31.7029 26.7795 31.0665 27.6898C31.9464 26.7958 32.8139 25.8339 33.3646 24.7768C33.9076 23.7347 34.3735 22.2282 33.5636 22.1233C33.1604 22.0713 32.5474 22.7785 32.0957 23.0716C31.432 23.5016 30.7515 23.6109 30.1835 23.6726C29.3987 23.7572 28.5464 23.588 27.5262 24.3437C28.5287 24.0246 29.2663 24.2899 30.2497 23.9859C30.9856 23.7581 32.0464 22.8843 32.6105 23.0482Z" fill="#1FC39B"/>
</g>
<path fill-rule="evenodd" clip-rule="evenodd" d="M26.669 25.1813C27.4222 24.8967 28.0759 24.8883 28.711 24.8478C29.3557 24.8059 30.2534 24.4684 30.6497 24.768C31.0399 25.0619 31.0321 25.74 30.7686 26.5592C30.4485 27.5528 29.8597 28.4468 29.0455 29.4616C29.4543 29.1391 29.8489 28.8139 30.2469 28.4636C30.5147 28.2283 30.7963 27.9586 31.0667 27.6903C31.7036 26.7799 32.1565 25.9454 32.5156 25.0553C32.8392 24.2529 33.171 23.2113 32.6108 23.0487C32.0471 22.8847 30.9862 23.7585 30.2499 23.9863C29.2665 24.2908 28.5293 24.0251 27.5265 24.3446C27.4006 24.4397 27.2851 24.5415 27.1782 24.6402C26.9931 24.8112 26.8222 24.9901 26.669 25.1813" fill="#FF3365"/>
<path fill-rule="evenodd" clip-rule="evenodd" d="M25.6954 29.5587C25.7011 30.31 25.7513 30.9789 26.4724 30.9198C27.1348 30.8652 28.2116 30.1073 29.044 29.4613C29.8582 28.447 30.447 27.5525 30.7672 26.5589C31.0307 25.7398 31.0384 25.0621 30.6482 24.7677C30.2519 24.4681 29.3542 24.8061 28.7096 24.8479C28.0745 24.888 27.4208 24.8964 26.6676 25.1811C25.3887 26.818 25.6868 28.4254 25.6954 29.5587" fill="#FF3365"/>
<mask id="mask1" mask-type="alpha" maskUnits="userSpaceOnUse" x="0" y="22" width="8" height="7">
<path fill-rule="evenodd" clip-rule="evenodd" d="M0 22.7131H7.13677V28.4385H0V22.7131Z" fill="white"/>
</mask>
<g mask="url(#mask1)">
<path fill-rule="evenodd" clip-rule="evenodd" d="M1.53549 23.5726C0.8939 23.8727 1.16689 24.9584 1.46281 25.7978C1.78555 26.7157 2.21818 27.5515 2.85242 28.4385C1.9426 27.6203 1.05916 26.728 0.531788 25.6661C-0.00164668 24.5918 -0.338234 23.0584 0.542603 22.7363C0.970476 22.5795 1.64538 23.2611 2.11392 23.4916C2.83598 23.848 3.58703 23.8194 4.21132 23.7771C5.04629 23.7207 6.08634 23.3255 7.13677 24.0036C6.03139 23.8154 5.16786 24.2777 4.10792 24.1419C3.31577 24.0406 2.17406 23.2739 1.53549 23.5726" fill="#1FC39B"/>
</g>
<path fill-rule="evenodd" clip-rule="evenodd" d="M8.02056 24.7705C7.19683 24.6436 6.48429 24.7163 5.75877 24.7982C5.03714 24.8806 4.13727 24.7105 3.58739 25.0957C2.33406 25.9729 3.59172 28.4361 4.95451 29.9994C4.52663 29.7227 4.1152 29.4407 3.70204 29.1314C3.42342 28.9239 3.1314 28.6811 2.85278 28.4383C2.21855 27.5517 1.78591 26.7154 1.46317 25.7976C1.16725 24.9582 0.893829 23.8725 1.53585 23.5724C2.17355 23.2741 3.31613 24.0408 4.10828 24.1417C5.16779 24.2774 6.03132 23.8152 7.13713 24.0033C7.26908 24.0857 7.38935 24.1761 7.50011 24.2659C7.69176 24.421 7.86698 24.5872 8.02056 24.7705" fill="#FF3365"/>
<path fill-rule="evenodd" clip-rule="evenodd" d="M8.69379 29.4484C8.61549 30.279 8.50084 31.036 7.69312 31.1109C6.9637 31.1787 5.82588 30.5508 4.95456 30C3.59177 28.4367 2.33455 25.9731 3.58745 25.0963C4.13775 24.7112 5.03763 24.8812 5.75925 24.7988C6.48478 24.7169 7.19689 24.6442 8.02062 24.7711C9.31289 26.3688 8.81277 28.1864 8.69379 29.4484" fill="#FF3365"/>
<path fill-rule="evenodd" clip-rule="evenodd" d="M30.5097 21.07C30.5097 28.1126 24.4265 33.8218 16.9225 33.8218C9.4185 33.8218 3.33484 28.1126 3.33484 21.07C3.33484 14.0274 9.4185 8.31812 16.9225 8.31812C24.4265 8.31812 30.5097 14.0274 30.5097 21.07" fill="#1FC39B"/>
<path fill-rule="evenodd" clip-rule="evenodd" d="M20.154 4C20.2328 4.47588 20.0748 5.67836 18.9418 6.98527C18.4425 7.56162 18.4875 7.44441 18.2967 7.73434C18.1055 8.02516 17.8693 8.28557 17.5812 8.50985C17.2878 8.73105 17.1901 8.86104 16.725 8.96414C16.6449 8.48738 16.5844 8.39617 16.5515 7.8044C16.5316 7.4356 16.6116 6.92006 16.8042 6.63056C16.9971 6.34107 17.2104 6.03351 17.6733 5.71229C17.9671 5.49109 19.7365 4.80371 20.154 4" fill="#FF3365"/>
<path fill-rule="evenodd" clip-rule="evenodd" d="M5.99655 18.5735C5.99655 21.787 8.28906 24.3925 11.1215 24.3925C13.9509 24.3925 16.2434 21.787 16.2434 18.5735C16.2434 15.3591 13.9509 12.7559 11.1215 12.7559C8.28906 12.7559 5.99655 15.3591 5.99655 18.5735" fill="#FEFEFE"/>
<path fill-rule="evenodd" clip-rule="evenodd" d="M8.96405 18.6491C8.96405 19.5832 8.39601 20.3429 7.69774 20.3429C6.99861 20.3429 6.43186 19.5832 6.43186 18.6491C6.43186 17.7128 6.99861 16.9553 7.69774 16.9553C8.39601 16.9553 8.96405 17.7128 8.96405 18.6491" fill="#221E1F"/>
<path fill-rule="evenodd" clip-rule="evenodd" d="M7.35435 18.1009C7.35435 18.3313 7.21418 18.5186 7.04199 18.5186C6.8698 18.5186 6.73006 18.3313 6.73006 18.1009C6.73006 17.8704 6.8698 17.6836 7.04199 17.6836C7.21418 17.6836 7.35435 17.8704 7.35435 18.1009" fill="#FEFEFE"/>
<path fill-rule="evenodd" clip-rule="evenodd" d="M21.2403 5.36108C21.3203 5.83608 20.7402 7.6343 20.1241 8.32432C19.8797 8.59751 18.6891 9.86697 17.4695 10.1071C17.3894 9.62991 17.2925 8.85705 17.3838 8.49661C17.4803 8.14146 17.7442 7.56644 18.683 7.14255C20.0436 6.5292 20.6199 6.16479 21.2403 5.36108" fill="#1FC39B"/>
<path fill-rule="evenodd" clip-rule="evenodd" d="M17.0011 17.7861C17.0011 20.9997 19.2936 23.6051 22.126 23.6051C24.9555 23.6051 27.248 20.9997 27.248 17.7861C27.248 14.5718 24.9555 11.9685 22.126 11.9685C19.2936 11.9685 17.0011 14.5718 17.0011 17.7861" fill="#FEFEFE"/>
<path fill-rule="evenodd" clip-rule="evenodd" d="M26.7836 18.6491C26.7836 19.5832 26.2307 20.3429 25.5511 20.3429C24.8701 20.3429 24.3189 19.5832 24.3189 18.6491C24.3189 17.7128 24.8701 16.9553 25.5511 16.9553C26.2307 16.9553 26.7836 17.7128 26.7836 18.6491" fill="#221E1F"/>
<path fill-rule="evenodd" clip-rule="evenodd" d="M25.2173 18.1009C25.2173 18.3313 25.081 18.5186 24.9132 18.5186C24.7453 18.5186 24.6095 18.3313 24.6095 18.1009C24.6095 17.8704 24.7453 17.6836 24.9132 17.6836C25.081 17.6836 25.2173 17.8704 25.2173 18.1009" fill="#FEFEFE"/>
<path fill-rule="evenodd" clip-rule="evenodd" d="M20.8093 26.9341C20.8093 29.0033 18.8962 30.6813 16.5366 30.6813C14.1766 30.6813 12.2635 29.0033 12.2635 26.9341C12.2635 24.8649 14.1766 23.187 16.5366 23.187C18.8962 23.187 20.8093 24.8649 20.8093 26.9341" fill="#FF3365"/>
<path fill-rule="evenodd" clip-rule="evenodd" d="M18.2416 29.2219C18.2416 29.2219 18.4099 29.1025 18.6894 28.9029C18.9711 28.7033 19.3643 28.4244 19.819 28.1054C22.5243 25.7877 27.7513 24.3089 27.3161 19.8726C27.3161 19.7246 27.2347 18.8698 27.1089 19.1359C26.2375 20.9808 21.7473 24.6482 20.8093 19.328C20.5333 17.7651 19.8264 14.5419 18.8992 14.0911C18.429 13.8977 17.9756 13.7276 17.5676 13.6069C17.1596 13.4857 16.7971 13.4143 16.5111 13.4143V29.7322C17.1371 29.7322 17.7666 29.5625 18.2416 29.2219" fill="#FAAF41"/>
<path fill-rule="evenodd" clip-rule="evenodd" d="M14.8037 29.2219C14.8037 29.2219 14.6358 29.1025 14.3559 28.9029C14.0747 28.7033 13.6815 28.4244 13.2263 28.1054C10.5211 25.7877 5.29447 24.3089 5.7297 19.8726C5.7297 19.7246 5.81104 18.8698 5.93693 19.1359C6.80825 20.9808 11.2981 24.6482 12.2365 19.328C12.5121 17.7651 13.219 14.5419 14.1461 14.0911C14.6164 13.8977 15.0698 13.7276 15.4782 13.6069C15.8857 13.4857 16.2487 13.4143 16.5347 13.4143V29.7322C15.9082 29.7322 15.2787 29.5625 14.8037 29.2219" fill="#F69420"/>
</svg>
