<svg width="197" height="44" viewBox="0 0 197 44" fill="none" xmlns="http://www.w3.org/2000/svg">
<mask id="mask0" mask-type="alpha" maskUnits="userSpaceOnUse" x="26" y="23" width="7" height="6">
<path fill-rule="evenodd" clip-rule="evenodd" d="M26.5772 23.1787H32.8279V28.4584H26.5772V23.1787Z" fill="white"/>
</mask>
<g mask="url(#mask0)">
<path fill-rule="evenodd" clip-rule="evenodd" d="M31.4863 24.0581C32.0273 24.2122 31.7064 25.1993 31.394 25.9604C31.0473 26.8042 30.6099 27.5954 29.9955 28.4584C30.8451 27.6108 31.6826 26.6989 32.2144 25.6968C32.7386 24.7089 33.1885 23.2807 32.4065 23.1813C32.0172 23.132 31.4253 23.8024 30.9892 24.0802C30.3484 24.4879 29.6914 24.5915 29.1429 24.65C28.3851 24.7302 27.5622 24.5698 26.5772 25.2862C27.5451 24.9838 28.2573 25.2352 29.2068 24.947C29.9173 24.731 30.9416 23.9027 31.4863 24.0581Z" fill="#67A183"/>
</g>
<path fill-rule="evenodd" clip-rule="evenodd" d="M25.7492 26.0799C26.4764 25.81 27.1076 25.8021 27.7208 25.7637C28.3432 25.724 29.21 25.404 29.5926 25.6881C29.9694 25.9667 29.9619 26.6095 29.7075 27.3861C29.3984 28.3281 28.8299 29.1756 28.0437 30.1376C28.4385 29.8318 28.8194 29.5236 29.2037 29.1915C29.4623 28.9684 29.7342 28.7128 29.9953 28.4584C30.6102 27.5954 31.0476 26.8042 31.3943 25.9604C31.7067 25.1997 32.0271 24.2122 31.4862 24.0581C30.9419 23.9027 29.9176 24.7311 29.2067 24.947C28.2572 25.2357 27.5454 24.9838 26.5771 25.2866C26.4555 25.3768 26.344 25.4733 26.2408 25.5669C26.062 25.729 25.897 25.8986 25.7492 26.0799Z" fill="#FF3365"/>
<path fill-rule="evenodd" clip-rule="evenodd" d="M24.8105 30.2298C24.816 30.942 24.8644 31.5761 25.5608 31.5201C26.2003 31.4683 27.24 30.7498 28.0437 30.1375C28.8298 29.1759 29.3984 28.3279 29.7075 27.3859C29.9619 26.6094 29.9694 25.9669 29.5926 25.6879C29.21 25.4038 28.3432 25.7242 27.7208 25.7639C27.1076 25.8019 26.4764 25.8099 25.7492 26.0797C24.5144 27.6315 24.8022 29.1554 24.8105 30.2298Z" fill="#FF3365"/>
<mask id="mask1" mask-type="alpha" maskUnits="userSpaceOnUse" x="0" y="23" width="7" height="7">
<path fill-rule="evenodd" clip-rule="evenodd" d="M0 23.7402H6.89082V29.168H0V23.7402Z" fill="white"/>
</mask>
<g mask="url(#mask1)">
<path fill-rule="evenodd" clip-rule="evenodd" d="M1.48258 24.5551C0.863101 24.8395 1.12668 25.8688 1.4124 26.6646C1.72403 27.5347 2.14175 28.3271 2.75413 29.168C1.87566 28.3923 1.02267 27.5464 0.513468 26.5397C-0.00158256 25.5213 -0.32657 24.0676 0.523911 23.7622C0.937038 23.6135 1.58868 24.2597 2.04108 24.4782C2.73825 24.8161 3.46342 24.789 4.06619 24.7489C4.87239 24.6954 5.87659 24.3207 6.89082 24.9636C5.82354 24.7852 4.98977 25.2234 3.96635 25.0948C3.20151 24.9987 2.09914 24.2718 1.48258 24.5551Z" fill="#67A183"/>
</g>
<path fill-rule="evenodd" clip-rule="evenodd" d="M7.74388 25.6907C6.94853 25.5704 6.26055 25.6393 5.56003 25.717C4.86327 25.7951 3.99441 25.6339 3.46348 25.999C2.25335 26.8307 3.46766 29.1657 4.78348 30.6478C4.37036 30.3855 3.9731 30.1181 3.57418 29.8249C3.30517 29.6281 3.02321 29.398 2.75419 29.1678C2.14181 28.3274 1.72409 27.5345 1.41247 26.6644C1.12675 25.8687 0.862751 24.8394 1.48265 24.5549C2.09837 24.2721 3.20157 24.999 3.96642 25.0946C4.98942 25.2233 5.82319 24.7851 6.89089 24.9634C7.01829 25.0416 7.13442 25.1272 7.24136 25.2124C7.42641 25.3594 7.59559 25.5169 7.74388 25.6907Z" fill="#FF3365"/>
<path fill-rule="evenodd" clip-rule="evenodd" d="M8.39373 30.125C8.31812 30.9124 8.20743 31.63 7.42754 31.701C6.72326 31.7654 5.62465 31.1701 4.78336 30.6479C3.46754 29.1659 2.25364 26.8304 3.46336 25.9991C3.9947 25.634 4.86356 25.7953 5.56032 25.7172C6.26084 25.6395 6.94841 25.5705 7.74375 25.6908C8.99149 27.2055 8.5086 28.9286 8.39373 30.125Z" fill="#FF3365"/>
<path fill-rule="evenodd" clip-rule="evenodd" d="M29.4585 22.1826C29.4585 28.8591 23.5849 34.2715 16.3395 34.2715C9.09412 34.2715 3.22012 28.8591 3.22012 22.1826C3.22012 15.5062 9.09412 10.0938 16.3395 10.0938C23.5849 10.0938 29.4585 15.5062 29.4585 22.1826Z" fill="#1AB169"/>
<path fill-rule="evenodd" clip-rule="evenodd" d="M19.4589 6C19.5349 6.45114 19.3824 7.5911 18.2884 8.83006C17.8064 9.37644 17.8498 9.26533 17.6656 9.54019C17.481 9.81589 17.2529 10.0628 16.9747 10.2754C16.6915 10.4851 16.5971 10.6083 16.148 10.7061C16.0707 10.2541 16.0123 10.1676 15.9805 9.60661C15.9613 9.25697 16.0386 8.76824 16.2245 8.4938C16.4108 8.21935 16.6167 7.92778 17.0637 7.62327C17.3473 7.41357 19.0558 6.76192 19.4589 6Z" fill="#1AB169"/>
<path fill-rule="evenodd" clip-rule="evenodd" d="M5.78992 19.8157C5.78992 22.8622 8.00342 25.3321 10.7382 25.3321C13.4701 25.3321 15.6837 22.8622 15.6837 19.8157C15.6837 16.7684 13.4701 14.3005 10.7382 14.3005C8.00342 14.3005 5.78992 16.7684 5.78992 19.8157Z" fill="#FEFEFE"/>
<path fill-rule="evenodd" clip-rule="evenodd" d="M8.65482 19.8875C8.65482 20.773 8.10636 21.4932 7.43215 21.4932C6.75712 21.4932 6.2099 20.773 6.2099 19.8875C6.2099 18.9998 6.75712 18.2817 7.43215 18.2817C8.10636 18.2817 8.65482 18.9998 8.65482 19.8875Z" fill="#221E1F"/>
<path fill-rule="evenodd" clip-rule="evenodd" d="M7.10061 19.3678C7.10061 19.5862 6.96526 19.7638 6.79901 19.7638C6.63276 19.7638 6.49783 19.5862 6.49783 19.3678C6.49783 19.1493 6.63276 18.9722 6.79901 18.9722C6.96526 18.9722 7.10061 19.1493 7.10061 19.3678Z" fill="#FEFEFE"/>
<path fill-rule="evenodd" clip-rule="evenodd" d="M20.4502 7.43091C20.5274 7.88121 19.9673 9.58593 19.3724 10.2401C19.1364 10.4991 17.9869 11.7025 16.8093 11.9302C16.732 11.4778 16.6384 10.7451 16.7266 10.4034C16.8197 10.0667 17.0745 9.5216 17.981 9.11976C19.2947 8.53829 19.8511 8.19283 20.4502 7.43091Z" fill="#1AB169"/>
<path fill-rule="evenodd" clip-rule="evenodd" d="M16.4161 19.0691C16.4161 22.1156 18.6296 24.5856 21.3645 24.5856C24.0964 24.5856 26.3099 22.1156 26.3099 19.0691C26.3099 16.0219 24.0964 13.554 21.3645 13.554C18.6296 13.554 16.4161 16.0219 16.4161 19.0691Z" fill="#FEFEFE"/>
<path fill-rule="evenodd" clip-rule="evenodd" d="M25.8606 19.8875C25.8606 20.773 25.3267 21.4932 24.6705 21.4932C24.013 21.4932 23.4808 20.773 23.4808 19.8875C23.4808 18.9998 24.013 18.2817 24.6705 18.2817C25.3267 18.2817 25.8606 18.9998 25.8606 19.8875Z" fill="#221E1F"/>
<path fill-rule="evenodd" clip-rule="evenodd" d="M24.3475 19.3678C24.3475 19.5862 24.2159 19.7638 24.0539 19.7638C23.8918 19.7638 23.7606 19.5862 23.7606 19.3678C23.7606 19.1493 23.8918 18.9722 24.0539 18.9722C24.2159 18.9722 24.3475 19.1493 24.3475 19.3678Z" fill="#FEFEFE"/>
<path fill-rule="evenodd" clip-rule="evenodd" d="M20.092 27.7418C20.092 29.7034 18.2448 31.2941 15.9666 31.2941C13.6879 31.2941 11.8407 29.7034 11.8407 27.7418C11.8407 25.7801 13.6879 24.1895 15.9666 24.1895C18.2448 24.1895 20.092 25.7801 20.092 27.7418Z" fill="#FF3365"/>
<path fill-rule="evenodd" clip-rule="evenodd" d="M17.613 29.9108C17.613 29.9108 17.7755 29.7976 18.0453 29.6084C18.3172 29.4192 18.697 29.1547 19.136 28.8523C21.748 26.6551 26.7949 25.2532 26.3747 21.0476C26.3747 20.9072 26.2961 20.0969 26.1746 20.3492C25.3333 22.0982 20.9978 25.5749 20.0921 20.5313C19.8256 19.0496 19.1431 15.994 18.2479 15.5667C17.7938 15.3833 17.3561 15.222 16.9622 15.1076C16.5682 14.9927 16.2182 14.925 15.9421 14.925V30.3945C16.5465 30.3945 17.1543 30.2337 17.613 29.9108Z" fill="#FAAF41"/>
<path fill-rule="evenodd" clip-rule="evenodd" d="M14.294 29.9108C14.294 29.9108 14.132 29.7976 13.8617 29.6084C13.5902 29.4192 13.2105 29.1547 12.771 28.8523C10.159 26.6551 5.11252 25.2532 5.53275 21.0476C5.53275 20.9072 5.61128 20.0969 5.73284 20.3492C6.57413 22.0982 10.9092 25.5749 11.8153 20.5313C12.0814 19.0496 12.7639 15.994 13.6591 15.5667C14.1132 15.3833 14.5509 15.222 14.9453 15.1076C15.3388 14.9927 15.6892 14.925 15.9653 14.925V30.3945C15.3605 30.3945 14.7527 30.2337 14.294 29.9108Z" fill="#F69420"/>
<path d="M53.441 26.274C54.5237 26.274 55.065 26.7283 55.065 27.637C55.065 28.0623 54.9297 28.4007 54.659 28.652C54.3883 28.884 53.9823 29 53.441 29H43.755C43.2717 29 42.8753 28.8453 42.566 28.536C42.2567 28.2267 42.102 27.8593 42.102 27.434C42.102 26.9893 42.276 26.564 42.624 26.158L50.077 17.545H43.61C43.0687 17.545 42.6627 17.429 42.392 17.197C42.1213 16.965 41.986 16.6267 41.986 16.182C41.986 15.7373 42.1213 15.399 42.392 15.167C42.6627 14.935 43.0687 14.819 43.61 14.819H52.977C53.4797 14.819 53.876 14.9737 54.166 15.283C54.4753 15.573 54.63 15.9403 54.63 16.385C54.63 16.849 54.4657 17.2743 54.137 17.661L46.655 26.274H53.441ZM59.4662 29.174C58.9442 29.174 58.5092 29.029 58.1612 28.739C57.8325 28.4297 57.6682 27.9947 57.6682 27.434V16.24C57.6682 15.6793 57.8325 15.254 58.1612 14.964C58.5092 14.674 58.9442 14.529 59.4662 14.529C59.9882 14.529 60.4232 14.674 60.7712 14.964C61.1192 15.254 61.2932 15.6793 61.2932 16.24V27.434C61.2932 27.9947 61.1192 28.4297 60.7712 28.739C60.4232 29.029 59.9882 29.174 59.4662 29.174ZM59.4662 11.948C58.8089 11.948 58.2869 11.774 57.9002 11.426C57.5135 11.0587 57.3202 10.585 57.3202 10.005C57.3202 9.425 57.5135 8.961 57.9002 8.613C58.2869 8.265 58.8089 8.091 59.4662 8.091C60.1042 8.091 60.6165 8.265 61.0032 8.613C61.4092 8.961 61.6122 9.425 61.6122 10.005C61.6122 10.585 61.4189 11.0587 61.0322 11.426C60.6455 11.774 60.1235 11.948 59.4662 11.948ZM73.1805 14.471C74.3985 14.471 75.4812 14.7803 76.4285 15.399C77.3952 16.0177 78.1395 16.8973 78.6615 18.038C79.2028 19.1593 79.4735 20.4547 79.4735 21.924C79.4735 23.3933 79.2028 24.679 78.6615 25.781C78.1395 26.883 77.4048 27.7337 76.4575 28.333C75.5102 28.9323 74.4178 29.232 73.1805 29.232C72.1752 29.232 71.2762 29.0193 70.4835 28.594C69.6908 28.1687 69.0818 27.579 68.6565 26.825V32.741C68.6565 33.2437 68.4922 33.64 68.1635 33.93C67.8348 34.22 67.3998 34.365 66.8585 34.365C66.3172 34.365 65.8725 34.2103 65.5245 33.901C65.1958 33.5917 65.0315 33.1857 65.0315 32.683V16.24C65.0315 15.718 65.1862 15.3023 65.4955 14.993C65.8242 14.6837 66.2592 14.529 66.8005 14.529C67.3418 14.529 67.7768 14.6837 68.1055 14.993C68.4342 15.3023 68.5985 15.718 68.5985 16.24V16.965C69.0238 16.1723 69.6328 15.5633 70.4255 15.138C71.2375 14.6933 72.1558 14.471 73.1805 14.471ZM72.2235 26.419C73.3642 26.419 74.2535 26.0323 74.8915 25.259C75.5295 24.4663 75.8485 23.3547 75.8485 21.924C75.8485 20.4547 75.5295 19.314 74.8915 18.502C74.2535 17.69 73.3642 17.284 72.2235 17.284C71.0635 17.284 70.1645 17.6803 69.5265 18.473C68.9078 19.2657 68.5985 20.3967 68.5985 21.866C68.5985 23.316 68.9078 24.4373 69.5265 25.23C70.1645 26.0227 71.0635 26.419 72.2235 26.419ZM90.5975 14.471C91.8155 14.471 92.8981 14.7803 93.8455 15.399C94.8121 16.0177 95.5565 16.8973 96.0785 18.038C96.6198 19.1593 96.8905 20.4547 96.8905 21.924C96.8905 23.3933 96.6198 24.679 96.0785 25.781C95.5565 26.883 94.8218 27.7337 93.8745 28.333C92.9271 28.9323 91.8348 29.232 90.5975 29.232C89.5921 29.232 88.6931 29.0193 87.9005 28.594C87.1078 28.1687 86.4988 27.579 86.0735 26.825V32.741C86.0735 33.2437 85.9091 33.64 85.5805 33.93C85.2518 34.22 84.8168 34.365 84.2755 34.365C83.7341 34.365 83.2895 34.2103 82.9415 33.901C82.6128 33.5917 82.4485 33.1857 82.4485 32.683V16.24C82.4485 15.718 82.6031 15.3023 82.9125 14.993C83.2411 14.6837 83.6761 14.529 84.2175 14.529C84.7588 14.529 85.1938 14.6837 85.5225 14.993C85.8511 15.3023 86.0155 15.718 86.0155 16.24V16.965C86.4408 16.1723 87.0498 15.5633 87.8425 15.138C88.6545 14.6933 89.5728 14.471 90.5975 14.471ZM89.6405 26.419C90.7811 26.419 91.6705 26.0323 92.3085 25.259C92.9465 24.4663 93.2655 23.3547 93.2655 21.924C93.2655 20.4547 92.9465 19.314 92.3085 18.502C91.6705 17.69 90.7811 17.284 89.6405 17.284C88.4805 17.284 87.5815 17.6803 86.9435 18.473C86.3248 19.2657 86.0155 20.3967 86.0155 21.866C86.0155 23.316 86.3248 24.4373 86.9435 25.23C87.5815 26.0227 88.4805 26.419 89.6405 26.419ZM109.528 15.573C109.683 15.225 109.886 14.9737 110.137 14.819C110.408 14.645 110.698 14.558 111.007 14.558C111.452 14.558 111.848 14.7127 112.196 15.022C112.563 15.312 112.747 15.6793 112.747 16.124C112.747 16.3367 112.689 16.559 112.573 16.791L104.656 33.379C104.327 34.0363 103.815 34.365 103.119 34.365C102.674 34.365 102.278 34.22 101.93 33.93C101.601 33.6593 101.437 33.3113 101.437 32.886C101.437 32.6733 101.495 32.4317 101.611 32.161L103.583 28.014L98.1889 16.791C98.0922 16.5977 98.0439 16.3753 98.0439 16.124C98.0439 15.6793 98.2276 15.3023 98.5949 14.993C98.9816 14.6837 99.4166 14.529 99.8999 14.529C100.229 14.529 100.528 14.616 100.799 14.79C101.07 14.9447 101.282 15.196 101.437 15.544L105.497 24.505L109.528 15.573Z" fill="#762FE6"/>
<path d="M121.197 29.232C119.785 29.232 118.538 28.9323 117.456 28.333C116.392 27.7337 115.571 26.883 114.991 25.781C114.411 24.679 114.121 23.3933 114.121 21.924C114.121 20.4547 114.42 19.1593 115.02 18.038C115.638 16.8973 116.499 16.0177 117.601 15.399C118.703 14.7803 119.969 14.471 121.4 14.471C122.154 14.471 122.908 14.5773 123.662 14.79C124.435 15.0027 125.112 15.2927 125.692 15.66C126.31 16.066 126.62 16.5783 126.62 17.197C126.62 17.6223 126.513 17.9703 126.301 18.241C126.107 18.4923 125.846 18.618 125.518 18.618C125.305 18.618 125.083 18.5697 124.851 18.473C124.619 18.3763 124.387 18.2603 124.155 18.125C123.729 17.8737 123.323 17.6803 122.937 17.545C122.55 17.3903 122.105 17.313 121.603 17.313C120.404 17.313 119.476 17.7093 118.819 18.502C118.181 19.2753 117.862 20.3967 117.862 21.866C117.862 23.316 118.181 24.4373 118.819 25.23C119.476 26.0033 120.404 26.39 121.603 26.39C122.086 26.39 122.511 26.3223 122.879 26.187C123.265 26.0323 123.691 25.8293 124.155 25.578C124.445 25.404 124.696 25.2783 124.909 25.201C125.121 25.1043 125.334 25.056 125.547 25.056C125.856 25.056 126.117 25.1913 126.33 25.462C126.542 25.7327 126.649 26.071 126.649 26.477C126.649 26.8057 126.571 27.0957 126.417 27.347C126.281 27.579 126.049 27.7917 125.721 27.985C125.121 28.3717 124.425 28.681 123.633 28.913C122.84 29.1257 122.028 29.232 121.197 29.232ZM136.981 14.529C137.483 14.4903 137.88 14.5967 138.17 14.848C138.46 15.0993 138.605 15.4763 138.605 15.979C138.605 16.501 138.479 16.8877 138.228 17.139C137.976 17.3903 137.522 17.5547 136.865 17.632L135.995 17.719C134.854 17.835 134.013 18.2217 133.472 18.879C132.95 19.5363 132.689 20.358 132.689 21.344V27.434C132.689 27.9947 132.515 28.4297 132.167 28.739C131.819 29.029 131.384 29.174 130.862 29.174C130.34 29.174 129.905 29.029 129.557 28.739C129.228 28.4297 129.064 27.9947 129.064 27.434V16.211C129.064 15.6697 129.228 15.254 129.557 14.964C129.905 14.674 130.33 14.529 130.833 14.529C131.335 14.529 131.741 14.674 132.051 14.964C132.36 15.2347 132.515 15.631 132.515 16.153V17.313C132.882 16.4623 133.423 15.805 134.139 15.341C134.873 14.877 135.685 14.616 136.575 14.558L136.981 14.529ZM146.349 29.232C144.899 29.232 143.623 28.9323 142.521 28.333C141.438 27.7337 140.597 26.8733 139.998 25.752C139.399 24.6307 139.099 23.3257 139.099 21.837C139.099 20.3483 139.399 19.053 139.998 17.951C140.597 16.8297 141.438 15.9693 142.521 15.37C143.623 14.7707 144.899 14.471 146.349 14.471C147.799 14.471 149.065 14.7707 150.148 15.37C151.25 15.9693 152.091 16.8297 152.671 17.951C153.27 19.053 153.57 20.3483 153.57 21.837C153.57 23.3257 153.27 24.6307 152.671 25.752C152.091 26.8733 151.25 27.7337 150.148 28.333C149.065 28.9323 147.799 29.232 146.349 29.232ZM146.32 26.419C147.499 26.419 148.398 26.0323 149.017 25.259C149.636 24.4857 149.945 23.345 149.945 21.837C149.945 20.3483 149.636 19.2173 149.017 18.444C148.398 17.6513 147.509 17.255 146.349 17.255C145.189 17.255 144.29 17.6513 143.652 18.444C143.033 19.2173 142.724 20.3483 142.724 21.837C142.724 23.345 143.033 24.4857 143.652 25.259C144.271 26.0323 145.16 26.419 146.32 26.419ZM175.505 15.602C175.641 15.254 175.834 14.993 176.085 14.819C176.356 14.645 176.646 14.558 176.955 14.558C177.4 14.558 177.796 14.7127 178.144 15.022C178.512 15.312 178.695 15.6793 178.695 16.124C178.695 16.3753 178.647 16.5977 178.55 16.791L173.765 28.014C173.611 28.3813 173.369 28.6617 173.04 28.855C172.731 29.0483 172.383 29.145 171.996 29.145C171.629 29.145 171.281 29.0483 170.952 28.855C170.643 28.6617 170.411 28.3813 170.256 28.014L166.805 19.72L163.47 28.014C163.316 28.3813 163.074 28.6617 162.745 28.855C162.436 29.0483 162.088 29.145 161.701 29.145C161.334 29.145 160.986 29.0483 160.657 28.855C160.329 28.6617 160.087 28.3813 159.932 28.014L155.176 16.791C155.08 16.5397 155.031 16.327 155.031 16.153C155.031 15.7083 155.225 15.3313 155.611 15.022C155.998 14.6933 156.423 14.529 156.887 14.529C157.216 14.529 157.516 14.616 157.786 14.79C158.057 14.964 158.26 15.225 158.395 15.573L161.817 24.418L165.326 15.66C165.481 15.2927 165.703 15.022 165.993 14.848C166.283 14.6547 166.602 14.558 166.95 14.558C167.298 14.558 167.617 14.6547 167.907 14.848C168.197 15.022 168.42 15.2927 168.574 15.66L172.112 24.447L175.505 15.602ZM192.779 8.41C193.32 8.41 193.765 8.56467 194.113 8.874C194.461 9.18333 194.635 9.58933 194.635 10.092V27.434C194.635 27.956 194.47 28.3717 194.142 28.681C193.813 28.9903 193.378 29.145 192.837 29.145C192.295 29.145 191.86 28.9903 191.532 28.681C191.203 28.3717 191.039 27.956 191.039 27.434V26.709C190.613 27.5017 189.995 28.1203 189.183 28.565C188.39 29.0097 187.481 29.232 186.457 29.232C185.239 29.232 184.146 28.9227 183.18 28.304C182.232 27.6853 181.488 26.8153 180.947 25.694C180.425 24.5533 180.164 23.2483 180.164 21.779C180.164 20.3097 180.425 19.024 180.947 17.922C181.488 16.82 182.232 15.9693 183.18 15.37C184.127 14.7707 185.219 14.471 186.457 14.471C187.481 14.471 188.39 14.6837 189.183 15.109C189.975 15.5343 190.584 16.1337 191.01 16.907V10.034C191.01 9.55067 191.164 9.164 191.474 8.874C191.802 8.56467 192.237 8.41 192.779 8.41ZM187.414 26.419C188.574 26.419 189.463 26.0227 190.082 25.23C190.72 24.4373 191.039 23.3063 191.039 21.837C191.039 20.3677 190.72 19.2463 190.082 18.473C189.463 17.6803 188.583 17.284 187.443 17.284C186.283 17.284 185.384 17.6707 184.746 18.444C184.108 19.2173 183.789 20.329 183.789 21.779C183.789 23.2483 184.108 24.389 184.746 25.201C185.384 26.013 186.273 26.419 187.414 26.419Z" fill="#1AB169"/>
</svg>
