<svg width="12" height="15" viewBox="0 0 12 15" fill="none" xmlns="http://www.w3.org/2000/svg">
<path d="M10.0703 14.4321H2.24936C1.55782 14.4321 1 13.8756 1 13.1857V2.24639C1 1.55649 1.55782 1 2.24936 1H10.0703C10.7618 1 11.3196 1.55649 11.3196 2.24639V13.1857C11.3158 13.8756 10.758 14.4321 10.0703 14.4321Z" stroke="black" stroke-width="0.75" stroke-miterlimit="10"/>
<path d="M8.95451 5.8827H3.34577C2.72683 5.8827 2.22632 5.38338 2.22632 4.7659V3.36704C2.22632 2.74956 2.72683 2.25024 3.34577 2.25024H8.95451C9.57345 2.25024 10.074 2.74956 10.074 3.36704V4.7659C10.074 5.38338 9.57345 5.8827 8.95451 5.8827Z" stroke="black" stroke-width="0.75" stroke-miterlimit="10"/>
<path d="M3.14327 9.56094C3.65602 9.56094 4.07169 9.14625 4.07169 8.63472C4.07169 8.12318 3.65602 7.7085 3.14327 7.7085C2.63051 7.7085 2.21484 8.12318 2.21484 8.63472C2.21484 9.14625 2.63051 9.56094 3.14327 9.56094Z" stroke="black" stroke-width="0.75" stroke-miterlimit="10"/>
<path d="M6.17696 9.56094C6.68971 9.56094 7.10538 9.14625 7.10538 8.63472C7.10538 8.12318 6.68971 7.7085 6.17696 7.7085C5.6642 7.7085 5.24854 8.12318 5.24854 8.63472C5.24854 9.14625 5.6642 9.56094 6.17696 9.56094Z" stroke="black" stroke-width="0.75" stroke-miterlimit="10"/>
<path d="M3.14327 12.6293C3.65602 12.6293 4.07169 12.2146 4.07169 11.7031C4.07169 11.1915 3.65602 10.7769 3.14327 10.7769C2.63051 10.7769 2.21484 11.1915 2.21484 11.7031C2.21484 12.2146 2.63051 12.6293 3.14327 12.6293Z" stroke="black" stroke-width="0.75" stroke-miterlimit="10"/>
<path d="M6.17696 12.6293C6.68971 12.6293 7.10538 12.2146 7.10538 11.7031C7.10538 11.1915 6.68971 10.7769 6.17696 10.7769C5.6642 10.7769 5.24854 11.1915 5.24854 11.7031C5.24854 12.2146 5.6642 12.6293 6.17696 12.6293Z" stroke="black" stroke-width="0.75" stroke-miterlimit="10"/>
<path d="M9.26772 12.6369H9.21805C8.74429 12.6369 8.3584 12.2519 8.3584 11.7792V8.55463C8.3584 8.08199 8.74429 7.69702 9.21805 7.69702H9.26772C9.74148 7.69702 10.1274 8.08199 10.1274 8.55463V11.7792C10.1274 12.2557 9.74148 12.6369 9.26772 12.6369Z" stroke="black" stroke-width="0.75" stroke-miterlimit="10"/>
</svg>
