<?xml version="1.0" encoding="UTF-8"?>
<svg width="23px" height="24px" viewBox="0 0 23 24" version="1.1" xmlns="http://www.w3.org/2000/svg" xmlns:xlink="http://www.w3.org/1999/xlink">
    <!-- Generator: sketchtool 50.2 (55047) - http://www.bohemiancoding.com/sketch -->
    <title>221B5501-2509-40A0-9406-1E8D5D331837</title>
    <desc>Created with sketchtool.</desc>
    <defs></defs>
    <g id="Page-1" stroke="none" stroke-width="1" fill="none" fill-rule="evenodd">
        <g id="01-Home" transform="translate(-282.000000, -652.000000)" fill="#FFFFFF" fill-rule="nonzero">
            <g id="Group-13" transform="translate(150.000000, 155.000000)">
                <g id="Group-24" transform="translate(0.000000, 218.000000)">
                    <g id="Group-20" transform="translate(50.000000, 101.000000)">
                        <g id="Group-7-Copy-2" transform="translate(2.000000, 160.000000)">
                            <g id="Group-15">
                                <g id="Group-25" transform="translate(80.000000, 18.000000)">
                                    <g id="ic-ask">
                                        <g id="Group-3">
                                            <path d="M15,20 L3.17292785,20 C1.41526278,20 0,18.5149701 0,16.6706587 L0,3.32934132 C0,1.48502994 1.41526278,0 3.17292785,0 L19.0603939,0 C20.818059,0 22.2333218,1.48502994 22.2333218,3.32934132 L22.2333218,16.6706587 C22.2333218,18.5149701 20.818059,20 19.0603939,20 L19.485405,20 L19.485405,23.5142433 C19.485405,23.9083368 19.035201,24.1126815 18.7538236,23.8207605 L15,20 Z M9.71618149,12.7823561 L11.51586,12.7823561 L11.51586,12.6786275 C11.51586,12.3213383 11.5936231,12.0072742 11.7491517,11.7364259 C11.9046802,11.4655776 12.1268606,11.2206653 12.4156993,11.0016815 L13.0989106,10.5003266 C13.5988238,10.1315119 13.9987484,9.70219495 14.2986963,9.21236293 C14.5986442,8.72253091 14.7486159,8.13185997 14.7486159,7.44033241 C14.7486159,7.00236496 14.6652983,6.57592936 14.4986606,6.16101282 C14.3320228,5.74609629 14.08207,5.38016844 13.7487945,5.06321831 C13.415519,4.74626818 13.0044855,4.48983055 12.5156814,4.29389774 C12.0268774,4.09796493 11.4603176,4 10.815985,4 C10.1938708,4 9.64675181,4.10372758 9.17461156,4.31118585 C8.70247131,4.51864411 8.305324,4.79236967 7.98315772,5.13237072 C7.66099143,5.47237177 7.41659309,5.86423151 7.24995535,6.30796169 C7.08331762,6.75169188 7,7.20405937 7,7.66507775 C7,7.7918578 7.00555451,7.92151727 7.01666369,8.05406006 C7.02777287,8.18660284 7.0499909,8.31626231 7.08331845,8.44304236 L9.18294341,8.52948288 C9.13850668,8.39117736 9.11628865,8.20677278 9.11628865,7.97626359 C9.11628865,7.73422895 9.14961569,7.49507925 9.21627079,7.25880734 C9.28292588,7.02253542 9.38568428,6.81508026 9.52454905,6.63643564 C9.66341383,6.45779102 9.83838083,6.31084362 10.0494553,6.19558903 C10.2605298,6.08033443 10.5160371,6.022708 10.815985,6.022708 C11.0937146,6.022708 11.3381129,6.06592783 11.5491874,6.15236877 C11.7602619,6.23880972 11.9352289,6.35406258 12.0740936,6.49813082 C12.2129584,6.64219906 12.3157168,6.80931572 12.3823719,6.9994858 C12.449027,7.18965588 12.4823541,7.38270443 12.4823541,7.57863723 C12.4823541,8.12033382 12.2435102,8.57558264 11.7658154,8.94439734 L10.9659582,9.56676903 C10.4882634,9.93558373 10.1494384,10.3303248 9.94947315,10.7510041 C9.74950787,11.1716833 9.64952673,11.6125255 9.64952673,12.0735439 C9.64952673,12.200324 9.65508124,12.3213395 9.66619042,12.4365941 C9.6772996,12.5518487 9.69396313,12.6671015 9.71618149,12.7823561 Z M9.33291662,15.289131 C9.33291662,15.6694711 9.4606703,15.9921792 9.71618149,16.2572647 C9.97169268,16.5223503 10.2827451,16.6548911 10.6493481,16.6548911 C11.0159512,16.6548911 11.3297808,16.5223503 11.5908466,16.2572647 C11.8519124,15.9921792 11.9824433,15.6694711 11.9824433,15.289131 C11.9824433,14.9087908 11.8519124,14.5832015 11.5908466,14.3123532 C11.3297808,14.0415049 11.0159512,13.9060828 10.6493481,13.9060828 C10.2827451,13.9060828 9.97169268,14.0415049 9.71618149,14.3123532 C9.4606703,14.5832015 9.33291662,14.9087908 9.33291662,15.289131 Z" id="Shape"></path>
                                        </g>
                                    </g>
                                </g>
                            </g>
                        </g>
                    </g>
                </g>
            </g>
        </g>
    </g>
</svg>