<svg width="15" height="15" viewBox="0 0 15 15" fill="none" xmlns="http://www.w3.org/2000/svg">
<path d="M7.568 14.432C6.192 14.432 4.992 14.1493 3.968 13.584C2.944 13.0187 2.15467 12.224 1.6 11.2C1.056 10.1653 0.784 8.976 0.784 7.632C0.784 6.224 1.07733 4.992 1.664 3.936C2.26133 2.88 3.072 2.064 4.096 1.488C5.13067 0.912 6.288 0.624 7.568 0.624C8.93333 0.624 10.1013 0.906666 11.072 1.472C12.0533 2.02667 12.7893 2.752 13.28 3.648C13.7813 4.544 14.032 5.49333 14.032 6.496C14.032 7.54133 13.872 8.4 13.552 9.072C13.2427 9.73333 12.8427 10.2187 12.352 10.528C11.872 10.8267 11.36 10.976 10.816 10.976C10.2507 10.976 9.80267 10.8533 9.472 10.608C9.152 10.352 8.97067 10 8.928 9.552H8.896C8.62933 9.98933 8.29333 10.336 7.888 10.592C7.49333 10.848 7.02933 10.976 6.496 10.976C5.792 10.976 5.22133 10.7307 4.784 10.24C4.34667 9.73867 4.128 9.05067 4.128 8.176C4.128 7.45067 4.26667 6.768 4.544 6.128C4.832 5.488 5.232 4.976 5.744 4.592C6.256 4.208 6.84267 4.016 7.504 4.016C8.00533 4.016 8.44267 4.13867 8.816 4.384C9.18933 4.61867 9.43467 4.928 9.552 5.312H9.568L9.696 4.608C9.71733 4.48 9.776 4.37867 9.872 4.304C9.968 4.22933 10.0853 4.192 10.224 4.192C10.3733 4.192 10.4907 4.23467 10.576 4.32C10.672 4.40533 10.72 4.52267 10.72 4.672C10.72 4.72533 10.7147 4.768 10.704 4.8L10.048 8.544C10.0053 8.84267 9.984 9.03467 9.984 9.12C9.984 9.48267 10.0693 9.73867 10.24 9.888C10.4107 10.0373 10.6667 10.112 11.008 10.112C11.3067 10.112 11.6107 9.99467 11.92 9.76C12.2293 9.51467 12.4907 9.12533 12.704 8.592C12.9173 8.048 13.024 7.34933 13.024 6.496C13.024 5.65333 12.8213 4.85867 12.416 4.112C12.0107 3.36533 11.3973 2.76267 10.576 2.304C9.75467 1.83467 8.752 1.6 7.568 1.6C6.48 1.6 5.49867 1.84533 4.624 2.336C3.76 2.816 3.07733 3.51467 2.576 4.432C2.07467 5.33867 1.824 6.40533 1.824 7.632C1.824 8.80533 2.05333 9.83467 2.512 10.72C2.97067 11.5947 3.632 12.2667 4.496 12.736C5.36 13.216 6.384 13.456 7.568 13.456C9.18933 13.456 10.4533 13.0187 11.36 12.144C11.5093 12.0053 11.664 11.936 11.824 11.936C11.952 11.936 12.0587 11.984 12.144 12.08C12.2293 12.176 12.272 12.2933 12.272 12.432C12.272 12.6027 12.208 12.7467 12.08 12.864C11.6 13.344 10.9653 13.7227 10.176 14C9.39733 14.288 8.528 14.432 7.568 14.432ZM6.704 10.112C7.23733 10.112 7.696 9.952 8.08 9.632C8.47467 9.30133 8.77333 8.88 8.976 8.368C9.17867 7.856 9.28 7.31733 9.28 6.752C9.28 6.15467 9.13067 5.70133 8.832 5.392C8.544 5.072 8.14933 4.912 7.648 4.912C7.136 4.912 6.688 5.06667 6.304 5.376C5.93067 5.68533 5.64267 6.09067 5.44 6.592C5.248 7.08267 5.152 7.59467 5.152 8.128C5.152 8.75733 5.30133 9.248 5.6 9.6C5.89867 9.94133 6.26667 10.112 6.704 10.112Z" fill="#B0BAC5"/>
</svg>
