<svg width="50" height="50" viewBox="0 0 50 50" fill="none" xmlns="http://www.w3.org/2000/svg">
<path d="M25 50C38.8071 50 50 38.8071 50 25C50 11.1929 38.8071 0 25 0C11.1929 0 0 11.1929 0 25C0 38.8071 11.1929 50 25 50Z" fill="#F4F7FA"/>
<path fill-rule="evenodd" clip-rule="evenodd" d="M34.1348 16.125C34.9219 16.125 35.603 16.3755 36.1782 16.8765C36.7534 17.3774 37.041 17.9707 37.041 18.6562V30.0469C37.041 30.7324 36.7534 31.3257 36.1782 31.8267C35.603 32.3276 34.9219 32.5781 34.1348 32.5781H27.5957L21.9194 36.2959C21.7378 36.4014 21.5486 36.408 21.3518 36.3157C21.155 36.2234 21.0566 36.085 21.0566 35.9004V32.5781H16.6973C15.9102 32.5781 15.229 32.3276 14.6538 31.8267C14.0786 31.3257 13.791 30.7324 13.791 30.0469V18.6562C13.791 17.9707 14.0786 17.3774 14.6538 16.8765C15.229 16.3755 15.9102 16.125 16.6973 16.125H34.1348Z" fill="#FF3365" stroke="#D43274"/>
<path fill-rule="evenodd" clip-rule="evenodd" d="M29.775 21.4117C30.2122 21.734 30.5155 22.1307 30.6847 22.6018C30.854 23.073 30.8787 23.5472 30.7588 24.0245C30.6389 24.5018 30.3815 24.914 29.9865 25.2611L25.9033 28.9804C25.7622 29.1044 25.6 29.1663 25.4167 29.1663C25.2333 29.1663 25.0711 29.1044 24.9301 28.9804L20.8468 25.2797C20.4519 24.9202 20.1945 24.5018 20.0746 24.0245C19.9547 23.5472 19.9794 23.073 20.1486 22.6018C20.3179 22.1307 20.6211 21.734 21.0584 21.4117C21.4392 21.1265 21.8694 20.9468 22.3489 20.8724C22.8285 20.798 23.301 20.829 23.7664 20.9654C24.2319 21.1017 24.6409 21.3311 24.9935 21.6534L25.4167 22.0254L25.8398 21.6534C26.1924 21.3311 26.6014 21.1017 27.0669 20.9654C27.5324 20.829 28.0049 20.798 28.4844 20.8724C28.964 20.9468 29.3942 21.1265 29.775 21.4117Z" fill="white"/>
</svg>
