<svg width="13" height="16" viewBox="0 0 13 16" fill="none" xmlns="http://www.w3.org/2000/svg">
<path d="M3.50602 0.881353C3.61006 0.881353 3.70717 0.932201 3.75572 1.09152L4.85511 4.69829C4.85511 4.69829 5.0736 5.35592 4.57073 5.35592H1.45637C0.870255 5.35592 0.939617 4.71185 0.943085 4.69829C1.13036 3.1966 1.95577 1.88474 3.14533 1.01695C3.23897 0.955929 3.38117 0.881353 3.50602 0.881353ZM3.50602 0C3.2251 0 2.93725 0.094915 2.6494 0.281355L2.62859 0.294914L2.60778 0.308474C1.91069 0.820337 1.33151 1.44406 0.891063 2.16949C0.436741 2.91525 0.152356 3.7288 0.0448444 4.58982V4.59999V4.61016C0.0275039 4.77626 0.00322712 5.35931 0.415932 5.80676C0.67604 6.08812 1.04366 6.24066 1.45637 6.24066H4.57073C4.9765 6.24066 5.34065 6.06778 5.56608 5.76609C5.93716 5.26439 5.7811 4.64405 5.71867 4.44406L4.61928 0.840676C4.46322 0.328813 4.02623 0 3.50602 0Z" fill="black"/>
<path d="M3.50602 0.881353C3.61006 0.881353 3.70717 0.932201 3.75572 1.09152L4.85511 4.69829C4.85511 4.69829 5.0736 5.35592 4.57073 5.35592H1.45637C0.870255 5.35592 0.939617 4.71185 0.943085 4.69829C1.13036 3.1966 1.95577 1.88474 3.14533 1.01695C3.23897 0.955929 3.38117 0.881353 3.50602 0.881353ZM3.50602 0C3.2251 0 2.93725 0.094915 2.6494 0.281355L2.62859 0.294914L2.60778 0.308474C1.91069 0.820337 1.33151 1.44406 0.891063 2.16949C0.436741 2.91525 0.152356 3.7288 0.0448444 4.58982V4.59999V4.61016C0.0275039 4.77626 0.00322712 5.35931 0.415932 5.80676C0.67604 6.08812 1.04366 6.24066 1.45637 6.24066H4.57073C4.9765 6.24066 5.34065 6.06778 5.56608 5.76609C5.93716 5.26439 5.7811 4.64405 5.71867 4.44406L4.61928 0.840676C4.46322 0.328813 4.02623 0 3.50602 0Z" stroke="black"/>
<path d="M10.7304 6.25416C10.9107 6.25755 11.5419 6.31517 11.5454 6.95246C11.1812 9.39313 8.9547 11.2779 6.25304 11.2779C3.49243 11.2779 1.22428 9.31516 0.936431 6.79653C0.926027 6.64738 0.943367 6.25416 1.46012 6.25416H10.7304ZM10.7373 5.3728H10.7304H1.45665C0.912154 5.3728 0.579216 5.59992 0.395406 5.79314C0.135298 6.06772 0.00697753 6.44738 0.0347224 6.85754V6.87788L0.0381905 6.89822C0.20466 8.34229 0.926027 9.67449 2.07397 10.6508C3.22192 11.627 4.70627 12.1626 6.24958 12.1626C7.76167 12.1626 9.21828 11.6474 10.3524 10.7084C11.4864 9.77279 12.2251 8.48466 12.4332 7.08466L12.4436 7.02026V6.95585C12.4402 6.35924 12.1419 5.86433 11.6251 5.59314C11.2818 5.41348 10.9246 5.37958 10.7408 5.37619L10.7373 5.3728Z" fill="black"/>
<path d="M10.7304 6.25416C10.9107 6.25755 11.5419 6.31517 11.5454 6.95246C11.1812 9.39313 8.9547 11.2779 6.25304 11.2779C3.49243 11.2779 1.22428 9.31516 0.936431 6.79653C0.926027 6.64738 0.943367 6.25416 1.46012 6.25416H10.7304ZM10.7373 5.3728H10.7304H1.45665C0.912154 5.3728 0.579216 5.59992 0.395406 5.79314C0.135298 6.06772 0.00697753 6.44738 0.0347224 6.85754V6.87788L0.0381905 6.89822C0.20466 8.34229 0.926027 9.67449 2.07397 10.6508C3.22192 11.627 4.70627 12.1626 6.24958 12.1626C7.76167 12.1626 9.21828 11.6474 10.3524 10.7084C11.4864 9.77279 12.2251 8.48466 12.4332 7.08466L12.4436 7.02026V6.95585C12.4402 6.35924 12.1419 5.86433 11.6251 5.59314C11.2818 5.41348 10.9246 5.37958 10.7408 5.37619L10.7373 5.3728Z" stroke="black"/>
<path d="M2.59068 11.817C3.5236 11.817 4.27965 12.556 4.27965 13.4679C4.27965 14.3797 3.5236 15.1187 2.59068 15.1187C1.65776 15.1187 0.901709 14.3797 0.901709 13.4679C0.901709 12.556 1.65776 11.817 2.59068 11.817ZM2.59068 10.9357C1.16182 10.9357 0 12.0713 0 13.4679C0 14.8645 1.16182 16.0001 2.59068 16.0001C4.01954 16.0001 5.18136 14.8645 5.18136 13.4679C5.18482 12.0713 4.01954 10.9357 2.59068 10.9357Z" fill="black"/>
<path d="M2.59068 11.817C3.5236 11.817 4.27965 12.556 4.27965 13.4679C4.27965 14.3797 3.5236 15.1187 2.59068 15.1187C1.65776 15.1187 0.901709 14.3797 0.901709 13.4679C0.901709 12.556 1.65776 11.817 2.59068 11.817ZM2.59068 10.9357C1.16182 10.9357 0 12.0713 0 13.4679C0 14.8645 1.16182 16.0001 2.59068 16.0001C4.01954 16.0001 5.18136 14.8645 5.18136 13.4679C5.18482 12.0713 4.01954 10.9357 2.59068 10.9357Z" stroke="black"/>
<path d="M9.85313 11.817C10.786 11.817 11.5421 12.556 11.5421 13.4679C11.5421 14.3797 10.786 15.1187 9.85313 15.1187C8.92021 15.1187 8.16416 14.3797 8.16416 13.4679C8.16416 12.556 8.92021 11.817 9.85313 11.817ZM9.85313 10.9357C8.42427 10.9357 7.26245 12.0713 7.26245 13.4679C7.26245 14.8645 8.42427 16.0001 9.85313 16.0001C11.282 16.0001 12.4438 14.8645 12.4438 13.4679C12.4473 12.0713 11.282 10.9357 9.85313 10.9357Z" fill="black"/>
<path d="M9.85313 11.817C10.786 11.817 11.5421 12.556 11.5421 13.4679C11.5421 14.3797 10.786 15.1187 9.85313 15.1187C8.92021 15.1187 8.16416 14.3797 8.16416 13.4679C8.16416 12.556 8.92021 11.817 9.85313 11.817ZM9.85313 10.9357C8.42427 10.9357 7.26245 12.0713 7.26245 13.4679C7.26245 14.8645 8.42427 16.0001 9.85313 16.0001C11.282 16.0001 12.4438 14.8645 12.4438 13.4679C12.4473 12.0713 11.282 10.9357 9.85313 10.9357Z" stroke="black"/>
</svg>
