<svg width="13" height="13" viewBox="0 0 13 13" fill="none" xmlns="http://www.w3.org/2000/svg">
<path d="M6.5 0C2.914 0 0 2.914 0 6.5C0 10.086 2.914 13 6.5 13C10.086 13 13 10.0799 13 6.5C13 2.92011 10.0799 0 6.5 0ZM6.5 12.1447C3.39051 12.1447 0.855263 9.6156 0.855263 6.5C0.855263 3.3844 3.3844 0.855263 6.5 0.855263C9.6156 0.855263 12.1447 3.3844 12.1447 6.5C12.1447 9.6156 9.60949 12.1447 6.5 12.1447Z" fill="black"/>
<path d="M6.92756 6.11507V3.68979C7.17192 3.78142 7.37963 3.94637 7.52625 4.16629C7.65454 4.36178 7.92333 4.41676 8.11882 4.28847C8.31431 4.16018 8.36929 3.89139 8.241 3.6959C7.93555 3.23161 7.45905 2.91394 6.92756 2.80398V2.11977C6.92756 1.88152 6.73818 1.69214 6.49993 1.69214C6.26168 1.69214 6.0723 1.88152 6.0723 2.11977V2.79787C5.1254 2.99336 4.41064 3.83641 4.41064 4.83828C4.41064 5.84016 5.1254 6.68321 6.0723 6.8787V9.30398C5.82794 9.21235 5.62023 9.0474 5.47361 8.82748C5.34533 8.63199 5.07653 8.57701 4.88104 8.7053C4.68555 8.83359 4.63057 9.10238 4.75886 9.29787C5.06431 9.76216 5.54081 10.0798 6.0723 10.1898V10.874C6.0723 11.1123 6.26168 11.3016 6.49993 11.3016C6.73818 11.3016 6.92756 11.1123 6.92756 10.874V10.202C7.87446 10.0065 8.58922 9.16347 8.58922 8.16159C8.58922 7.15971 7.87446 6.31056 6.92756 6.11507ZM5.26591 4.83828C5.26591 4.3068 5.6019 3.86084 6.0723 3.68368V5.98678C5.6019 5.82184 5.26591 5.36977 5.26591 4.83828ZM6.92756 9.31009V7.00699C7.39796 7.17804 7.73395 7.63011 7.73395 8.16159C7.73395 8.69308 7.39796 9.13904 6.92756 9.31009Z" fill="black"/>
</svg>
