<svg width="23" height="21" viewBox="0 0 23 21" fill="none" xmlns="http://www.w3.org/2000/svg">
<path fill-rule="evenodd" clip-rule="evenodd" d="M16.2193 6.48623C16.5422 6.75707 16.7662 7.0904 16.8912 7.48625C17.0162 7.88209 17.0344 8.28054 16.9459 8.68159C16.8573 9.08264 16.6672 9.429 16.3756 9.72068L13.3599 12.8458C13.2557 12.9499 13.1359 13.002 13.0005 13.002C12.8651 13.002 12.7453 12.9499 12.6411 12.8458L9.6254 9.7363C9.33372 9.43421 9.14361 9.08264 9.05507 8.68159C8.96653 8.28054 8.98476 7.88209 9.10976 7.48625C9.23476 7.0904 9.45872 6.75707 9.78165 6.48623C10.0629 6.24663 10.3806 6.09559 10.7348 6.03309C11.089 5.97059 11.4379 5.99663 11.7817 6.11122C12.1255 6.2258 12.4275 6.41851 12.688 6.68935L13.0005 7.00186L13.313 6.68935C13.5734 6.41851 13.8755 6.2258 14.2193 6.11122C14.563 5.99663 14.912 5.97059 15.2662 6.03309C15.6203 6.09559 15.938 6.24663 16.2193 6.48623Z" fill="white"/>
<path d="M4.85714 6.82812C4.85714 5.68222 5.81043 4.75 6.98214 4.75H12.1429V2.07812C12.1429 1.58624 11.7351 1.1875 11.2321 1.1875H8.17328C7.75268 0.47834 6.96837 0 6.07143 0C5.17449 0 4.39017 0.47834 3.96958 1.1875H0.910714C0.407734 1.1875 0 1.58624 0 2.07812V14.5469C0 15.0388 0.407734 15.4375 0.910714 15.4375H4.85714V6.82812ZM6.07143 1.48438C6.57441 1.48438 6.98214 1.88312 6.98214 2.375C6.98214 2.86688 6.57441 3.26562 6.07143 3.26562C5.56845 3.26562 5.16071 2.86688 5.16071 2.375C5.16071 1.88312 5.56845 1.48438 6.07143 1.48438ZM13.0536 10.6875H17V18.1094C17 18.6013 16.5923 19 16.0893 19H6.98214C6.47916 19 6.07143 18.6013 6.07143 18.1094V6.82812C6.07143 6.33624 6.47916 5.9375 6.98214 5.9375H12.1429V9.79688C12.1429 10.2867 12.5527 10.6875 13.0536 10.6875ZM17 9.27515V9.5H13.3571V5.9375H13.5871C13.8286 5.9375 14.0602 6.03133 14.231 6.19834L16.7332 8.64537C16.904 8.8124 17 9.03894 17 9.27515Z" fill="#1FC39B"/>
</svg>
