<svg width="46" height="46" viewBox="0 0 46 46" fill="none" xmlns="http://www.w3.org/2000/svg">
<path fill-rule="evenodd" clip-rule="evenodd" d="M22.6439 45.9998C12.8011 45.8504 4.45747 39.5177 1.32495 30.7139L3.31491 30.0673C6.17418 38.0327 13.7303 43.7596 22.6439 43.9085V45.9998Z" fill="#762FE6"/>
<path opacity="0.149287" fill-rule="evenodd" clip-rule="evenodd" d="M23.4801 45.9977V43.9062C32.3985 43.7052 39.9385 37.9199 42.7411 29.9094L44.7306 30.5559C41.6551 39.4048 33.3277 45.796 23.4801 45.9977Z" fill="#3A2D56"/>
<path fill-rule="evenodd" clip-rule="evenodd" d="M1.05898 29.9209C0.370984 27.737 0 25.4125 0 23.0013C0 15.5366 3.5557 8.90244 9.06569 4.70027L10.2951 6.39253C5.30731 10.2141 2.09091 16.2321 2.09091 23.0013C2.09091 25.1869 2.42621 27.2942 3.04817 29.2745L1.05898 29.9209Z" fill="#762FE6"/>
<path fill-rule="evenodd" clip-rule="evenodd" d="M44.9908 29.761L43.0014 29.1146C43.5916 27.1809 43.9091 25.1282 43.9091 23.0014C43.9091 16.2032 40.6651 10.1628 35.6407 6.34372L36.8701 4.6516C42.4166 8.8511 46 15.5078 46 23.0014C46 25.3538 45.6469 27.6237 44.9908 29.761Z" fill="#762FE6"/>
<path fill-rule="evenodd" clip-rule="evenodd" d="M36.1942 4.15873L34.9649 5.8508C31.575 3.48113 27.4498 2.09102 23 2.09102C18.5213 2.09102 14.3714 3.49926 10.9691 5.89713L9.73984 4.20515C13.4873 1.55628 18.0619 0 23 0C27.9092 0 32.4591 1.53811 36.1942 4.15873Z" fill="#762FE6"/>
</svg>
