<svg width="24" height="24" viewBox="0 0 24 24" fill="none" xmlns="http://www.w3.org/2000/svg">
<path fill-rule="evenodd" clip-rule="evenodd" d="M9 12C10.93 12 12.5 10.43 12.5 8.50003C12.5 6.57003 10.93 5.00003 9 5.00003C7.07 5.00003 5.5 6.57003 5.5 8.50003C5.5 10.43 7.07 12 9 12ZM2 17.25C2 14.92 6.66 13.75 9 13.75C11.34 13.75 16 14.92 16 17.25V19H2V17.25ZM8.99999 15.75C7.20999 15.75 5.17999 16.42 4.33999 17H13.66C12.82 16.42 10.79 15.75 8.99999 15.75ZM10.5 8.50005C10.5 7.67005 9.83 7.00005 9 7.00005C8.17 7.00005 7.5 7.67005 7.5 8.50005C7.5 9.33005 8.17 10 9 10C9.83 10 10.5 9.33005 10.5 8.50005ZM16.04 13.81C17.2 14.65 18 15.77 18 17.25V19H22V17.25C22 15.23 18.5 14.08 16.04 13.81ZM18.5 8.50003C18.5 10.43 16.93 12 15 12C14.46 12 13.96 11.87 13.5 11.65C14.13 10.76 14.5 9.67003 14.5 8.50003C14.5 7.33003 14.13 6.24003 13.5 5.35003C13.96 5.13003 14.46 5.00003 15 5.00003C16.93 5.00003 18.5 6.57003 18.5 8.50003Z" fill="#31D68B"/>
</svg>
