<svg width="24" height="22" viewBox="0 0 24 22" fill="none" xmlns="http://www.w3.org/2000/svg">
<path fill-rule="evenodd" clip-rule="evenodd" d="M20.4375 1.12451C21.1992 1.12451 21.8584 1.375 22.415 1.87598C22.9717 2.37696 23.25 2.97021 23.25 3.65576V15.0464C23.25 15.7319 22.9717 16.3252 22.415 16.8262C21.8584 17.3271 21.1992 17.5776 20.4375 17.5776H14.1094L8.61621 21.2954C8.44043 21.4009 8.25733 21.4075 8.06689 21.3152C7.87646 21.2229 7.78125 21.0845 7.78125 20.8999V17.5776H3.5625C2.80078 17.5776 2.1416 17.3271 1.58496 16.8262C1.02832 16.3252 0.75 15.7319 0.75 15.0464V3.65576C0.75 2.97021 1.02832 2.37696 1.58496 1.87598C2.1416 1.375 2.80078 1.12451 3.5625 1.12451H20.4375Z" fill="#1FC39B" stroke="#298B5D"/>
<path fill-rule="evenodd" clip-rule="evenodd" d="M15.4056 5.05075L16.2233 4.23647C18.2276 6.2308 18.2551 9.23615 16.2985 11.1795L15.4633 10.377C16.8507 8.78991 16.8263 6.5384 15.4056 5.05075ZM12.665 7.73851C12.6767 8.83518 11.7769 9.72984 10.6543 9.73775C9.53162 9.74567 8.61277 8.86383 8.601 7.76717C8.58923 6.67051 9.489 5.77585 10.6117 5.76793C11.7343 5.76002 12.6532 6.64185 12.665 7.73851ZM6.61549 12.7405C6.60131 11.4186 9.30336 10.7336 10.6605 10.724C12.0176 10.7144 14.734 11.3612 14.7482 12.6831L14.7588 13.677L6.62615 13.7344L6.61549 12.7405ZM13.7158 6.7599C14.1483 7.34214 14.1564 8.10099 13.7365 8.68925L14.5979 9.52144C15.6121 8.51233 15.5959 6.9996 14.5592 5.91568L13.7158 6.7599Z" fill="white"/>
</svg>
