<svg width="25" height="22" viewBox="0 0 25 22" fill="none" xmlns="http://www.w3.org/2000/svg">
<path fill-rule="evenodd" clip-rule="evenodd" d="M21.1354 1.12451C21.9226 1.12451 22.6037 1.375 23.1789 1.87598C23.7541 2.37696 24.0417 2.97021 24.0417 3.65576V15.0464C24.0417 15.7319 23.7541 16.3252 23.1789 16.8262C22.6037 17.3271 21.9226 17.5776 21.1354 17.5776H14.5964L8.9201 21.2954C8.73846 21.4009 8.54926 21.4075 8.35248 21.3152C8.1557 21.2229 8.05731 21.0845 8.05731 20.8999V17.5776H3.69794C2.91082 17.5776 2.22968 17.3271 1.65448 16.8262C1.07928 16.3252 0.791687 15.7319 0.791687 15.0464V3.65576C0.791687 2.97021 1.07928 2.37696 1.65448 1.87598C2.22968 1.375 2.91082 1.12451 3.69794 1.12451H21.1354Z" fill="#762FE6" stroke="#4D17BC"/>
<path fill-rule="evenodd" clip-rule="evenodd" d="M13.0994 6.93915C13.1109 8.00003 12.1809 8.86615 11.0212 8.87462C9.86146 8.88309 8.91283 8.03069 8.90134 6.96982C8.88986 5.90894 9.81988 5.04282 10.9796 5.03435C12.1393 5.02588 13.0879 5.87828 13.0994 6.93915ZM6.84474 11.7813C6.83104 10.502 9.6233 9.83726 11.0255 9.82711C12.4277 9.81697 15.2338 10.4412 15.2475 11.7205L15.2578 12.6824L6.85504 12.7432L6.84474 11.7813Z" fill="white"/>
<path d="M17.8659 9.80076V8.09253H19.6823V6.95371H17.8659V5.24548H16.655V6.95371H14.8386V8.09253H16.655V9.80076H17.8659Z" fill="white"/>
</svg>
