<svg width="11" height="11" viewBox="0 0 11 11" fill="none" xmlns="http://www.w3.org/2000/svg">
<path d="M3.19756 4.08117L2.51683 4.7842L4.7208 7.02347L9.58318 2.00187L8.89779 1.3049L4.71615 5.62348L3.19756 4.08117ZM9.10524 5.00402C9.11255 7.20401 7.36209 9.01178 5.21534 9.02129C3.06859 9.03081 1.30617 7.2386 1.29886 5.03862C1.29156 2.83863 3.04201 1.03085 5.18877 1.02134C5.57908 1.01961 5.91982 1.06712 6.26264 1.16756L7.04062 0.364107C6.45448 0.166703 5.81876 0.0185391 5.18544 0.0213458C2.50296 0.0332342 0.313935 2.29394 0.323066 5.04294C0.332198 7.79194 2.53618 10.0332 5.21866 10.0213C7.90115 10.0094 10.0902 7.7487 10.081 4.99969L9.10524 5.00402Z" fill="#762FE6"/>
</svg>
