<svg width="24" height="25" viewBox="0 0 24 25" fill="none" xmlns="http://www.w3.org/2000/svg">
<path opacity="0.7" fill-rule="evenodd" clip-rule="evenodd" d="M20.245 0.636719C20.9896 0.636719 21.6339 0.923395 22.1781 1.49676C22.7222 2.07012 22.9943 2.74909 22.9943 3.53369V16.5701C22.9943 17.3547 22.7222 18.0336 22.1781 18.607C21.6339 19.1804 20.9896 19.467 20.245 19.467H14.0591L8.6894 23.722C8.51757 23.8427 8.33858 23.8502 8.15243 23.7446C7.96628 23.639 7.87321 23.4806 7.87321 23.2693V19.467H3.74928C3.00468 19.467 2.36033 19.1804 1.81619 18.607C1.27206 18.0336 1 17.3547 1 16.5701V3.53369C1 2.74909 1.27206 2.07012 1.81619 1.49676C2.36033 0.923395 3.00468 0.636719 3.74928 0.636719H20.245Z" fill="white" stroke="#D43274"/>
</svg>
