<svg width="28" height="20" viewBox="0 0 28 20" fill="none" xmlns="http://www.w3.org/2000/svg">
<path d="M6 5.71429C6 6.75704 5.17314 7.57143 4.2 7.57143C3.22686 7.57143 2.4 6.75704 2.4 5.71429C2.4 4.67154 3.22686 3.85714 4.2 3.85714C5.17314 3.85714 6 4.67154 6 5.71429ZM25.6 5.71429C25.6 6.75704 24.7731 7.57143 23.8 7.57143C22.8269 7.57143 22 6.75704 22 5.71429C22 4.67154 22.8269 3.85714 23.8 3.85714C24.7731 3.85714 25.6 4.67154 25.6 5.71429ZM22.4 11H25.2C26.1731 11 27 11.8144 27 12.8571V14.2857C27 14.5427 26.8031 14.7143 26.6 14.7143H24.5408C24.1798 13.2605 23.4062 11.9795 22.3495 11.0007C22.3663 11.0002 22.3831 11 22.4 11ZM17.9 5C17.9 7.23025 16.1369 9 14 9C11.8631 9 10.1 7.23025 10.1 5C10.1 2.76975 11.8631 1 14 1C16.1369 1 17.9 2.76975 17.9 5ZM14 13.1429C15.1591 13.1429 16.2447 12.8739 17.2213 12.4286H17.36C19.5713 12.4286 21.4 14.2653 21.4 16.5714V17.8571C21.4 18.507 20.8881 19 20.3 19H7.7C7.11186 19 6.6 18.507 6.6 17.8571V16.5714C6.6 14.2653 8.42873 12.4286 10.64 12.4286H10.7795C11.7577 12.8733 12.8395 13.1429 14 13.1429ZM5.6 11C5.61685 11 5.63364 11.0002 5.65038 11.0007C4.59336 11.9796 3.81926 13.2607 3.45625 14.7143H1.4C1.19686 14.7143 1 14.5428 1 14.2857V12.8571C1 11.8144 1.82686 11 2.8 11H5.6Z" stroke="white" stroke-width="2"/>
</svg>
