<svg width="19" height="19" viewBox="0 0 19 19" fill="none" xmlns="http://www.w3.org/2000/svg">
<path d="M17.2188 0H5.34375C4.36035 0 3.5625 0.797852 3.5625 1.78125V3.5625H1.78125C0.797852 3.5625 0 4.36035 0 5.34375V17.2188C0 18.2021 0.797852 19 1.78125 19H13.6562C14.6396 19 15.4375 18.2021 15.4375 17.2188V15.4375H17.2188C18.2021 15.4375 19 14.6396 19 13.6562V1.78125C19 0.797852 18.2021 0 17.2188 0ZM13.6562 17.2188H1.78125V9.5H13.6562V17.2188ZM17.2188 13.6562H15.4375V5.34375C15.4375 4.36035 14.6396 3.5625 13.6562 3.5625H5.34375V1.78125H17.2188V13.6562Z" fill="white"/>
</svg>
