<svg width="18" height="12" viewBox="0 0 18 12" fill="none" xmlns="http://www.w3.org/2000/svg">
<path fill-rule="evenodd" clip-rule="evenodd" d="M0 6C1.384 2.488 4.8 0 8.8 0C12.8 0 16.216 2.488 17.6 6C16.216 9.512 12.8 12 8.8 12C4.8 12 1.384 9.512 0 6ZM15.8552 6.0001C14.5352 3.3041 11.8312 1.6001 8.79916 1.6001C5.76716 1.6001 3.06316 3.3041 1.74316 6.0001C3.06316 8.6961 5.76716 10.4001 8.79916 10.4001C11.8312 10.4001 14.5352 8.6961 15.8552 6.0001ZM8.80078 3.99951C9.90478 3.99951 10.8008 4.89551 10.8008 5.99951C10.8008 7.10351 9.90478 7.99951 8.80078 7.99951C7.69678 7.99951 6.80078 7.10351 6.80078 5.99951C6.80078 4.89551 7.69678 3.99951 8.80078 3.99951ZM5.19922 5.99941C5.19922 4.01541 6.81522 2.39941 8.79922 2.39941C10.7832 2.39941 12.3992 4.01541 12.3992 5.99941C12.3992 7.98341 10.7832 9.59941 8.79922 9.59941C6.81522 9.59941 5.19922 7.98341 5.19922 5.99941Z" fill="#B0BAC5"/>
</svg>
