<svg width="16" height="19" viewBox="0 0 16 19" fill="none" xmlns="http://www.w3.org/2000/svg">
<path d="M15.0073 15.792C15.2633 16.096 15.3913 16.4 15.3913 16.704C15.3913 17.088 15.2393 17.424 14.9353 17.712C14.6473 18 14.3113 18.144 13.9273 18.144C13.5273 18.144 13.1753 17.968 12.8713 17.616L7.99925 11.568L3.10325 17.616C2.81525 17.952 2.47125 18.12 2.07125 18.12C1.68725 18.12 1.34325 17.984 1.03925 17.712C0.75125 17.424 0.60725 17.088 0.60725 16.704C0.60725 16.384 0.72725 16.08 0.96725 15.792L6.19925 9.408L1.18325 3.288C0.94325 3.032 0.82325 2.728 0.82325 2.376C0.82325 1.992 0.96725 1.664 1.25525 1.392C1.54325 1.104 1.87925 0.959999 2.26325 0.959999C2.66325 0.959999 3.01525 1.136 3.31925 1.488L7.99925 7.272L12.6793 1.488C12.9673 1.136 13.3113 0.959999 13.7113 0.959999C14.0953 0.959999 14.4313 1.104 14.7193 1.392C15.0233 1.664 15.1753 1.992 15.1753 2.376C15.1753 2.728 15.0553 3.032 14.8153 3.288L9.79925 9.408L15.0073 15.792Z" fill="#333333"/>
</svg>
