<?xml version="1.0" encoding="UTF-8"?>
<svg width="21px" height="18px" viewBox="0 0 21 18" version="1.1" xmlns="http://www.w3.org/2000/svg" xmlns:xlink="http://www.w3.org/1999/xlink">
    <!-- Generator: sketchtool 50.2 (55047) - http://www.bohemiancoding.com/sketch -->
    <title>479B1A5D-C6EB-42CA-BFE2-F84EDF1FEC77-645-000086B8F17058BD</title>
    <desc>Created with sketchtool.</desc>
    <defs></defs>
    <g id="Page-1" stroke="none" stroke-width="1" fill="none" fill-rule="evenodd">
        <g id="02-Dashboard---Hamburger-Expanded" transform="translate(-1209.000000, -182.000000)" stroke="#7D1CFF">
            <g id="Side-bar" transform="translate(1180.000000, 0.000000)">
                <g id="bottomInfo" transform="translate(0.000000, 75.000000)">
                    <g id="feedback" transform="translate(0.000000, 92.000000)">
                        <g id="ic-feedback" transform="translate(30.000000, 15.000000)">
                            <g id="Shape">
                                <path d="M17.821,15.096 L3.525,12.19 L2.847,8.347 L15.287,0.727 C15.5542753,0.562562377 15.8856516,0.541205 16.1718241,0.66997262 C16.4579966,0.798740239 16.6617964,1.06090814 16.716,1.37 L18.943,14.003 C18.9976938,14.3118058 18.8959603,14.6276605 18.6713191,14.8464955 C18.4466779,15.0653304 18.128268,15.1587597 17.821,15.096 Z M3.525,12.19 L2.368,12.394 C1.8572351,12.4897741 1.32941388,12.376078 0.903377281,12.0785107 C0.477340685,11.7809434 0.188900455,11.3245179 0.103,10.812 C0.00850306553,10.3011002 0.123435565,9.77366228 0.421929338,9.34839799 C0.720423111,8.92313371 1.17739747,8.63577556 1.69,8.551 L2.846,8.347 L3.525,12.19 Z M12.76,14.088 L12.464,15.567 C12.3858162,15.9776138 12.1462205,16.3397186 11.7988654,16.5722285 C11.4515102,16.8047384 11.0254169,16.8882275 10.616,16.804 L6.788,16.053 C5.963,15.881 5.384,15.072 5.55,14.21 L5.838,12.693 L12.76,14.088 Z"></path>
                            </g>
                        </g>
                    </g>
                </g>
            </g>
        </g>
    </g>
</svg>