<svg width="152" height="42" viewBox="0 0 152 42" fill="none" xmlns="http://www.w3.org/2000/svg">
<path d="M1 21C1 9.95431 9.95431 1 21 1H131C142.046 1 151 9.95431 151 21C151 32.0457 142.046 41 131 41H21C9.9543 41 1 32.0457 1 21Z" fill="white" stroke="#979797"/>
<path d="M62.792 25.07C62.6147 25.07 62.4747 25.0187 62.372 24.916C62.2693 24.804 62.218 24.6593 62.218 24.482V15.69C62.218 15.522 62.2693 15.3867 62.372 15.284C62.484 15.1813 62.6287 15.13 62.806 15.13H67.902C68.07 15.13 68.2007 15.172 68.294 15.256C68.3873 15.34 68.434 15.4613 68.434 15.62C68.434 15.7693 68.3873 15.886 68.294 15.97C68.2007 16.054 68.07 16.096 67.902 16.096H63.352V19.498H67.622C67.79 19.498 67.9207 19.54 68.014 19.624C68.1073 19.708 68.154 19.8293 68.154 19.988C68.154 20.1373 68.1073 20.254 68.014 20.338C67.9207 20.422 67.79 20.464 67.622 20.464H63.352V24.482C63.352 24.6593 63.3007 24.804 63.198 24.916C63.1047 25.0187 62.9693 25.07 62.792 25.07ZM72.4239 18.014C74.1319 18.014 74.9859 18.91 74.9859 20.702V24.51C74.9859 24.678 74.9346 24.8133 74.8319 24.916C74.7386 25.0187 74.6079 25.07 74.4399 25.07C74.2719 25.07 74.1366 25.0187 74.0339 24.916C73.9312 24.8133 73.8799 24.678 73.8799 24.51V23.838C73.7026 24.2393 73.4319 24.552 73.0679 24.776C72.7039 24.9907 72.2839 25.098 71.8079 25.098C71.3692 25.098 70.9632 25.0093 70.5899 24.832C70.2259 24.6547 69.9366 24.4073 69.7219 24.09C69.5072 23.7727 69.3999 23.4227 69.3999 23.04C69.3999 22.5267 69.5306 22.13 69.7919 21.85C70.0532 21.5607 70.4826 21.3553 71.0799 21.234C71.6772 21.1033 72.5079 21.038 73.5719 21.038H73.8799V20.576C73.8799 20.016 73.7632 19.6053 73.5299 19.344C73.3059 19.0827 72.9372 18.952 72.4239 18.952C71.7892 18.952 71.1452 19.1247 70.4919 19.47C70.2399 19.6287 70.0626 19.708 69.9599 19.708C69.8479 19.708 69.7546 19.666 69.6799 19.582C69.6052 19.498 69.5679 19.3907 69.5679 19.26C69.5679 19.1293 69.6052 19.0173 69.6799 18.924C69.7639 18.8213 69.8946 18.7187 70.0719 18.616C70.3986 18.4293 70.7672 18.2847 71.1779 18.182C71.5979 18.07 72.0132 18.014 72.4239 18.014ZM71.9619 24.202C72.5219 24.202 72.9792 24.0153 73.3339 23.642C73.6979 23.2593 73.8799 22.7693 73.8799 22.172V21.766H73.6279C72.8066 21.766 72.1812 21.8033 71.7519 21.878C71.3226 21.9433 71.0146 22.06 70.8279 22.228C70.6506 22.3867 70.5619 22.6247 70.5619 22.942C70.5619 23.306 70.6926 23.6093 70.9539 23.852C71.2246 24.0853 71.5606 24.202 71.9619 24.202ZM79.8757 25.098C79.2411 25.098 78.6764 24.9533 78.1817 24.664C77.6964 24.3747 77.3184 23.964 77.0477 23.432C76.7864 22.9 76.6557 22.284 76.6557 21.584C76.6557 20.884 76.7911 20.2633 77.0617 19.722C77.3417 19.1807 77.7291 18.7607 78.2237 18.462C78.7184 18.1633 79.2877 18.014 79.9317 18.014C80.2864 18.014 80.6364 18.0653 80.9817 18.168C81.3364 18.2613 81.6444 18.4013 81.9057 18.588C82.0737 18.7 82.1904 18.812 82.2557 18.924C82.3304 19.0267 82.3677 19.1433 82.3677 19.274C82.3677 19.4047 82.3304 19.512 82.2557 19.596C82.1904 19.68 82.1017 19.722 81.9897 19.722C81.9244 19.722 81.8544 19.7033 81.7797 19.666C81.7051 19.6287 81.6397 19.5913 81.5837 19.554C81.5371 19.5167 81.5044 19.4933 81.4857 19.484C81.2431 19.3253 81.0097 19.1993 80.7857 19.106C80.5711 19.0127 80.3051 18.966 79.9877 18.966C79.3064 18.966 78.7744 19.1993 78.3917 19.666C78.0184 20.1233 77.8317 20.7627 77.8317 21.584C77.8317 22.4053 78.0184 23.04 78.3917 23.488C78.7744 23.936 79.3064 24.16 79.9877 24.16C80.3051 24.16 80.5757 24.1133 80.7997 24.02C81.0331 23.9267 81.2664 23.8007 81.4997 23.642C81.6024 23.5767 81.7004 23.5207 81.7937 23.474C81.8871 23.4273 81.9664 23.404 82.0317 23.404C82.1344 23.404 82.2184 23.446 82.2837 23.53C82.3584 23.614 82.3957 23.7213 82.3957 23.852C82.3957 23.9733 82.3631 24.0853 82.2977 24.188C82.2324 24.2813 82.1111 24.3887 81.9337 24.51C81.6724 24.6873 81.3551 24.832 80.9817 24.944C80.6177 25.0467 80.2491 25.098 79.8757 25.098ZM89.0389 23.418C89.1416 23.418 89.2303 23.46 89.3049 23.544C89.3796 23.628 89.4169 23.7353 89.4169 23.866C89.4169 24.0993 89.2536 24.314 88.9269 24.51C88.5909 24.706 88.2363 24.8553 87.8629 24.958C87.4896 25.0513 87.1256 25.098 86.7709 25.098C85.7163 25.098 84.8809 24.7853 84.2649 24.16C83.6583 23.5347 83.3549 22.6713 83.3549 21.57C83.3549 20.87 83.4903 20.254 83.7609 19.722C84.0316 19.1807 84.4096 18.7607 84.8949 18.462C85.3896 18.1633 85.9496 18.014 86.5749 18.014C87.4616 18.014 88.1663 18.3033 88.6889 18.882C89.2116 19.4607 89.4729 20.2447 89.4729 21.234C89.4729 21.4207 89.4356 21.556 89.3609 21.64C89.2863 21.724 89.1649 21.766 88.9969 21.766H84.4889C84.5729 23.3713 85.3336 24.174 86.7709 24.174C87.1349 24.174 87.4476 24.1273 87.7089 24.034C87.9703 23.9313 88.2503 23.796 88.5489 23.628C88.7916 23.488 88.9549 23.418 89.0389 23.418ZM86.5889 18.896C85.9916 18.896 85.5109 19.0827 85.1469 19.456C84.7923 19.8293 84.5823 20.3567 84.5169 21.038H88.4789C88.4603 20.3473 88.2876 19.82 87.9609 19.456C87.6343 19.0827 87.1769 18.896 86.5889 18.896ZM94.5738 18.014C95.1711 18.014 95.6984 18.1587 96.1558 18.448C96.6131 18.7373 96.9678 19.148 97.2198 19.68C97.4718 20.212 97.5978 20.828 97.5978 21.528C97.5978 22.2373 97.4718 22.8627 97.2198 23.404C96.9678 23.936 96.6131 24.3513 96.1558 24.65C95.6984 24.9487 95.1711 25.098 94.5738 25.098C94.0418 25.098 93.5751 24.9813 93.1738 24.748C92.7818 24.5147 92.4831 24.1833 92.2778 23.754V24.51C92.2778 24.678 92.2264 24.8133 92.1238 24.916C92.0304 25.0187 91.8951 25.07 91.7178 25.07C91.5404 25.07 91.4004 25.0187 91.2978 24.916C91.1951 24.8133 91.1438 24.678 91.1438 24.51V15.606C91.1438 15.4473 91.1951 15.3167 91.2978 15.214C91.4004 15.1113 91.5404 15.06 91.7178 15.06C91.8951 15.06 92.0304 15.1113 92.1238 15.214C92.2264 15.3073 92.2778 15.438 92.2778 15.606V19.358C92.4831 18.9287 92.7818 18.5973 93.1738 18.364C93.5751 18.1307 94.0418 18.014 94.5738 18.014ZM94.3498 24.16C95.0124 24.16 95.5258 23.9313 95.8898 23.474C96.2538 23.0073 96.4358 22.3587 96.4358 21.528C96.4358 20.716 96.2538 20.086 95.8898 19.638C95.5258 19.19 95.0124 18.966 94.3498 18.966C93.6871 18.966 93.1738 19.19 92.8098 19.638C92.4551 20.086 92.2778 20.7253 92.2778 21.556C92.2778 22.3867 92.4551 23.0307 92.8098 23.488C93.1738 23.936 93.6871 24.16 94.3498 24.16ZM102.12 25.098C101.476 25.098 100.907 24.9533 100.412 24.664C99.9269 24.3747 99.5489 23.964 99.2782 23.432C99.0169 22.8907 98.8862 22.2653 98.8862 21.556C98.8862 20.8467 99.0169 20.226 99.2782 19.694C99.5489 19.1527 99.9269 18.7373 100.412 18.448C100.907 18.1587 101.476 18.014 102.12 18.014C102.764 18.014 103.334 18.1587 103.828 18.448C104.323 18.7373 104.701 19.1527 104.962 19.694C105.233 20.226 105.368 20.8467 105.368 21.556C105.368 22.2653 105.233 22.8907 104.962 23.432C104.701 23.964 104.323 24.3747 103.828 24.664C103.334 24.9533 102.764 25.098 102.12 25.098ZM102.12 24.16C102.792 24.16 103.306 23.9407 103.66 23.502C104.024 23.054 104.206 22.4053 104.206 21.556C104.206 20.7253 104.024 20.086 103.66 19.638C103.296 19.1807 102.783 18.952 102.12 18.952C101.458 18.952 100.944 19.1807 100.58 19.638C100.216 20.086 100.034 20.7253 100.034 21.556C100.034 22.396 100.212 23.04 100.566 23.488C100.93 23.936 101.448 24.16 102.12 24.16ZM109.886 25.098C109.242 25.098 108.672 24.9533 108.178 24.664C107.692 24.3747 107.314 23.964 107.044 23.432C106.782 22.8907 106.652 22.2653 106.652 21.556C106.652 20.8467 106.782 20.226 107.044 19.694C107.314 19.1527 107.692 18.7373 108.178 18.448C108.672 18.1587 109.242 18.014 109.886 18.014C110.53 18.014 111.099 18.1587 111.594 18.448C112.088 18.7373 112.466 19.1527 112.728 19.694C112.998 20.226 113.134 20.8467 113.134 21.556C113.134 22.2653 112.998 22.8907 112.728 23.432C112.466 23.964 112.088 24.3747 111.594 24.664C111.099 24.9533 110.53 25.098 109.886 25.098ZM109.886 24.16C110.558 24.16 111.071 23.9407 111.426 23.502C111.79 23.054 111.972 22.4053 111.972 21.556C111.972 20.7253 111.79 20.086 111.426 19.638C111.062 19.1807 110.548 18.952 109.886 18.952C109.223 18.952 108.71 19.1807 108.346 19.638C107.982 20.086 107.8 20.7253 107.8 21.556C107.8 22.396 107.977 23.04 108.332 23.488C108.696 23.936 109.214 24.16 109.886 24.16ZM120.269 24.104C120.419 24.244 120.493 24.3933 120.493 24.552C120.493 24.692 120.442 24.8133 120.339 24.916C120.246 25.0187 120.129 25.07 119.989 25.07C119.868 25.07 119.742 25.014 119.611 24.902L115.957 21.752V24.51C115.957 24.6873 115.901 24.8273 115.789 24.93C115.687 25.0233 115.556 25.07 115.397 25.07C115.229 25.07 115.089 25.0233 114.977 24.93C114.875 24.8273 114.823 24.6873 114.823 24.51V15.62C114.823 15.4427 114.875 15.3073 114.977 15.214C115.089 15.1113 115.229 15.06 115.397 15.06C115.556 15.06 115.687 15.1113 115.789 15.214C115.901 15.3073 115.957 15.4427 115.957 15.62V21.304L119.303 18.238C119.415 18.126 119.541 18.07 119.681 18.07C119.821 18.07 119.943 18.1213 120.045 18.224C120.148 18.3267 120.199 18.448 120.199 18.588C120.199 18.7467 120.134 18.8867 120.003 19.008L117.245 21.472L120.269 24.104Z" fill="#3A559F"/>
<rect x="7" y="6" width="30" height="30" rx="15" fill="#F3F6F9"/>
<path d="M17.2886 22.393H19.2396V29.7142C19.2396 29.8726 19.3682 30 19.5282 30H22.8389C22.9988 30 23.1275 29.8726 23.1275 29.7142V22.4309H25.3706C25.5166 22.4309 25.6383 22.3242 25.6557 22.1796L25.9965 19.2494C26.007 19.1702 25.9791 19.0876 25.927 19.029C25.8713 18.9671 25.7948 18.9326 25.7114 18.9326H23.1275V17.0974C23.1275 16.543 23.4301 16.2642 24.0213 16.2642C24.1047 16.2642 25.7114 16.2642 25.7114 16.2642C25.8713 16.2642 26 16.1368 26 15.9784V13.2892C26 13.1308 25.8713 13.0034 25.7114 13.0034H23.3814C23.364 13.0034 23.3292 13 23.2736 13C22.8702 13 21.4652 13.0792 20.3559 14.0881C19.1248 15.214 19.2952 16.5534 19.3369 16.7841V18.9326H17.2886C17.1287 18.9326 17 19.06 17 19.2184V22.1107C17 22.2656 17.1287 22.393 17.2886 22.393Z" fill="#3A559F"/>
</svg>
