<svg width="36" height="36" viewBox="0 0 36 36" fill="none" xmlns="http://www.w3.org/2000/svg">
<path fill-rule="evenodd" clip-rule="evenodd" d="M18 36C27.9411 36 36 27.9411 36 18C36 8.05887 27.9411 0 18 0C8.05887 0 0 8.05887 0 18C0 27.9411 8.05887 36 18 36Z" fill="#F1F5F9"/>
<path fill-rule="evenodd" clip-rule="evenodd" d="M21.6652 9.25346L19.5332 9.25C17.1379 9.25 15.59 10.8559 15.59 13.3414V15.2279H13.4463C13.2611 15.2279 13.1111 15.3797 13.1111 15.567V18.3002C13.1111 18.4876 13.2613 18.6392 13.4463 18.6392H15.59V25.536C15.59 25.7233 15.74 25.875 15.9252 25.875H18.7221C18.9074 25.875 19.0574 25.7231 19.0574 25.536V18.6392H21.5638C21.7491 18.6392 21.8991 18.4876 21.8991 18.3002L21.9001 15.567C21.9001 15.4771 21.8647 15.391 21.8019 15.3273C21.7391 15.2637 21.6536 15.2279 21.5647 15.2279H19.0574V13.6287C19.0574 12.8601 19.2385 12.4699 20.2287 12.4699L21.6649 12.4694C21.85 12.4694 22 12.3175 22 12.1304V9.59245C22 9.40549 21.8501 9.25381 21.6652 9.25346Z" fill="#4267B2"/>
</svg>
