<svg width="50" height="50" viewBox="0 0 50 50" fill="none" xmlns="http://www.w3.org/2000/svg">
<path d="M25 50C38.8071 50 50 38.8071 50 25C50 11.1929 38.8071 0 25 0C11.1929 0 0 11.1929 0 25C0 38.8071 11.1929 50 25 50Z" fill="#F4F7FA"/>
<path fill-rule="evenodd" clip-rule="evenodd" d="M33.4375 16.125C34.1992 16.125 34.8584 16.3755 35.415 16.8765C35.9717 17.3774 36.25 17.9707 36.25 18.6562V30.0469C36.25 30.7324 35.9717 31.3257 35.415 31.8267C34.8584 32.3276 34.1992 32.5781 33.4375 32.5781H27.1094L21.6162 36.2959C21.4404 36.4014 21.2573 36.408 21.0669 36.3157C20.8765 36.2234 20.7812 36.085 20.7812 35.9004V32.5781H16.5625C15.8008 32.5781 15.1416 32.3276 14.585 31.8267C14.0283 31.3257 13.75 30.7324 13.75 30.0469V18.6562C13.75 17.9707 14.0283 17.3774 14.585 16.8765C15.1416 16.3755 15.8008 16.125 16.5625 16.125H33.4375Z" fill="#1FC39B" stroke="#298B5D"/>
<path fill-rule="evenodd" clip-rule="evenodd" d="M28.4058 20.051L29.2235 19.2367C31.2277 21.231 31.2552 24.2364 29.2987 26.1797L28.4634 25.3772C29.8508 23.7902 29.8264 21.5386 28.4058 20.051ZM25.6651 22.7388C25.6769 23.8354 24.7771 24.7301 23.6544 24.738C22.5317 24.7459 21.6129 23.8641 21.6011 22.7674C21.5894 21.6708 22.4891 20.7761 23.6118 20.7682C24.7345 20.7603 25.6533 21.6421 25.6651 22.7388ZM19.6156 27.7407C19.6014 26.4188 22.3035 25.7338 23.6606 25.7242C25.0178 25.7146 27.7341 26.3614 27.7483 27.6833L27.7589 28.6772L19.6263 28.7347L19.6156 27.7407ZM26.7159 21.7601C27.1484 22.3424 27.1566 23.1012 26.7366 23.6895L27.598 24.5217C28.6122 23.5126 28.596 21.9998 27.5594 20.9159L26.7159 21.7601Z" fill="white"/>
</svg>
