<svg xmlns="http://www.w3.org/2000/svg" width="152" height="42.29670341762568" fill="none" style=""><rect id="backgroundrect" width="100%" height="100%" x="0" y="0" fill="none" stroke="none" class="selected" style=""/>







<g class="currentLayer" style=""><title>Layer 1</title><path d="M1 21C1 9.95431 9.95431 1 21 1H131C142.046 1 151 9.95431 151 21C151 32.0457 142.046 41 131 41H21C9.9543 41 1 32.0457 1 21Z" fill="white" stroke="#979797" id="svg_1"/><path d="M70.554 19.862C70.694 19.862 70.806 19.904 70.89 19.988C70.9833 20.072 71.03 20.1887 71.03 20.338V23.824C71.03 24.048 70.9927 24.216 70.918 24.328C70.8527 24.44 70.7267 24.5287 70.54 24.594C70.1667 24.7527 69.714 24.8787 69.182 24.972C68.65 25.0653 68.118 25.112 67.586 25.112C66.606 25.112 65.7613 24.9113 65.052 24.51C64.3427 24.1087 63.7967 23.53 63.414 22.774C63.0407 22.018 62.854 21.1127 62.854 20.058C62.854 19.022 63.0407 18.126 63.414 17.37C63.7873 16.614 64.324 16.0353 65.024 15.634C65.724 15.2233 66.5453 15.018 67.488 15.018C68.1413 15.018 68.748 15.1207 69.308 15.326C69.868 15.522 70.3393 15.8067 70.722 16.18C70.8807 16.3387 70.96 16.502 70.96 16.67C70.96 16.8007 70.9227 16.9173 70.848 17.02C70.7733 17.1133 70.68 17.16 70.568 17.16C70.456 17.16 70.3253 17.104 70.176 16.992C69.6907 16.6187 69.252 16.362 68.86 16.222C68.468 16.0727 68.0153 15.998 67.502 15.998C66.3913 15.998 65.5373 16.348 64.94 17.048C64.352 17.748 64.058 18.7513 64.058 20.058C64.058 21.3927 64.3567 22.41 64.954 23.11C65.5607 23.8007 66.4473 24.146 67.614 24.146C68.482 24.146 69.2707 24.0153 69.98 23.754V20.758H67.936C67.7773 20.758 67.6513 20.716 67.558 20.632C67.4647 20.548 67.418 20.4407 67.418 20.31C67.418 20.17 67.4647 20.0627 67.558 19.988C67.6513 19.904 67.7773 19.862 67.936 19.862H70.554ZM76.0089 25.098C75.3649 25.098 74.7955 24.9533 74.3009 24.664C73.8155 24.3747 73.4375 23.964 73.1669 23.432C72.9055 22.8907 72.7749 22.2653 72.7749 21.556C72.7749 20.8467 72.9055 20.226 73.1669 19.694C73.4375 19.1527 73.8155 18.7373 74.3009 18.448C74.7955 18.1587 75.3649 18.014 76.0089 18.014C76.6529 18.014 77.2222 18.1587 77.7169 18.448C78.2115 18.7373 78.5895 19.1527 78.8509 19.694C79.1215 20.226 79.2569 20.8467 79.2569 21.556C79.2569 22.2653 79.1215 22.8907 78.8509 23.432C78.5895 23.964 78.2115 24.3747 77.7169 24.664C77.2222 24.9533 76.6529 25.098 76.0089 25.098ZM76.0089 24.16C76.6809 24.16 77.1942 23.9407 77.5489 23.502C77.9129 23.054 78.0949 22.4053 78.0949 21.556C78.0949 20.7253 77.9129 20.086 77.5489 19.638C77.1849 19.1807 76.6715 18.952 76.0089 18.952C75.3462 18.952 74.8329 19.1807 74.4689 19.638C74.1049 20.086 73.9229 20.7253 73.9229 21.556C73.9229 22.396 74.1002 23.04 74.4549 23.488C74.8189 23.936 75.3369 24.16 76.0089 24.16ZM83.7745 25.098C83.1305 25.098 82.5612 24.9533 82.0665 24.664C81.5812 24.3747 81.2032 23.964 80.9325 23.432C80.6712 22.8907 80.5405 22.2653 80.5405 21.556C80.5405 20.8467 80.6712 20.226 80.9325 19.694C81.2032 19.1527 81.5812 18.7373 82.0665 18.448C82.5612 18.1587 83.1305 18.014 83.7745 18.014C84.4185 18.014 84.9878 18.1587 85.4825 18.448C85.9772 18.7373 86.3552 19.1527 86.6165 19.694C86.8872 20.226 87.0225 20.8467 87.0225 21.556C87.0225 22.2653 86.8872 22.8907 86.6165 23.432C86.3552 23.964 85.9772 24.3747 85.4825 24.664C84.9878 24.9533 84.4185 25.098 83.7745 25.098ZM83.7745 24.16C84.4465 24.16 84.9598 23.9407 85.3145 23.502C85.6785 23.054 85.8605 22.4053 85.8605 21.556C85.8605 20.7253 85.6785 20.086 85.3145 19.638C84.9505 19.1807 84.4372 18.952 83.7745 18.952C83.1118 18.952 82.5985 19.1807 82.2345 19.638C81.8705 20.086 81.6885 20.7253 81.6885 21.556C81.6885 22.396 81.8658 23.04 82.2205 23.488C82.5845 23.936 83.1025 24.16 83.7745 24.16ZM94.2421 18.042C94.4194 18.042 94.5594 18.0933 94.6621 18.196C94.7648 18.2987 94.8161 18.434 94.8161 18.602V24.538C94.8161 25.5553 94.5548 26.3207 94.0321 26.834C93.5094 27.3567 92.7348 27.618 91.7081 27.618C90.7094 27.618 89.8788 27.422 89.2161 27.03C88.8801 26.8433 88.7121 26.6287 88.7121 26.386C88.7121 26.2553 88.7448 26.148 88.8101 26.064C88.8848 25.98 88.9781 25.938 89.0901 25.938C89.1834 25.938 89.3514 26.0033 89.5941 26.134C89.9208 26.302 90.2428 26.4373 90.5601 26.54C90.8774 26.6427 91.2554 26.694 91.6941 26.694C92.3568 26.694 92.8561 26.5167 93.1921 26.162C93.5281 25.8167 93.6961 25.308 93.6961 24.636V23.432C93.5001 23.8707 93.1968 24.2067 92.7861 24.44C92.3848 24.6733 91.9088 24.79 91.3581 24.79C90.7608 24.79 90.2288 24.65 89.7621 24.37C89.3048 24.09 88.9454 23.6933 88.6841 23.18C88.4321 22.6667 88.3061 22.074 88.3061 21.402C88.3061 20.73 88.4321 20.1373 88.6841 19.624C88.9454 19.1107 89.3048 18.714 89.7621 18.434C90.2288 18.154 90.7608 18.014 91.3581 18.014C91.8994 18.014 92.3708 18.1307 92.7721 18.364C93.1734 18.5973 93.4768 18.9287 93.6821 19.358V18.602C93.6821 18.434 93.7288 18.2987 93.8221 18.196C93.9248 18.0933 94.0648 18.042 94.2421 18.042ZM91.5821 23.852C92.2354 23.852 92.7488 23.6373 93.1221 23.208C93.4954 22.7693 93.6821 22.1673 93.6821 21.402C93.6821 20.646 93.4954 20.0533 93.1221 19.624C92.7581 19.1853 92.2448 18.966 91.5821 18.966C90.9194 18.966 90.3968 19.1853 90.0141 19.624C89.6408 20.0533 89.4541 20.646 89.4541 21.402C89.4541 22.1673 89.6408 22.7693 90.0141 23.208C90.3968 23.6373 90.9194 23.852 91.5821 23.852ZM97.4892 25.07C97.3212 25.07 97.1812 25.0233 97.0692 24.93C96.9666 24.8273 96.9152 24.6873 96.9152 24.51V15.62C96.9152 15.4427 96.9666 15.3073 97.0692 15.214C97.1812 15.1113 97.3212 15.06 97.4892 15.06C97.6479 15.06 97.7786 15.1113 97.8812 15.214C97.9932 15.3073 98.0492 15.4427 98.0492 15.62V24.51C98.0492 24.6873 97.9932 24.8273 97.8812 24.93C97.7786 25.0233 97.6479 25.07 97.4892 25.07ZM105.447 23.418C105.55 23.418 105.638 23.46 105.713 23.544C105.788 23.628 105.825 23.7353 105.825 23.866C105.825 24.0993 105.662 24.314 105.335 24.51C104.999 24.706 104.644 24.8553 104.271 24.958C103.898 25.0513 103.534 25.098 103.179 25.098C102.124 25.098 101.289 24.7853 100.673 24.16C100.066 23.5347 99.7631 22.6713 99.7631 21.57C99.7631 20.87 99.8985 20.254 100.169 19.722C100.44 19.1807 100.818 18.7607 101.303 18.462C101.798 18.1633 102.358 18.014 102.983 18.014C103.87 18.014 104.574 18.3033 105.097 18.882C105.62 19.4607 105.881 20.2447 105.881 21.234C105.881 21.4207 105.844 21.556 105.769 21.64C105.694 21.724 105.573 21.766 105.405 21.766H100.897C100.981 23.3713 101.742 24.174 103.179 24.174C103.543 24.174 103.856 24.1273 104.117 24.034C104.378 23.9313 104.658 23.796 104.957 23.628C105.2 23.488 105.363 23.418 105.447 23.418ZM102.997 18.896C102.4 18.896 101.919 19.0827 101.555 19.456C101.2 19.8293 100.99 20.3567 100.925 21.038H104.887C104.868 20.3473 104.696 19.82 104.369 19.456C104.042 19.0827 103.585 18.896 102.997 18.896Z" fill="#3A559F" id="svg_2"/><rect x="8" y="6" width="30" height="30" rx="15" fill="#F3F6F9" id="svg_3"/><path d="M16.5913 23.2347L15.791 26.1961L12.8641 26.2584C11.9828 24.6508 11.4883 22.8117 11.4883 20.8568C11.4883 18.9642 11.9514 17.183 12.7742 15.6155L15.3819 16.0875L16.5239 18.6525C16.2856 19.3427 16.1552 20.0819 16.1552 20.8568C16.1552 21.694 16.3081 22.4955 16.5913 23.2347Z" fill="#FBBB00" id="svg_4"/><path d="M34.3058 18.728C34.4362 19.4183 34.5082 20.1308 34.5082 20.8566C34.5082 21.6715 34.4227 22.4686 34.2564 23.239C33.6944 25.853 32.2331 28.133 30.2054 29.7495L26.9233 29.5847L26.4602 26.7125C27.8045 25.9287 28.8566 24.7086 29.4096 23.2435H23.25V18.728H29.495H34.3058Z" fill="#518EF8" id="svg_5"/><path d="M30.2052 29.7451C28.2314 31.317 25.7271 32.2566 22.998 32.2566C18.6143 32.2566 14.8017 29.8297 12.8594 26.2583L16.5911 23.2346C17.5623 25.8041 20.0666 27.6343 22.998 27.6343C24.2569 27.6343 25.4394 27.2959 26.4555 26.708L30.2052 29.7451Z" fill="#28B446" id="svg_6"/><path d="M30.3441 12.0795L26.6168 15.1032C25.5693 14.4531 24.3283 14.079 22.9975 14.079C19.9986 14.079 17.4494 15.9938 16.5232 18.6523L12.7734 15.6109C14.6888 11.9549 18.5509 9.45667 22.9975 9.45667C25.7896 9.45667 28.3523 10.4408 30.3441 12.0795Z" fill="#F14336" id="svg_7"/></g></svg>