<svg width="18" height="12" viewBox="0 0 18 12" fill="none" xmlns="http://www.w3.org/2000/svg">
<path fill-rule="evenodd" clip-rule="evenodd" d="M6.50008 6C8.10841 6 9.41675 4.69167 9.41675 3.08333C9.41675 1.475 8.10841 0.166666 6.50008 0.166666C4.89175 0.166666 3.58341 1.475 3.58341 3.08333C3.58341 4.69167 4.89175 6 6.50008 6ZM0.666748 10.375C0.666748 8.43333 4.55008 7.45833 6.50008 7.45833C8.45008 7.45833 12.3334 8.43333 12.3334 10.375V11.8333H0.666748V10.375ZM6.50007 9.125C5.0084 9.125 3.31673 9.68333 2.61673 10.1667H10.3834C9.6834 9.68333 7.99173 9.125 6.50007 9.125ZM7.75008 3.08333C7.75008 2.39167 7.19175 1.83333 6.50008 1.83333C5.80841 1.83333 5.25008 2.39167 5.25008 3.08333C5.25008 3.775 5.80841 4.33333 6.50008 4.33333C7.19175 4.33333 7.75008 3.775 7.75008 3.08333ZM12.3667 7.50832C13.3334 8.20832 14.0001 9.14166 14.0001 10.375V11.8333H17.3334V10.375C17.3334 8.69166 14.4167 7.73332 12.3667 7.50832ZM14.4167 3.08333C14.4167 4.69167 13.1084 6 11.5001 6C11.0501 6 10.6334 5.89167 10.2501 5.70833C10.7751 4.96667 11.0834 4.05833 11.0834 3.08333C11.0834 2.10833 10.7751 1.2 10.2501 0.458333C10.6334 0.274999 11.0501 0.166666 11.5001 0.166666C13.1084 0.166666 14.4167 1.475 14.4167 3.08333Z" fill="#B0BAC5"/>
</svg>
