<svg width="13" height="13" viewBox="0 0 13 13" fill="none" xmlns="http://www.w3.org/2000/svg">
<path d="M5.33203 9.95312V8.25957L6.85547 7.49785V6.35527C7.5791 6.10645 8.26211 5.77129 8.89941 5.35996H13V1.54883H8.89941C7.3582 0.548437 5.52754 0 3.72734 0H3.42773C1.53867 0 0 1.54883 0 3.45312C0 4.94355 0.954687 6.21309 2.28516 6.68535V9.95312C2.28516 10.6869 2.80566 11.3014 3.49883 11.4436C3.7375 12.35 4.56016 13 5.52246 13C6.67773 13 7.61719 12.0605 7.61719 10.9053V10.334C7.61719 9.71445 8.15293 9.19141 8.78516 9.19141C9.41738 9.19141 9.95312 9.71445 9.95312 10.334C9.95312 11.3852 10.8062 12.2383 11.8574 12.2383H13V11.4766H11.8574C11.2277 11.4766 10.7148 10.9637 10.7148 10.334C10.7148 9.28027 9.83887 8.42969 8.78516 8.42969C7.73145 8.42969 6.85547 9.28027 6.85547 10.334V10.9053C6.85547 11.6391 6.25625 12.2383 5.52246 12.2383C4.96387 12.2383 4.48145 11.8955 4.2834 11.4004C4.89277 11.1998 5.33203 10.626 5.33203 9.95312ZM5.33203 7.40645V6.74375C5.58848 6.70059 5.84238 6.64473 6.09375 6.58125V7.02559L5.33203 7.40645ZM12.2383 4.5957H9.16602V2.31055H12.2383V4.5957ZM0.761719 3.45312C0.761719 1.97031 1.95762 0.761719 3.42773 0.761719H3.72734C5.3498 0.761719 7.00273 1.24922 8.4043 2.13535V4.76836C7.02559 5.6418 5.37266 6.11914 3.72734 6.11914H3.42773C1.95762 6.11914 0.761719 4.92324 0.761719 3.45312ZM3.80859 10.7148C3.38965 10.7148 3.04688 10.3721 3.04688 9.95312V6.86055C3.17129 6.87324 3.29824 6.88086 3.42773 6.88086H3.72734C4.00918 6.88086 4.28848 6.86816 4.57031 6.84277V9.95312C4.57031 10.3721 4.22754 10.7148 3.80859 10.7148Z" fill="black"/>
</svg>
