<svg width="18" height="19" viewBox="0 0 18 19" fill="none" xmlns="http://www.w3.org/2000/svg">
<path fill-rule="evenodd" clip-rule="evenodd" d="M15.75 0C16.3594 0 16.8867 0.222654 17.332 0.667969C17.7773 1.11328 18 1.64062 18 2.25V12.375C18 12.9844 17.7773 13.5117 17.332 13.957C16.8867 14.4023 16.3594 14.625 15.75 14.625H10.6875L6.29297 17.9297C6.15234 18.0234 6.00586 18.0293 5.85352 17.9473C5.70117 17.8652 5.625 17.7422 5.625 17.5781V14.625H2.25C1.64062 14.625 1.11328 14.4023 0.667969 13.957C0.222654 13.5117 0 12.9844 0 12.375V2.25C0 1.64062 0.222654 1.11328 0.667969 0.667969C1.11328 0.222654 1.64062 0 2.25 0H15.75Z" fill="#B0BAC5"/>
<path fill-rule="evenodd" clip-rule="evenodd" d="M12.2193 4.48623C12.5422 4.75707 12.7662 5.0904 12.8912 5.48625C13.0162 5.88209 13.0344 6.28054 12.9459 6.68159C12.8573 7.08264 12.6672 7.429 12.3756 7.72068L9.35986 10.8458C9.25569 10.9499 9.1359 11.002 9.00048 11.002C8.86506 11.002 8.74526 10.9499 8.64109 10.8458L5.6254 7.7363C5.33372 7.43421 5.14361 7.08264 5.05507 6.68159C4.96653 6.28054 4.98476 5.88209 5.10976 5.48625C5.23476 5.0904 5.45872 4.75707 5.78165 4.48623C6.06291 4.24663 6.38062 4.09559 6.7348 4.03309C7.08897 3.97059 7.43794 3.99663 7.7817 4.11122C8.12546 4.2258 8.42755 4.41851 8.68797 4.68935L9.00048 5.00186L9.31298 4.68935C9.57341 4.41851 9.8755 4.2258 10.2193 4.11122C10.563 3.99663 10.912 3.97059 11.2662 4.03309C11.6203 4.09559 11.938 4.24663 12.2193 4.48623Z" fill="white"/>
</svg>
