<?xml version="1.0" encoding="UTF-8"?>
<svg width="22px" height="21px" viewBox="0 0 22 21" version="1.1" xmlns="http://www.w3.org/2000/svg" xmlns:xlink="http://www.w3.org/1999/xlink">
    <!-- Generator: sketchtool 50.2 (55047) - http://www.bohemiancoding.com/sketch -->
    <title>0B873796-F6E3-438F-8074-5DA46AF844EB-645-000086B8F2051A8F</title>
    <desc>Created with sketchtool.</desc>
    <defs></defs>
    <g id="Page-1" stroke="none" stroke-width="1" fill="none" fill-rule="evenodd">
        <g id="02-Dashboard---Hamburger-Expanded" transform="translate(-1209.000000, -270.000000)">
            <g id="Side-bar" transform="translate(1180.000000, 0.000000)">
                <g id="bottomInfo" transform="translate(0.000000, 75.000000)">
                    <g id="partner-copy" transform="translate(0.000000, 184.000000)">
                        <g id="ic-language" transform="translate(30.000000, 12.000000)">
                            <g id="Shape">
                                <path d="M14.2857143,9.80392157 L19.7959184,9.80392157 C19.7959184,7.16286515 18.6530612,4.60184074 16.6530612,2.80112045 C15.6734694,3.64145658 14.5714286,4.28171269 13.3469388,4.72188876 C14,6.32252901 14.2857143,8.08323329 14.2857143,9.80392157 Z" stroke="#7D1CFF" stroke-linecap="round" stroke-linejoin="round"></path>
                                <path d="M14.2857143,9.80392157 C14.2857143,11.5646259 13.9591837,13.3253301 13.3469388,15.0060024 C14.5306122,15.4461785 15.5918367,16.1264506 16.5306122,16.9667867 C18.6122449,15.1660664 19.7959184,12.565026 19.7959184,9.80392157" stroke="#7D1CFF" stroke-linecap="round" stroke-linejoin="round"></path>
                                <path d="M14.2857143,9.80392157 L5.71428571,9.80392157 C5.71428571,11.5646259 6,13.2853141 6.6122449,14.9259704 C8.7755102,14.1656663 11.1836735,14.2056823 13.3469388,15.0060024" stroke="#7D1CFF" stroke-linecap="round" stroke-linejoin="round"></path>
                                <path d="M6.65306122,4.60184074 C5.46938776,4.16166467 4.40816327,3.48139256 3.46938776,2.64105642 C1.3877551,4.44177671 0.204081633,7.04281713 0.204081633,9.80392157 L5.71428571,9.80392157 C5.71428571,8.04321729 6.04081633,6.242497 6.65306122,4.60184074 Z" stroke="#7D1CFF" stroke-linecap="round" stroke-linejoin="round"></path>
                                <path d="M0.204081633,9.80392157 C0.204081633,12.444978 1.34693878,15.0060024 3.30612245,16.8067227 C4.28571429,15.9663866 5.3877551,15.3261305 6.6122449,14.8859544" stroke="#7D1CFF" stroke-linecap="round" stroke-linejoin="round"></path>
                                <path d="M10.1632653,0.200080032 C12.5714286,0.240096038 14.8979592,1.16046419 16.6938776,2.80112045" stroke="#7D1CFF" stroke-linecap="round" stroke-linejoin="round"></path>
                                <path d="M3.46938776,2.64105642 C5.2244898,1.12044818 7.46938776,0.240096038 9.83673469,0.200080032" stroke="#7D1CFF" stroke-linecap="round" stroke-linejoin="round"></path>
                                <path d="M13.3877551,4.68187275 C12.7755102,2.92116847 11.6734694,1.36054422 10.1632653,0.200080032 L10,0.200080032 L9.83673469,0.200080032 C8.36734694,1.36054422 7.26530612,2.88115246 6.65306122,4.60184074 C7.75510204,5.04201681 8.93877551,5.24209684 10.1632653,5.24209684 C11.2653061,5.24209684 12.3265306,5.04201681 13.3877551,4.68187275 Z" stroke="#7D1CFF" stroke-linecap="round" stroke-linejoin="round"></path>
                                <path d="M9.83673469,19.4077631 C7.42857143,19.3677471 5.10204082,18.447379 3.30612245,16.8067227" stroke="#7D1CFF" stroke-linecap="round" stroke-linejoin="round"></path>
                                <path d="M16.5306122,16.9667867 C14.7755102,18.487395 12.5306122,19.3677471 10.1632653,19.4077631" stroke="#7D1CFF" stroke-linecap="round" stroke-linejoin="round"></path>
                                <path d="M10.0367347,19.4077631 L9.83673469,19.4077631"></path>
                                <path d="M6.6122449,14.9259704 C7.2244898,16.6866747 8.36734694,18.2472989 9.83673469,19.4077631 L10,19.4077631 L10.1632653,19.4077631 C11.6326531,18.2472989 12.7346939,16.7266907 13.3469388,15.0060024" stroke="#7D1CFF" stroke-linecap="round" stroke-linejoin="round"></path>
                            </g>
                        </g>
                    </g>
                </g>
            </g>
        </g>
    </g>
</svg>