<svg width="12" height="18" viewBox="0 0 12 18" fill="none" xmlns="http://www.w3.org/2000/svg">
<path fill-rule="evenodd" clip-rule="evenodd" d="M5.99935 0.666992C2.77435 0.666992 0.166016 3.27533 0.166016 6.50033C0.166016 10.8753 5.99935 17.3337 5.99935 17.3337C5.99935 17.3337 11.8327 10.8753 11.8327 6.50033C11.8327 3.27533 9.22435 0.666992 5.99935 0.666992ZM1.83268 6.50033C1.83268 4.20033 3.69935 2.33366 5.99935 2.33366C8.29935 2.33366 10.166 4.20033 10.166 6.50033C10.166 8.90033 7.76602 12.492 5.99935 14.7337C4.26602 12.5087 1.83268 8.87533 1.83268 6.50033ZM3.91602 6.50033C3.91602 5.34973 4.84876 4.41699 5.99935 4.41699C6.74365 4.41699 7.43142 4.81407 7.80357 5.45866C8.17572 6.10324 8.17572 6.89741 7.80357 7.54199C7.43142 8.18658 6.74365 8.58366 5.99935 8.58366C4.84876 8.58366 3.91602 7.65092 3.91602 6.50033Z" fill="#000"/>
</svg>
