<svg width="28" height="30" viewBox="0 0 28 30" fill="none" xmlns="http://www.w3.org/2000/svg">
<path d="M0 15.1557C0 7.22697 6.26801 0.799438 14 0.799438C21.732 0.799438 28 7.22697 28 15.1557C28 23.0845 21.732 29.512 14 29.512C6.26801 29.512 0 23.0845 0 15.1557Z" fill="#0077B5"/>
<path fill-rule="evenodd" clip-rule="evenodd" d="M10.1027 9.66605C10.1027 10.6047 9.41375 11.3557 8.30747 11.3557H8.2872C7.22205 11.3557 6.53345 10.6047 6.53345 9.66605C6.53345 8.70759 7.24302 7.97757 8.32838 7.97757C9.41375 7.97757 10.0821 8.70759 10.1027 9.66605ZM9.89376 12.6899V22.4652H6.72106V12.6899H9.89376ZM21.3356 22.4652L21.3358 16.8604C21.3358 13.8578 19.7706 12.4604 17.6828 12.4604C15.9983 12.4604 15.2441 13.4092 14.823 14.0748V12.6902H11.6499C11.6917 13.6075 11.6499 22.4655 11.6499 22.4655H14.823V17.0062C14.823 16.714 14.8436 16.4226 14.9275 16.2134C15.1568 15.6297 15.6789 15.0255 16.5554 15.0255C17.7039 15.0255 18.163 15.9218 18.163 17.2354V22.4652H21.3356Z" fill="white"/>
</svg>
