<svg width="22" height="7" viewBox="0 0 22 7" fill="none" xmlns="http://www.w3.org/2000/svg">
<path d="M14.0938 3.75C14.0938 2.89062 13.793 2.16016 13.1914 1.55859C12.5898 0.957031 11.8594 0.65625 11 0.65625C10.1406 0.65625 9.41016 0.957031 8.80859 1.55859C8.20703 2.16016 7.90625 2.89062 7.90625 3.75C7.90625 4.60938 8.20703 5.33984 8.80859 5.94141C9.41016 6.54297 10.1406 6.84375 11 6.84375C11.8594 6.84375 12.5898 6.54297 13.1914 5.94141C13.793 5.33984 14.0938 4.60938 14.0938 3.75ZM18.5625 0.65625C19.4219 0.65625 20.1523 0.957031 20.7539 1.55859C21.3555 2.16016 21.6562 2.89062 21.6562 3.75C21.6562 4.60938 21.3555 5.33984 20.7539 5.94141C20.1523 6.54297 19.4219 6.84375 18.5625 6.84375C17.7031 6.84375 16.9727 6.54297 16.3711 5.94141C15.7695 5.33984 15.4688 4.60938 15.4688 3.75C15.4688 2.89062 15.7695 2.16016 16.3711 1.55859C16.9727 0.957031 17.7031 0.65625 18.5625 0.65625ZM3.4375 0.65625C4.29688 0.65625 5.02734 0.957031 5.62891 1.55859C6.23047 2.16016 6.53125 2.89062 6.53125 3.75C6.53125 4.60938 6.23047 5.33984 5.62891 5.94141C5.02734 6.54297 4.29688 6.84375 3.4375 6.84375C2.57812 6.84375 1.84766 6.54297 1.24609 5.94141C0.644531 5.33984 0.34375 4.60938 0.34375 3.75C0.34375 2.89062 0.644531 2.16016 1.24609 1.55859C1.84766 0.957031 2.57812 0.65625 3.4375 0.65625Z" fill="#B0BAC5"/>
</svg>
