<?xml version="1.0" encoding="UTF-8"?>
<svg width="24px" height="15px" viewBox="0 0 24 15" version="1.1" xmlns="http://www.w3.org/2000/svg" xmlns:xlink="http://www.w3.org/1999/xlink">
    <!-- Generator: sketchtool 50.2 (55047) - http://www.bohemiancoding.com/sketch -->
    <title>94481D35-C1D4-4E0D-8136-0B8AB641D552</title>
    <desc>Created with sketchtool.</desc>
    <defs></defs>
    <g id="Page-1" stroke="none" stroke-width="1" fill="none" fill-rule="evenodd">
        <g id="01-Home" transform="translate(-1266.000000, -28.000000)" fill="#FFFFFF" fill-rule="nonzero">
            <g id="Header" transform="translate(150.000000, 15.000000)">
                <g id="Group-32" transform="translate(607.000000, 0.000000)">
                    <g id="Group-4">
                        <g id="Group">
                            <g id="ic-menu" transform="translate(509.000000, 13.000000)">
                                <path d="M23.5,1 L0.5,1 C0.224,1 0,0.776 0,0.5 C0,0.224 0.224,0 0.5,0 L23.5,0 C23.776,0 24,0.224 24,0.5 C24,0.776 23.776,1 23.5,1 Z" id="Shape"></path>
                                <path d="M23.5,8 L0.5,8 C0.224,8 0,7.776 0,7.5 C0,7.224 0.224,7 0.5,7 L23.5,7 C23.776,7 24,7.224 24,7.5 C24,7.776 23.776,8 23.5,8 Z" id="Shape"></path>
                                <path d="M23.5,15 L0.5,15 C0.224,15 0,14.776 0,14.5 C0,14.224 0.224,14 0.5,14 L23.5,14 C23.776,14 24,14.224 24,14.5 C24,14.776 23.776,15 23.5,15 Z" id="Shape"></path>
                            </g>
                        </g>
                    </g>
                </g>
            </g>
        </g>
    </g>
</svg>