<svg width="30" height="30" viewBox="0 0 30 30" fill="none" xmlns="http://www.w3.org/2000/svg">
<path fill-rule="evenodd" clip-rule="evenodd" d="M15 30C23.2843 30 30 23.2843 30 15C30 6.71573 23.2843 0 15 0C6.71573 0 0 6.71573 0 15C0 23.2843 6.71573 30 15 30Z" fill="#0084FF"/>
<path fill-rule="evenodd" clip-rule="evenodd" d="M15.9087 17.0661L14.0106 15.0291L10.3069 17.0661L14.381 12.7143L16.3254 14.7513L19.9828 12.7143L15.9087 17.0661ZM15.168 7.71429C11.0514 7.71429 7.71429 10.8234 7.71429 14.6587C7.71429 16.8442 8.79818 18.7935 10.4921 20.0665V22.7143L13.03 21.3128C13.7073 21.5014 14.4248 21.6032 15.168 21.6032C19.2846 21.6032 22.6217 18.4941 22.6217 14.6587C22.6217 10.8234 19.2846 7.71429 15.168 7.71429Z" fill="white"/>
</svg>
