<svg width="22" height="22" viewBox="0 0 22 22" fill="none" xmlns="http://www.w3.org/2000/svg">
<path fill-rule="evenodd" clip-rule="evenodd" d="M16.5 14.4375V9.85417C16.5 7.04 15.0058 4.68417 12.375 4.06083V3.4375C12.375 2.67667 11.7608 2.0625 11 2.0625C10.2391 2.0625 9.62496 2.67667 9.62496 3.4375V4.06083C7.00329 4.68417 5.49996 7.03083 5.49996 9.85417V14.4375L3.66663 16.2708V17.1875H18.3333V16.2708L16.5 14.4375ZM11 19.9375C12.0083 19.9375 12.8333 19.1125 12.8333 18.1042H9.16663C9.16663 19.1125 9.99163 19.9375 11 19.9375ZM7.33329 15.3542H14.6666V9.85417C14.6666 7.58083 13.2825 5.72917 11 5.72917C8.71746 5.72917 7.33329 7.58083 7.33329 9.85417V15.3542Z" fill="white"/>
</svg>
