<svg width="19" height="20" viewBox="0 0 19 20" fill="none" xmlns="http://www.w3.org/2000/svg">
<path fill-rule="evenodd" clip-rule="evenodd" d="M15.875 1C16.4505 1 16.9486 1.2226 17.3691 1.66779C17.7897 2.11299 18 2.64019 18 3.24941V13.3718C18 13.981 17.7897 14.5082 17.3691 14.9534C16.9486 15.3986 16.4505 15.6212 15.875 15.6212H11.0938L6.94336 18.925C6.81055 19.0187 6.6722 19.0246 6.52832 18.9426C6.38444 18.8606 6.3125 18.7376 6.3125 18.5735V15.6212H3.125C2.54948 15.6212 2.05143 15.3986 1.63086 14.9534C1.21028 14.5082 1 13.981 1 13.3718V3.24941C1 2.64019 1.21028 2.11299 1.63086 1.66779C2.05143 1.2226 2.54948 1 3.125 1H15.875Z" fill="white" stroke="#1FC39B"/>
<path fill-rule="evenodd" clip-rule="evenodd" d="M12.5712 4.70366L13.2724 4.01118C14.9839 5.70136 15.002 8.25276 13.3243 9.9054L12.611 9.22537C13.8011 7.87596 13.7842 5.96455 12.5712 4.70366ZM10.2323 6.98501C10.2405 7.91545 9.47046 8.67591 8.51158 8.68435C7.55271 8.69278 6.76943 7.946 6.76124 7.01556C6.75305 6.08511 7.52306 5.32466 8.48194 5.31622C9.44081 5.30778 10.2241 6.05456 10.2323 6.98501ZM5.063 11.2421C5.05314 10.1222 7.36076 9.53766 8.51922 9.52746C9.67768 9.51727 11.9952 10.0611 12.0051 11.181L12.0125 12.023L5.07041 12.0841L5.063 11.2421ZM11.1282 6.1564C11.497 6.64999 11.5027 7.29414 11.1426 7.79415L11.8778 8.49925C12.7467 7.64109 12.7354 6.35699 11.8508 5.43847L11.1282 6.1564Z" fill="#1FC39B"/>
</svg>
