<svg width="15" height="9" viewBox="0 0 15 9" fill="none" xmlns="http://www.w3.org/2000/svg">
<path d="M9.69727 0V0.9H8.81836V0H6.18164C4.36523 0 2.80078 1.128 2.13574 2.742C2.0127 2.715 1.88379 2.7 1.75781 2.7C0.788086 2.7 0 3.507 0 4.5C0 5.493 0.788086 6.3 1.75781 6.3C1.88086 6.3 2.00391 6.285 2.12402 6.261C2.7832 7.908 4.33887 9 6.18164 9C8.46973 9 10.3359 7.209 10.5557 4.95C10.5908 4.938 10.1016 5.1 15 3.48V0H9.69727ZM0.878906 4.5C0.878906 4.005 1.27441 3.6 1.75781 3.6C1.7959 3.6 1.83398 3.603 1.87207 3.609C1.78418 4.047 1.76367 4.506 1.80762 4.977V4.98C1.82227 5.118 1.84277 5.256 1.86914 5.394C1.83398 5.4 1.7959 5.4 1.75781 5.4C1.27441 5.4 0.878906 4.995 0.878906 4.5ZM14.1211 2.823L9.70605 4.287L9.69727 4.605C9.6416 6.531 8.06543 8.1 6.18164 8.1C4.58496 8.1 3.26074 7.107 2.81543 5.568C2.75098 5.343 2.7041 5.109 2.68066 4.887C2.63379 4.38 2.68066 3.891 2.82129 3.435C3.28125 1.92 4.63184 0.9 6.18164 0.9H7.93945V1.8H10.5762V0.9H14.1211V2.823Z" fill="black"/>
</svg>
