<svg width="35" height="29" viewBox="0 0 35 29" fill="none" xmlns="http://www.w3.org/2000/svg">
<path fill-rule="evenodd" clip-rule="evenodd" d="M29.9873 0.5C31.1147 0.5 32.0903 0.833981 32.9141 1.50195C33.7379 2.16993 34.1498 2.96093 34.1498 3.875V19.0625C34.1498 19.9766 33.7379 20.7676 32.9141 21.4355C32.0903 22.1035 31.1147 22.4375 29.9873 22.4375H20.6217L12.4918 27.3945C12.2317 27.5352 11.9607 27.5439 11.6788 27.4209C11.397 27.2979 11.2561 27.1133 11.2561 26.8672V22.4375H5.01234C3.88499 22.4375 2.90941 22.1035 2.08558 21.4355C1.26175 20.7676 0.849838 19.9766 0.849838 19.0625V3.875C0.849838 2.96093 1.26175 2.16993 2.08558 1.50195C2.90941 0.833981 3.88499 0.5 5.01234 0.5H29.9873Z" fill="#1AB169" stroke="#B0BAC5"/>
</svg>
