<svg width="22" height="22" viewBox="0 0 22 22" fill="none" xmlns="http://www.w3.org/2000/svg">
<path fill-rule="evenodd" clip-rule="evenodd" d="M8.24998 11C10.0191 11 11.4583 9.56081 11.4583 7.79165C11.4583 6.02248 10.0191 4.58331 8.24998 4.58331C6.48081 4.58331 5.04165 6.02248 5.04165 7.79165C5.04165 9.56081 6.48081 11 8.24998 11ZM1.83331 15.8125C1.83331 13.6766 6.10498 12.6041 8.24998 12.6041C10.395 12.6041 14.6666 13.6766 14.6666 15.8125V17.4166H1.83331V15.8125ZM8.24998 14.4375C6.60915 14.4375 4.74831 15.0516 3.97831 15.5833H12.5216C11.7516 15.0516 9.89081 14.4375 8.24998 14.4375ZM9.62498 7.79165C9.62498 7.03081 9.01081 6.41665 8.24998 6.41665C7.48914 6.41665 6.87498 7.03081 6.87498 7.79165C6.87498 8.55248 7.48914 9.16665 8.24998 9.16665C9.01081 9.16665 9.62498 8.55248 9.62498 7.79165ZM14.7033 12.6591C15.7666 13.4291 16.5 14.4558 16.5 15.8125V17.4166H20.1666V15.8125C20.1666 13.9608 16.9583 12.9066 14.7033 12.6591ZM16.9583 7.79165C16.9583 9.56081 15.5191 11 13.75 11C13.255 11 12.7966 10.8808 12.375 10.6791C12.9525 9.86331 13.2916 8.86415 13.2916 7.79165C13.2916 6.71915 12.9525 5.71998 12.375 4.90415C12.7966 4.70248 13.255 4.58331 13.75 4.58331C15.5191 4.58331 16.9583 6.02248 16.9583 7.79165Z" fill="white"/>
</svg>
