<svg width="18" height="19" viewBox="0 0 18 19" fill="none" xmlns="http://www.w3.org/2000/svg">
<path fill-rule="evenodd" clip-rule="evenodd" d="M15.75 0C16.3594 0 16.8867 0.222654 17.332 0.667969C17.7773 1.11328 18 1.64062 18 2.25V12.375C18 12.9844 17.7773 13.5117 17.332 13.957C16.8867 14.4023 16.3594 14.625 15.75 14.625H10.6875L6.29297 17.9297C6.15234 18.0234 6.00586 18.0293 5.85352 17.9473C5.70117 17.8652 5.625 17.7422 5.625 17.5781V14.625H2.25C1.64062 14.625 1.11328 14.4023 0.667969 13.957C0.222654 13.5117 0 12.9844 0 12.375V2.25C0 1.64062 0.222654 1.11328 0.667969 0.667969C1.11328 0.222654 1.64062 0 2.25 0H15.75Z" fill="#B0BAC5"/>
<path d="M7.78987 7.21059C8.8367 7.21059 9.68459 6.3627 9.68459 5.31587C9.68459 4.26903 8.8367 3.42114 7.78987 3.42114C6.74303 3.42114 5.89514 4.26903 5.89514 5.31587C5.89514 6.3627 6.74303 7.21059 7.78987 7.21059Z" fill="#DADADA"/>
<path d="M7.78945 8.15796C6.52472 8.15796 4 8.79269 4 10.0527V11H11.5789V10.0527C11.5789 8.79269 9.05418 8.15796 7.78945 8.15796Z" fill="#DADADA"/>
<path d="M10.6696 4.39183C11.0674 4.95077 11.0674 5.6755 10.6696 6.23445L11.4653 7.03497C12.4222 6.07813 12.4222 4.63341 11.4653 3.59131L10.6696 4.39183V4.39183Z" fill="#DADADA"/>
<path d="M13.0325 2L12.2604 2.7721C13.5725 4.20262 13.5725 6.35313 12.2604 7.85943L13.0325 8.63153C14.8798 6.78891 14.8846 3.91841 13.0325 2Z" fill="#DADADA"/>
</svg>
