<svg width="12" height="12" viewBox="0 0 12 12" fill="none" xmlns="http://www.w3.org/2000/svg">
<path d="M10.656 4.8C10.96 4.8 11.208 4.904 11.4 5.112C11.608 5.304 11.712 5.552 11.712 5.856C11.712 6.16 11.608 6.416 11.4 6.624C11.208 6.816 10.96 6.912 10.656 6.912H6.912V10.632C6.912 10.936 6.808 11.192 6.6 11.4C6.408 11.608 6.16 11.712 5.856 11.712C5.552 11.712 5.296 11.608 5.088 11.4C4.896 11.192 4.8 10.936 4.8 10.632V6.912H1.056C0.752 6.912 0.496 6.816 0.288 6.624C0.096 6.416 0 6.16 0 5.856C0 5.552 0.096 5.304 0.288 5.112C0.496 4.904 0.752 4.8 1.056 4.8H4.8V1.056C4.8 0.752001 4.896 0.504001 5.088 0.312C5.296 0.104 5.552 0 5.856 0C6.16 0 6.408 0.104 6.6 0.312C6.808 0.504001 6.912 0.752001 6.912 1.056V4.8H10.656Z" fill="#762FE6"/>
</svg>
