<svg width="18" height="19" viewBox="0 0 18 19" fill="none" xmlns="http://www.w3.org/2000/svg">
<path fill-rule="evenodd" clip-rule="evenodd" d="M15.75 0C16.3594 0 16.8867 0.222654 17.332 0.667969C17.7773 1.11328 18 1.64062 18 2.25V12.375C18 12.9844 17.7773 13.5117 17.332 13.957C16.8867 14.4023 16.3594 14.625 15.75 14.625H10.6875L6.29297 17.9297C6.15234 18.0234 6.00586 18.0293 5.85352 17.9473C5.70117 17.8652 5.625 17.7422 5.625 17.5781V14.625H2.25C1.64062 14.625 1.11328 14.4023 0.667969 13.957C0.222654 13.5117 0 12.9844 0 12.375V2.25C0 1.64062 0.222654 1.11328 0.667969 0.667969C1.11328 0.222654 1.64062 0 2.25 0H15.75Z" fill="white"/>
<path fill-rule="evenodd" clip-rule="evenodd" d="M12.2604 2.7721L13.0325 2C14.8846 3.91841 14.8798 6.78891 13.0325 8.63153L12.2604 7.85943C13.5725 6.35313 13.5725 4.20262 12.2604 2.7721ZM9.68459 5.3158C9.68459 6.36264 8.8367 7.21053 7.78986 7.21053C6.74303 7.21053 5.89514 6.36264 5.89514 5.3158C5.89514 4.26897 6.74303 3.42108 7.78986 3.42108C8.8367 3.42108 9.68459 4.26897 9.68459 5.3158ZM4 10.0527C4 8.79267 6.52472 8.15794 7.78945 8.15794C9.05418 8.15794 11.5789 8.79267 11.5789 10.0527V11H4V10.0527ZM10.6696 4.39189C11.0675 4.95083 11.0675 5.67556 10.6696 6.23451L11.4654 7.03503C12.4222 6.07819 12.4222 4.63347 11.4654 3.59137L10.6696 4.39189Z" fill="#FF3365"/>
</svg>
