<svg width="10" height="11" viewBox="0 0 10 11" fill="none" xmlns="http://www.w3.org/2000/svg">
<path d="M2.8792 4.08117L2.20127 4.78419L4.39617 7.02346L9.23854 2.00187L8.55598 1.3049L4.39154 5.62347L2.8792 4.08117ZM8.76257 5.00402C8.76985 7.204 7.0266 9.01177 4.88868 9.02129C2.75076 9.0308 0.9956 7.2386 0.988322 5.03861C0.981044 2.83863 2.7243 1.03085 4.86222 1.02134C5.25093 1.01961 5.59026 1.06712 5.93168 1.16756L6.70645 0.364107C6.12272 0.166703 5.48961 0.0185391 4.85891 0.0213458C2.18746 0.0332342 0.00744651 2.29393 0.0165406 5.04294C0.0256347 7.79194 2.22054 10.0332 4.89199 10.0213C7.56344 10.0094 9.74345 7.74869 9.73436 4.99969L8.76257 5.00402Z" fill="#762FE6"/>
</svg>
