<svg width="20" height="20" viewBox="0 0 20 20" fill="none" xmlns="http://www.w3.org/2000/svg">
<path fill-rule="evenodd" clip-rule="evenodd" d="M16.75 1C17.3594 1 17.8867 1.22265 18.332 1.66797C18.7773 2.11328 19 2.64062 19 3.25V13.375C19 13.9844 18.7773 14.5117 18.332 14.957C17.8867 15.4023 17.3594 15.625 16.75 15.625H11.6875L7.29297 18.9297C7.15234 19.0234 7.00586 19.0293 6.85352 18.9473C6.70117 18.8652 6.625 18.7422 6.625 18.5781V15.625H3.25C2.64062 15.625 2.11328 15.4023 1.66797 14.957C1.22265 14.5117 1 13.9844 1 13.375V3.25C1 2.64062 1.22265 2.11328 1.66797 1.66797C2.11328 1.22265 2.64062 1 3.25 1H16.75Z" fill="white" stroke="white"/>
<path fill-rule="evenodd" clip-rule="evenodd" d="M13.2193 5.48623C13.5422 5.75707 13.7662 6.0904 13.8912 6.48625C14.0162 6.88209 14.0344 7.28054 13.9459 7.68159C13.8573 8.08264 13.6672 8.429 13.3756 8.72068L10.3599 11.8458C10.2557 11.9499 10.1359 12.002 10.0005 12.002C9.86506 12.002 9.74526 11.9499 9.64109 11.8458L6.6254 8.7363C6.33372 8.43421 6.14361 8.08264 6.05507 7.68159C5.96653 7.28054 5.98476 6.88209 6.10976 6.48625C6.23476 6.0904 6.45872 5.75707 6.78165 5.48623C7.06291 5.24663 7.38062 5.09559 7.7348 5.03309C8.08897 4.97059 8.43794 4.99663 8.7817 5.11122C9.12546 5.2258 9.42755 5.41851 9.68797 5.68935L10.0005 6.00186L10.313 5.68935C10.5734 5.41851 10.8755 5.2258 11.2193 5.11122C11.563 4.99663 11.912 4.97059 12.2662 5.03309C12.6203 5.09559 12.938 5.24663 13.2193 5.48623Z" fill="#FF3365"/>
</svg>
