<svg width="20" height="20" viewBox="0 0 20 20" fill="none" xmlns="http://www.w3.org/2000/svg">
<path fill-rule="evenodd" clip-rule="evenodd" d="M16.75 1C17.3594 1 17.8867 1.2226 18.332 1.66779C18.7773 2.11299 19 2.64019 19 3.24941V13.3718C19 13.981 18.7773 14.5082 18.332 14.9534C17.8867 15.3986 17.3594 15.6212 16.75 15.6212H11.6875L7.29297 18.925C7.15234 19.0187 7.00586 19.0246 6.85352 18.9426C6.70117 18.8606 6.625 18.7376 6.625 18.5735V15.6212H3.25C2.64062 15.6212 2.11328 15.3986 1.66797 14.9534C1.22265 14.5082 1 13.981 1 13.3718V3.24941C1 2.64019 1.22265 2.11299 1.66797 1.66779C2.11328 1.2226 2.64062 1 3.25 1H16.75Z" fill="#1FC39B" stroke="#1AB169"/>
<path fill-rule="evenodd" clip-rule="evenodd" d="M12.5718 4.70357L13.2731 4.01119C14.9848 5.70113 15.0029 8.25217 13.325 9.90458L12.6116 9.22464C13.8018 7.87543 13.785 5.96428 12.5718 4.70357ZM10.2324 6.9842C10.2406 7.91452 9.4705 8.67486 8.51152 8.6833C7.55253 8.69173 6.76916 7.94505 6.76097 7.01474C6.75278 6.08442 7.52288 5.32408 8.48186 5.31564C9.44085 5.30721 10.2242 6.05389 10.2324 6.9842ZM5.06299 11.2395C5.05313 10.1197 7.36102 9.5353 8.51961 9.52511C9.67821 9.51491 11.996 10.0587 12.0059 11.1784L12.0133 12.0203L5.07041 12.0814L5.06299 11.2395ZM11.1284 6.15515C11.4973 6.64868 11.503 7.29274 11.1428 7.79267L11.8781 8.49768C12.7472 7.63963 12.7359 6.35572 11.8512 5.43732L11.1284 6.15515Z" fill="white"/>
</svg>
