<svg width="24" height="24" viewBox="0 0 24 24" fill="none" xmlns="http://www.w3.org/2000/svg">
<path fill-rule="evenodd" clip-rule="evenodd" d="M11.99 2C6.47 2 2 6.48 2 12C2 17.52 6.47 22 11.99 22C17.52 22 22 17.52 22 12C22 6.48 17.52 2 11.99 2ZM19.47 9.15997L14.46 8.72997L12.46 4.01997C15.67 4.20997 18.37 6.28997 19.47 9.15997ZM12 13.98L14.4 15.42L13.76 12.69L15.87 10.86L13.09 10.62L12 8.05996L10.91 10.63L8.12997 10.87L10.24 12.7L9.60997 15.42L12 13.98ZM11.5399 4.01997L9.53994 8.73997L4.51994 9.16997C5.61994 6.28997 8.31994 4.19997 11.5399 4.01997ZM4.23 10.14C4.08 10.74 4 11.36 4 12C4 14.48 5.13 16.7 6.91 18.17L8.02 13.42L4.23 10.14ZM7.83995 18.82L12 16.31L16.16 18.81C14.94 19.56 13.52 20 11.99 20C10.47 20 9.04995 19.56 7.83995 18.82ZM15.9801 13.42L17.0901 18.17C18.8601 16.7 20.0001 14.48 20.0001 12C20.0001 11.36 19.9101 10.73 19.7701 10.14L15.9801 13.42Z" fill="#D43274"/>
</svg>
