<svg width="16" height="16" viewBox="0 0 16 16" fill="none" xmlns="http://www.w3.org/2000/svg">
<path fill-rule="evenodd" clip-rule="evenodd" d="M7.9925 0.5C3.8525 0.5 0.5 3.86 0.5 8C0.5 12.14 3.8525 15.5 7.9925 15.5C12.14 15.5 15.5 12.14 15.5 8C15.5 3.86 12.14 0.5 7.9925 0.5ZM13.6025 5.87L9.84501 5.5475L8.34502 2.015C10.7525 2.1575 12.7775 3.7175 13.6025 5.87ZM8 9.48499L9.8 10.565L9.32 8.51749L10.9025 7.14499L8.8175 6.96499L8 5.04499L7.1825 6.97249L5.0975 7.15249L6.68 8.52499L6.2075 10.565L8 9.48499ZM7.65498 2.015L6.15498 5.555L2.38998 5.8775C3.21498 3.7175 5.23998 2.15 7.65498 2.015ZM2.1725 6.605C2.06 7.055 2 7.52 2 8C2 9.86 2.8475 11.525 4.1825 12.6275L5.015 9.065L2.1725 6.605ZM4.87999 13.115L7.99999 11.2325L11.12 13.1075C10.205 13.67 9.13999 14 7.99249 14C6.85249 14 5.78749 13.67 4.87999 13.115ZM10.985 9.065L11.8175 12.6275C13.145 11.525 14 9.86 14 8C14 7.52 13.9325 7.0475 13.8275 6.605L10.985 9.065Z" fill="#B0BAC5"/>
</svg>
