<svg width="28" height="29" viewBox="0 0 28 29" fill="none" xmlns="http://www.w3.org/2000/svg">
<path d="M0 14.4027C0 6.47392 6.26801 0.0463867 14 0.0463867C21.732 0.0463867 28 6.47392 28 14.4027C28 22.3314 21.732 28.759 14 28.759C6.26801 28.759 0 22.3314 0 14.4027Z" fill="#55ACEE"/>
<path d="M13.5807 11.7154L13.6101 12.2121L13.1204 12.1513C11.3382 11.9181 9.78113 11.1274 8.45911 9.79928L7.81279 9.14031L7.64632 9.62693C7.29378 10.7117 7.51901 11.8573 8.25347 12.6278C8.64517 13.0536 8.55704 13.1144 7.88134 12.8609C7.64632 12.7798 7.44067 12.719 7.42109 12.7494C7.35254 12.8204 7.58756 13.7429 7.77362 14.1079C8.02823 14.6148 8.54725 15.1116 9.11522 15.4056L9.59507 15.6387L9.02709 15.6489C8.4787 15.6489 8.45911 15.659 8.51787 15.8719C8.71372 16.5309 9.48735 17.2304 10.3491 17.5345L10.9563 17.7474L10.4274 18.0719C9.64403 18.5382 8.72352 18.8018 7.803 18.8221C7.36233 18.8322 7 18.8728 7 18.9032C7 19.0045 8.19471 19.5723 8.88999 19.7953C10.9758 20.4543 13.4534 20.1704 15.314 19.0451C16.636 18.2442 17.958 16.6525 18.575 15.1116C18.9079 14.2904 19.2409 12.79 19.2409 12.0702C19.2409 11.6038 19.2703 11.543 19.8187 10.9854C20.1418 10.661 20.4454 10.3062 20.5041 10.2048C20.6021 10.0122 20.5923 10.0122 20.0929 10.1845C19.2605 10.4887 19.143 10.4481 19.5543 9.9919C19.8578 9.66749 20.2202 9.07949 20.2202 8.90714C20.2202 8.87673 20.0733 8.92742 19.9068 9.01866C19.7305 9.12004 19.3388 9.27211 19.045 9.36335L18.5162 9.53569L18.0364 9.20114C17.772 9.01866 17.3999 8.8159 17.204 8.75507C16.7046 8.61314 15.9407 8.63341 15.4903 8.79562C14.2662 9.25183 13.4926 10.4278 13.5807 11.7154Z" fill="white"/>
</svg>
