<svg width="21" height="21" viewBox="0 0 21 21" fill="none" xmlns="http://www.w3.org/2000/svg">
<g id="icon/social/group_24px">
<path id="icon/social/group_24px_2" fill-rule="evenodd" clip-rule="evenodd" d="M7.875 10.5C9.56375 10.5 10.9375 9.12625 10.9375 7.4375C10.9375 5.74875 9.56375 4.375 7.875 4.375C6.18625 4.375 4.8125 5.74875 4.8125 7.4375C4.8125 9.12625 6.18625 10.5 7.875 10.5ZM1.75 15.0938C1.75 13.055 5.8275 12.0312 7.875 12.0312C9.9225 12.0312 14 13.055 14 15.0938V16.625H1.75V15.0938ZM7.875 13.7812C6.30875 13.7812 4.5325 14.3675 3.7975 14.875H11.9525C11.2175 14.3675 9.44125 13.7812 7.875 13.7812ZM9.1875 7.4375C9.1875 6.71125 8.60125 6.125 7.875 6.125C7.14875 6.125 6.5625 6.71125 6.5625 7.4375C6.5625 8.16375 7.14875 8.75 7.875 8.75C8.60125 8.75 9.1875 8.16375 9.1875 7.4375ZM14.035 12.0837C15.05 12.8187 15.75 13.7987 15.75 15.0937V16.625H19.25V15.0937C19.25 13.3262 16.1875 12.32 14.035 12.0837ZM16.1875 7.4375C16.1875 9.12625 14.8138 10.5 13.125 10.5C12.6525 10.5 12.215 10.3863 11.8125 10.1937C12.3638 9.415 12.6875 8.46125 12.6875 7.4375C12.6875 6.41375 12.3638 5.46 11.8125 4.68125C12.215 4.48875 12.6525 4.375 13.125 4.375C14.8138 4.375 16.1875 5.74875 16.1875 7.4375Z" fill="#B0BAC5"/>
</g>
</svg>
