<svg width="30" height="30" viewBox="0 0 30 30" fill="none" xmlns="http://www.w3.org/2000/svg">
<circle cx="15" cy="15" r="15" fill="#762FE6"/>
<path fill-rule="evenodd" clip-rule="evenodd" d="M4.21484 15C4.21484 8.88004 9.10953 3.91309 15.154 3.91309C21.2094 3.91309 26.115 8.88004 26.115 15C26.115 21.12 21.2094 26.087 15.154 26.087C9.10953 26.087 4.21484 21.12 4.21484 15ZM19.5064 10.5657H22.7367C21.6855 8.73631 20.0101 7.31718 17.9953 6.6187C18.6523 7.84935 19.156 9.17979 19.5064 10.5657ZM15.1649 6.17573C16.0738 7.50617 16.7855 8.98073 17.2564 10.5662H13.0734C13.5443 8.98073 14.256 7.50617 15.1649 6.17573ZM6.40313 14.9999C6.40313 15.7649 6.51263 16.5077 6.68783 17.2173H10.389C10.3014 16.4855 10.2357 15.7538 10.2357 14.9999C10.2357 14.2459 10.3014 13.5142 10.389 12.7825H6.68783C6.51263 13.492 6.40313 14.2349 6.40313 14.9999ZM7.58906 19.4355H10.8193C11.1697 20.8214 11.6734 22.1518 12.3304 23.3825C10.3156 22.684 8.64027 21.2759 7.58906 19.4355ZM7.58906 10.5657H10.8193C11.1697 9.17979 11.6734 7.84935 12.3304 6.6187C10.3156 7.31718 8.64027 8.72522 7.58906 10.5657ZM15.1649 23.8259C14.256 22.4955 13.5443 21.0209 13.0734 19.4355H17.2564C16.7855 21.0209 16.0738 22.4955 15.1649 23.8259ZM12.6018 17.2173H17.7264C17.825 16.4855 17.9016 15.7538 17.9016 14.9999C17.9016 14.2459 17.825 13.5031 17.7264 12.7825H12.6018C12.5032 13.5031 12.4266 14.2459 12.4266 14.9999C12.4266 15.7538 12.5032 16.4855 12.6018 17.2173ZM17.9953 23.3825C18.6523 22.1518 19.156 20.8214 19.5064 19.4355H22.7367C21.6855 21.2648 20.0101 22.684 17.9953 23.3825ZM20.0892 14.9999C20.0892 15.7538 20.0235 16.4855 19.9359 17.2173H23.6371C23.8123 16.5077 23.9218 15.7649 23.9218 14.9999C23.9218 14.2349 23.8123 13.492 23.6371 12.7825H19.9359C20.0235 13.5142 20.0892 14.2459 20.0892 14.9999Z" fill="white"/>
</svg>
