<svg width="30" height="30" viewBox="0 0 30 30" fill="none" xmlns="http://www.w3.org/2000/svg">
<path fill-rule="evenodd" clip-rule="evenodd" d="M15 30C23.2843 30 30 23.2843 30 15C30 6.71573 23.2843 0 15 0C6.71573 0 0 6.71573 0 15C0 23.2843 6.71573 30 15 30Z" fill="#3ACE01"/>
<path fill-rule="evenodd" clip-rule="evenodd" d="M20.4715 9.89413C19.0678 8.4892 17.2009 7.71508 15.2119 7.71429C11.1137 7.71429 7.77828 11.0485 7.77664 15.1467C7.77611 16.4567 8.11848 17.7354 8.76912 18.8626L7.71429 22.7143L11.6558 21.6807C12.7418 22.2728 13.9645 22.5849 15.2089 22.5854H15.212C15.2122 22.5854 15.2117 22.5854 15.212 22.5854C19.3098 22.5854 22.6455 19.2509 22.6472 15.1526C22.648 13.1665 21.8753 11.2991 20.4715 9.89413ZM15.212 21.3301H15.2095C14.1006 21.3297 13.0129 21.0318 12.0641 20.469L11.8384 20.3351L9.49946 20.9484L10.1238 18.6687L9.9768 18.435C9.35819 17.4514 9.03147 16.3144 9.03196 15.1472C9.03329 11.7409 11.8056 8.96966 15.2144 8.96966C16.865 8.97028 18.4166 9.61376 19.5834 10.7815C20.7502 11.9492 21.3924 13.5014 21.3918 15.1521C21.3905 18.5587 18.6182 21.3301 15.212 21.3301ZM17.3323 16.0989C17.162 16.0369 17.0382 16.0059 16.9143 16.1919C16.7905 16.3778 16.4344 16.7961 16.326 16.9201C16.2177 17.044 16.1093 17.0595 15.9235 16.9666C15.7377 16.8736 15.1391 16.6775 14.4295 16.0448C13.8773 15.5524 13.5044 14.9441 13.396 14.7582C13.2877 14.5722 13.3845 14.4717 13.4775 14.3791C13.5611 14.2959 13.6633 14.1622 13.7562 14.0538C13.849 13.9453 13.88 13.8678 13.9419 13.7439C14.0039 13.6199 13.9729 13.5115 13.9264 13.4185C13.88 13.3256 13.5085 12.4114 13.3536 12.0396C13.2029 11.6774 13.0497 11.7264 12.9356 11.7207C12.8274 11.7153 12.7034 11.7142 12.5796 11.7142C12.4557 11.7142 12.2544 11.7607 12.0842 11.9466C11.9139 12.1325 11.4339 12.5819 11.4339 13.496C11.4339 14.4101 12.0996 15.2933 12.1925 15.4172C12.2854 15.5411 13.5025 17.4171 15.3662 18.2215C15.8094 18.4129 16.1555 18.5272 16.4253 18.6128C16.8703 18.7541 17.2753 18.7342 17.5955 18.6863C17.9524 18.633 18.6946 18.2371 18.8495 17.8032C19.0043 17.3694 19.0043 16.9976 18.9578 16.9201C18.9114 16.8426 18.7875 16.7961 18.6018 16.7032C18.416 16.6102 17.5026 16.1609 17.3323 16.0989Z" fill="white"/>
</svg>
