<svg width="28" height="30" viewBox="0 0 28 30" fill="none" xmlns="http://www.w3.org/2000/svg">
<path d="M0 14.6751C0 6.74638 6.26801 0.318848 14 0.318848C21.732 0.318848 28 6.74638 28 14.6751C28 22.6039 21.732 29.0314 14 29.0314C6.26801 29.0314 0 22.6039 0 14.6751Z" fill="#FF0000"/>
<path d="M21.1547 11.1299C20.983 10.4533 20.4769 9.9206 19.8344 9.73979C18.6699 9.41119 14.0001 9.41119 14.0001 9.41119C14.0001 9.41119 9.33031 9.41119 8.16576 9.73979C7.5232 9.9206 7.01717 10.4533 6.84544 11.1299C6.53345 12.3561 6.53345 14.9144 6.53345 14.9144C6.53345 14.9144 6.53345 17.4727 6.84544 18.699C7.01717 19.3755 7.5232 19.9083 8.16576 20.0892C9.33031 20.4177 14.0001 20.4177 14.0001 20.4177C14.0001 20.4177 18.6699 20.4177 19.8344 20.0892C20.4769 19.9083 20.983 19.3755 21.1547 18.699C21.4668 17.4727 21.4668 14.9144 21.4668 14.9144C21.4668 14.9144 21.4668 12.3561 21.1547 11.1299Z" fill="white"/>
<path d="M12.6001 17.5464V12.7609L16.3334 15.1537L12.6001 17.5464Z" fill="#FF0000"/>
</svg>
