<svg width="117" height="20" viewBox="0 0 117 20" fill="none" xmlns="http://www.w3.org/2000/svg">
<path d="M8.71964 13.8411C9.54377 13.8411 9.95584 14.1869 9.95584 14.8786C9.95584 15.2024 9.85282 15.4599 9.64679 15.6512C9.44076 15.8278 9.13171 15.9161 8.71964 15.9161H1.34658C0.97866 15.9161 0.676968 15.7984 0.441501 15.5629C0.206034 15.3274 0.0883002 15.0478 0.0883002 14.7241C0.0883002 14.3856 0.22075 14.0618 0.485651 13.7528L6.15893 7.19647H1.2362C0.824135 7.19647 0.515084 7.10817 0.30905 6.93157C0.103017 6.75497 0 6.49742 0 6.15894C0 5.82046 0.103017 5.56291 0.30905 5.38631C0.515084 5.20971 0.824135 5.12141 1.2362 5.12141H8.36644C8.74907 5.12141 9.05076 5.23915 9.27151 5.47461C9.50698 5.69536 9.62471 5.97498 9.62471 6.31346C9.62471 6.66667 9.49962 6.99043 9.24944 7.28477L3.55408 13.8411H8.71964Z" fill="white"/>
<path d="M13.3061 16.0486C12.9087 16.0486 12.5776 15.9382 12.3127 15.7174C12.0625 15.482 11.9374 15.1508 11.9374 14.7241V6.20309C11.9374 5.77631 12.0625 5.45254 12.3127 5.23179C12.5776 5.01104 12.9087 4.90066 13.3061 4.90066C13.7034 4.90066 14.0345 5.01104 14.2994 5.23179C14.5643 5.45254 14.6968 5.77631 14.6968 6.20309V14.7241C14.6968 15.1508 14.5643 15.482 14.2994 15.7174C14.0345 15.9382 13.7034 16.0486 13.3061 16.0486ZM13.3061 2.93598C12.8057 2.93598 12.4084 2.80353 12.114 2.53863C11.8197 2.25901 11.6725 1.89845 11.6725 1.45695C11.6725 1.01545 11.8197 0.662251 12.114 0.397351C12.4084 0.13245 12.8057 0 13.3061 0C13.7917 0 14.1817 0.13245 14.476 0.397351C14.7851 0.662251 14.9396 1.01545 14.9396 1.45695C14.9396 1.89845 14.7925 2.25901 14.4981 2.53863C14.2038 2.80353 13.8064 2.93598 13.3061 2.93598Z" fill="white"/>
<path d="M23.7455 4.85651C24.6726 4.85651 25.4968 5.09198 26.2179 5.56291C26.9537 6.03385 27.5203 6.70346 27.9177 7.57174C28.3297 8.42531 28.5358 9.41133 28.5358 10.5298C28.5358 11.6483 28.3297 12.6269 27.9177 13.4658C27.5203 14.3046 26.9611 14.9522 26.24 15.4084C25.5189 15.8646 24.6874 16.0927 23.7455 16.0927C22.9802 16.0927 22.2959 15.9308 21.6925 15.6071C21.0891 15.2833 20.6256 14.8344 20.3018 14.2605V18.7638C20.3018 19.1464 20.1767 19.4481 19.9265 19.6689C19.6763 19.8896 19.3452 20 18.9331 20C18.5211 20 18.1826 19.8823 17.9177 19.6468C17.6675 19.4113 17.5424 19.1023 17.5424 18.7196V6.20309C17.5424 5.80574 17.6601 5.48933 17.8956 5.25386C18.1458 5.0184 18.4769 4.90066 18.889 4.90066C19.3011 4.90066 19.6322 5.0184 19.8824 5.25386C20.1325 5.48933 20.2576 5.80574 20.2576 6.20309V6.75497C20.5814 6.15158 21.045 5.688 21.6484 5.36424C22.2665 5.02575 22.9655 4.85651 23.7455 4.85651ZM23.017 13.9514C23.8853 13.9514 24.5623 13.6571 25.0479 13.0684C25.5336 12.465 25.7764 11.6188 25.7764 10.5298C25.7764 9.41133 25.5336 8.54305 25.0479 7.92494C24.5623 7.30684 23.8853 6.99779 23.017 6.99779C22.134 6.99779 21.4497 7.29948 20.964 7.90287C20.4931 8.50625 20.2576 9.36718 20.2576 10.4857C20.2576 11.5894 20.4931 12.443 20.964 13.0464C21.4497 13.6497 22.134 13.9514 23.017 13.9514Z" fill="white"/>
<path d="M37.0034 4.85651C37.9306 4.85651 38.7547 5.09198 39.4758 5.56291C40.2117 6.03385 40.7783 6.70346 41.1756 7.57174C41.5877 8.42531 41.7937 9.41133 41.7937 10.5298C41.7937 11.6483 41.5877 12.6269 41.1756 13.4658C40.7783 14.3046 40.219 14.9522 39.4979 15.4084C38.7768 15.8646 37.9453 16.0927 37.0034 16.0927C36.2382 16.0927 35.5539 15.9308 34.9505 15.6071C34.3471 15.2833 33.8835 14.8344 33.5597 14.2605V18.7638C33.5597 19.1464 33.4347 19.4481 33.1845 19.6689C32.9343 19.8896 32.6032 20 32.1911 20C31.779 20 31.4405 19.8823 31.1756 19.6468C30.9255 19.4113 30.8004 19.1023 30.8004 18.7196V6.20309C30.8004 5.80574 30.9181 5.48933 31.1536 5.25386C31.4037 5.0184 31.7349 4.90066 32.1469 4.90066C32.559 4.90066 32.8901 5.0184 33.1403 5.25386C33.3905 5.48933 33.5156 5.80574 33.5156 6.20309V6.75497C33.8394 6.15158 34.3029 5.688 34.9063 5.36424C35.5244 5.02575 36.2235 4.85651 37.0034 4.85651ZM36.275 13.9514C37.1433 13.9514 37.8202 13.6571 38.3059 13.0684C38.7915 12.465 39.0343 11.6188 39.0343 10.5298C39.0343 9.41133 38.7915 8.54305 38.3059 7.92494C37.8202 7.30684 37.1433 6.99779 36.275 6.99779C35.392 6.99779 34.7076 7.29948 34.222 7.90287C33.7511 8.50625 33.5156 9.36718 33.5156 10.4857C33.5156 11.5894 33.7511 12.443 34.222 13.0464C34.7076 13.6497 35.392 13.9514 36.275 13.9514Z" fill="white"/>
<path d="M51.4134 5.69536C51.5312 5.43046 51.6857 5.23915 51.877 5.12141C52.083 4.98896 52.3038 4.92274 52.5393 4.92274C52.8777 4.92274 53.1794 5.04047 53.4443 5.27594C53.724 5.49669 53.8638 5.77631 53.8638 6.11479C53.8638 6.27667 53.8196 6.44591 53.7313 6.62251L47.7048 19.2494C47.4547 19.7498 47.0647 20 46.5349 20C46.1964 20 45.8947 19.8896 45.6298 19.6689C45.3796 19.4628 45.2545 19.1979 45.2545 18.8742C45.2545 18.7123 45.2987 18.5283 45.387 18.3223L46.8881 15.1656L42.7821 6.62251C42.7085 6.47535 42.6717 6.30611 42.6717 6.11479C42.6717 5.77631 42.8115 5.48933 43.0912 5.25386C43.3855 5.0184 43.7166 4.90066 44.0845 4.90066C44.3347 4.90066 44.5628 4.96689 44.7689 5.09934C44.9749 5.21707 45.1368 5.40839 45.2545 5.67329L48.345 12.4945L51.4134 5.69536Z" fill="white"/>
<path d="M61.0427 16.093C59.9684 16.093 59.0191 15.8649 58.195 15.4087C57.3856 14.9525 56.7601 14.3049 56.3186 13.4661C55.8771 12.6272 55.6564 11.6486 55.6564 10.5301C55.6564 9.41165 55.8845 8.42564 56.3407 7.57207C56.8116 6.70378 57.4665 6.03418 58.3054 5.56324C59.1442 5.09231 60.1082 4.85684 61.1972 4.85684C61.7712 4.85684 62.3451 4.93778 62.9191 5.09967C63.5077 5.26155 64.0228 5.4823 64.4643 5.76192C64.9352 6.07097 65.1707 6.46096 65.1707 6.93189C65.1707 7.25566 65.0898 7.52056 64.9279 7.72659C64.7807 7.91791 64.582 8.01357 64.3319 8.01357C64.17 8.01357 64.0007 7.97678 63.8241 7.90319C63.6475 7.82961 63.4709 7.74131 63.2943 7.63829C62.9706 7.44698 62.6615 7.29981 62.3672 7.19679C62.0729 7.07906 61.7344 7.02019 61.3517 7.02019C60.4393 7.02019 59.7329 7.32188 59.2325 7.92527C58.7469 8.51393 58.5041 9.3675 58.5041 10.486C58.5041 11.5897 58.7469 12.4433 59.2325 13.0467C59.7329 13.6353 60.4393 13.9297 61.3517 13.9297C61.7197 13.9297 62.0434 13.8782 62.323 13.7751C62.6174 13.6574 62.9411 13.5029 63.2943 13.3116C63.5151 13.1791 63.7064 13.0835 63.8683 13.0246C64.0302 12.951 64.1921 12.9142 64.3539 12.9142C64.5894 12.9142 64.7881 13.0172 64.95 13.2233C65.1119 13.4293 65.1928 13.6868 65.1928 13.9959C65.1928 14.2461 65.1339 14.4668 65.0162 14.6581C64.9132 14.8347 64.7366 14.9966 64.4864 15.1438C64.0302 15.4381 63.5004 15.6736 62.897 15.8502C62.2936 16.0121 61.6755 16.093 61.0427 16.093Z" fill="#1AB169"/>
<path d="M73.0577 4.90099C73.4404 4.87156 73.742 4.9525 73.9628 5.14382C74.1835 5.33513 74.2939 5.62211 74.2939 6.00474C74.2939 6.40209 74.1983 6.69643 74.0069 6.88774C73.8156 7.07906 73.4698 7.20415 72.9694 7.26302L72.3072 7.32924C71.4389 7.41754 70.7987 7.71188 70.3866 8.21224C69.9893 8.71261 69.7906 9.33807 69.7906 10.0886V14.7244C69.7906 15.1512 69.6582 15.4823 69.3933 15.7177C69.1284 15.9385 68.7972 16.0489 68.3999 16.0489C68.0025 16.0489 67.6714 15.9385 67.4065 15.7177C67.1563 15.4823 67.0312 15.1512 67.0312 14.7244V6.18134C67.0312 5.76928 67.1563 5.45287 67.4065 5.23212C67.6714 5.01137 67.9952 4.90099 68.3778 4.90099C68.7604 4.90099 69.0695 5.01137 69.305 5.23212C69.5404 5.43815 69.6582 5.73984 69.6582 6.13719V7.02019C69.9378 6.37266 70.3498 5.87229 70.8944 5.51909C71.4536 5.16589 72.0717 4.96722 72.7487 4.92307L73.0577 4.90099Z" fill="#1AB169"/>
<path d="M80.189 16.093C79.0852 16.093 78.1139 15.8649 77.2751 15.4087C76.451 14.9525 75.8108 14.2976 75.3546 13.444C74.8983 12.5905 74.6702 11.5971 74.6702 10.4639C74.6702 9.33071 74.8983 8.34469 75.3546 7.50584C75.8108 6.65228 76.451 5.99738 77.2751 5.54117C78.1139 5.08495 79.0852 4.85684 80.189 4.85684C81.2927 4.85684 82.2567 5.08495 83.0808 5.54117C83.9197 5.99738 84.5598 6.65228 85.0014 7.50584C85.4576 8.34469 85.6857 9.33071 85.6857 10.4639C85.6857 11.5971 85.4576 12.5905 85.0014 13.444C84.5598 14.2976 83.9197 14.9525 83.0808 15.4087C82.2567 15.8649 81.2927 16.093 80.189 16.093ZM80.1669 13.9517C81.0646 13.9517 81.749 13.6574 82.2199 13.0687C82.6908 12.4801 82.9263 11.6118 82.9263 10.4639C82.9263 9.33071 82.6908 8.46979 82.2199 7.88112C81.749 7.27773 81.072 6.97604 80.189 6.97604C79.306 6.97604 78.6217 7.27773 78.136 7.88112C77.6651 8.46979 77.4296 9.33071 77.4296 10.4639C77.4296 11.6118 77.6651 12.4801 78.136 13.0687C78.6069 13.6574 79.2839 13.9517 80.1669 13.9517Z" fill="#1AB169"/>
<path d="M102.383 5.71777C102.486 5.45287 102.633 5.25419 102.824 5.12174C103.03 4.98929 103.251 4.92307 103.487 4.92307C103.825 4.92307 104.127 5.0408 104.392 5.27627C104.671 5.49702 104.811 5.77663 104.811 6.11512C104.811 6.30643 104.774 6.47568 104.701 6.62284L101.058 15.1659C100.941 15.4455 100.757 15.6589 100.506 15.806C100.271 15.9532 100.006 16.0268 99.7118 16.0268C99.4322 16.0268 99.1673 15.9532 98.9171 15.806C98.6816 15.6589 98.505 15.4455 98.3873 15.1659L95.7603 8.85242L93.2217 15.1659C93.104 15.4455 92.92 15.6589 92.6698 15.806C92.4344 15.9532 92.1695 16.0268 91.8751 16.0268C91.5955 16.0268 91.3306 15.9532 91.0804 15.806C90.8303 15.6589 90.6463 15.4455 90.5286 15.1659L86.9083 6.62284C86.8347 6.43153 86.7979 6.26964 86.7979 6.13719C86.7979 5.79871 86.945 5.51173 87.2394 5.27627C87.5337 5.02608 87.8575 4.90099 88.2107 4.90099C88.4609 4.90099 88.689 4.96722 88.895 5.09967C89.101 5.23212 89.2556 5.43079 89.3586 5.69569L91.9634 12.4286L94.6345 5.76192C94.7523 5.4823 94.9215 5.27627 95.1422 5.14382C95.363 4.99665 95.6058 4.92307 95.8707 4.92307C96.1356 4.92307 96.3785 4.99665 96.5992 5.14382C96.82 5.27627 96.9892 5.4823 97.1069 5.76192L99.8001 12.4506L102.383 5.71777Z" fill="#1AB169"/>
<path d="M115.531 0.243164C115.944 0.243164 116.282 0.360898 116.547 0.596365C116.812 0.831831 116.944 1.14088 116.944 1.52352V14.7244C116.944 15.1217 116.819 15.4381 116.569 15.6736C116.319 15.9091 115.988 16.0268 115.576 16.0268C115.164 16.0268 114.832 15.9091 114.582 15.6736C114.332 15.4381 114.207 15.1217 114.207 14.7244V14.1725C113.883 14.7759 113.412 15.2468 112.794 15.5853C112.191 15.9238 111.499 16.093 110.719 16.093C109.792 16.093 108.96 15.8576 108.225 15.3866C107.504 14.9157 106.937 14.2534 106.525 13.3999C106.128 12.5316 105.929 11.5382 105.929 10.4197C105.929 9.30128 106.128 8.32262 106.525 7.48377C106.937 6.64492 107.504 5.99738 108.225 5.54117C108.946 5.08495 109.777 4.85684 110.719 4.85684C111.499 4.85684 112.191 5.01872 112.794 5.34249C113.398 5.66626 113.861 6.12248 114.185 6.71114V1.47936C114.185 1.11145 114.303 0.817115 114.538 0.596365C114.788 0.360898 115.119 0.243164 115.531 0.243164ZM111.448 13.9517C112.331 13.9517 113.008 13.6501 113.479 13.0467C113.964 12.4433 114.207 11.5824 114.207 10.4639C114.207 9.34543 113.964 8.49186 113.479 7.90319C113.008 7.29981 112.338 6.99812 111.47 6.99812C110.587 6.99812 109.902 7.29245 109.417 7.88112C108.931 8.46979 108.688 9.31599 108.688 10.4197C108.688 11.5382 108.931 12.4065 109.417 13.0246C109.902 13.6427 110.579 13.9517 111.448 13.9517Z" fill="#1AB169"/>
</svg>
