<svg width="50" height="50" viewBox="0 0 50 50" fill="none" xmlns="http://www.w3.org/2000/svg">
<path d="M25 50C38.8071 50 50 38.8071 50 25C50 11.1929 38.8071 0 25 0C11.1929 0 0 11.1929 0 25C0 38.8071 11.1929 50 25 50Z" fill="#F4F7FA"/>
<path fill-rule="evenodd" clip-rule="evenodd" d="M34.1348 16.125C34.9219 16.125 35.603 16.3755 36.1782 16.8765C36.7534 17.3774 37.041 17.9707 37.041 18.6562V30.0469C37.041 30.7324 36.7534 31.3257 36.1782 31.8267C35.603 32.3276 34.9219 32.5781 34.1348 32.5781H27.5957L21.9194 36.2959C21.7378 36.4014 21.5486 36.408 21.3518 36.3157C21.155 36.2234 21.0566 36.085 21.0566 35.9004V32.5781H16.6973C15.9102 32.5781 15.229 32.3276 14.6538 31.8267C14.0786 31.3257 13.791 30.7324 13.791 30.0469V18.6562C13.791 17.9707 14.0786 17.3774 14.6538 16.8765C15.229 16.3755 15.9102 16.125 16.6973 16.125H34.1348Z" fill="#762FE6" stroke="#4D17BC"/>
<path fill-rule="evenodd" clip-rule="evenodd" d="M26.0988 21.9394C26.1102 23.0003 25.1802 23.8664 24.0205 23.8749C22.8608 23.8833 21.9122 23.0309 21.9007 21.9701C21.8892 20.9092 22.8192 20.0431 23.9789 20.0346C25.1386 20.0261 26.0873 20.8785 26.0988 21.9394ZM19.8441 26.7816C19.83 25.5023 22.622 24.8371 24.0243 24.8267C25.4265 24.8163 28.2327 25.4399 28.2468 26.7192L28.2574 27.6811L19.8547 27.7435L19.8441 26.7816Z" fill="white"/>
<path d="M30.8652 24.8014V23.0931H32.6816V21.9543H30.8652V20.2461H29.6543V21.9543H27.8379V23.0931H29.6543V24.8014H30.8652Z" fill="white"/>
</svg>
