<svg width="21" height="21" viewBox="0 0 21 21" fill="none" xmlns="http://www.w3.org/2000/svg">
<path fill-rule="evenodd" clip-rule="evenodd" d="M10.338 21.0001C5.84457 20.9319 2.03553 18.0409 0.605469 14.0218L1.51393 13.7266C2.81925 17.363 6.26878 19.9774 10.338 20.0454V21.0001Z" fill="#762FE6"/>
<path fill-rule="evenodd" clip-rule="evenodd" d="M10.7188 20.999V20.0442C14.7902 19.9524 18.2323 17.3113 19.5118 13.6543L20.4201 13.9494C19.016 17.9892 15.2144 20.9069 10.7188 20.999Z" fill="#C4C4C4"/>
<path fill-rule="evenodd" clip-rule="evenodd" d="M0.483449 13.6593C0.169362 12.6623 0 11.6011 0 10.5004C0 7.09255 1.62326 4.0639 4.13869 2.14551L4.69996 2.91806C2.42291 4.66272 0.954547 7.41005 0.954547 10.5004C0.954547 11.4981 1.10762 12.4602 1.39156 13.3642L0.483449 13.6593Z" fill="#762FE6"/>
<path fill-rule="evenodd" clip-rule="evenodd" d="M20.54 13.5861L19.6318 13.291C19.9012 12.4082 20.0462 11.4711 20.0462 10.5002C20.0462 7.39665 18.5652 4.63903 16.2715 2.89554L16.8327 2.12305C19.3648 4.04022 21.0007 7.07915 21.0007 10.5002C21.0007 11.5741 20.8395 12.6104 20.54 13.5861Z" fill="#762FE6"/>
<path fill-rule="evenodd" clip-rule="evenodd" d="M16.6425 1.89856L16.0813 2.67103C14.5337 1.58922 12.6504 0.954602 10.619 0.954602C8.57435 0.954602 6.67985 1.5975 5.1266 2.69218L4.56543 1.91975C6.27624 0.71048 8.36465 0 10.619 0C12.8601 0 14.9373 0.702183 16.6425 1.89856Z" fill="#762FE6"/>
<path fill-rule="evenodd" clip-rule="evenodd" d="M10.5002 16.435C13.7779 16.435 16.435 13.7779 16.435 10.5002C16.435 7.22252 13.7779 4.56543 10.5002 4.56543C7.22252 4.56543 4.56543 7.22252 4.56543 10.5002C4.56543 13.7779 7.22252 16.435 10.5002 16.435Z" fill="#762FE6"/>
<mask id="mask0" mask-type="alpha" maskUnits="userSpaceOnUse" x="13" y="10" width="2" height="3">
<path fill-rule="evenodd" clip-rule="evenodd" d="M13.2627 10.7207H14.9545V12.1501H13.2627V10.7207Z" fill="white"/>
</mask>
<g mask="url(#mask0)">
<path fill-rule="evenodd" clip-rule="evenodd" d="M14.5914 10.9588C14.7378 11.0005 14.651 11.2677 14.5664 11.4738C14.4726 11.7022 14.3542 11.9164 14.1879 12.1501C14.4179 11.9206 14.6446 11.6737 14.7885 11.4024C14.9304 11.135 15.0522 10.7483 14.8405 10.7214C14.7351 10.7081 14.5749 10.8896 14.4569 10.9648C14.2834 11.0751 14.1056 11.1032 13.9571 11.119C13.752 11.1407 13.5293 11.0973 13.2627 11.2913C13.5247 11.2094 13.7174 11.2775 13.9744 11.1994C14.1668 11.141 14.444 10.9167 14.5914 10.9588Z" fill="#67A183"/>
</g>
<path fill-rule="evenodd" clip-rule="evenodd" d="M13.0391 11.5067C13.2359 11.4336 13.4067 11.4315 13.5727 11.4211C13.7412 11.4103 13.9758 11.3237 14.0794 11.4006C14.1813 11.476 14.1793 11.6501 14.1105 11.8603C14.0268 12.1153 13.8729 12.3448 13.6601 12.6052C13.767 12.5225 13.8701 12.439 13.9741 12.3491C14.0441 12.2887 14.1177 12.2195 14.1884 12.1506C14.3548 11.917 14.4732 11.7028 14.567 11.4743C14.6516 11.2684 14.7383 11.0011 14.5919 10.9593C14.4446 10.9173 14.1673 11.1415 13.9749 11.2C13.7179 11.2781 13.5252 11.2099 13.2632 11.2919C13.2303 11.3163 13.2001 11.3425 13.1721 11.3678C13.1237 11.4117 13.0791 11.4576 13.0391 11.5067Z" fill="#7CC68E"/>
<path fill-rule="evenodd" clip-rule="evenodd" d="M12.7858 12.6293C12.7873 12.8221 12.8004 12.9938 12.9889 12.9786C13.162 12.9646 13.4434 12.7701 13.6609 12.6043C13.8737 12.344 14.0276 12.1144 14.1112 11.8594C14.1801 11.6491 14.1821 11.4752 14.0801 11.3997C13.9766 11.3228 13.742 11.4095 13.5735 11.4202C13.4075 11.4305 13.2367 11.4327 13.0399 11.5057C12.7056 11.9259 12.7835 12.3384 12.7858 12.6293Z" fill="#B6382E"/>
<mask id="mask1" mask-type="alpha" maskUnits="userSpaceOnUse" x="6" y="10" width="2" height="3">
<path fill-rule="evenodd" clip-rule="evenodd" d="M6.06934 10.873H7.93446V12.3425H6.06934V10.873Z" fill="white"/>
</mask>
<g mask="url(#mask1)">
<path fill-rule="evenodd" clip-rule="evenodd" d="M6.47062 11.0936C6.30295 11.1707 6.37429 11.4493 6.45163 11.6648C6.53597 11.9003 6.64904 12.1149 6.81479 12.3425C6.57702 12.1325 6.34614 11.9035 6.20832 11.6309C6.06891 11.3552 5.98094 10.9617 6.21114 10.879C6.32296 10.8387 6.49934 11.0137 6.62179 11.0728C6.81049 11.1643 7.00677 11.157 7.16992 11.1461C7.38813 11.1316 7.65994 11.0302 7.93446 11.2042C7.64558 11.156 7.41991 11.2746 7.1429 11.2398C6.93588 11.2137 6.6375 11.017 6.47062 11.0936Z" fill="#67A183"/>
</g>
<path fill-rule="evenodd" clip-rule="evenodd" d="M8.16727 11.4012C7.95199 11.3687 7.76578 11.3873 7.57617 11.4084C7.38758 11.4295 7.15241 11.3859 7.0087 11.4847C6.68116 11.7099 7.00983 12.342 7.36598 12.7433C7.25416 12.6723 7.14664 12.5999 7.03866 12.5205C6.96585 12.4672 6.88953 12.4049 6.81672 12.3426C6.65097 12.1151 6.53791 11.9004 6.45356 11.6649C6.37622 11.4494 6.30477 11.1708 6.47255 11.0937C6.63921 11.0172 6.93781 11.214 7.14483 11.2399C7.42172 11.2747 7.6474 11.1561 7.93639 11.2044C7.97087 11.2255 8.00231 11.2487 8.03125 11.2718C8.08134 11.3116 8.12713 11.3542 8.16727 11.4012Z" fill="#7CC68E"/>
<path fill-rule="evenodd" clip-rule="evenodd" d="M8.34124 12.6009C8.32078 12.8141 8.29082 13.0084 8.07973 13.0276C7.8891 13.045 7.59175 12.8838 7.36404 12.7425C7.00789 12.3412 6.67932 11.709 7.00676 11.4839C7.15057 11.3851 7.38574 11.4287 7.57433 11.4076C7.76394 11.3865 7.95004 11.3679 8.16532 11.4004C8.50304 11.8105 8.37234 12.277 8.34124 12.6009Z" fill="#B6382E"/>
<path fill-rule="evenodd" clip-rule="evenodd" d="M14.0442 10.4515C14.0442 12.2591 12.4545 13.7244 10.4934 13.7244C8.53228 13.7244 6.94238 12.2591 6.94238 10.4515C6.94238 8.64402 8.53228 7.17871 10.4934 7.17871C12.4545 7.17871 14.0442 8.64402 14.0442 10.4515Z" fill="#1AB169"/>
<path fill-rule="evenodd" clip-rule="evenodd" d="M11.3368 6.07031C11.3574 6.19245 11.3161 6.50107 11.02 6.8365C10.8895 6.98442 10.9013 6.95434 10.8514 7.02875C10.8014 7.10339 10.7397 7.17023 10.6644 7.22779C10.5877 7.28456 10.5622 7.31793 10.4406 7.34439C10.4197 7.22202 10.4039 7.19861 10.3953 7.04673C10.3901 6.95208 10.411 6.81976 10.4613 6.74546C10.5118 6.67116 10.5675 6.59222 10.6885 6.50978C10.7652 6.45301 11.2277 6.27659 11.3368 6.07031Z" fill="#1AB169"/>
<path fill-rule="evenodd" clip-rule="evenodd" d="M7.63574 9.81051C7.63574 10.6353 8.23487 11.304 8.97509 11.304C9.71453 11.304 10.3137 10.6353 10.3137 9.81051C10.3137 8.98552 9.71453 8.31738 8.97509 8.31738C8.23487 8.31738 7.63574 8.98552 7.63574 9.81051Z" fill="#FEFEFE"/>
<path fill-rule="evenodd" clip-rule="evenodd" d="M8.41274 9.83023C8.41274 10.07 8.26428 10.2649 8.0818 10.2649C7.89909 10.2649 7.75098 10.07 7.75098 9.83023C7.75098 9.58991 7.89909 9.39551 8.0818 9.39551C8.26428 9.39551 8.41274 9.58991 8.41274 9.83023Z" fill="#221E1F"/>
<path fill-rule="evenodd" clip-rule="evenodd" d="M7.99128 9.68913C7.99128 9.74827 7.95464 9.79634 7.90964 9.79634C7.86464 9.79634 7.82812 9.74827 7.82812 9.68913C7.82812 9.62998 7.86464 9.58203 7.90964 9.58203C7.95464 9.58203 7.99128 9.62998 7.99128 9.68913Z" fill="#FEFEFE"/>
<path fill-rule="evenodd" clip-rule="evenodd" d="M11.6054 6.45703C11.6263 6.57894 11.4747 7.04046 11.3137 7.21756C11.2498 7.28768 10.9387 7.61349 10.6199 7.67513C10.599 7.55265 10.5737 7.35429 10.5975 7.26178C10.6228 7.17063 10.6917 7.02305 10.9371 6.91426C11.2927 6.75683 11.4433 6.66331 11.6054 6.45703Z" fill="#1AB169"/>
<path fill-rule="evenodd" clip-rule="evenodd" d="M10.5137 9.60837C10.5137 10.4331 11.1128 11.1018 11.853 11.1018C12.5925 11.1018 13.1916 10.4331 13.1916 9.60837C13.1916 8.78337 12.5925 8.11523 11.853 8.11523C11.1128 8.11523 10.5137 8.78337 10.5137 9.60837Z" fill="#FEFEFE"/>
<path fill-rule="evenodd" clip-rule="evenodd" d="M13.0689 9.83023C13.0689 10.07 12.9244 10.2649 12.7468 10.2649C12.5688 10.2649 12.4248 10.07 12.4248 9.83023C12.4248 9.58991 12.5688 9.39551 12.7468 9.39551C12.9244 9.39551 13.0689 9.58991 13.0689 9.83023Z" fill="#221E1F"/>
<path fill-rule="evenodd" clip-rule="evenodd" d="M12.6598 9.68913C12.6598 9.74827 12.6242 9.79634 12.5803 9.79634C12.5365 9.79634 12.501 9.74827 12.501 9.68913C12.501 9.62998 12.5365 9.58203 12.5803 9.58203C12.6242 9.58203 12.6598 9.62998 12.6598 9.68913Z" fill="#FEFEFE"/>
<path fill-rule="evenodd" clip-rule="evenodd" d="M11.5078 11.9559C11.5078 12.4869 11.0078 12.9176 10.3911 12.9176C9.77438 12.9176 9.27441 12.4869 9.27441 11.9559C9.27441 11.4248 9.77438 10.9941 10.3911 10.9941C11.0078 10.9941 11.5078 11.4248 11.5078 11.9559Z" fill="#F05A2A"/>
<path fill-rule="evenodd" clip-rule="evenodd" d="M10.838 12.5434C10.838 12.5434 10.882 12.5128 10.955 12.4616C11.0286 12.4103 11.1314 12.3387 11.2502 12.2569C11.9572 11.662 13.3232 11.2825 13.2095 10.1439C13.2095 10.1059 13.1883 9.8865 13.1553 9.95481C12.9276 10.4283 11.7542 11.3696 11.509 10.0041C11.4369 9.60298 11.2521 8.77573 11.0099 8.66003C10.887 8.61039 10.7685 8.56674 10.6618 8.53575C10.5552 8.50465 10.4605 8.48633 10.3857 8.48633V12.6744C10.5493 12.6744 10.7139 12.6309 10.838 12.5434Z" fill="#FAAF41"/>
<path fill-rule="evenodd" clip-rule="evenodd" d="M9.93863 12.5434C9.93863 12.5434 9.89476 12.5128 9.82161 12.4616C9.74812 12.4103 9.64534 12.3387 9.5264 12.2569C8.81941 11.662 7.45349 11.2825 7.56723 10.1439C7.56723 10.1059 7.58849 9.8865 7.62139 9.95481C7.8491 10.4283 9.02247 11.3696 9.26771 10.0041C9.33973 9.60298 9.52448 8.77573 9.76677 8.66003C9.88967 8.61039 10.0082 8.56674 10.1149 8.53575C10.2214 8.50465 10.3163 8.48633 10.391 8.48633V12.6744C10.2273 12.6744 10.0628 12.6309 9.93863 12.5434Z" fill="#F69420"/>
</svg>
