<svg width="34" height="31" viewBox="0 0 34 31" fill="none" xmlns="http://www.w3.org/2000/svg">
<path fill-rule="evenodd" clip-rule="evenodd" d="M16.6646 30.8484C25.7373 30.8484 33.0921 24.0458 33.0921 15.6543C33.0921 7.26283 25.7373 0.460205 16.6646 0.460205C7.59198 0.460205 0.237152 7.26283 0.237152 15.6543C0.237152 24.0458 7.59198 30.8484 16.6646 30.8484Z" fill="#4D17BC"/>
<mask id="mask0" mask-type="alpha" maskUnits="userSpaceOnUse" x="24" y="16" width="6" height="5">
<path fill-rule="evenodd" clip-rule="evenodd" d="M24.5627 16.4684H29.2301V20.1147H24.5627V16.4684Z" fill="white"/>
</mask>
<g mask="url(#mask0)">
<path fill-rule="evenodd" clip-rule="evenodd" d="M28.2283 17.0757C28.6322 17.1822 28.3927 17.8639 28.1594 18.3895C27.9005 18.9723 27.5739 19.5187 27.1151 20.1147C27.7495 19.5294 28.3749 18.8996 28.772 18.2075C29.1634 17.5252 29.4994 16.5388 28.9155 16.4702C28.6248 16.4361 28.1828 16.8992 27.8571 17.091C27.3787 17.3726 26.888 17.4441 26.4785 17.4845C25.9127 17.5399 25.2982 17.4291 24.5627 17.9239C25.2854 17.715 25.8172 17.8887 26.5262 17.6896C27.0568 17.5405 27.8216 16.9684 28.2283 17.0757Z" fill="#67A183"/>
</g>
<path fill-rule="evenodd" clip-rule="evenodd" d="M23.9444 18.472C24.4874 18.2856 24.9587 18.2802 25.4166 18.2536C25.8814 18.2262 26.5286 18.0052 26.8143 18.2014C27.0957 18.3938 27.09 18.8378 26.9001 19.3741C26.6693 20.0247 26.2448 20.61 25.6577 21.2745C25.9525 21.0633 26.237 20.8504 26.5239 20.621C26.717 20.467 26.9201 20.2904 27.115 20.1147C27.5741 19.5187 27.9007 18.9723 28.1596 18.3895C28.3929 17.8642 28.6321 17.1822 28.2282 17.0757C27.8218 16.9684 27.057 17.5405 26.5261 17.6896C25.8171 17.889 25.2856 17.715 24.5626 17.9242C24.4718 17.9865 24.3886 18.0531 24.3115 18.1177C24.178 18.2297 24.0548 18.3468 23.9444 18.472Z" fill="#7CC68E"/>
<path fill-rule="evenodd" clip-rule="evenodd" d="M23.2435 21.3381C23.2475 21.83 23.2837 22.268 23.8037 22.2293C24.2812 22.1935 25.0576 21.6973 25.6577 21.2744C26.2447 20.6103 26.6692 20.0246 26.9001 19.3741C27.09 18.8377 27.0956 18.394 26.8143 18.2013C26.5286 18.0051 25.8813 18.2264 25.4166 18.2538C24.9587 18.2801 24.4874 18.2856 23.9444 18.4719C23.0223 19.5437 23.2372 20.5961 23.2435 21.3381Z" fill="#B6382E"/>
<mask id="mask1" mask-type="alpha" maskUnits="userSpaceOnUse" x="4" y="16" width="6" height="5">
<path fill-rule="evenodd" clip-rule="evenodd" d="M4.71738 16.8561H9.86278V20.6047H4.71738V16.8561Z" fill="white"/>
</mask>
<g mask="url(#mask1)">
<path fill-rule="evenodd" clip-rule="evenodd" d="M5.82443 17.4188C5.36186 17.6153 5.55868 18.3261 5.77203 18.8757C6.00471 19.4767 6.31663 20.0239 6.77389 20.6047C6.11794 20.0689 5.48101 19.4847 5.10079 18.7895C4.71619 18.0861 4.47353 17.0822 5.10858 16.8713C5.41707 16.7686 5.90365 17.2149 6.24146 17.3657C6.76204 17.5991 7.30352 17.5804 7.75362 17.5527C8.35561 17.5158 9.10545 17.257 9.86278 17.701C9.06584 17.5778 8.44326 17.8804 7.67907 17.7916C7.10795 17.7252 6.28481 17.2232 5.82443 17.4188Z" fill="#67A183"/>
</g>
<path fill-rule="evenodd" clip-rule="evenodd" d="M10.4998 18.2032C9.90588 18.1201 9.39216 18.1677 8.86908 18.2213C8.34881 18.2753 7.70003 18.1639 7.30358 18.4161C6.39997 18.9905 7.3067 20.6032 8.28923 21.6267C7.98075 21.4456 7.68412 21.2609 7.38624 21.0584C7.18537 20.9225 6.97482 20.7636 6.77395 20.6046C6.31669 20.0241 6.00477 19.4766 5.77208 18.8756C5.55873 18.3261 5.3616 17.6152 5.82448 17.4187C6.28425 17.2234 7.10801 17.7254 7.67913 17.7915C8.443 17.8803 9.06559 17.5777 9.86284 17.7009C9.95797 17.7548 10.0447 17.814 10.1245 17.8728C10.2627 17.9744 10.389 18.0831 10.4998 18.2032Z" fill="#7CC68E"/>
<path fill-rule="evenodd" clip-rule="evenodd" d="M10.985 21.2657C10.9286 21.8095 10.8459 22.3051 10.2636 22.3542C9.73767 22.3986 8.91734 21.9875 8.28914 21.6269C7.30661 20.6033 6.40019 18.9903 7.30349 18.4162C7.70025 18.1641 8.34903 18.2754 8.8693 18.2215C9.39238 18.1678 9.90579 18.1202 10.4997 18.2033C11.4314 19.2494 11.0708 20.4394 10.985 21.2657Z" fill="#B6382E"/>
<path fill-rule="evenodd" clip-rule="evenodd" d="M26.7141 15.7803C26.7141 20.3913 22.3283 24.1294 16.9182 24.1294C11.508 24.1294 7.12187 20.3913 7.12187 15.7803C7.12187 11.1693 11.508 7.43127 16.9182 7.43127C22.3283 7.43127 26.7141 11.1693 26.7141 15.7803Z" fill="#1AB169"/>
<path fill-rule="evenodd" clip-rule="evenodd" d="M19.2474 4.604C19.3042 4.91558 19.1903 5.70288 18.3734 6.55856C18.0135 6.93591 18.0459 6.85917 17.9083 7.049C17.7705 7.23941 17.6002 7.40991 17.3924 7.55675C17.181 7.70158 17.1105 7.78668 16.7752 7.85419C16.7175 7.54204 16.6738 7.48232 16.6501 7.09487C16.6357 6.8534 16.6934 6.51586 16.8322 6.32632C16.9714 6.13678 17.1251 5.93541 17.4589 5.7251C17.6707 5.58027 18.9464 5.13022 19.2474 4.604Z" fill="#1AB169"/>
<path fill-rule="evenodd" clip-rule="evenodd" d="M9.04073 14.1457C9.04073 16.2497 10.6936 17.9555 12.7357 17.9555C14.7756 17.9555 16.4284 16.2497 16.4284 14.1457C16.4284 12.0411 14.7756 10.3367 12.7357 10.3367C10.6936 10.3367 9.04073 12.0411 9.04073 14.1457Z" fill="#FEFEFE"/>
<path fill-rule="evenodd" clip-rule="evenodd" d="M11.18 14.1953C11.18 14.8069 10.7704 15.3043 10.267 15.3043C9.76293 15.3043 9.35432 14.8069 9.35432 14.1953C9.35432 13.5822 9.76293 13.0863 10.267 13.0863C10.7704 13.0863 11.18 13.5822 11.18 14.1953Z" fill="#221E1F"/>
<path fill-rule="evenodd" clip-rule="evenodd" d="M10.0194 13.8363C10.0194 13.9872 9.91837 14.1098 9.79423 14.1098C9.67008 14.1098 9.56934 13.9872 9.56934 13.8363C9.56934 13.6854 9.67008 13.5631 9.79423 13.5631C9.91837 13.5631 10.0194 13.6854 10.0194 13.8363Z" fill="#FEFEFE"/>
<path fill-rule="evenodd" clip-rule="evenodd" d="M19.9876 5.59229C20.0453 5.90328 19.627 7.08063 19.1828 7.53241C19.0066 7.71128 18.1482 8.54244 17.2689 8.69967C17.2112 8.38723 17.1414 7.88121 17.2072 7.64522C17.2767 7.41269 17.467 7.0362 18.1439 6.75867C19.1248 6.35709 19.5403 6.1185 19.9876 5.59229Z" fill="#1AB169"/>
<path fill-rule="evenodd" clip-rule="evenodd" d="M16.9754 13.6302C16.9754 15.7342 18.6282 17.44 20.6703 17.44C22.7102 17.44 24.363 15.7342 24.363 13.6302C24.363 11.5256 22.7102 9.82117 20.6703 9.82117C18.6282 9.82117 16.9754 11.5256 16.9754 13.6302Z" fill="#FEFEFE"/>
<path fill-rule="evenodd" clip-rule="evenodd" d="M24.0275 14.1953C24.0275 14.8069 23.6289 15.3043 23.1389 15.3043C22.6479 15.3043 22.2506 14.8069 22.2506 14.1953C22.2506 13.5822 22.6479 13.0863 23.1389 13.0863C23.6289 13.0863 24.0275 13.5822 24.0275 14.1953Z" fill="#221E1F"/>
<path fill-rule="evenodd" clip-rule="evenodd" d="M22.8978 13.8363C22.8978 13.9872 22.7995 14.1098 22.6785 14.1098C22.5575 14.1098 22.4595 13.9872 22.4595 13.8363C22.4595 13.6854 22.5575 13.5631 22.6785 13.5631C22.7995 13.5631 22.8978 13.6854 22.8978 13.8363Z" fill="#FEFEFE"/>
<path fill-rule="evenodd" clip-rule="evenodd" d="M19.7201 19.6197C19.7201 20.9745 18.3409 22.0731 16.6397 22.0731C14.9382 22.0731 13.5589 20.9745 13.5589 19.6197C13.5589 18.265 14.9382 17.1664 16.6397 17.1664C18.3409 17.1664 19.7201 18.265 19.7201 19.6197Z" fill="#F05A2A"/>
<path fill-rule="evenodd" clip-rule="evenodd" d="M17.8691 21.1177C17.8691 21.1177 17.9904 21.0395 18.1919 20.9088C18.3949 20.7782 18.6785 20.5955 19.0063 20.3867C20.9567 18.8692 24.7252 17.901 24.4115 14.9964C24.4115 14.8995 24.3528 14.3398 24.262 14.5141C23.6339 15.722 20.3965 18.1231 19.7203 14.6398C19.5213 13.6165 19.0116 11.5062 18.3432 11.2111C18.0041 11.0844 17.6772 10.9731 17.3831 10.894C17.089 10.8147 16.8276 10.7679 16.6214 10.7679V21.4518C17.0727 21.4518 17.5266 21.3407 17.8691 21.1177Z" fill="#FAAF41"/>
<path fill-rule="evenodd" clip-rule="evenodd" d="M15.3908 21.1177C15.3908 21.1177 15.2698 21.0395 15.068 20.9088C14.8652 20.7782 14.5817 20.5955 14.2536 20.3867C12.3032 18.8692 8.53493 17.901 8.84872 14.9964C8.84872 14.8995 8.90736 14.3398 8.99812 14.5141C9.62632 15.722 12.8634 18.1231 13.5399 14.6398C13.7386 13.6165 14.2483 11.5062 14.9167 11.2111C15.2557 11.0844 15.5826 10.9731 15.8771 10.894C16.1709 10.8147 16.4326 10.7679 16.6388 10.7679V21.4518C16.1871 21.4518 15.7333 21.3407 15.3908 21.1177Z" fill="#F69420"/>
</svg>
