<svg width="54" height="54" viewBox="0 0 54 54" fill="none" xmlns="http://www.w3.org/2000/svg">
<path fill-rule="evenodd" clip-rule="evenodd" d="M27 52C40.8071 52 52 40.8071 52 27C52 13.1929 40.8071 2 27 2C13.1929 2 2 13.1929 2 27C2 40.8071 13.1929 52 27 52Z" fill="white" stroke="#4D17BC" stroke-width="4"/>
<mask id="mask0" mask-type="alpha" maskUnits="userSpaceOnUse" x="37" y="28" width="8" height="7">
<path fill-rule="evenodd" clip-rule="evenodd" d="M37.6597 28.5449H44.2531V34.1141H37.6597V28.5449Z" fill="white"/>
</mask>
<g mask="url(#mask0)">
<path fill-rule="evenodd" clip-rule="evenodd" d="M42.838 29.4725C43.4086 29.6351 43.0702 30.6763 42.7406 31.4792C42.3749 32.3692 41.9135 33.2038 41.2653 34.1141C42.1616 33.2201 43.045 32.2582 43.606 31.2011C44.159 30.159 44.6335 28.6525 43.8087 28.5476C43.398 28.4956 42.7736 29.2029 42.3136 29.4959C41.6377 29.9259 40.9446 30.0352 40.366 30.0969C39.5667 30.1815 38.6987 30.0123 37.6597 30.768C38.6806 30.449 39.4319 30.7142 40.4334 30.4102C41.1829 30.1824 42.2634 29.3086 42.838 29.4725Z" fill="#67A183"/>
</g>
<path fill-rule="evenodd" clip-rule="evenodd" d="M36.7865 31.6051C37.5536 31.3205 38.2194 31.3121 38.8663 31.2716C39.5228 31.2297 40.4371 30.8922 40.8407 31.1918C41.2382 31.4857 41.2303 32.1639 40.9619 32.983C40.6358 33.9766 40.0361 34.8706 39.2069 35.8854C39.6233 35.5629 40.0251 35.2377 40.4305 34.8874C40.7033 34.6521 40.9901 34.3824 41.2655 34.1141C41.9141 33.2037 42.3755 32.3692 42.7412 31.4791C43.0708 30.6767 43.4087 29.6351 42.8381 29.4725C42.264 29.3086 41.1835 30.1823 40.4336 30.4101C39.432 30.7146 38.6812 30.4489 37.6598 30.7684C37.5316 30.8636 37.414 30.9653 37.3051 31.064C37.1165 31.235 36.9425 31.4139 36.7865 31.6051Z" fill="#FF3365"/>
<path fill-rule="evenodd" clip-rule="evenodd" d="M35.7949 35.983C35.8007 36.7343 35.8518 37.4032 36.5863 37.3441C37.2609 37.2895 38.3576 36.5316 39.2054 35.8857C40.0347 34.8713 40.6344 33.9768 40.9604 32.9832C41.2288 32.1641 41.2367 31.4864 40.8393 31.1921C40.4356 30.8924 39.5213 31.2304 38.8648 31.2723C38.218 31.3124 37.5522 31.3207 36.785 31.6054C35.4825 33.2423 35.7861 34.8497 35.7949 35.983Z" fill="#FF3365"/>
<mask id="mask1" mask-type="alpha" maskUnits="userSpaceOnUse" x="9" y="29" width="8" height="6">
<path fill-rule="evenodd" clip-rule="evenodd" d="M9.62463 29.1367H16.8934V34.8621H9.62463V29.1367Z" fill="white"/>
</mask>
<g mask="url(#mask1)">
<path fill-rule="evenodd" clip-rule="evenodd" d="M11.1885 29.9962C10.5351 30.2963 10.8131 31.382 11.1145 32.2214C11.4432 33.1392 11.8838 33.9751 12.5298 34.8621C11.6032 34.0439 10.7034 33.1516 10.1663 32.0897C9.62296 31.0154 9.28015 29.482 10.1773 29.1599C10.6131 29.0031 11.3004 29.6847 11.7776 29.9152C12.5131 30.2716 13.278 30.243 13.9138 30.2007C14.7642 30.1443 15.8235 29.749 16.8934 30.4272C15.7676 30.239 14.8881 30.7012 13.8085 30.5655C13.0017 30.4642 11.8389 29.6975 11.1885 29.9962Z" fill="#67A183"/>
</g>
<path fill-rule="evenodd" clip-rule="evenodd" d="M17.7936 31.1943C16.9547 31.0674 16.2289 31.1401 15.49 31.2221C14.755 31.3045 13.8385 31.1344 13.2785 31.5195C12.002 32.3968 13.2829 34.8599 14.6709 36.4233C14.2351 36.1465 13.816 35.8645 13.3952 35.5552C13.1115 35.3477 12.8141 35.1049 12.5303 34.8621C11.8843 33.9756 11.4437 33.1392 11.115 32.2214C10.8136 31.382 10.5351 30.2963 11.189 29.9962C11.8385 29.6979 13.0022 30.4646 13.809 30.5655C14.8881 30.7012 15.7676 30.239 16.8939 30.4272C17.0282 30.5096 17.1507 30.5999 17.2635 30.6898C17.4587 30.8449 17.6372 31.011 17.7936 31.1943Z" fill="#FF3365"/>
<path fill-rule="evenodd" clip-rule="evenodd" d="M18.4791 35.872C18.3993 36.7025 18.2825 37.4595 17.4599 37.5344C16.717 37.6023 15.5581 36.9744 14.6707 36.4236C13.2827 34.8603 12.0022 32.3967 13.2783 31.5198C13.8388 31.1347 14.7553 31.3048 15.4903 31.2224C16.2292 31.1405 16.9545 31.0678 17.7934 31.1947C19.1096 32.7924 18.6002 34.61 18.4791 35.872Z" fill="#FF3365"/>
<path fill-rule="evenodd" clip-rule="evenodd" d="M40.6988 27.494C40.6988 34.5366 34.5031 40.2459 26.8604 40.2459C19.2176 40.2459 13.0215 34.5366 13.0215 27.494C13.0215 20.4514 19.2176 14.7422 26.8604 14.7422C34.5031 14.7422 40.6988 20.4514 40.6988 27.494Z" fill="#1AB169"/>
<path fill-rule="evenodd" clip-rule="evenodd" d="M30.1511 10.4238C30.2313 10.8997 30.0705 12.1022 28.9165 13.4091C28.408 13.9854 28.4538 13.8682 28.2595 14.1582C28.0648 14.449 27.8242 14.7094 27.5307 14.9337C27.232 15.1549 27.1324 15.2849 26.6587 15.388C26.5772 14.9112 26.5155 14.82 26.482 14.2282C26.4617 13.8594 26.5433 13.3439 26.7393 13.0544C26.9359 12.7649 27.1531 12.4573 27.6246 12.1361C27.9238 11.9149 29.7259 11.2275 30.1511 10.4238Z" fill="#1AB169"/>
<path fill-rule="evenodd" clip-rule="evenodd" d="M15.7319 24.9973C15.7319 28.2108 18.0668 30.8163 20.9516 30.8163C23.8334 30.8163 26.1683 28.2108 26.1683 24.9973C26.1683 21.7829 23.8334 19.1797 20.9516 19.1797C18.0668 19.1797 15.7319 21.7829 15.7319 24.9973Z" fill="#FEFEFE"/>
<path fill-rule="evenodd" clip-rule="evenodd" d="M18.7543 25.0727C18.7543 26.0068 18.1758 26.7665 17.4646 26.7665C16.7525 26.7665 16.1753 26.0068 16.1753 25.0727C16.1753 24.1363 16.7525 23.3789 17.4646 23.3789C18.1758 23.3789 18.7543 24.1363 18.7543 25.0727Z" fill="#221E1F"/>
<path fill-rule="evenodd" clip-rule="evenodd" d="M17.1146 24.5247C17.1146 24.7551 16.9718 24.9424 16.7965 24.9424C16.6211 24.9424 16.4788 24.7551 16.4788 24.5247C16.4788 24.2942 16.6211 24.1074 16.7965 24.1074C16.9718 24.1074 17.1146 24.2942 17.1146 24.5247Z" fill="#FEFEFE"/>
<path fill-rule="evenodd" clip-rule="evenodd" d="M31.1959 11.9336C31.2774 12.4086 30.6865 14.2068 30.059 14.8968C29.8101 15.17 28.5975 16.4395 27.3553 16.6796C27.2738 16.2024 27.1751 15.4296 27.2681 15.0691C27.3664 14.714 27.6351 14.1389 28.5913 13.7151C29.9771 13.1017 30.564 12.7373 31.1959 11.9336Z" fill="#1AB169"/>
<path fill-rule="evenodd" clip-rule="evenodd" d="M26.9404 24.2102C26.9404 27.4237 29.2753 30.0292 32.1601 30.0292C35.0419 30.0292 37.3768 27.4237 37.3768 24.2102C37.3768 20.9958 35.0419 18.3926 32.1601 18.3926C29.2753 18.3926 26.9404 20.9958 26.9404 24.2102Z" fill="#FEFEFE"/>
<path fill-rule="evenodd" clip-rule="evenodd" d="M36.9032 25.0727C36.9032 26.0068 36.3401 26.7665 35.6479 26.7665C34.9543 26.7665 34.3929 26.0068 34.3929 25.0727C34.3929 24.1363 34.9543 23.3789 35.6479 23.3789C36.3401 23.3789 36.9032 24.1363 36.9032 25.0727Z" fill="#221E1F"/>
<path fill-rule="evenodd" clip-rule="evenodd" d="M35.3078 24.5247C35.3078 24.7551 35.169 24.9424 34.998 24.9424C34.8271 24.9424 34.6887 24.7551 34.6887 24.5247C34.6887 24.2942 34.8271 24.1074 34.998 24.1074C35.169 24.1074 35.3078 24.2942 35.3078 24.5247Z" fill="#FEFEFE"/>
<path fill-rule="evenodd" clip-rule="evenodd" d="M30.8189 33.3584C30.8189 35.4276 28.8704 37.1056 26.4672 37.1056C24.0636 37.1056 22.1151 35.4276 22.1151 33.3584C22.1151 31.2892 24.0636 29.6113 26.4672 29.6113C28.8704 29.6113 30.8189 31.2892 30.8189 33.3584Z" fill="#FF3365"/>
<path fill-rule="evenodd" clip-rule="evenodd" d="M28.2032 35.6455C28.2032 35.6455 28.3746 35.5261 28.6592 35.3265C28.9461 35.1269 29.3466 34.848 29.8097 34.5289C32.565 32.2112 37.8887 30.7325 37.4454 26.2962C37.4454 26.1482 37.3626 25.2933 37.2344 25.5595C36.3469 27.4044 31.7736 31.0718 30.8183 25.7516C30.5372 24.1887 29.8172 20.9655 28.873 20.5147C28.394 20.3213 27.9322 20.1512 27.5167 20.0304C27.1012 19.9093 26.7319 19.8379 26.4407 19.8379V36.1557C27.0783 36.1557 27.7194 35.9861 28.2032 35.6455Z" fill="#FAAF41"/>
<path fill-rule="evenodd" clip-rule="evenodd" d="M24.702 35.6455C24.702 35.6455 24.5311 35.5261 24.246 35.3265C23.9596 35.1269 23.559 34.848 23.0955 34.5289C20.3402 32.2112 15.017 30.7325 15.4603 26.2962C15.4603 26.1482 15.5431 25.2933 15.6713 25.5595C16.5587 27.4044 21.1316 31.0718 22.0873 25.7516C22.368 24.1887 23.088 20.9655 24.0323 20.5147C24.5112 20.3213 24.973 20.1512 25.389 20.0304C25.804 19.9093 26.1737 19.8379 26.465 19.8379V36.1557C25.827 36.1557 25.1858 35.9861 24.702 35.6455Z" fill="#F69420"/>
</svg>
