<svg width="30" height="30" viewBox="0 0 30 30" fill="none" xmlns="http://www.w3.org/2000/svg">
<path fill-rule="evenodd" clip-rule="evenodd" d="M15 0.21875C17.6172 0.21875 20.0391 0.87304 22.2656 2.18164C24.4922 3.49024 26.2598 5.2578 27.5684 7.48438C28.877 9.71095 29.5312 12.1328 29.5312 14.75C29.5312 17.3672 28.877 19.7891 27.5684 22.0156C26.2598 24.2422 24.4922 26.0098 22.2656 27.3184C20.0391 28.627 17.6172 29.2812 15 29.2812C12.3828 29.2812 9.96095 28.627 7.73438 27.3184C5.5078 26.0098 3.74024 24.2422 2.43164 22.0156C1.12304 19.7891 0.46875 17.3672 0.46875 14.75C0.46875 12.1328 1.12304 9.71095 2.43164 7.48438C3.74024 5.2578 5.5078 3.49024 7.73438 2.18164C9.96095 0.87304 12.3828 0.21875 15 0.21875ZM15 27.4062C17.3047 27.4062 19.4238 26.8398 21.3574 25.707C23.291 24.5742 24.8242 23.0313 25.957 21.0781C27.0898 19.125 27.6562 17.0059 27.6562 14.7207C27.6562 12.4355 27.0898 10.3262 25.957 8.39258C24.8242 6.45897 23.2813 4.92579 21.3281 3.79297C19.375 2.66015 17.2559 2.09375 14.9707 2.09375C12.6855 2.09375 10.5762 2.66015 8.64258 3.79297C6.70897 4.92579 5.17579 6.46874 4.04297 8.42188C2.91015 10.375 2.34375 12.4941 2.34375 14.7793C2.34375 17.0645 2.91015 19.1738 4.04297 21.1074C5.17579 23.041 6.71874 24.5742 8.67188 25.707C10.625 26.8398 12.7344 27.4062 15 27.4062ZM20.5664 10.707L16.5234 14.75L20.5664 18.793C20.6836 18.9492 20.7422 19.125 20.7422 19.3203C20.7422 19.5156 20.6836 19.6719 20.5664 19.7891L20.0391 20.3164C19.9219 20.4336 19.7656 20.4922 19.5703 20.4922C19.375 20.4922 19.1992 20.4336 19.043 20.3164L15 16.2148L10.957 20.3164C10.8008 20.4336 10.625 20.4922 10.4297 20.4922C10.2344 20.4922 10.0781 20.4336 9.96094 20.3164L9.43359 19.7891C9.31641 19.6719 9.25781 19.5156 9.25781 19.3203C9.25781 19.125 9.31641 18.9492 9.43359 18.793L13.5352 14.75L9.43359 10.707C9.31641 10.5508 9.25781 10.375 9.25781 10.1797C9.25781 9.98437 9.31641 9.82813 9.43359 9.71094L9.96094 9.18359C10.0781 9.06641 10.2344 9.00781 10.4297 9.00781C10.625 9.00781 10.8008 9.06641 10.957 9.18359L15 13.2266L19.043 9.18359C19.1992 9.06641 19.375 9.00781 19.5703 9.00781C19.7656 9.00781 19.9219 9.06641 20.0391 9.18359L20.5664 9.71094C20.6836 9.82813 20.7422 9.98437 20.7422 10.1797C20.7422 10.375 20.6836 10.5508 20.5664 10.707Z" fill="#762FE6"/>
</svg>
