<svg width="207" height="41" viewBox="0 0 207 41" fill="none" xmlns="http://www.w3.org/2000/svg">
<path d="M54.441 26.274C55.5237 26.274 56.065 26.7283 56.065 27.637C56.065 28.0623 55.9297 28.4007 55.659 28.652C55.3883 28.884 54.9823 29 54.441 29H44.755C44.2717 29 43.8753 28.8453 43.566 28.536C43.2567 28.2267 43.102 27.8593 43.102 27.434C43.102 26.9893 43.276 26.564 43.624 26.158L51.077 17.545H44.61C44.0687 17.545 43.6627 17.429 43.392 17.197C43.1213 16.965 42.986 16.6267 42.986 16.182C42.986 15.7373 43.1213 15.399 43.392 15.167C43.6627 14.935 44.0687 14.819 44.61 14.819H53.977C54.4797 14.819 54.876 14.9737 55.166 15.283C55.4753 15.573 55.63 15.9403 55.63 16.385C55.63 16.849 55.4657 17.2743 55.137 17.661L47.655 26.274H54.441ZM60.4662 29.174C59.9442 29.174 59.5092 29.029 59.1612 28.739C58.8325 28.4297 58.6682 27.9947 58.6682 27.434V16.24C58.6682 15.6793 58.8325 15.254 59.1612 14.964C59.5092 14.674 59.9442 14.529 60.4662 14.529C60.9882 14.529 61.4232 14.674 61.7712 14.964C62.1192 15.254 62.2932 15.6793 62.2932 16.24V27.434C62.2932 27.9947 62.1192 28.4297 61.7712 28.739C61.4232 29.029 60.9882 29.174 60.4662 29.174ZM60.4662 11.948C59.8089 11.948 59.2869 11.774 58.9002 11.426C58.5135 11.0587 58.3202 10.585 58.3202 10.005C58.3202 9.425 58.5135 8.961 58.9002 8.613C59.2869 8.265 59.8089 8.091 60.4662 8.091C61.1042 8.091 61.6165 8.265 62.0032 8.613C62.4092 8.961 62.6122 9.425 62.6122 10.005C62.6122 10.585 62.4189 11.0587 62.0322 11.426C61.6455 11.774 61.1235 11.948 60.4662 11.948ZM74.1805 14.471C75.3985 14.471 76.4812 14.7803 77.4285 15.399C78.3952 16.0177 79.1395 16.8973 79.6615 18.038C80.2028 19.1593 80.4735 20.4547 80.4735 21.924C80.4735 23.3933 80.2028 24.679 79.6615 25.781C79.1395 26.883 78.4048 27.7337 77.4575 28.333C76.5102 28.9323 75.4178 29.232 74.1805 29.232C73.1752 29.232 72.2762 29.0193 71.4835 28.594C70.6908 28.1687 70.0818 27.579 69.6565 26.825V32.741C69.6565 33.2437 69.4922 33.64 69.1635 33.93C68.8348 34.22 68.3998 34.365 67.8585 34.365C67.3172 34.365 66.8725 34.2103 66.5245 33.901C66.1958 33.5917 66.0315 33.1857 66.0315 32.683V16.24C66.0315 15.718 66.1862 15.3023 66.4955 14.993C66.8242 14.6837 67.2592 14.529 67.8005 14.529C68.3418 14.529 68.7768 14.6837 69.1055 14.993C69.4342 15.3023 69.5985 15.718 69.5985 16.24V16.965C70.0238 16.1723 70.6328 15.5633 71.4255 15.138C72.2375 14.6933 73.1558 14.471 74.1805 14.471ZM73.2235 26.419C74.3642 26.419 75.2535 26.0323 75.8915 25.259C76.5295 24.4663 76.8485 23.3547 76.8485 21.924C76.8485 20.4547 76.5295 19.314 75.8915 18.502C75.2535 17.69 74.3642 17.284 73.2235 17.284C72.0635 17.284 71.1645 17.6803 70.5265 18.473C69.9078 19.2657 69.5985 20.3967 69.5985 21.866C69.5985 23.316 69.9078 24.4373 70.5265 25.23C71.1645 26.0227 72.0635 26.419 73.2235 26.419ZM91.5975 14.471C92.8155 14.471 93.8981 14.7803 94.8455 15.399C95.8121 16.0177 96.5565 16.8973 97.0785 18.038C97.6198 19.1593 97.8905 20.4547 97.8905 21.924C97.8905 23.3933 97.6198 24.679 97.0785 25.781C96.5565 26.883 95.8218 27.7337 94.8745 28.333C93.9271 28.9323 92.8348 29.232 91.5975 29.232C90.5921 29.232 89.6931 29.0193 88.9005 28.594C88.1078 28.1687 87.4988 27.579 87.0735 26.825V32.741C87.0735 33.2437 86.9091 33.64 86.5805 33.93C86.2518 34.22 85.8168 34.365 85.2755 34.365C84.7341 34.365 84.2895 34.2103 83.9415 33.901C83.6128 33.5917 83.4485 33.1857 83.4485 32.683V16.24C83.4485 15.718 83.6031 15.3023 83.9125 14.993C84.2411 14.6837 84.6761 14.529 85.2175 14.529C85.7588 14.529 86.1938 14.6837 86.5225 14.993C86.8511 15.3023 87.0155 15.718 87.0155 16.24V16.965C87.4408 16.1723 88.0498 15.5633 88.8425 15.138C89.6545 14.6933 90.5728 14.471 91.5975 14.471ZM90.6405 26.419C91.7811 26.419 92.6705 26.0323 93.3085 25.259C93.9465 24.4663 94.2655 23.3547 94.2655 21.924C94.2655 20.4547 93.9465 19.314 93.3085 18.502C92.6705 17.69 91.7811 17.284 90.6405 17.284C89.4805 17.284 88.5815 17.6803 87.9435 18.473C87.3248 19.2657 87.0155 20.3967 87.0155 21.866C87.0155 23.316 87.3248 24.4373 87.9435 25.23C88.5815 26.0227 89.4805 26.419 90.6405 26.419ZM110.528 15.573C110.683 15.225 110.886 14.9737 111.137 14.819C111.408 14.645 111.698 14.558 112.007 14.558C112.452 14.558 112.848 14.7127 113.196 15.022C113.563 15.312 113.747 15.6793 113.747 16.124C113.747 16.3367 113.689 16.559 113.573 16.791L105.656 33.379C105.327 34.0363 104.815 34.365 104.119 34.365C103.674 34.365 103.278 34.22 102.93 33.93C102.601 33.6593 102.437 33.3113 102.437 32.886C102.437 32.6733 102.495 32.4317 102.611 32.161L104.583 28.014L99.1889 16.791C99.0922 16.5977 99.0439 16.3753 99.0439 16.124C99.0439 15.6793 99.2276 15.3023 99.5949 14.993C99.9816 14.6837 100.417 14.529 100.9 14.529C101.229 14.529 101.528 14.616 101.799 14.79C102.07 14.9447 102.282 15.196 102.437 15.544L106.497 24.505L110.528 15.573Z" fill="white"/>
<path d="M122.197 29.232C120.785 29.232 119.538 28.9323 118.456 28.333C117.392 27.7337 116.571 26.883 115.991 25.781C115.411 24.679 115.121 23.3933 115.121 21.924C115.121 20.4547 115.42 19.1593 116.02 18.038C116.638 16.8973 117.499 16.0177 118.601 15.399C119.703 14.7803 120.969 14.471 122.4 14.471C123.154 14.471 123.908 14.5773 124.662 14.79C125.435 15.0027 126.112 15.2927 126.692 15.66C127.31 16.066 127.62 16.5783 127.62 17.197C127.62 17.6223 127.513 17.9703 127.301 18.241C127.107 18.4923 126.846 18.618 126.518 18.618C126.305 18.618 126.083 18.5697 125.851 18.473C125.619 18.3763 125.387 18.2603 125.155 18.125C124.729 17.8737 124.323 17.6803 123.937 17.545C123.55 17.3903 123.105 17.313 122.603 17.313C121.404 17.313 120.476 17.7093 119.819 18.502C119.181 19.2753 118.862 20.3967 118.862 21.866C118.862 23.316 119.181 24.4373 119.819 25.23C120.476 26.0033 121.404 26.39 122.603 26.39C123.086 26.39 123.511 26.3223 123.879 26.187C124.265 26.0323 124.691 25.8293 125.155 25.578C125.445 25.404 125.696 25.2783 125.909 25.201C126.121 25.1043 126.334 25.056 126.547 25.056C126.856 25.056 127.117 25.1913 127.33 25.462C127.542 25.7327 127.649 26.071 127.649 26.477C127.649 26.8057 127.571 27.0957 127.417 27.347C127.281 27.579 127.049 27.7917 126.721 27.985C126.121 28.3717 125.425 28.681 124.633 28.913C123.84 29.1257 123.028 29.232 122.197 29.232ZM137.981 14.529C138.483 14.4903 138.88 14.5967 139.17 14.848C139.46 15.0993 139.605 15.4763 139.605 15.979C139.605 16.501 139.479 16.8877 139.228 17.139C138.976 17.3903 138.522 17.5547 137.865 17.632L136.995 17.719C135.854 17.835 135.013 18.2217 134.472 18.879C133.95 19.5363 133.689 20.358 133.689 21.344V27.434C133.689 27.9947 133.515 28.4297 133.167 28.739C132.819 29.029 132.384 29.174 131.862 29.174C131.34 29.174 130.905 29.029 130.557 28.739C130.228 28.4297 130.064 27.9947 130.064 27.434V16.211C130.064 15.6697 130.228 15.254 130.557 14.964C130.905 14.674 131.33 14.529 131.833 14.529C132.335 14.529 132.741 14.674 133.051 14.964C133.36 15.2347 133.515 15.631 133.515 16.153V17.313C133.882 16.4623 134.423 15.805 135.139 15.341C135.873 14.877 136.685 14.616 137.575 14.558L137.981 14.529ZM147.349 29.232C145.899 29.232 144.623 28.9323 143.521 28.333C142.438 27.7337 141.597 26.8733 140.998 25.752C140.399 24.6307 140.099 23.3257 140.099 21.837C140.099 20.3483 140.399 19.053 140.998 17.951C141.597 16.8297 142.438 15.9693 143.521 15.37C144.623 14.7707 145.899 14.471 147.349 14.471C148.799 14.471 150.065 14.7707 151.148 15.37C152.25 15.9693 153.091 16.8297 153.671 17.951C154.27 19.053 154.57 20.3483 154.57 21.837C154.57 23.3257 154.27 24.6307 153.671 25.752C153.091 26.8733 152.25 27.7337 151.148 28.333C150.065 28.9323 148.799 29.232 147.349 29.232ZM147.32 26.419C148.499 26.419 149.398 26.0323 150.017 25.259C150.636 24.4857 150.945 23.345 150.945 21.837C150.945 20.3483 150.636 19.2173 150.017 18.444C149.398 17.6513 148.509 17.255 147.349 17.255C146.189 17.255 145.29 17.6513 144.652 18.444C144.033 19.2173 143.724 20.3483 143.724 21.837C143.724 23.345 144.033 24.4857 144.652 25.259C145.271 26.0323 146.16 26.419 147.32 26.419ZM176.505 15.602C176.641 15.254 176.834 14.993 177.085 14.819C177.356 14.645 177.646 14.558 177.955 14.558C178.4 14.558 178.796 14.7127 179.144 15.022C179.512 15.312 179.695 15.6793 179.695 16.124C179.695 16.3753 179.647 16.5977 179.55 16.791L174.765 28.014C174.611 28.3813 174.369 28.6617 174.04 28.855C173.731 29.0483 173.383 29.145 172.996 29.145C172.629 29.145 172.281 29.0483 171.952 28.855C171.643 28.6617 171.411 28.3813 171.256 28.014L167.805 19.72L164.47 28.014C164.316 28.3813 164.074 28.6617 163.745 28.855C163.436 29.0483 163.088 29.145 162.701 29.145C162.334 29.145 161.986 29.0483 161.657 28.855C161.329 28.6617 161.087 28.3813 160.932 28.014L156.176 16.791C156.08 16.5397 156.031 16.327 156.031 16.153C156.031 15.7083 156.225 15.3313 156.611 15.022C156.998 14.6933 157.423 14.529 157.887 14.529C158.216 14.529 158.516 14.616 158.786 14.79C159.057 14.964 159.26 15.225 159.395 15.573L162.817 24.418L166.326 15.66C166.481 15.2927 166.703 15.022 166.993 14.848C167.283 14.6547 167.602 14.558 167.95 14.558C168.298 14.558 168.617 14.6547 168.907 14.848C169.197 15.022 169.42 15.2927 169.574 15.66L173.112 24.447L176.505 15.602ZM193.779 8.41C194.32 8.41 194.765 8.56467 195.113 8.874C195.461 9.18333 195.635 9.58933 195.635 10.092V27.434C195.635 27.956 195.47 28.3717 195.142 28.681C194.813 28.9903 194.378 29.145 193.837 29.145C193.295 29.145 192.86 28.9903 192.532 28.681C192.203 28.3717 192.039 27.956 192.039 27.434V26.709C191.613 27.5017 190.995 28.1203 190.183 28.565C189.39 29.0097 188.481 29.232 187.457 29.232C186.239 29.232 185.146 28.9227 184.18 28.304C183.232 27.6853 182.488 26.8153 181.947 25.694C181.425 24.5533 181.164 23.2483 181.164 21.779C181.164 20.3097 181.425 19.024 181.947 17.922C182.488 16.82 183.232 15.9693 184.18 15.37C185.127 14.7707 186.219 14.471 187.457 14.471C188.481 14.471 189.39 14.6837 190.183 15.109C190.975 15.5343 191.584 16.1337 192.01 16.907V10.034C192.01 9.55067 192.164 9.164 192.474 8.874C192.802 8.56467 193.237 8.41 193.779 8.41ZM188.414 26.419C189.574 26.419 190.463 26.0227 191.082 25.23C191.72 24.4373 192.039 23.3063 192.039 21.837C192.039 20.3677 191.72 19.2463 191.082 18.473C190.463 17.6803 189.583 17.284 188.443 17.284C187.283 17.284 186.384 17.6707 185.746 18.444C185.108 19.2173 184.789 20.329 184.789 21.779C184.789 23.2483 185.108 24.389 185.746 25.201C186.384 26.013 187.273 26.419 188.414 26.419Z" fill="#1FC39B"/>
<mask id="mask0" mask-type="alpha" maskUnits="userSpaceOnUse" x="27" y="21" width="8" height="6">
<path fill-rule="evenodd" clip-rule="evenodd" d="M27.5264 21.1206H34.0001V26.6898H27.5264V21.1206Z" fill="white"/>
</mask>
<g mask="url(#mask0)">
<path fill-rule="evenodd" clip-rule="evenodd" d="M32.6106 22.0482C33.1709 22.2108 32.8386 23.252 32.515 24.0548C32.156 24.9449 31.703 25.7795 31.0666 26.6898C31.9466 25.7958 32.814 24.8339 33.3647 23.7768C33.9077 22.7347 34.3736 21.2282 33.5637 21.1233C33.1605 21.0713 32.5475 21.7785 32.0958 22.0716C31.4322 22.5016 30.7516 22.6109 30.1836 22.6726C29.3988 22.7572 28.5465 22.588 27.5264 23.3437C28.5288 23.0246 29.2664 23.2899 30.2498 22.9859C30.9857 22.7581 32.0465 21.8843 32.6106 22.0482Z" fill="#1FC39B"/>
</g>
<path fill-rule="evenodd" clip-rule="evenodd" d="M26.6689 24.1813C27.4222 23.8967 28.0759 23.8883 28.711 23.8478C29.3556 23.8059 30.2533 23.4684 30.6496 23.768C31.0398 24.0619 31.032 24.74 30.7686 25.5592C30.4484 26.5528 29.8596 27.4468 29.0454 28.4616C29.4542 28.1391 29.8488 27.8139 30.2468 27.4636C30.5146 27.2283 30.7962 26.9586 31.0666 26.6903C31.7035 25.7799 32.1564 24.9454 32.5155 24.0553C32.8391 23.2529 33.171 22.2113 32.6107 22.0487C32.047 21.8847 30.9862 22.7585 30.2498 22.9863C29.2665 23.2908 28.5293 23.0251 27.5264 23.3446C27.4005 23.4397 27.285 23.5415 27.1782 23.6402C26.993 23.8112 26.8221 23.9901 26.6689 24.1813Z" fill="#FF3365"/>
<path fill-rule="evenodd" clip-rule="evenodd" d="M25.6953 28.5587C25.7009 29.31 25.7511 29.9789 26.4723 29.9198C27.1346 29.8652 28.2114 29.1073 29.0438 28.4613C29.858 27.447 30.4468 26.5525 30.767 25.5589C31.0305 24.7398 31.0383 24.0621 30.648 23.7677C30.2517 23.4681 29.354 23.8061 28.7094 23.8479C28.0743 23.888 27.4206 23.8964 26.6674 24.1811C25.3885 25.818 25.6866 27.4254 25.6953 28.5587Z" fill="#FF3365"/>
<mask id="mask1" mask-type="alpha" maskUnits="userSpaceOnUse" x="0" y="21" width="8" height="7">
<path fill-rule="evenodd" clip-rule="evenodd" d="M0 21.7131H7.13677V27.4385H0V21.7131Z" fill="white"/>
</mask>
<g mask="url(#mask1)">
<path fill-rule="evenodd" clip-rule="evenodd" d="M1.5355 22.5726C0.893907 22.8727 1.1669 23.9584 1.46282 24.7978C1.78556 25.7157 2.21819 26.5515 2.85243 27.4385C1.94261 26.6203 1.05917 25.728 0.531795 24.6661C-0.00163905 23.5918 -0.338226 22.0584 0.542611 21.7363C0.970483 21.5795 1.64539 22.2611 2.11393 22.4916C2.83599 22.848 3.58704 22.8194 4.21132 22.7771C5.0463 22.7207 6.08635 22.3255 7.13678 23.0036C6.0314 22.8154 5.16787 23.2777 4.10792 23.1419C3.31578 23.0406 2.17406 22.2739 1.5355 22.5726Z" fill="#1FC39B"/>
</g>
<path fill-rule="evenodd" clip-rule="evenodd" d="M8.02023 23.7705C7.1965 23.6436 6.48396 23.7163 5.75844 23.7982C5.03681 23.8806 4.13694 23.7105 3.58706 24.0957C2.33373 24.9729 3.59139 27.4361 4.95418 28.9994C4.5263 28.7227 4.11487 28.4407 3.70171 28.1314C3.4231 27.9239 3.13107 27.6811 2.85245 27.4383C2.21822 26.5517 1.78559 25.7154 1.46284 24.7976C1.16692 23.9582 0.893501 22.8725 1.53553 22.5724C2.17322 22.2741 3.3158 23.0408 4.10795 23.1417C5.16746 23.2774 6.031 22.8152 7.1368 23.0033C7.26875 23.0857 7.38903 23.1761 7.49978 23.2659C7.69144 23.421 7.86665 23.5872 8.02023 23.7705Z" fill="#FF3365"/>
<path fill-rule="evenodd" clip-rule="evenodd" d="M8.69397 28.4484C8.61567 29.279 8.50102 30.036 7.6933 30.1109C6.96388 30.1787 5.82606 29.5508 4.95474 29C3.59196 27.4367 2.33473 24.9731 3.58763 24.0963C4.13794 23.7112 5.03781 23.8812 5.75944 23.7988C6.48496 23.7169 7.19707 23.6442 8.0208 23.7711C9.31307 25.3688 8.81295 27.1864 8.69397 28.4484Z" fill="#FF3365"/>
<path fill-rule="evenodd" clip-rule="evenodd" d="M30.5098 20.07C30.5098 27.1126 24.4266 32.8218 16.9226 32.8218C9.41862 32.8218 3.33496 27.1126 3.33496 20.07C3.33496 13.0274 9.41862 7.31812 16.9226 7.31812C24.4266 7.31812 30.5098 13.0274 30.5098 20.07Z" fill="#1FC39B"/>
<path fill-rule="evenodd" clip-rule="evenodd" d="M20.1543 3C20.233 3.47588 20.0751 4.67836 18.9421 5.98527C18.4428 6.56162 18.4878 6.44441 18.297 6.73434C18.1058 7.02516 17.8696 7.28557 17.5815 7.50985C17.2881 7.73105 17.1904 7.86104 16.7253 7.96414C16.6452 7.48738 16.5847 7.39617 16.5518 6.8044C16.5319 6.4356 16.6119 5.92006 16.8044 5.63056C16.9974 5.34107 17.2107 5.03351 17.6736 4.71229C17.9674 4.49109 19.7368 3.80371 20.1543 3Z" fill="#FF3365"/>
<path fill-rule="evenodd" clip-rule="evenodd" d="M5.99609 17.5735C5.99609 20.787 8.28861 23.3925 11.121 23.3925C13.9505 23.3925 16.243 20.787 16.243 17.5735C16.243 14.3591 13.9505 11.7559 11.121 11.7559C8.28861 11.7559 5.99609 14.3591 5.99609 17.5735Z" fill="#FEFEFE"/>
<path fill-rule="evenodd" clip-rule="evenodd" d="M8.96383 17.6491C8.96383 18.5832 8.39579 19.3429 7.69752 19.3429C6.99839 19.3429 6.43164 18.5832 6.43164 17.6491C6.43164 16.7128 6.99839 15.9553 7.69752 15.9553C8.39579 15.9553 8.96383 16.7128 8.96383 17.6491Z" fill="#221E1F"/>
<path fill-rule="evenodd" clip-rule="evenodd" d="M7.35476 17.1009C7.35476 17.3313 7.21458 17.5186 7.0424 17.5186C6.87021 17.5186 6.73047 17.3313 6.73047 17.1009C6.73047 16.8704 6.87021 16.6836 7.0424 16.6836C7.21458 16.6836 7.35476 16.8704 7.35476 17.1009Z" fill="#FEFEFE"/>
<path fill-rule="evenodd" clip-rule="evenodd" d="M21.2401 4.36108C21.3201 4.83608 20.74 6.6343 20.1239 7.32432C19.8795 7.59751 18.6889 8.86697 17.4693 9.10711C17.3892 8.62991 17.2923 7.85705 17.3836 7.49661C17.4801 7.14146 17.744 6.56644 18.6828 6.14255C20.0434 5.5292 20.6197 5.16479 21.2401 4.36108Z" fill="#1FC39B"/>
<path fill-rule="evenodd" clip-rule="evenodd" d="M17.001 16.7861C17.001 19.9997 19.2935 22.6051 22.1259 22.6051C24.9553 22.6051 27.2478 19.9997 27.2478 16.7861C27.2478 13.5718 24.9553 10.9685 22.1259 10.9685C19.2935 10.9685 17.001 13.5718 17.001 16.7861Z" fill="#FEFEFE"/>
<path fill-rule="evenodd" clip-rule="evenodd" d="M26.784 17.6491C26.784 18.5832 26.2311 19.3429 25.5515 19.3429C24.8705 19.3429 24.3193 18.5832 24.3193 17.6491C24.3193 16.7128 24.8705 15.9553 25.5515 15.9553C26.2311 15.9553 26.784 16.7128 26.784 17.6491Z" fill="#221E1F"/>
<path fill-rule="evenodd" clip-rule="evenodd" d="M25.2172 17.1009C25.2172 17.3313 25.0809 17.5186 24.9131 17.5186C24.7452 17.5186 24.6094 17.3313 24.6094 17.1009C24.6094 16.8704 24.7452 16.6836 24.9131 16.6836C25.0809 16.6836 25.2172 16.8704 25.2172 17.1009Z" fill="#FEFEFE"/>
<path fill-rule="evenodd" clip-rule="evenodd" d="M20.8094 25.9341C20.8094 28.0033 18.8963 29.6813 16.5368 29.6813C14.1768 29.6813 12.2637 28.0033 12.2637 25.9341C12.2637 23.8649 14.1768 22.187 16.5368 22.187C18.8963 22.187 20.8094 23.8649 20.8094 25.9341Z" fill="#FF3365"/>
<path fill-rule="evenodd" clip-rule="evenodd" d="M18.2413 28.2219C18.2413 28.2219 18.4096 28.1025 18.689 27.9029C18.9707 27.7033 19.3639 27.4244 19.8186 27.1054C22.5239 24.7877 27.7509 23.3089 27.3157 18.8726C27.3157 18.7246 27.2344 17.8698 27.1085 18.1359C26.2372 19.9808 21.7469 23.6482 20.8089 18.328C20.5329 16.7651 19.826 13.5419 18.8989 13.0911C18.4286 12.8977 17.9752 12.7276 17.5672 12.6069C17.1593 12.4857 16.7967 12.4143 16.5107 12.4143V28.7322C17.1368 28.7322 17.7662 28.5625 18.2413 28.2219Z" fill="#FAAF41"/>
<path fill-rule="evenodd" clip-rule="evenodd" d="M14.8037 28.2219C14.8037 28.2219 14.6358 28.1025 14.3559 27.9029C14.0747 27.7033 13.6814 27.4244 13.2263 27.1054C10.5211 24.7877 5.29445 23.3089 5.72968 18.8726C5.72968 18.7246 5.81101 17.8698 5.93691 18.1359C6.80823 19.9808 11.2981 23.6482 12.2365 18.328C12.512 16.7651 13.219 13.5419 14.1461 13.0911C14.6164 12.8977 15.0698 12.7276 15.4782 12.6069C15.8857 12.4857 16.2487 12.4143 16.5346 12.4143V28.7322C15.9082 28.7322 15.2787 28.5625 14.8037 28.2219Z" fill="#F69420"/>
</svg>
