<svg xmlns="http://www.w3.org/2000/svg" width="133" height="133" viewBox="0 0 133 133">
    <g fill="none" fill-rule="evenodd" stroke="#F1F5F9" stroke-linecap="round" stroke-linejoin="round" stroke-width="8">
        <path d="M11.98 97.08L6.268 119.93c-1.253 5.01 1.785 8.058 6.803 6.803l22.848-5.712C44.96 126.102 55.391 129 66.5 129c34.518 0 62.5-27.982 62.5-62.5S101.018 4 66.5 4 4 31.982 4 66.5c0 11.109 2.898 21.54 7.98 30.58z"/>
        <path d="M66.5 37.088l-7.953 16.943-17.782 2.717 12.867 13.189-3.037 18.622L66.5 79.767l15.905 8.792-3.037-18.622 12.867-13.189-17.782-2.717z"/>
    </g>
</svg>
