<svg width="32" height="32" viewBox="0 0 32 32" fill="none" xmlns="http://www.w3.org/2000/svg">
<circle cx="16" cy="16" r="16" fill="#FF3365"/>
<path fill-rule="evenodd" clip-rule="evenodd" d="M22 9C22.5417 9 23.0104 9.19786 23.4062 9.5936C23.8021 9.98933 24 10.458 24 10.9995V19.9971C24 20.5387 23.8021 21.0073 23.4062 21.403C23.0104 21.7988 22.5417 21.9966 22 21.9966H17.5L13.5938 24.9334C13.4687 25.0167 13.3385 25.0219 13.2031 24.949C13.0677 24.8761 13 24.7667 13 24.6209V21.9966H10C9.45833 21.9966 8.98959 21.7988 8.59375 21.403C8.19791 21.0073 8 20.5387 8 19.9971V10.9995C8 10.458 8.19791 9.98933 8.59375 9.5936C8.98959 9.19786 9.45833 9 10 9H22Z" fill="white" stroke="#D43274"/>
<path fill-rule="evenodd" clip-rule="evenodd" d="M19.2184 12.4861C19.5413 12.7568 19.7653 13.0901 19.8903 13.4858C20.0152 13.8816 20.0335 14.2799 19.9449 14.6808C19.8564 15.0818 19.6663 15.428 19.3747 15.7196L16.3593 18.8438C16.2552 18.9479 16.1354 19 16 19C15.8646 19 15.7448 18.9479 15.6407 18.8438L12.6253 15.7352C12.3337 15.4332 12.1436 15.0818 12.0551 14.6808C11.9665 14.2799 11.9848 13.8816 12.1097 13.4858C12.2347 13.0901 12.4587 12.7568 12.7816 12.4861C13.0628 12.2466 13.3805 12.0956 13.7346 12.0331C14.0887 11.9706 14.4376 11.9966 14.7814 12.1112C15.1251 12.2257 15.4271 12.4184 15.6875 12.6892L16 13.0016L16.3125 12.6892C16.5729 12.4184 16.8749 12.2257 17.2186 12.1112C17.5624 11.9966 17.9113 11.9706 18.2654 12.0331C18.6195 12.0956 18.9372 12.2466 19.2184 12.4861Z" fill="#FF3365"/>
</svg>
