<svg xmlns="http://www.w3.org/2000/svg" xmlns:xlink="http://www.w3.org/1999/xlink" width="117" height="117" viewBox="0 0 117 117">
    <defs>
        <circle id="a" cx="36.5" cy="36.5" r="36.5"/>
        <filter id="b" width="204.1%" height="204.1%" x="-52.1%" y="-42.5%" filterUnits="objectBoundingBox">
            <feOffset dy="7" in="SourceAlpha" result="shadowOffsetOuter1"/>
            <feGaussianBlur in="shadowOffsetOuter1" result="shadowBlurOuter1" stdDeviation="11.5"/>
            <feColorMatrix in="shadowBlurOuter1" values="0 0 0 0 0 0 0 0 0 0 0 0 0 0 0 0 0 0 0.06 0"/>
        </filter>
    </defs>
    <g fill="none" fill-rule="evenodd" transform="translate(22 15)">
        <mask id="c" fill="#fff">
            <use xlink:href="#a"/>
        </mask>
        <use fill="#000" filter="url(#b)" xlink:href="#a"/>
        <use fill="#FFF" xlink:href="#a"/>
        <g mask="url(#c)">
            <g fill-rule="nonzero" transform="translate(11 11)">
                <path fill="#3D5868" d="M47.807 18.588a.912.912 0 0 1-.916-.908V9.566c0-.501.41-.908.916-.908.505 0 .915.407.915.908v8.114c0 .501-.41.908-.915.908z"/>
                <g fill="#D9D4D4">
                    <path d="M6.825 16.771H3.56c-1.925 0-3.491 1.555-3.491 3.465v6.674c0 1.91 1.566 3.464 3.49 3.464h3.266a.912.912 0 0 0 .915-.908V17.68a.912.912 0 0 0-.915-.909zM47.44 16.771h-3.265a.912.912 0 0 0-.915.909v11.786c0 .502.41.908.915.908h3.265c1.925 0 3.491-1.554 3.491-3.464v-6.674c0-1.91-1.566-3.465-3.49-3.465z"/>
                </g>
                <path fill="#F0EEEE" d="M32.635 41.312h-14.27c-6.105 0-11.073 4.93-11.073 10.99v8.79c0 .501.41.908.915.908h34.586a.912.912 0 0 0 .915-.908v-8.79c0-6.06-4.968-10.99-11.073-10.99z"/>
                <path fill="#D9D4D4" d="M32.635 41.312h-3.518c6.106 0 11.073 4.93 11.073 10.99v8.79c0 .501-.41.908-.915.908h3.518a.912.912 0 0 0 .915-.908v-8.79c0-6.06-4.968-10.99-11.073-10.99z"/>
                <g fill="#F0EEEE" transform="translate(3.782)">
                    <ellipse cx="21.718" cy="21.48" rx="20.727" ry="20.571"/>
                    <path d="M21.718 0C9.784 0 .075 9.636.075 21.48c0 11.844 9.71 21.48 21.643 21.48S43.36 33.324 43.36 21.48C43.36 9.636 33.651 0 21.718 0z"/>
                </g>
                <path fill="#D9D4D4" d="M25.5 0c-.654 0-1.301.03-1.941.087C34.586 1.065 43.26 10.285 43.26 21.48S34.586 41.895 23.56 42.873c.64.056 1.287.087 1.941.087 11.934 0 21.643-9.636 21.643-21.48C47.143 9.636 37.433 0 25.5 0z"/>
                <ellipse cx="25.5" cy="39.965" fill="#FA8500" rx="15.653" ry="6.818"/>
                <path fill="#CE6A06" d="M25.5 33.147c-.251 0-.5.003-.749.008 7.54.17 13.543 3.154 13.543 6.81 0 3.655-6.004 6.639-13.543 6.81.248.004.498.007.749.007 8.645 0 15.652-3.052 15.652-6.818 0-3.765-7.007-6.817-15.652-6.817z"/>
                <path fill="#5880A2" d="M46.556 16.498a.908.908 0 0 0-.188-.372c-2.489-2.958-5.6-5.23-9.25-6.754C33.62 7.913 29.712 7.173 25.5 7.173c-4.212 0-8.12.74-11.618 2.2-3.65 1.522-6.761 3.794-9.25 6.753a.906.906 0 0 0-.188.372 21.43 21.43 0 0 0-.587 4.982c0 11.844 9.71 21.48 21.643 21.48 11.934 0 21.643-9.636 21.643-21.48 0-1.68-.198-3.356-.587-4.982z"/>
                <path fill="#3F6582" d="M47.134 20.883l-.007-.17a21.18 21.18 0 0 0-.019-.43c-.003-.065-.008-.128-.012-.192a21.885 21.885 0 0 0-.09-1.012l-.021-.192a22.102 22.102 0 0 0-.055-.41l-.026-.185a20.933 20.933 0 0 0-.07-.427l-.027-.165a21.344 21.344 0 0 0-.106-.549c-.022-.11-.047-.218-.072-.326-.016-.075-.032-.149-.05-.223-.011-.05-.024-.098-.036-.147a.906.906 0 0 0-.175-.33 23.81 23.81 0 0 0-5.783-4.98A21.218 21.218 0 0 1 43.26 21.48c0 11.195-8.673 20.415-19.7 21.393.155.013.312.026.47.036l.036.003c.144.01.29.017.435.024.05.003.1.004.151.006a20.6 20.6 0 0 0 .848.018c11.934 0 21.643-9.636 21.643-21.48 0-.2-.004-.398-.01-.597z"/>
                <ellipse cx="16.136" cy="52.837" fill="#FB403F" rx="2.481" ry="2.462"/>
                <path fill="#5880A2" d="M35.124 50.193h-5.217a2.446 2.446 0 0 0-2.455 2.437v3.32c0 1.346 1.1 2.437 2.455 2.437h5.217a2.446 2.446 0 0 0 2.455-2.436V52.63c0-1.346-1.1-2.437-2.455-2.437z"/>
                <g fill="#F0EEEE">
                    <path d="M34.488 53.745H30.3a.912.912 0 0 1-.915-.908c0-.501.41-.908.915-.908h4.19c.505 0 .914.407.914.908 0 .502-.41.908-.915.908zM34.488 56.652H30.3a.912.912 0 0 1-.915-.909c0-.501.41-.908.915-.908h4.19c.505 0 .914.407.914.908 0 .502-.41.909-.915.909z"/>
                </g>
            </g>
        </g>
    </g>
</svg>
