<svg xmlns="http://www.w3.org/2000/svg" xmlns:xlink="http://www.w3.org/1999/xlink" width="92" height="92" viewBox="0 0 92 92">
    <defs>
        <circle id="b" cx="24" cy="24" r="24"/>
        <filter id="a" width="258.3%" height="258.3%" x="-79.2%" y="-64.6%" filterUnits="objectBoundingBox">
            <feOffset dy="7" in="SourceAlpha" result="shadowOffsetOuter1"/>
            <feGaussianBlur in="shadowOffsetOuter1" result="shadowBlurOuter1" stdDeviation="11.5"/>
            <feColorMatrix in="shadowBlurOuter1" values="0 0 0 0 0 0 0 0 0 0 0 0 0 0 0 0 0 0 0.06 0"/>
        </filter>
    </defs>
    <g fill="none" fill-rule="evenodd">
        <g >
            <use fill="#000" filter="url(#a)" xlink:href="#b"/>
            <use fill="#FFF" xlink:href="#b"/>
        </g>
        <path fill="#1FC39B" d="M58.551 40.312c.452.13.186.965-.077 1.607-.29.713-.658 1.382-1.172 2.111.71-.716 1.414-1.487 1.858-2.333.441-.835.816-2.042.161-2.126-.325-.041-.822.525-1.186.76-.54.344-1.089.432-1.547.481-.637.068-1.327-.068-2.15.538.809-.256 1.408-.043 2.202-.287.595-.182 1.453-.882 1.911-.751" opacity=".3"/>
        <path fill="#21AC89" d="M53.742 42.02c.609-.228 1.141-.234 1.652-.267.522-.033 1.25-.304 1.568-.064.319.236.311.778.098 1.435-.259.796-.735 1.512-1.393 2.325.329-.258.647-.52.97-.8.216-.188.444-.405.664-.619.515-.73.882-1.398 1.173-2.11.262-.643.529-1.478.077-1.608-.459-.13-1.316.569-1.911.751-.794.244-1.393.031-2.201.287a4.172 4.172 0 0 0-.697.67"/>
        <path fill="#604C8D" d="M52.958 45.527c.004.601.046 1.137.627 1.09.535-.044 1.406-.65 2.082-1.168.658-.813 1.134-1.53 1.393-2.325.213-.657.22-1.2-.098-1.435-.319-.24-1.046.03-1.568.064-.511.033-1.043.039-1.652.268-1.032 1.31-.791 2.598-.784 3.506"/>
        <path fill="#1FC39B" d="M33.41 40.732c-.517.24-.297 1.11-.059 1.782a8.317 8.317 0 0 0 1.123 2.116c-.734-.656-1.448-1.37-1.875-2.221-.431-.86-.704-2.089.01-2.347.347-.126.889.42 1.27.605.585.286 1.19.262 1.698.228.676-.045 1.516-.361 2.366.182-.896-.15-1.592.22-2.45.111-.64-.081-1.565-.695-2.083-.456" opacity=".3"/>
        <path fill="#21AC89" d="M38.657 41.692c-.665-.102-1.242-.044-1.83.022-.585.066-1.313-.07-1.758.238-1.011.702.004 2.676 1.106 3.928a17.05 17.05 0 0 1-1.011-.695c-.228-.167-.462-.361-.69-.555a8.317 8.317 0 0 1-1.123-2.116c-.238-.672-.459-1.542.06-1.782.517-.24 1.441.375 2.082.456.857.108 1.554-.262 2.45-.111a3.16 3.16 0 0 1 .714.615"/>
        <path fill="#604C8D" d="M39.203 45.438c-.067.665-.158 1.271-.812 1.332-.588.054-1.508-.449-2.215-.89-1.103-1.252-2.118-3.226-1.106-3.928.444-.308 1.172-.172 1.757-.238.588-.066 1.165-.124 1.83-.022 1.047 1.28.64 2.735.546 3.746"/>
        <path fill="#23B691" d="M56.85 38.727c0 5.642-4.921 10.215-10.99 10.215-6.072 0-10.993-4.573-10.993-10.215 0-5.64 4.92-10.214 10.993-10.214 6.069 0 10.99 4.573 10.99 10.214"/>
        <path fill="#1FC39B" d="M48.471 25.054c.067.382-.063 1.344-.98 2.392-.402.46-.367.367-.521.6a2.61 2.61 0 0 1-.578.62c-.238.178-.319.282-.693.365-.066-.382-.115-.456-.14-.93-.018-.295.049-.708.203-.94.157-.231.329-.478.704-.735.237-.177 1.669-.728 2.005-1.372"/>
        <path fill="#FFFFFE" d="M37.019 36.728c0 2.574 1.855 4.66 4.147 4.66 2.29 0 4.145-2.086 4.145-4.66 0-2.575-1.856-4.66-4.145-4.66-2.292 0-4.147 2.085-4.147 4.66"/>
        <path fill="#3A2D56" d="M40.12 36.788c0 .748-.458 1.357-1.025 1.357-.564 0-1.023-.609-1.023-1.357 0-.75.459-1.356 1.022-1.356.567 0 1.026.606 1.026 1.356"/>
        <path fill="#FFFFFE" d="M38.818 36.35c0 .184-.112.334-.252.334s-.252-.15-.252-.335c0-.185.112-.334.252-.334s.252.15.252.334"/>
        <path fill="#1FC39B" d="M49.304 26.264c.063.38-.406 1.82-.903 2.373-.2.219-1.162 1.235-2.149 1.428-.063-.383-.144-1.002-.07-1.29.08-.284.294-.745 1.053-1.085 1.1-.49 1.565-.783 2.069-1.426"/>
        <path fill="#FFFFFE" d="M45.923 36.803c0 2.574 1.855 4.66 4.147 4.66 2.29 0 4.145-2.086 4.145-4.66 0-2.575-1.856-4.66-4.145-4.66-2.292 0-4.147 2.085-4.147 4.66"/>
        <path fill="#3A2D56" d="M53.136 36.788c0 .748-.448 1.357-.997 1.357-.55 0-.998-.609-.998-1.357 0-.75.448-1.356.998-1.356s.997.606.997 1.356"/>
        <path fill="#FFFFFE" d="M51.87 36.35c0 .184-.112.334-.245.334-.137 0-.249-.15-.249-.335 0-.185.112-.334.249-.334.133 0 .245.15.245.334"/>
        <path fill="#DF5431" d="M49.003 43.072c0 1.657-1.547 3-3.458 3-1.908 0-3.454-1.343-3.454-3 0-1.658 1.547-3.002 3.454-3.002 1.911 0 3.458 1.344 3.458 3.002"/>
        <path fill="#F19D49" d="M46.928 45.257s.133-.096.36-.255c.228-.16.546-.384.914-.64 2.19-1.856 6.419-3.04 6.065-6.594 0-.118-.066-.803-.168-.59-.703 1.478-4.336 4.416-5.096.154-.224-1.252-.794-3.834-1.543-4.195a11.8 11.8 0 0 0-1.079-.387c-.328-.098-.622-.154-.853-.154v13.07c.504 0 1.015-.136 1.4-.409"/>
        <path fill="#EB8C30" d="M44.145 45.257l-.36-.255c-.228-.16-.547-.384-.918-.64-2.187-1.856-6.415-3.04-6.062-6.594 0-.118.063-.803.168-.59.704 1.478 4.337 4.416 5.096.154.221-1.252.795-3.834 1.544-4.195a11.8 11.8 0 0 1 1.078-.387c.329-.098.623-.154.854-.154v13.07c-.508 0-1.015-.136-1.4-.409"/>
    </g>
</svg>
