<svg width="14" height="14" viewBox="0 0 14 14" fill="none" xmlns="http://www.w3.org/2000/svg">
<path d="M4.02884 5.55428L3.08022 6.51103L6.15152 9.55851L12.9273 2.72455L11.9722 1.77603L6.14503 7.65324L4.02884 5.55428ZM12.2613 6.81023C12.2715 9.80423 9.83224 12.2645 6.84068 12.2774C3.84913 12.2903 1.39315 9.85128 1.38296 6.85727C1.37277 3.86327 3.81207 1.40304 6.80362 1.3901C7.34754 1.38775 7.82237 1.45241 8.3001 1.5891L9.38423 0.495671C8.56743 0.227017 7.68153 0.025374 6.79899 0.0291907C3.06088 0.0453566 0.0104283 3.12198 0.0231638 6.86315C0.0358994 10.6043 3.10721 13.6545 6.84532 13.6383C10.5834 13.6221 13.6339 10.5455 13.6211 6.80434L12.2613 6.81023Z" fill="#1FC39B"/>
</svg>
