<svg xmlns="http://www.w3.org/2000/svg" xmlns:xlink="http://www.w3.org/1999/xlink" width="103" height="103" viewBox="0 0 103 103">
    <defs>
        <circle id="a" cx="29.5" cy="29.5" r="29.5"/>
        <filter id="b" width="228.8%" height="228.8%" x="-64.4%" y="-52.5%" filterUnits="objectBoundingBox">
            <feOffset dy="7" in="SourceAlpha" result="shadowOffsetOuter1"/>
            <feGaussianBlur in="shadowOffsetOuter1" result="shadowBlurOuter1" stdDeviation="11.5"/>
            <feColorMatrix in="shadowBlurOuter1" values="0 0 0 0 0 0 0 0 0 0 0 0 0 0 0 0 0 0 0.06 0"/>
        </filter>
    </defs>
    <g fill="none" fill-rule="evenodd" transform="translate(22 15)">
        <mask id="c" fill="#fff">
            <use xlink:href="#a"/>
        </mask>
        <use fill="#000" filter="url(#b)" xlink:href="#a"/>
        <use fill="#FFF" xlink:href="#a"/>
        <g mask="url(#c)">
            <g fill-rule="nonzero">
                <path fill="#F0EEEE" d="M34.51 45.702H24.49c-4.345 0-7.882 3.522-7.882 7.852v4.699c0 .413.336.747.75.747h24.284c.414 0 .75-.334.75-.747v-4.7c0-4.329-3.536-7.85-7.883-7.85z"/>
                <path fill="#D9D4D4" d="M34.51 45.702h-2.476c4.347 0 7.883 3.522 7.883 7.852v4.699a.749.749 0 0 1-.75.747h2.475c.414 0 .75-.334.75-.747v-4.7c0-4.329-3.536-7.85-7.883-7.85z"/>
                <path fill="#484655" d="M22.767 56.012a.749.749 0 0 1-.75-.747v-5.83c0-.412.336-.747.75-.747h5.466c.414 0 .75.335.75.747a.749.749 0 0 1-.75.747h-4.716v5.083a.749.749 0 0 1-.75.747z"/>
                <path fill="#FA9E3E" d="M25.413 36.148v8.77a4.08 4.08 0 0 0 4.087 4.07 4.08 4.08 0 0 0 4.087-4.07v-8.77h-8.174z"/>
                <path fill="#484655" d="M15.938 29.828h27.124v6.927H15.938z"/>
                <g fill="#FA9E3E">
                    <path d="M16.862 33.148h4.793v5.475h-4.793a2.743 2.743 0 0 1-2.749-2.737 2.743 2.743 0 0 1 2.749-2.738zM42.138 33.148h-4.793v5.475h4.793a2.743 2.743 0 0 0 2.749-2.737 2.743 2.743 0 0 0-2.749-2.738z"/>
                </g>
                <path fill="#FFB56B" d="M29.5 44.639c-6.012 0-10.886-4.855-10.886-10.844V22.827h21.772v10.968c0 5.989-4.874 10.844-10.886 10.844z"/>
                <path fill="#EF9245" d="M38.12 22.827v12.096c0 5.182-4.073 9.416-9.204 9.7.194.01.388.015.584.015 6.012 0 10.886-4.854 10.886-10.843V22.827h-2.265z"/>
                <g fill="#19303F">
                    <path d="M34.775 34.137a.749.749 0 0 1-.75-.747v-.199c0-.413.336-.747.75-.747s.75.334.75.747v.2a.748.748 0 0 1-.75.746zM24.225 34.137a.749.749 0 0 1-.75-.747v-.199c0-.413.336-.747.75-.747s.75.334.75.747v.2a.748.748 0 0 1-.75.746z"/>
                </g>
                <path fill="#F0EEEE" d="M46.983 16.154c0-3.676-3.568-6.667-7.954-6.667a9.101 9.101 0 0 0-4.034.919C33.615 8.889 31.607 8 29.5 8s-4.116.89-5.495 2.406a9.1 9.1 0 0 0-4.034-.92c-4.386 0-7.954 2.992-7.954 6.668 0 2.287 1.393 4.401 3.67 5.62l-.497 8.009a.748.748 0 0 0 .679.79 147.518 147.518 0 0 0 27.262 0 .748.748 0 0 0 .679-.79l-.497-8.009c2.277-1.219 3.67-3.333 3.67-5.62z"/>
                <path fill="#D9D4D4" d="M46.983 16.154c0-3.676-3.568-6.667-7.954-6.667-.13 0-.261.003-.392.008 3.335.87 5.763 3.48 5.763 6.557 0 2.355-1.435 4.531-3.78 5.786l.513 8.245a.768.768 0 0 1-.34.685c.78-.06 1.56-.123 2.338-.196a.748.748 0 0 0 .68-.79l-.498-8.008c2.277-1.219 3.67-3.333 3.67-5.62z"/>
                <g fill="#E11E1D">
                    <path d="M28.988 46.66l-3.581-1.965a2.005 2.005 0 0 0-2.32.277l-1.459 1.335a.745.745 0 0 0 .195 1.23l6.097 2.784a.752.752 0 0 0 1.052-.555l.394-2.328a.746.746 0 0 0-.378-.779zM37.372 46.307l-1.46-1.335a2.005 2.005 0 0 0-2.318-.277l-3.582 1.964a.746.746 0 0 0-.378.779l.394 2.328a.748.748 0 0 0 1.052.555l6.097-2.784a.747.747 0 0 0 .195-1.23z"/>
                </g>
                <g fill="#19303F">
                    <path d="M25.033 53.106a.797.797 0 0 1-.287-.057.8.8 0 0 1-.243-.161.782.782 0 0 1-.162-.243.75.75 0 0 1-.058-.286.75.75 0 1 1 1.374.415.782.782 0 0 1-.207.207.81.81 0 0 1-.27.111.816.816 0 0 1-.147.014zM25.033 56.294a.797.797 0 0 1-.287-.057.8.8 0 0 1-.243-.162.75.75 0 0 1-.162-.814.795.795 0 0 1 .162-.242.723.723 0 0 1 .243-.162.763.763 0 0 1 .704.069.723.723 0 0 1 .276.335.784.784 0 0 1 .057.286.754.754 0 0 1-.333.621.81.81 0 0 1-.27.112.816.816 0 0 1-.147.014zM33.967 53.106a.76.76 0 0 1-.624-.332.805.805 0 0 1-.112-.269.807.807 0 0 1 0-.292.75.75 0 0 1 1.471.292.75.75 0 0 1-.735.601zM33.967 56.294a.76.76 0 0 1-.624-.332.805.805 0 0 1-.112-.27.798.798 0 0 1 0-.291.784.784 0 0 1 .112-.269.757.757 0 0 1 .624-.333.756.756 0 0 1 .692.461.784.784 0 0 1 .058.286.72.72 0 0 1-.058.286.805.805 0 0 1-.162.243.76.76 0 0 1-.53.219z"/>
                </g>
                <path fill="#484655" d="M36.17 37.362a.697.697 0 0 0-.751-.029c-.307.18-.92.238-1.41.022-.332-.146-.534-.384-.602-.706a2.602 2.602 0 0 0-3.907-1.557 2.602 2.602 0 0 0-3.907 1.557c-.068.322-.27.56-.601.706-.492.216-1.103.159-1.41-.022a.697.697 0 0 0-.751.03.69.69 0 0 0-.286.69c.174.958.923 2.142 2.203 2.629.968.368 2.573.453 4.752-1.198 1.427 1.081 2.608 1.418 3.525 1.418a3.43 3.43 0 0 0 1.227-.22c1.28-.487 2.03-1.671 2.204-2.628a.691.691 0 0 0-.287-.692z"/>
                <path fill="#FB403F" d="M32.196 55.835l-.843-8.125a1.627 1.627 0 0 0-1.625-1.46h-.436c-.847 0-1.562.66-1.628 1.5l-.537 6.859a.746.746 0 0 0 .748.805h1.585l1.554 1.106a.751.751 0 0 0 1.182-.685z"/>
            </g>
        </g>
    </g>
</svg>
