<svg width="17" height="15" viewBox="0 0 17 15" fill="none" xmlns="http://www.w3.org/2000/svg">
<path d="M4.19531 3.88463C4.5554 4.11365 4.78975 4.47711 4.79547 4.89534L4.8069 5.29863L8.74505 1.80345C9.0194 1.56446 9.06513 1.17113 8.81935 0.907244C8.66503 0.737962 8.44211 0.65332 8.2192 0.65332C8.02486 0.65332 7.82481 0.718046 7.6762 0.847497L4.19531 3.88463Z" fill="#B0BAC5"/>
<path d="M0.960532 9.50977L1.21774 9.25087L1.90935 4.8545C1.93221 4.27695 2.41233 3.79399 3.04107 3.6745L3.0182 3.05712C3.0182 2.69366 2.67526 2.3999 2.26372 2.3999C1.85219 2.3999 1.50924 2.69864 1.50924 3.05712L0.783344 7.6626L0.0803067 8.37458C-0.0282926 8.48412 -0.0225768 8.6534 0.0974539 8.75298L0.960532 9.50977Z" fill="#B0BAC5"/>
<path d="M9.65039 1.93166C9.96476 1.99639 10.2448 2.15073 10.4506 2.37976C10.5878 2.52913 10.6792 2.70339 10.725 2.88263L11.1365 2.52415C11.4108 2.28516 11.4566 1.89183 11.2108 1.62795C11.0565 1.45866 10.8336 1.37402 10.6106 1.37402C10.4163 1.37402 10.2163 1.43875 10.0676 1.5682L9.65039 1.93166Z" fill="#B0BAC5"/>
<path d="M14.4751 2.19047C14.5437 2.19047 14.6123 2.17056 14.6752 2.1357L15.5325 1.60794C15.6869 1.51334 15.7212 1.32414 15.6126 1.18971C15.504 1.05528 15.2868 1.02541 15.1324 1.12001L14.2751 1.64777C14.1207 1.74237 14.0865 1.93157 14.1951 2.066C14.2636 2.14566 14.3722 2.19047 14.4751 2.19047Z" fill="#B0BAC5"/>
<path d="M13.2663 1.4339C13.3064 1.44884 13.3464 1.45382 13.3864 1.45382C13.5236 1.45382 13.655 1.37913 13.7065 1.25964L14.078 0.403269C14.1466 0.248923 14.0551 0.074662 13.8779 0.0198941C13.7007 -0.0398527 13.5007 0.0398097 13.4378 0.194156L13.0663 1.05053C12.9977 1.20487 13.0892 1.37415 13.2663 1.4339Z" fill="#B0BAC5"/>
<path d="M15.9591 2.73633H15.9534L14.9017 2.74629C14.7131 2.75126 14.5645 2.87574 14.5645 3.04004C14.5702 3.20434 14.7188 3.3338 14.9074 3.3338H14.9131L15.9648 3.31886C16.1534 3.31388 16.302 3.18443 16.302 3.02013C16.302 2.85582 16.1477 2.73633 15.9591 2.73633Z" fill="#B0BAC5"/>
<path d="M13.6029 8.76297C13.923 8.48415 13.9001 8.02111 13.5343 7.76719C13.3971 7.67259 13.2371 7.62778 13.0713 7.62778C12.8656 7.62778 12.6598 7.69748 12.5055 7.83191L10.7907 9.32558C10.7221 9.38533 10.6307 9.4152 10.5392 9.4152C10.4478 9.4152 10.3563 9.38533 10.2877 9.32558L10.282 9.3206C10.1334 9.19115 10.1334 8.98204 10.282 8.84761L13.0427 6.43782C13.3228 6.19883 13.3628 5.8055 13.117 5.54162C12.9627 5.37234 12.7398 5.28769 12.5169 5.28769C12.3226 5.28769 12.1225 5.35242 11.9739 5.48187L9.19604 7.91655C9.12173 7.98128 9.03028 8.01115 8.93312 8.01115C8.84166 8.01115 8.7445 7.98128 8.67019 7.91655C8.52158 7.7871 8.52158 7.58297 8.67019 7.4585L12.2197 4.3666C12.494 4.12761 12.5398 3.73428 12.294 3.4704C12.1397 3.30111 11.9167 3.21647 11.6938 3.21647C11.4995 3.21647 11.2994 3.2812 11.1508 3.41065L7.5842 6.51748C7.50989 6.58221 7.41844 6.61208 7.32127 6.61208C7.22411 6.61208 7.13265 6.58221 7.05835 6.51748C6.91546 6.39301 6.91546 6.18888 7.05835 6.0644L9.83049 3.64964C10.1048 3.41065 10.1506 3.01732 9.90479 2.75344C9.75047 2.58415 9.52755 2.49951 9.30464 2.49951C9.1103 2.49951 8.91025 2.56424 8.76164 2.69369L4.74347 6.19386C4.66917 6.25858 4.58343 6.28347 4.49769 6.28347C4.32051 6.28347 4.14903 6.16398 4.14332 5.98474L4.10902 4.89934C4.10902 4.53588 3.76608 4.24213 3.35454 4.24213C2.93729 4.24213 2.60006 4.54086 2.60006 4.89934L1.87416 9.50482L1.17113 10.2168C1.06253 10.3263 1.06824 10.4956 1.18827 10.5952L5.17215 14.0605C5.23503 14.1153 5.31505 14.1402 5.40078 14.1402C5.46937 14.1402 5.53796 14.1203 5.59512 14.0804L6.49249 13.483C6.5325 13.4581 6.57251 13.4382 6.62395 13.4332C8.17864 13.1394 9.9448 11.9544 11.6367 10.4857L13.6029 8.76297Z" fill="#B0BAC5"/>
</svg>
