<svg xmlns="http://www.w3.org/2000/svg" xmlns:xlink="http://www.w3.org/1999/xlink" width="103" height="103" viewBox="0 0 103 103">
    <defs>
        <circle id="a" cx="29.5" cy="29.5" r="29.5"/>
        <filter id="b" width="228.8%" height="228.8%" x="-64.4%" y="-52.5%" filterUnits="objectBoundingBox">
            <feOffset dy="7" in="SourceAlpha" result="shadowOffsetOuter1"/>
            <feGaussianBlur in="shadowOffsetOuter1" result="shadowBlurOuter1" stdDeviation="11.5"/>
            <feColorMatrix in="shadowBlurOuter1" values="0 0 0 0 0 0 0 0 0 0 0 0 0 0 0 0 0 0 0.06 0"/>
        </filter>
    </defs>
    <g fill="none" fill-rule="evenodd" transform="translate(22 15)">
        <mask id="c" fill="#fff">
            <use xlink:href="#a"/>
        </mask>
        <use fill="#000" filter="url(#b)" xlink:href="#a"/>
        <use fill="#FFF" xlink:href="#a"/>
        <g mask="url(#c)">
            <g fill-rule="nonzero">
                <path fill="#3D5868" d="M45.777 9.58c-.65-.702-1.524-.772-2.28-.182-1.226.956-4.96 3.865-10.736 1.974-4.662-1.526-8.308-1.855-11.144-1.007-2.69.805-4.63 2.706-5.769 5.653-2.867 1.954-4.165 5.076-3.755 9.048.32 3.095 1.606 6.07 2.611 7.68a.738.738 0 0 0 1.023.233.747.747 0 0 0 .346-.632h23.883a.747.747 0 0 0 .74.747.74.74 0 0 0 .629-.349c1.07-1.712 2.566-5.856 2.634-9.846 2.221-2.648 2.81-5.805 2.961-7.478.232-2.55-.216-4.843-1.143-5.842z"/>
                <path fill="#2A434F" d="M45.777 9.58c-.65-.702-1.524-.772-2.28-.182-.187.145-.432.337-.734.55.732 1.129 1.067 3.199.86 5.473-.151 1.673-.74 4.83-2.96 7.478-.064 3.709-1.362 7.55-2.403 9.448h1.697a.747.747 0 0 0 .74.747.74.74 0 0 0 .628-.349c1.07-1.712 2.566-5.856 2.635-9.846 2.22-2.648 2.809-5.805 2.96-7.478.232-2.55-.216-4.843-1.143-5.842z"/>
                <path fill="#F0EEEE" d="M33.517 44.456H23.05c-4.517 0-8.192 3.702-8.192 8.253v6.544c0 .413.332.747.741.747h25.368c.41 0 .741-.334.741-.747v-6.544c0-4.55-3.675-8.253-8.192-8.253z"/>
                <path fill="#D9D4D4" d="M33.517 44.456H31.02c4.518 0 8.193 3.702 8.193 8.253v6.544a.744.744 0 0 1-.742.747h2.497c.41 0 .741-.334.741-.747v-6.544c0-4.55-3.675-8.253-8.192-8.253z"/>
                <path fill="#49B6F2" d="M24.122 45.202h8.324V60h-8.324z"/>
                <g fill="#68C8FC">
                    <path d="M28.284 45.943v3.67l4.162 2.916v-7.326zM24.122 52.53l4.162-2.918v-3.669l-4.162-.74z"/>
                </g>
                <path fill="#19303F" d="M36.757 53.152a.744.744 0 0 1-.741-.747v-3.603c0-4.16-3.36-7.545-7.49-7.545-4.129 0-7.488 3.385-7.488 7.545v3.103a.744.744 0 0 1-.742.747.744.744 0 0 1-.741-.747v-3.103c0-4.984 4.025-9.039 8.972-9.039 4.947 0 8.972 4.055 8.972 9.04v3.602a.744.744 0 0 1-.742.747z"/>
                <g fill="#FA9E3E">
                    <path d="M24.122 35.669V44.7c0 2.316 1.863 4.193 4.162 4.193s4.162-1.877 4.162-4.193v-9.031h-8.324zM15.415 31.312h4.881v5.639h-4.88a2.809 2.809 0 0 1-2.8-2.82 2.809 2.809 0 0 1 2.8-2.819zM41.153 31.312h-4.881v5.639h4.88a2.809 2.809 0 0 0 2.8-2.82 2.809 2.809 0 0 0-2.8-2.819z"/>
                </g>
                <path fill="#FFB56B" d="M39.368 25.55v6.307c0 6.173-4.92 11.268-11.046 11.288-6.14.021-11.122-4.987-11.122-11.166v-4.363c0-.089.052-.168.132-.204 2.682-1.234 3.577-4.436 3.814-6.729.05-.494.07-.946.07-1.327.001-.206.253-.301.389-.148.312.353.798.874 1.433 1.475 2.93 2.773 9.043 7.24 16.033 4.656a.222.222 0 0 1 .297.21z"/>
                <path fill="#19303F" d="M28.284 37.736a4.061 4.061 0 0 1-3.345-1.767.75.75 0 0 1 .187-1.04.738.738 0 0 1 1.032.19 2.581 2.581 0 0 0 2.126 1.123c.848 0 1.642-.42 2.126-1.123a.738.738 0 0 1 1.032-.19c.336.236.42.701.187 1.04a4.062 4.062 0 0 1-3.345 1.767z"/>
                <path fill="#EF9245" d="M37.061 33.14c0 5.337-4.147 9.697-9.372 9.99.098.005.197.009.295.011h.002a10.984 10.984 0 0 0 1.133-.027l.043-.003a11.1 11.1 0 0 0 .502-.052c5.47-.684 9.704-5.385 9.704-11.08v-6.754c-.78.31-1.55.53-2.307.675v7.24z"/>
                <g fill="#19303F">
                    <path d="M33.655 32.206a.744.744 0 0 1-.742-.747v-.2c0-.412.332-.747.742-.747s.741.335.741.748v.199a.744.744 0 0 1-.741.747zM22.913 32.206a.744.744 0 0 1-.741-.747v-.2c0-.412.332-.747.741-.747.41 0 .742.335.742.748v.199a.744.744 0 0 1-.742.747z"/>
                </g>
                <path fill="#78D6D1" d="M20.296 51.158a2.182 2.182 0 0 0-2.17 2.187c0 1.206.973 2.187 2.17 2.187a2.182 2.182 0 0 0 2.171-2.187 2.182 2.182 0 0 0-2.17-2.187z"/>
                <path fill="#304A56" d="M28.284 49.612l-2.228 1.562a3.07 3.07 0 0 0 4.456 0l-2.228-1.562z"/>
                <g fill="#3D5868">
                    <path d="M28.284 52.131c-.324 0-.635-.05-.928-.143L26.33 60h3.906l-1.025-8.012a3.063 3.063 0 0 1-.928.143zM38.723 57.913h-.36a.748.748 0 1 1-.382-1.388v-2.14c0-.68-.549-1.233-1.224-1.233a1.23 1.23 0 0 0-1.224 1.233v2.14a.748.748 0 0 1-.381 1.388h-.36a.744.744 0 0 1-.742-.747v-2.78c0-1.505 1.215-2.728 2.707-2.728 1.493 0 2.707 1.224 2.707 2.727v2.78a.744.744 0 0 1-.74.748z"/>
                </g>
            </g>
        </g>
    </g>
</svg>
