<svg xmlns="http://www.w3.org/2000/svg" xmlns:xlink="http://www.w3.org/1999/xlink" width="103" height="103" viewBox="0 0 103 103">
    <defs>
        <circle id="a" cx="29.5" cy="29.5" r="29.5"/>
        <filter id="b" width="228.8%" height="228.8%" x="-64.4%" y="-52.5%" filterUnits="objectBoundingBox">
            <feOffset dy="7" in="SourceAlpha" result="shadowOffsetOuter1"/>
            <feGaussianBlur in="shadowOffsetOuter1" result="shadowBlurOuter1" stdDeviation="11.5"/>
            <feColorMatrix in="shadowBlurOuter1" values="0 0 0 0 0 0 0 0 0 0 0 0 0 0 0 0 0 0 0.06 0"/>
        </filter>
    </defs>
    <g fill="none" fill-rule="evenodd" transform="translate(22 15)">
        <mask id="c" fill="#fff">
            <use xlink:href="#a"/>
        </mask>
        <use fill="#000" filter="url(#b)" xlink:href="#a"/>
        <use fill="#FFF" xlink:href="#a"/>
        <g mask="url(#c)">
            <g fill-rule="nonzero">
                <path fill="#2D6CCF" d="M34.764 43.455H24.236c-4.545 0-8.242 3.703-8.242 8.254v6.544c0 .413.334.747.746.747h25.52a.747.747 0 0 0 .746-.747v-6.544c0-4.551-3.697-8.254-8.242-8.254z"/>
                <path fill="#2159AA" d="M34.764 43.455h-2.619c4.545 0 8.242 3.703 8.242 8.254v6.544a.747.747 0 0 1-.746.747h2.619a.747.747 0 0 0 .746-.747v-6.544c0-4.551-3.697-8.254-8.242-8.254z"/>
                <path fill="#FA9E3E" d="M33.687 34.668v9.498l-1.866 1.93a3.23 3.23 0 0 1-4.642 0l-1.866-1.93v-9.498h8.374z"/>
                <path fill="#696970" d="M15.177 26.873h28.646V33.4H15.177z"/>
                <g fill="#FA9E3E">
                    <path d="M16.554 30.312h4.91v5.638h-4.91a2.817 2.817 0 0 1-2.815-2.82c0-1.556 1.26-2.818 2.815-2.818zM42.446 30.312h-4.91v5.638h4.91a2.817 2.817 0 0 0 2.815-2.82c0-1.556-1.26-2.818-2.815-2.818z"/>
                </g>
                <path fill="#FFB56B" d="M29.5 42.145c-6.159 0-11.151-5-11.151-11.168V19.682H40.65v11.295c0 6.168-4.992 11.168-11.151 11.168z"/>
                <path fill="#EF9245" d="M38.33 19.682V32.14c0 5.337-4.172 9.697-9.428 9.99.198.01.397.015.598.015 6.159 0 11.151-5 11.151-11.168V19.682h-2.32z"/>
                <g fill="#19303F">
                    <path d="M34.903 31.205a.747.747 0 0 1-.746-.747v-.2a.747.747 0 1 1 1.492 0v.2a.746.746 0 0 1-.746.747zM24.097 31.205a.747.747 0 0 1-.746-.747v-.2a.747.747 0 1 1 1.492 0v.2a.746.746 0 0 1-.746.747zM29.5 36.736c-1.342 0-2.6-.66-3.365-1.767a.745.745 0 1 1 1.227-.85 2.601 2.601 0 0 0 2.138 1.123c.853 0 1.652-.42 2.138-1.124a.745.745 0 1 1 1.227.85 4.092 4.092 0 0 1-3.365 1.768z"/>
                </g>
                <path fill="#FFB700" d="M30.854 9.442h-2.708c-7.398 0-13.416 6.027-13.416 13.436v3.296c0 .412.334.747.746.747h28.048a.747.747 0 0 0 .746-.747v-3.296c0-7.409-6.018-13.436-13.416-13.436z"/>
                <path fill="#D69400" d="M30.854 9.442h-2.708l-.12.002c7.343.064 13.297 6.065 13.297 13.434v3.296a.747.747 0 0 1-.746.747h2.947a.747.747 0 0 0 .746-.747v-3.296c0-7.409-6.018-13.436-13.416-13.436z"/>
                <path fill="#FFD100" d="M31.142 8h-3.284c-1.13 0-2.048.92-2.048 2.051v13.837c0 .412.334.747.746.747h5.888a.747.747 0 0 0 .746-.747V10.05A2.052 2.052 0 0 0 31.142 8z"/>
                <path fill="#EFA707" d="M29.5 13.882a4.302 4.302 0 0 0-4.293 4.3c0 2.37 1.926 4.3 4.293 4.3a4.301 4.301 0 0 0 4.293-4.3c0-2.372-1.926-4.3-4.293-4.3z"/>
                <path fill="#FFB700" d="M42.26 55.016h-2.366v-9.394a.748.748 0 0 0-.31-.606 8.167 8.167 0 0 0-4.447-1.552l-.087-.003a8.247 8.247 0 0 0-.286-.006h-1.087v14.797c0 .414.334.748.746.748h7.837a.747.747 0 0 0 .746-.747v-2.49a.747.747 0 0 0-.746-.747z"/>
                <g fill="#EFA707">
                    <path d="M42.26 55.016h-1.873v3.237a.747.747 0 0 1-.746.747h2.619a.747.747 0 0 0 .746-.747v-2.49a.747.747 0 0 0-.746-.747zM39.894 48.898v-3.276a.747.747 0 0 0-.267-.571 8.219 8.219 0 0 0-2.393-1.217l-.038-.012a8.1 8.1 0 0 0-.35-.1l-.072-.017a8.045 8.045 0 0 0-.291-.068l-.09-.019a8.207 8.207 0 0 0-.747-.115l-.098-.01a8.498 8.498 0 0 0-.291-.022l-.107-.006a8.246 8.246 0 0 0-.386-.01h-1.087v.146a8.273 8.273 0 0 1 6.217 5.297z"/>
                </g>
                <path fill="#3D5868" d="M33.677 49.188h6.216v4.831h-6.216z"/>
                <path fill="#FB403F" d="M33.677 50.683h6.216v1.843h-6.216z"/>
                <path fill="#FFB700" d="M24.577 43.455h-.341c-1.743 0-3.41.54-4.82 1.561a.747.747 0 0 0-.31.606v9.394H16.74a.747.747 0 0 0-.746.747v2.49c0 .413.334.747.746.747h7.837a.747.747 0 0 0 .746-.747V43.455h-.746z"/>
                <path fill="#FFD100" d="M45.727 23.14H13.273a2.24 2.24 0 0 0 0 4.48h32.454a2.24 2.24 0 0 0 0-4.48z"/>
                <path fill="#3D5868" d="M19.096 49.188h6.216v4.831h-6.216z"/>
                <path fill="#FB403F" d="M19.096 50.683h6.216v1.843h-6.216z"/>
            </g>
        </g>
    </g>
</svg>
