<svg width="32" height="32" viewBox="0 0 32 32" fill="none" xmlns="http://www.w3.org/2000/svg">
<circle cx="16" cy="16" r="16" fill="#FF3365"/>
<path fill-rule="evenodd" clip-rule="evenodd" d="M22 9C22.5417 9 23.0104 9.19786 23.4062 9.5936C23.8021 9.98933 24 10.458 24 10.9995V19.9971C24 20.5387 23.8021 21.0073 23.4062 21.403C23.0104 21.7988 22.5417 21.9966 22 21.9966H17.5L13.5938 24.9334C13.4687 25.0167 13.3385 25.0219 13.2031 24.949C13.0677 24.8761 13 24.7667 13 24.6209V21.9966H10C9.45833 21.9966 8.98959 21.7988 8.59375 21.403C8.19791 21.0073 8 20.5387 8 19.9971V10.9995C8 10.458 8.19791 9.98933 8.59375 9.5936C8.98959 9.19786 9.45833 9 10 9H22Z" fill="white" stroke="#D43274"/>
<path d="M14.1227 14.3959L13.5428 14.9808L15.4204 16.8439L19.5628 12.666L18.9789 12.0861L15.4164 15.6791L14.1227 14.3959ZM19.1556 15.1637C19.1618 16.9941 17.6706 18.4982 15.8417 18.5061C14.0128 18.514 12.5114 17.0229 12.5051 15.1925C12.4989 13.3621 13.9902 11.8581 15.819 11.8501C16.1516 11.8487 16.4419 11.8882 16.7339 11.9718L17.3967 11.3033C16.8973 11.1391 16.3558 11.0158 15.8162 11.0182C13.5309 11.028 11.666 12.9089 11.6738 15.1961C11.6816 17.4832 13.5593 19.3479 15.8445 19.3381C18.1298 19.3282 19.9947 17.4473 19.9869 15.1601L19.1556 15.1637Z" fill="#FF3365"/>
</svg>
