<svg xmlns="http://www.w3.org/2000/svg" xmlns:xlink="http://www.w3.org/1999/xlink" width="103" height="103" viewBox="0 0 103 103">
    <defs>
        <circle id="a" cx="29.5" cy="29.5" r="29.5"/>
        <filter id="b" width="228.8%" height="228.8%" x="-64.4%" y="-52.5%" filterUnits="objectBoundingBox">
            <feOffset dy="7" in="SourceAlpha" result="shadowOffsetOuter1"/>
            <feGaussianBlur in="shadowOffsetOuter1" result="shadowBlurOuter1" stdDeviation="11.5"/>
            <feColorMatrix in="shadowBlurOuter1" values="0 0 0 0 0 0 0 0 0 0 0 0 0 0 0 0 0 0 0.06 0"/>
        </filter>
    </defs>
    <g fill="none" fill-rule="evenodd" transform="translate(22 15)">
        <mask id="c" fill="#fff">
            <use xlink:href="#a"/>
        </mask>
        <use fill="#000" filter="url(#b)" xlink:href="#a"/>
        <use fill="#FFF" xlink:href="#a"/>
        <g mask="url(#c)">
            <g fill-rule="nonzero">
                <path fill="#5CDBF1" d="M35.361 47.243H23.639c-5.06 0-9.176 4.203-9.176 9.368v7.428a.84.84 0 0 0 .83.848h28.414a.84.84 0 0 0 .83-.848v-7.427c0-5.166-4.116-9.369-9.176-9.369z"/>
                <path fill="#37B7C4" d="M35.361 47.243h-3.1c5.059 0 9.175 4.203 9.175 9.368v7.428a.84.84 0 0 1-.83.848h3.1a.84.84 0 0 0 .831-.848v-7.427c0-5.166-4.116-9.369-9.176-9.369z"/>
                <path fill="#5880A2" d="M40.74 64.887V49.469a.853.853 0 0 0-.334-.677 9.063 9.063 0 0 0-2.304-1.122l-.024-.008a8.888 8.888 0 0 0-1.565-.343.826.826 0 0 0-.8.392l-6.214 10.111-6.234-10.11a.825.825 0 0 0-.843-.384 9.163 9.163 0 0 0-.376.06l-.137.024a9.42 9.42 0 0 0-.504.113l-.119.032a8.919 8.919 0 0 0-.364.106l-.025.008a9.06 9.06 0 0 0-2.303 1.12.853.853 0 0 0-.333.678v15.418H40.74z"/>
                <g fill="#3F6582">
                    <path d="M40.74 53.035v-3.566a.853.853 0 0 0-.334-.677 9.276 9.276 0 0 0-.473-.298 9.136 9.136 0 0 0-.95-.489l-.156-.066a8.99 8.99 0 0 0-.224-.09c-.048-.02-.097-.038-.145-.056a8.836 8.836 0 0 0-.355-.123l-.025-.008a8.888 8.888 0 0 0-.993-.251l-.112-.02-.032-.006a9.268 9.268 0 0 0-.378-.06l-.05-.006a.826.826 0 0 0-.8.391l-.11.179c2.32.93 4.183 2.798 5.137 5.146zM40.606 64.887h.134v-.012a.836.836 0 0 1-.134.012z"/>
                </g>
                <path fill="#FA9E3E" d="M34.162 47.29V37.27h-9.324v10.02c0 .49.175.963.493 1.33l1.444 1.665a3.59 3.59 0 0 0 5.45 0l1.444-1.666c.318-.367.493-.84.493-1.33z"/>
                <path fill="#FFB56B" d="M29.5 45.756c-6.857 0-12.415-5.675-12.415-12.676V20.26h24.83v12.82c0 7-5.558 12.676-12.415 12.676z"/>
                <path fill="#EF9245" d="M39.331 20.26V34.4c0 6.057-4.645 11.006-10.497 11.338.22.012.443.018.666.018 6.857 0 12.415-5.675 12.415-12.676V20.26h-2.584z"/>
                <g fill="#19303F">
                    <path d="M35.516 33.339a.84.84 0 0 1-.83-.848v-.226a.84.84 0 0 1 .83-.848c.458 0 .83.38.83.848v.226a.84.84 0 0 1-.83.848zM23.484 33.339a.84.84 0 0 1-.83-.848v-.226a.84.84 0 0 1 .83-.848c.459 0 .83.38.83.848v.226a.84.84 0 0 1-.83.848zM29.5 39.616a4.533 4.533 0 0 1-3.747-2.005.86.86 0 0 1 .21-1.18.82.82 0 0 1 1.156.214A2.88 2.88 0 0 0 29.5 37.92c.95 0 1.84-.476 2.38-1.275a.82.82 0 0 1 1.157-.214.86.86 0 0 1 .21 1.18 4.532 4.532 0 0 1-3.747 2.005z"/>
                </g>
                <path fill="#FA8500" d="M29.5 9.988c-9.068 0-16.445 8.627-16.445 19.232 0 5.37 1.94 10.534 5.322 14.167.252.271.647.342.974.174a.853.853 0 0 0 .446-.902c-.713-4.236-.458-10.818 1.67-15.872 1.552 1.44 4.76 3.822 8.813 4.54a.824.824 0 0 0 .833-.364.863.863 0 0 0 .011-.925c-.243-.392-.605-1.405-.808-2.472.391.38.838.763 1.33 1.137.979.744 2.954 2.064 5.192 2.542.192.04.694.34 1.216 1.18 2.021 3.247 1.072 8.624.57 10.785a.855.855 0 0 0 .395.93.816.816 0 0 0 .986-.12c3.775-3.668 5.94-9.063 5.94-14.8 0-10.605-7.377-19.232-16.445-19.232z"/>
                <path fill="#CE6A06" d="M29.5 9.988c-.466 0-.928.024-1.384.069 8.422.824 15.06 9.104 15.06 19.163 0 4.874-1.563 9.5-4.348 13.03-.07.364-.14.688-.204.96a.855.855 0 0 0 .395.93.816.816 0 0 0 .986-.12c3.775-3.668 5.94-9.063 5.94-14.8 0-10.605-7.377-19.232-16.445-19.232z"/>
                <path fill="#5CDBF1" d="M40.342 14.533l-.585-5.118C39.6 8.038 38.457 7 37.1 7H21.9c-1.358 0-2.5 1.038-2.657 2.415l-.585 5.118a.86.86 0 0 0 .204.662c.158.181.384.285.62.285h20.035a.823.823 0 0 0 .62-.285.859.859 0 0 0 .205-.662z"/>
                <path fill="#37B7C4" d="M40.342 14.533l-.585-5.118C39.6 8.038 38.457 7 37.1 7h-3.385c1.358 0 2.5 1.038 2.658 2.415l.584 5.118a.86.86 0 0 1-.204.662.823.823 0 0 1-.62.285h3.384a.823.823 0 0 0 .62-.285.86.86 0 0 0 .205-.662z"/>
                <path fill="#5880A2" d="M42 14.484l-.664-3.844a.836.836 0 0 0-.818-.7H18.482a.836.836 0 0 0-.818.7l-.665 3.844a.86.86 0 0 0 .182.693c.158.192.39.303.636.303h23.366c.245 0 .478-.111.636-.303a.86.86 0 0 0 .182-.693z"/>
                <path fill="#3F6582" d="M42 14.484l-.664-3.844a.836.836 0 0 0-.818-.7h-3.522c.403 0 .748.295.818.7l.664 3.844a.86.86 0 0 1-.181.693.824.824 0 0 1-.636.303h3.522c.245 0 .478-.111.636-.303a.86.86 0 0 0 .182-.693z"/>
                <g fill="#F0EEEE">
                    <path d="M30.877 49.441l-.465 2.157c-.08 2.204 1.573 2.981 2.678 2.69 2.088-.55 2.669 1.336 3.185 2.194a.357.357 0 0 0 .653-.097c1.974-7.277-3.756-8.922-6.051-6.944zM28.123 49.441l.465 2.157c.08 2.204-1.573 2.981-2.678 2.69-2.088-.55-2.669 1.336-3.185 2.194a.357.357 0 0 1-.653-.097c-1.974-7.277 3.756-8.922 6.051-6.944z"/>
                </g>
                <path fill="#D9D4D4" d="M29.5 48.132c-1.006 0-1.82.833-1.82 1.86v2.02c0 1.027.814 1.859 1.82 1.859 1.006 0 1.82-.832 1.82-1.86v-2.02c0-1.026-.814-1.859-1.82-1.859z"/>
                <path fill="#5CDBF1" d="M44.66 14.409a1.392 1.392 0 0 0-1.158-.625H15.498c-.463 0-.896.233-1.157.625a1.454 1.454 0 0 0-.146 1.328l.434 1.128c.483 1.253 1.647 2.063 2.966 2.063h23.81c1.319 0 2.483-.81 2.966-2.063l.434-1.127c.17-.441.116-.938-.146-1.33z"/>
                <path fill="#37B7C4" d="M44.66 14.409a1.392 1.392 0 0 0-1.158-.625h-3.733c.464 0 .897.233 1.158.625.26.391.315.888.145 1.328l-.434 1.128c-.483 1.253-1.647 2.063-2.966 2.063h3.733c1.319 0 2.483-.81 2.966-2.063l.434-1.128c.17-.44.116-.937-.146-1.328z"/>
            </g>
        </g>
    </g>
</svg>
