<svg xmlns="http://www.w3.org/2000/svg" width="26" height="26" viewBox="0 0 26 26">
    <g fill="none" fill-rule="evenodd">
        <rect width="26" height="26" fill="#5774D5" rx="10"/>
        <g stroke="#FFF" stroke-linecap="round" stroke-linejoin="round">
            <path d="M11.599 14.94c1.491 0 2.483-2.03 2.627-2.545.01-.038.234-.154.253-.188.807-1.462-.076-1.629-.076-1.629s.042-.77-.145-1.495c0 0-.473-1.797-2.659-1.797S8.94 9.083 8.94 9.083c-.187.725-.146 1.495-.146 1.495s-.882.167-.075 1.63c.019.033.242.15.253.187.144.514 1.135 2.545 2.627 2.545z"/>
            <path d="M12.968 14.504s.569.576 1.651.926c1.533.495 2.847 1.428 2.961 3.89 0 0-2.481.546-5.981.546s-5.981-.547-5.981-.547c.114-2.461 1.428-3.394 2.96-3.889 1.083-.35 1.652-.926 1.652-.926M14.39 12.954c1.491 0 2.482-2.031 2.627-2.546.01-.037.234-.153.252-.187.808-1.463-.075-1.629-.075-1.629s.042-.77-.146-1.495c0 0-.473-1.797-2.658-1.797-2.186 0-2.659 1.797-2.659 1.797M15.759 12.516s.568.576 1.65.926c1.534.496 2.848 1.428 2.962 3.89 0 0-2.4.323-3.01.323"/>
        </g>
    </g>
</svg>
