<svg xmlns="http://www.w3.org/2000/svg" width="36" height="36" viewBox="0 0 36 36">
    <g fill="none" fill-rule="evenodd">
        <circle cx="18" cy="18" r="18" fill="#1FC39B"/>
        <g stroke="#FFF" stroke-linecap="round" stroke-linejoin="round">
            <path d="M8.941 22.389l-.948 3.793c-.209.834.304 1.34 1.132 1.133l3.794-.949A10.337 10.337 0 0 0 18 27.692c5.735 0 10.385-4.649 10.385-10.384 0-5.736-4.65-10.385-10.385-10.385-5.735 0-10.385 4.65-10.385 10.385 0 1.845.482 3.579 1.326 5.08z"/>
            <path d="M18 12.42l-1.321 2.816-2.955.451 2.138 2.192-.505 3.094L18 19.512l2.643 1.46-.505-3.093 2.138-2.192-2.955-.451z"/>
        </g>
    </g>
</svg>
