<?xml version="1.0" encoding="UTF-8"?>
<svg width="19px" height="20px" viewBox="0 0 19 20" version="1.1" xmlns="http://www.w3.org/2000/svg" xmlns:xlink="http://www.w3.org/1999/xlink">
    <!-- Generator: sketchtool 50.2 (55047) - http://www.bohemiancoding.com/sketch -->
    <title>74647B22-64D2-4DB9-AD47-F4A570C02375-645-000086B8F9F6CBFA</title>
    <desc>Created with sketchtool.</desc>
    <defs></defs>
    <g id="Page-1" stroke="none" stroke-width="1" fill="none" fill-rule="evenodd">
        <g id="01-Dashboard" transform="translate(-320.000000, -1077.000000)">
            <g id="Skill-Cards" transform="translate(150.000000, 850.000000)">
                <g id="Group-Copy">
                    <g transform="translate(40.000000, 183.000000)">
                        <g id="Group-27" transform="translate(15.000000, 18.000000)">
                            <g id="Group-25-Copy" transform="translate(114.000000, 24.000000)">
                                <g id="ic-friends">
                                    <g>
                                        <rect id="Rectangle-4" x="0" y="0" width="24" height="24"></rect>
                                        <g id="user" transform="translate(2.000000, 3.000000)" stroke="#6C80A1" stroke-linecap="round" stroke-linejoin="round">
                                            <path d="M9.84848541,11.1179135 C11.6053182,11.1179135 12.7727855,8.78093373 12.9431664,8.18898809 C12.9758523,8.06107955 13.1593062,8.07232773 13.2741477,7.84801136 C14.0340909,6.36363636 13.1519665,6.0993845 13.1519665,6.0993845 C13.1519665,6.0993845 13.2006741,5.21258268 12.9800433,4.37942855 C12.9800433,4.37942855 12.4229605,2.31162986 9.84848545,2.31162986 C7.27401041,2.31162986 6.71692764,4.37942855 6.71692764,4.37942855 C6.49629682,5.21258268 6.54500445,6.0993845 6.54500445,6.0993845 C6.54500445,6.0993845 5.66287864,6.45833364 6.41098455,7.84090909 C6.52183186,8.04576614 6.68323864,8.01846591 6.75380445,8.18898809 C6.92418532,8.78093373 8.09165259,11.1179135 9.84848541,11.1179135 Z" id="Shape"></path>
                                            <path d="M11.8481073,10.6312414 C11.8481073,10.6312414 12.5502682,11.23967 13.8004858,11.7127392 C15.9628296,12.5309476 16.6691278,14.3940908 16.8070984,16.662119 C16.8385818,17.1796521 16.4167976,17.7272727 15.8983075,17.7272727 L10.0760035,17.7272727 L4.19165482,17.7272727 C3.66411555,17.7272727 3.25314218,17.1656054 3.28406723,16.6389725 C3.42082805,14.3100253 4.12621627,12.5887559 6.29117836,11.7695575 C7.54139641,11.2964882 8.19772459,10.6596505 8.19772459,10.6596505" id="Shape"></path>
                                            <path d="M3.63636364,14.5454545 L0.973479955,14.5454545 C0.476131545,14.5454545 0.0715121364,14.031405 0.0640658636,13.5341124 C0.0387495,11.8433727 0.108440091,10.2883565 2.20026923,9.49683014 C3.45048732,9.02376086 4.54545455,8.29579441 4.54545455,8.29579441 C3.66476841,7.75568182 2.77587282,6.32297605 2.66289518,5.93046536 C2.59232955,5.75994318 2.430923,5.78014114 2.32007568,5.57528409 C1.57196977,4.19270818 2.45409532,3.83020836 2.45409532,3.83020836 C2.45409532,3.83020836 2.40538791,2.941631 2.6260185,2.10847682 C2.6260185,2.10847682 3.18310127,0.0397903182 5.75757632,0.0397903182 C8.33205136,0.0397903182 8.88913414,2.2207815 8.88913414,2.2207815" id="Shape"></path>
                                        </g>
                                    </g>
                                </g>
                            </g>
                        </g>
                    </g>
                </g>
            </g>
        </g>
    </g>
</svg>