<?xml version="1.0" encoding="UTF-8"?>
<svg width="20px" height="20px" viewBox="0 0 20 20" version="1.1" xmlns="http://www.w3.org/2000/svg" xmlns:xlink="http://www.w3.org/1999/xlink">
    <!-- Generator: sketchtool 50.2 (55047) - http://www.bohemiancoding.com/sketch -->
    <title>B74A5C9E-DD8D-4085-9949-1EF909B6B268-645-000086B8F9F40F1E</title>
    <desc>Created with sketchtool.</desc>
    <defs></defs>
    <g id="Page-1" stroke="none" stroke-width="1" fill="none" fill-rule="evenodd">
        <g id="01-Dashboard" transform="translate(-205.000000, -986.000000)">
            <g id="Skill-Cards" transform="translate(150.000000, 850.000000)">
                <g id="Group">
                    <g transform="translate(40.000000, 92.000000)">
                        <g id="Group-27" transform="translate(15.000000, 15.000000)">
                            <g id="Group-25" transform="translate(0.000000, 27.000000)">
                                <g id="ic-rec">
                                    <g>
                                        <rect id="Rectangle-4" x="0" y="0" width="24" height="24"></rect>
                                        <g id="ic-my-recs" transform="translate(0.000000, 3.000000)" stroke="#6C80A1" stroke-linecap="round" stroke-linejoin="round">
                                            <path d="M9.50666667,11.2733333 C11.6773333,11.2733333 13.12,8.38533333 13.3293333,7.65333333 C13.3453333,7.6 13.6706667,7.436 13.6973333,7.38666667 C14.872,5.308 13.588,5.072 13.588,5.072 C13.588,5.072 13.648,3.976 13.3746667,2.94666667 C13.3746667,2.94666667 12.6866667,0.392 9.50666667,0.392 C6.32533333,0.392 5.63733333,2.94666667 5.63733333,2.94666667 C5.364,3.976 5.424,5.072 5.424,5.072 C5.424,5.072 4.14,5.308 5.31466667,7.388 C5.34133333,7.436 5.66666667,7.60133333 5.68266667,7.65466667 C5.89333333,8.38533333 7.336,11.2733333 9.50666667,11.2733333 Z M11.4986667,10.652 C11.4986667,10.652 11.684,11.012 12.4333333,11.4 L11.4986667,10.652 Z M15.3093333,11.32 L16.4546667,13.64 L19.016,14.0133333 L17.1626667,15.82 L17.6,18.3706667 L15.3093333,17.1666667 L13.0186667,18.3706667 L13.456,15.82 L11.6026667,14.0133333 L14.1626667,13.64 L15.3093333,11.32 Z" id="Shape"></path>
                                            <path d="M7.51333333,10.652 C7.51333333,10.652 6.68666667,11.472 5.11066667,11.9693333 C2.88,12.6733333 0.968,13.9986667 0.801333333,17.4973333 C0.801333333,17.4973333 5.72133333,18.404 10.812,18.2613333" id="Path"></path>
                                        </g>
                                    </g>
                                </g>
                            </g>
                        </g>
                    </g>
                </g>
            </g>
        </g>
    </g>
</svg>