<svg xmlns="http://www.w3.org/2000/svg" width="15" height="16" viewBox="0 0 15 16">
    <g fill="none" fill-rule="evenodd" stroke="#3A2D56" stroke-linecap="round" stroke-linejoin="round">
        <path d="M7.13 9.455c1.628 0 2.71-2.166 2.867-2.715.012-.04.256-.163.276-.2.881-1.559-.082-1.736-.082-1.736s.045-.822-.16-1.594c0 0-.516-1.916-2.901-1.916-2.386 0-2.902 1.916-2.902 1.916-.205.772-.16 1.594-.16 1.594s-.963.177-.082 1.737c.02.036.264.16.276.2.158.548 1.24 2.714 2.868 2.714zM8.624 8.989s.139.27.701.561M5.635 8.989s-.62.615-1.802.988C2.16 10.505.726 11.499.601 14.123c0 0 3.69.68 7.508.573M11.482 9.49l.859 1.74 1.921.28-1.39 1.355.328 1.913-1.718-.903-1.718.903.328-1.913-1.39-1.355 1.92-.28z"/>
    </g>
</svg>
