<svg xmlns="http://www.w3.org/2000/svg" width="16" height="17" viewBox="0 0 16 17">
    <g fill="none" fill-rule="evenodd" stroke="#604C8D" stroke-linecap="round" stroke-linejoin="round">
        <path d="M8.167 10.171c1.876 0 3.122-2.488 3.304-3.118.014-.046.294-.188.318-.23 1.015-1.791-.095-1.995-.095-1.995s.052-.944-.183-1.83c0 0-.595-2.202-3.344-2.202-2.749 0-3.344 2.201-3.344 2.201-.236.887-.183 1.831-.183 1.831s-1.11.204-.095 1.996c.023.041.304.183.317.229.182.63 1.429 3.118 3.305 3.118zM6.445 9.636s-.715.707-2.076 1.135c-1.929.607-3.58 1.75-3.725 4.764 0 0 3.123.793 7.523.67M12.248 15.637l-2.257.592.594-2.25 1.544-1.54 1.306-1.303a.673.673 0 0 1 .95 0l.357.355.356.356a.669.669 0 0 1 0 .947l-1.306 1.303-1.544 1.54zM10.733 14.236l1.279 1.22M9.889 9.636s.715.707 2.076 1.135"/>
    </g>
</svg>
