<svg xmlns="http://www.w3.org/2000/svg" xmlns:xlink="http://www.w3.org/1999/xlink" width="93" height="93" viewBox="0 0 93 93">
    <defs>
        <circle id="a" cx="24.5" cy="24.5" r="24.5"/>
        <filter id="b" width="255.1%" height="255.1%" x="-77.6%" y="-63.3%" filterUnits="objectBoundingBox">
            <feOffset dy="7" in="SourceAlpha" result="shadowOffsetOuter1"/>
            <feGaussianBlur in="shadowOffsetOuter1" result="shadowBlurOuter1" stdDeviation="11.5"/>
            <feColorMatrix in="shadowBlurOuter1" values="0 0 0 0 0 0 0 0 0 0 0 0 0 0 0 0 0 0 0.06 0"/>
        </filter>
    </defs>
    <g fill="none" fill-rule="evenodd" transform="translate(22 15)">
        <mask id="c" fill="#fff">
            <use xlink:href="#a"/>
        </mask>
        <use fill="#000" filter="url(#b)" xlink:href="#a"/>
        <use fill="#FFF" xlink:href="#a"/>
        <g mask="url(#c)">
            <g fill-rule="nonzero">
                <path fill="#49B6F2" d="M25.823 5H21.8c-5.86 0-10.627 4.718-10.627 10.518v2.888c0 .233.127.448.332.562.205.114.457.11.658-.012 5.275-3.187 9.905-4.804 13.761-4.804 3.82 0 6.882 1.522 9.362 4.652a.654.654 0 0 0 1.164-.398v-2.888C36.45 9.718 31.682 5 25.823 5z"/>
                <g fill="#2E93CC">
                    <path d="M23.02 14.152c-3.383 0-7.36 1.244-11.847 3.701v.553c0 .233.127.448.332.562.205.114.457.11.658-.012 4.618-2.79 8.742-4.377 12.285-4.729-.464-.05-.94-.075-1.429-.075zM25.823 5h-2.905c5.86 0 10.627 4.718 10.627 10.518v1.438c.61.537 1.19 1.153 1.741 1.848a.654.654 0 0 0 1.164-.398v-2.888C36.45 9.718 31.682 5 25.823 5z"/>
                </g>
                <path fill="#484655" d="M35.798 20.18v6.243h-2.386c.087-.52.133-1.054.133-1.599v-3.151c-7.829-.42-12.403-2.385-15-5.056-.07 2.664-1.95 4.882-4.468 5.493v2.714c0 .545.046 1.08.134 1.6h-2.387v-7.911c2.836-1.61 7.097-2.634 11.864-2.634 4.906 0 9.278 1.084 12.11 2.776v1.527-.001z"/>
                <path fill="#49B6F2" d="M28.407 35.589h-9.191c-3.967 0-7.195 3.194-7.195 7.12v5.646c0 .357.292.645.651.645H34.95c.36 0 .651-.288.651-.645V42.71c0-3.927-3.227-7.121-7.194-7.121z"/>
                <path fill="#2E93CC" d="M28.407 35.589h-2.403c3.967 0 7.195 3.194 7.195 7.12v5.646a.648.648 0 0 1-.651.645h2.402c.36 0 .651-.288.651-.645V42.71c0-3.927-3.227-7.121-7.194-7.121z"/>
                <g fill="#FA9E3E">
                    <path d="M27.467 28.008v8.615c0 1.998-1.637 3.618-3.656 3.618s-3.655-1.62-3.655-3.618v-8.615h7.31zM12.51 23.991h4.286v4.865H12.51c-1.358 0-2.458-1.089-2.458-2.432 0-1.344 1.1-2.433 2.458-2.433zM35.113 23.991h-4.287v4.865h4.287c1.357 0 2.457-1.089 2.457-2.432 0-1.344-1.1-2.433-2.457-2.433z"/>
                </g>
                <path fill="#FFB56B" d="M33.545 21.673v3.151c0 .545-.046 1.08-.133 1.6-.77 4.56-4.775 8.035-9.6 8.035-4.827 0-8.832-3.476-9.601-8.036a9.612 9.612 0 0 1-.134-1.599V22.11c2.518-.61 4.398-2.829 4.468-5.493 2.597 2.671 7.171 4.636 15 5.056z"/>
                <path fill="#EF9245" d="M31.52 25.826c0 4.604-3.641 8.365-8.229 8.618l.016.001c.069.004.137.006.205.008l.048.002c.083.002.167.003.251.003 4.826 0 8.831-3.475 9.6-8.035.088-.52.134-1.054.134-1.599v-3.151a49.162 49.162 0 0 1-2.025-.15v4.303z"/>
                <g fill="#19303F">
                    <path d="M23.811 29.792c-1.172 0-2.27-.57-2.937-1.525a.64.64 0 0 1 .164-.897.655.655 0 0 1 .906.163c.425.607 1.123.97 1.867.97s1.442-.363 1.867-.97a.655.655 0 0 1 .906-.163.64.64 0 0 1 .165.897 3.585 3.585 0 0 1-2.938 1.525zM28.528 25.02a.648.648 0 0 1-.651-.644v-.172c0-.356.291-.645.65-.645.36 0 .652.289.652.645v.172a.648.648 0 0 1-.651.644zM19.094 25.02a.648.648 0 0 1-.65-.644v-.172c0-.356.29-.645.65-.645.36 0 .652.289.652.645v.172a.648.648 0 0 1-.652.644z"/>
                </g>
                <path fill="#F0EEEE" d="M38.854 14.554c-.88-3.529-7.748-4.886-15.34-3.032-1.638.4-3.176.917-4.572 1.517-3.453 1.485-6.036 3.479-7.118 5.474 2.836-1.61 7.097-2.635 11.864-2.635 4.906 0 9.278 1.086 12.11 2.778v1.525c2.302-1.796 3.507-3.821 3.056-5.627z"/>
                <path fill="#D9D4D4" d="M38.854 14.554c-.802-3.22-6.59-4.63-13.363-3.446 5.779-.547 10.427.886 11.14 3.747.293 1.171-.112 2.435-1.06 3.668l.227.133v1.525c2.302-1.796 3.507-3.821 3.056-5.627z"/>
                <path fill="#FA8500" d="M29.324 42.712H18.299c-1.78 0-3.228 1.433-3.228 3.195V49H32.55v-3.092c0-1.763-1.447-3.196-3.227-3.196z"/>
                <g fill="#19303F">
                    <path d="M29.6 45.319a.648.648 0 0 1-.652-.644V35.65c0-.356.292-.644.652-.644.36 0 .65.288.65.644v9.024a.648.648 0 0 1-.65.644zM18.023 45.319a.648.648 0 0 1-.651-.644V35.65c0-.356.291-.644.65-.644.36 0 .652.288.652.644v9.024a.648.648 0 0 1-.651.644z"/>
                </g>
                <path fill="#F0EEEE" d="M22.306 44.992l.842.719-.89 3.289h2.654l.712-2.632 1.093-.206a1.82 1.82 0 0 0 1.491-1.844l-.092-2.775a.78.78 0 0 0-.583-.727l-.37-.098a.363.363 0 0 0-.451.284l-.405 2.26a1.133 1.133 0 0 1-1.409.887 1.12 1.12 0 0 1-.772-1.466l.791-2.157a.358.358 0 0 0-.247-.47l-.37-.097a.79.79 0 0 0-.872.34l-1.482 2.358c-.477.76-.324 1.75.36 2.335z"/>
            </g>
        </g>
    </g>
</svg>
