<svg xmlns="http://www.w3.org/2000/svg" xmlns:xlink="http://www.w3.org/1999/xlink" width="125" height="125" viewBox="0 0 125 125">
    <defs>
        <circle id="a" cx="40.5" cy="40.5" r="40.5"/>
        <filter id="b" width="193.8%" height="193.8%" x="-46.9%" y="-38.3%" filterUnits="objectBoundingBox">
            <feOffset dy="7" in="SourceAlpha" result="shadowOffsetOuter1"/>
            <feGaussianBlur in="shadowOffsetOuter1" result="shadowBlurOuter1" stdDeviation="11.5"/>
            <feColorMatrix in="shadowBlurOuter1" values="0 0 0 0 0 0 0 0 0 0 0 0 0 0 0 0 0 0 0.06 0"/>
        </filter>
    </defs>
    <g fill="none" fill-rule="evenodd" transform="translate(22 15)">
        <mask id="c" fill="#fff">
            <use xlink:href="#a"/>
        </mask>
        <use fill="#000" filter="url(#b)" xlink:href="#a"/>
        <use fill="#FFF" xlink:href="#a"/>
        <g mask="url(#c)">
            <g fill-rule="nonzero" transform="translate(14 13)">
                <path fill="#49B6F2" d="M35.373 50.75H20.21c-6.544 0-11.87 5.3-11.87 11.814v9.367c0 .59.482 1.069 1.075 1.069h36.753c.594 0 1.075-.479 1.075-1.07v-9.366c0-6.514-5.325-11.814-11.87-11.814z"/>
                <path fill="#2E93CC" d="M35.373 50.75h-3.82c6.545 0 11.87 5.3 11.87 11.814v9.367c0 .59-.481 1.069-1.075 1.069h3.82c.594 0 1.075-.479 1.075-1.07v-9.366c0-6.514-5.325-11.814-11.87-11.814z"/>
                <path fill="#FA9E3E" d="M33.822 37.103h-12.06c-.594 0-1.075.479-1.075 1.07v13.594c0 .38.203.732.532.923l6.03 3.506a1.077 1.077 0 0 0 1.085 0l6.03-3.506c.33-.191.533-.543.533-.923V38.172c0-.59-.481-1.069-1.075-1.069z"/>
                <path fill="#D9D4D4" d="M38.183 51.241l-2.09-1.972a1.078 1.078 0 0 0-1.364-.094l-6.937 4.94-6.937-4.94a1.078 1.078 0 0 0-1.365.094l-2.089 1.972c-.33.312-.427.796-.243 1.21l4.02 9.018a1.074 1.074 0 0 0 .982.636c.282 0 .557-.11.76-.313l4.872-4.85 4.871 4.85a1.078 1.078 0 0 0 1.742-.323l4.02-9.018a1.066 1.066 0 0 0-.242-1.21z"/>
                <g fill="#3D5868">
                    <path d="M39.17 59.123c-.214 0-.43-.063-.616-.195a1.061 1.061 0 0 1-.206-1.556 5.844 5.844 0 0 0 1.296-4.58 5.859 5.859 0 0 0-2.506-4.053l-5.827-4.017a1.066 1.066 0 0 1-.271-1.488 1.077 1.077 0 0 1 1.495-.27l5.827 4.017a8.08 8.08 0 0 1 3.41 5.515 8.06 8.06 0 0 1-1.758 6.226 1.085 1.085 0 0 1-.844.401zM16.407 59.127c-.324 0-.642-.146-.852-.422a8.06 8.06 0 0 1-1.743-6.21 8.081 8.081 0 0 1 3.41-5.514l5.827-4.017a1.078 1.078 0 0 1 1.495.27 1.066 1.066 0 0 1-.271 1.488l-5.828 4.017a5.858 5.858 0 0 0-2.505 4.052 5.844 5.844 0 0 0 1.296 4.58c.015.02.03.038.043.057a1.071 1.071 0 0 1-.872 1.699z"/>
                </g>
                <path fill="#696970" d="M7.165 17.965h41.254v18.393H7.165z"/>
                <g fill="#FA9E3E">
                    <path d="M9.147 31.936h7.072v8.071H9.147c-2.239 0-4.054-1.806-4.054-4.035 0-2.23 1.815-4.036 4.054-4.036zM46.436 31.936h-7.071v8.071h7.071c2.24 0 4.055-1.806 4.055-4.035 0-2.23-1.815-4.036-4.055-4.036z"/>
                </g>
                <path fill="#FFB56B" d="M27.792 48.874c-8.87 0-16.06-7.156-16.06-15.985V16.722h32.12v16.167c0 8.829-7.19 15.985-16.06 15.985z"/>
                <path fill="#EF9245" d="M40.509 16.722v17.83c0 7.64-6.009 13.881-13.579 14.3.286.014.573.022.862.022 8.87 0 16.06-7.156 16.06-15.985V16.722h-3.343z"/>
                <g fill="#19303F">
                    <path d="M35.573 33.215a1.072 1.072 0 0 1-1.074-1.07v-.284c0-.59.48-1.07 1.074-1.07.594 0 1.075.48 1.075 1.07v.285c0 .59-.481 1.07-1.075 1.07zM20.01 33.215a1.072 1.072 0 0 1-1.074-1.07v-.284c0-.59.481-1.07 1.074-1.07.594 0 1.075.48 1.075 1.07v.285c0 .59-.481 1.07-1.075 1.07zM27.792 41.131a5.905 5.905 0 0 1-4.847-2.529 1.066 1.066 0 0 1 .272-1.488 1.077 1.077 0 0 1 1.495.27 3.753 3.753 0 0 0 6.16 0 1.077 1.077 0 0 1 1.494-.27c.488.336.61 1.003.272 1.488a5.905 5.905 0 0 1-4.846 2.53z"/>
                </g>
                <path fill="#484655" d="M44.256 6.469H26.93c-9.723 0-16.12-.973-24.102-6.288a1.079 1.079 0 0 0-1.573.441c-1.273 2.752-.67 5.905.06 8.066a19.128 19.128 0 0 0 2.009 4.164c-1.034-.232-1.832-.506-1.845-.51a1.078 1.078 0 0 0-1.417.846c-.019.126-.449 3.117 1.971 5.925 2.7 3.133 7.72 4.721 14.92 4.721h27.303c4.81 0 8.723-3.895 8.723-8.683 0-4.787-3.913-8.682-8.723-8.682z"/>
                <path fill="#35343F" d="M44.256 6.469H40.51c4.81 0 8.723 3.895 8.723 8.682 0 4.788-3.913 8.683-8.723 8.683h3.746c4.81 0 8.723-3.895 8.723-8.683 0-4.787-3.913-8.682-8.723-8.682z"/>
                <path fill="#484655" d="M36.85 55.754h-3.618l-.205-1.075A2.368 2.368 0 0 0 30.7 52.76h-5.816a2.368 2.368 0 0 0-2.327 1.918l-.205 1.075h-3.618c-2.13 0-3.863 1.725-3.863 3.846v9.554c0 2.12 1.733 3.846 3.863 3.846h18.115c2.13 0 3.864-1.725 3.864-3.846V59.6c0-2.12-1.733-3.846-3.863-3.846z"/>
                <path fill="#35343F" d="M36.85 55.754h-3.535v.008c2.02.123 3.626 1.797 3.626 3.838v9.554c0 2.12-1.733 3.846-3.863 3.846h3.772c2.13 0 3.863-1.725 3.863-3.846V59.6c0-2.12-1.733-3.846-3.863-3.846z"/>
                <path fill="#FFB700" d="M36.85 55.754h-3.618l-.205-1.075A2.368 2.368 0 0 0 30.7 52.76h-5.816a2.368 2.368 0 0 0-2.327 1.918l-.205 1.075h-3.618c-2.13 0-3.863 1.725-3.863 3.846v3.228h25.842V59.6c0-2.12-1.733-3.846-3.863-3.846z"/>
                <path fill="#D69400" d="M36.85 55.754h-3.535v.008c2.02.123 3.626 1.797 3.626 3.838v3.228h3.772V59.6c0-2.12-1.733-3.846-3.863-3.846z"/>
                <ellipse cx="27.792" cy="64.377" fill="#5CDBF1" rx="4.304" ry="4.284"/>
                <path fill="#3D5868" d="M27.792 69.731c-2.967 0-5.38-2.402-5.38-5.354s2.414-5.354 5.38-5.354c2.966 0 5.38 2.402 5.38 5.354s-2.414 5.354-5.38 5.354zm0-8.57a3.227 3.227 0 0 0-3.23 3.216 3.227 3.227 0 0 0 3.23 3.216 3.227 3.227 0 0 0 3.23-3.216 3.227 3.227 0 0 0-3.23-3.216z"/>
            </g>
        </g>
    </g>
</svg>
