<svg width="32" height="32" viewBox="0 0 32 32" fill="none" xmlns="http://www.w3.org/2000/svg">
<circle cx="16" cy="16" r="16" fill="#1FC39B"/>
<path fill-rule="evenodd" clip-rule="evenodd" d="M22 9C22.5417 9 23.0104 9.19786 23.4062 9.5936C23.8021 9.98933 24 10.458 24 10.9995V19.9971C24 20.5387 23.8021 21.0073 23.4062 21.403C23.0104 21.7988 22.5417 21.9966 22 21.9966H17.5L13.5938 24.9334C13.4687 25.0167 13.3385 25.0219 13.2031 24.949C13.0677 24.8761 13 24.7667 13 24.6209V21.9966H10C9.45833 21.9966 8.98959 21.7988 8.59375 21.403C8.19791 21.0073 8 20.5387 8 19.9971V10.9995C8 10.458 8.19791 9.98933 8.59375 9.5936C8.98959 9.19786 9.45833 9 10 9H22Z" fill="white" stroke="#1AB169"/>
<path fill-rule="evenodd" clip-rule="evenodd" d="M18.2862 12.2915L18.9095 11.676C20.431 13.1782 20.4471 15.4458 18.9557 16.9146L18.3216 16.3102C19.3795 15.1109 19.3646 13.4121 18.2862 12.2915ZM16.2067 14.3187C16.2139 15.1457 15.5294 15.8215 14.677 15.829C13.8246 15.8365 13.1282 15.1728 13.1209 14.3459C13.1137 13.5189 13.7982 12.8431 14.6506 12.8356C15.5031 12.8281 16.1994 13.4918 16.2067 14.3187ZM11.6117 18.1012C11.6029 17.1058 13.6543 16.5864 14.6842 16.5773C15.7141 16.5682 17.7744 17.0516 17.7831 18.0469L17.7897 18.7953L11.6182 18.8495L11.6117 18.1012ZM17.0031 13.5818C17.331 14.0204 17.3361 14.5929 17.0159 15.0373L17.6695 15.664C18.442 14.9013 18.432 13.76 17.6456 12.9437L17.0031 13.5818Z" fill="#1FC39B"/>
</svg>
