<svg xmlns="http://www.w3.org/2000/svg" xmlns:xlink="http://www.w3.org/1999/xlink" width="118" height="118" viewBox="0 0 118 118">
    <defs>
        <circle id="a" cx="37" cy="37" r="37"/>
        <filter id="b" width="202.7%" height="202.7%" x="-51.4%" y="-41.9%" filterUnits="objectBoundingBox">
            <feOffset dy="7" in="SourceAlpha" result="shadowOffsetOuter1"/>
            <feGaussianBlur in="shadowOffsetOuter1" result="shadowBlurOuter1" stdDeviation="11.5"/>
            <feColorMatrix in="shadowBlurOuter1" values="0 0 0 0 0 0 0 0 0 0 0 0 0 0 0 0 0 0 0.06 0"/>
        </filter>
    </defs>
    <g fill="none" fill-rule="evenodd" transform="translate(22 15)">
        <mask id="c" fill="#fff">
            <use xlink:href="#a"/>
        </mask>
        <use fill="#000" filter="url(#b)" xlink:href="#a"/>
        <use fill="#FFF" xlink:href="#a"/>
        <g mask="url(#c)">
            <g fill-rule="nonzero">
                <path fill="#35343F" d="M61.862 17.913l-23.331-7.666a4.871 4.871 0 0 0-3.062 0l-23.332 7.666a1.61 1.61 0 0 0-1.104 1.535 1.61 1.61 0 0 0 1.104 1.536L35.47 28.65c.5.164 1.016.247 1.53.247.516 0 1.031-.083 1.532-.247l23.332-7.666a1.61 1.61 0 0 0 1.104-1.536 1.61 1.61 0 0 0-1.105-1.535z"/>
                <path fill="#FA8500" d="M54.09 56.294c.159.773.243 1.567.243 2.378 0 7.849-7.76 10.203-17.333 10.203-9.573 0-17.333-2.355-17.333-10.203 0-.811.084-1.605.243-2.378 2.218-11.628 2.218-12.035 0-23.663a11.834 11.834 0 0 1 .327-6.005h33.526a11.837 11.837 0 0 1 .327 6.005c-2.218 11.628-2.218 12.035 0 23.663z"/>
                <path fill="#CE6A06" d="M54.09 32.631a11.836 11.836 0 0 0-.327-6.005h-2.847a11.837 11.837 0 0 1 .327 6.005c-2.219 11.628-2.219 12.035 0 23.663.158.773.242 1.567.242 2.378 0 7.455-7.002 9.953-15.909 10.184.47.013.944.019 1.424.019 9.573 0 17.333-2.355 17.333-10.203 0-.811-.084-1.605-.243-2.378-2.218-11.628-2.218-12.035 0-23.663z"/>
                <g fill="#FA9E3E">
                    <path d="M20.878 38.09l6.113-.01.012 7.075-6.113.011c-1.935.003-3.507-1.578-3.51-3.532-.003-1.954 1.563-3.54 3.498-3.544zM53.108 38.034l-6.112.01.012 7.077 6.112-.01c1.935-.004 3.501-1.591 3.498-3.545-.003-1.954-1.575-3.535-3.51-3.532z"/>
                </g>
                <path fill="#484655" d="M43.553 54.493H30.447c-5.657 0-10.259 4.647-10.259 10.358v8.212c0 .517.416.937.929.937h31.766c.513 0 .928-.42.928-.938v-8.211c0-5.711-4.602-10.358-10.258-10.358z"/>
                <path fill="#35343F" d="M43.553 54.493h-3.178c5.657 0 10.259 4.647 10.259 10.358v8.212a.933.933 0 0 1-.929.937h3.178c.513 0 .928-.42.928-.938v-8.211c0-5.711-4.602-10.358-10.258-10.358z"/>
                <path fill="#F0EEEE" d="M47.6 55.719a.934.934 0 0 0-.577-.616 10.144 10.144 0 0 0-3.47-.61H30.446c-1.189 0-2.357.206-3.47.61a.944.944 0 0 0-.425 1.45l9.709 12.89a.925.925 0 0 0 1.478 0l9.71-12.89a.945.945 0 0 0 .15-.834z"/>
                <path fill="#FA9E3E" d="M42.212 55.617v-12.15H31.788v12.15c0 2.495 2.003 4.518 4.475 4.518h1.474c2.471 0 4.475-2.023 4.475-4.518z"/>
                <path fill="#FFB56B" d="M40.78 33.343c-3.742-1.055-6.954-2.613-9.098-4.265h-2.618c.01.14.016.28.016.423 0 3.263-2.62 5.906-5.85 5.906l-.11-.002v3.43c0 7.74 6.214 14.014 13.88 14.014s13.88-6.275 13.88-14.013v-4.394c-2.695.318-6.297-.026-10.1-1.098z"/>
                <path fill="#EF9245" d="M47.991 34.539v5.755c0 6.697-5.193 12.169-11.736 12.535a14.395 14.395 0 0 0 .745.02c7.666 0 13.88-6.274 13.88-14.013v-4.394c-.875.103-1.847.135-2.889.097z"/>
                <g fill="#19303F">
                    <path d="M43.725 39.121a.933.933 0 0 1-.928-.937v-.25c0-.518.416-.938.928-.938.513 0 .929.42.929.938v.25a.933.933 0 0 1-.929.937zM30.274 39.121a.933.933 0 0 1-.928-.937v-.25c0-.518.415-.938.928-.938.513 0 .929.42.929.938v.25a.933.933 0 0 1-.929.937zM37 46.061a5.083 5.083 0 0 1-4.189-2.217.943.943 0 0 1 .235-1.304.923.923 0 0 1 1.292.237A3.23 3.23 0 0 0 37 44.187a3.23 3.23 0 0 0 2.662-1.41.923.923 0 0 1 1.292-.237.943.943 0 0 1 .234 1.304A5.082 5.082 0 0 1 37 46.06z"/>
                </g>
                <path fill="#484655" d="M55.621 19.016c-12.008-3.883-25.234-3.883-37.243 0a.937.937 0 0 0-.645.893v12.034c0 .3.142.581.381.758.24.176.548.227.83.135 11.644-3.764 24.468-3.764 36.111 0a.919.919 0 0 0 .83-.135.94.94 0 0 0 .382-.758V19.91a.936.936 0 0 0-.646-.893z"/>
                <path fill="#19303F" d="M59.01 39.688a.933.933 0 0 1-.928-.937V17.086c0-.517.415-.937.928-.937.513 0 .929.42.929.937v21.665a.933.933 0 0 1-.929.937z"/>
            </g>
        </g>
    </g>
</svg>
