<svg xmlns="http://www.w3.org/2000/svg" width="720" height="154" viewBox="0 0 720 154">
    <g fill="#FFF" fill-rule="evenodd" opacity=".075" style="mix-blend-mode:soft-light">
        <path d="M-98.3-200.34h1245.404v150.248c-130.629 52.718-264.579 80.395-401.85 83.031-205.907 3.954-275.65 51.4-498.162 51.4C98.751 84.34-16.38 59.3-98.3 9.216V-200.34z"/>
        <path d="M-98.3-315.903h1245.404V-15.27C1067.398 55.932 958.91 92.851 821.64 95.49 615.732 99.444 489.53 8.463 267.019 8.463 118.677 8.463-3.095 22.968-98.3 51.976v-367.879z"/>
        <path d="M-78.645-378.176l1377.143 193.544-43.559 309.941c-98.454 61.02-223.768 82.223-375.942 63.61C650.737 160.996 524.37 47.586 278.32 13.006 114.286-10.047-22.47-14.018-131.948 1.093l53.303-379.27z"/>
    </g>
</svg>
