<svg xmlns="http://www.w3.org/2000/svg" xmlns:xlink="http://www.w3.org/1999/xlink" width="99" height="99" viewBox="0 0 99 99">
    <defs>
        <circle id="a" cx="27.5" cy="27.5" r="27.5"/>
        <filter id="b" width="238.2%" height="238.2%" x="-69.1%" y="-56.4%" filterUnits="objectBoundingBox">
            <feOffset dy="7" in="SourceAlpha" result="shadowOffsetOuter1"/>
            <feGaussianBlur in="shadowOffsetOuter1" result="shadowBlurOuter1" stdDeviation="11.5"/>
            <feColorMatrix in="shadowBlurOuter1" values="0 0 0 0 0 0 0 0 0 0 0 0 0 0 0 0 0 0 0.06 0"/>
        </filter>
    </defs>
    <g fill="none" fill-rule="evenodd" transform="translate(22 15)">
        <mask id="c" fill="#fff">
            <use xlink:href="#a"/>
        </mask>
        <use fill="#000" filter="url(#b)" xlink:href="#a"/>
        <use fill="#FFF" xlink:href="#a"/>
        <g mask="url(#c)">
            <g fill-rule="nonzero">
                <path fill="#2E93CC" d="M32.253 41.724l-2.14.004c3.935-.007 7.129 3.21 7.136 7.185l.01 6.275 2.14-.003-.011-6.275c-.007-3.976-3.201-7.193-7.135-7.186z"/>
                <path fill="#49B6F2" d="M40.097 48.87c-.008-4.36-3.52-7.901-7.832-7.901h-.013l-10.005.017a7.739 7.739 0 0 0-5.533 2.328 7.906 7.906 0 0 0-2.285 5.6l.01 6.276c.002.395.319.715.71.715h.001l24.25-.042a.706.706 0 0 0 .5-.211.72.72 0 0 0 .207-.507l-.01-6.275z"/>
                <path fill="#FA9E3E" d="M31.23 41.903l-.016-9.29-7.958.014.016 9.29c.004 2.22 1.788 4.018 3.986 4.014 2.197-.004 3.976-1.808 3.972-4.028z"/>
                <path fill="#696970" d="M40.964 17.32l.024 13.988-27.51.046-.023-13.988z"/>
                <g fill="#FA9E3E">
                    <path d="M14.926 28.464l4.666-.008.01 5.407-4.667.008c-1.477.003-2.677-1.206-2.68-2.699-.002-1.493 1.194-2.705 2.671-2.708zM39.53 28.421l-4.666.008.009 5.408 4.666-.008c1.477-.003 2.673-1.216 2.67-2.709-.002-1.493-1.202-2.701-2.68-2.699z"/>
                </g>
                <path fill="#FFB56B" d="M27.247 39.79c-5.852.01-10.604-4.776-10.614-10.69l-.019-10.831 21.193-.037.018 10.83c.01 5.915-4.726 10.718-10.578 10.728z"/>
                <path fill="#EF9245" d="M35.601 18.236l.02 11.945c.01 5.118-3.948 9.306-8.942 9.595.188.01.378.014.568.014 5.852-.01 10.588-4.813 10.578-10.727l-.018-10.831-2.206.004z"/>
                <g fill="#C1F3F7">
                    <path d="M34.3 30.195l-3.87.007a1.49 1.49 0 0 1-1.483-1.495l-.003-1.59a1.49 1.49 0 0 1 1.48-1.5l3.868-.007a1.49 1.49 0 0 1 1.484 1.495l.002 1.59a1.49 1.49 0 0 1-1.479 1.5zM24.03 30.213l-3.868.006a1.49 1.49 0 0 1-1.484-1.494l-.002-1.59a1.49 1.49 0 0 1 1.479-1.5l3.868-.007a1.49 1.49 0 0 1 1.484 1.494l.003 1.59a1.49 1.49 0 0 1-1.48 1.5z"/>
                </g>
                <g fill="#19303F">
                    <path d="M32.361 28.718a.713.713 0 0 1-.708-.715v-.191a.713.713 0 0 1 .708-.718c.391 0 .708.32.709.715V28a.713.713 0 0 1-.707.718h-.002zM22.093 28.735a.713.713 0 0 1-.709-.715v-.19c0-.396.316-.718.707-.718h.002c.39 0 .708.32.708.715v.19a.713.713 0 0 1-.707.718h-.001zM27.232 34.603a3.879 3.879 0 0 1-3.194-1.689.721.721 0 0 1 .177-.997.704.704 0 0 1 .987.18 2.466 2.466 0 0 0 2.03 1.073h.004a2.465 2.465 0 0 0 2.03-1.08.704.704 0 0 1 .986-.183c.322.224.403.67.181.996a3.88 3.88 0 0 1-3.195 1.7h-.006z"/>
                </g>
                <path fill="#484655" d="M36.484 27.103c-.002-1.219-.984-2.21-2.19-2.21h-.003l-3.87.007a2.165 2.165 0 0 0-1.547.651 2.21 2.21 0 0 0-.639 1.567l.001.309c-.688.399-1.33.4-2.02.003v-.309c-.002-1.22-.984-2.21-2.19-2.21h-.004l-3.869.007c-1.207.002-2.188.997-2.186 2.217l.002 1.59c.002.592.23 1.147.645 1.565.413.416.962.645 1.545.645h.004l3.87-.006a2.201 2.201 0 0 0 2.168-1.942c.34.115.681.173 1.023.173.345 0 .69-.06 1.032-.176a2.201 2.201 0 0 0 2.172 1.934h.004l3.869-.007a2.165 2.165 0 0 0 1.547-.65c.413-.42.64-.976.64-1.567l-.004-1.59zM24.03 29.496l-3.869.007h-.001a.78.78 0 0 1-.772-.78l-.003-1.59c-.001-.43.345-.781.77-.782l3.87-.007c.426 0 .773.35.773.78l.003 1.59c0 .43-.345.781-.771.782zm10.814-.247a.764.764 0 0 1-.546.23l-3.868.006h-.002a.778.778 0 0 1-.772-.78l-.003-1.59a.78.78 0 0 1 .771-.782l3.869-.007h.001c.426 0 .772.35.773.78l.002 1.59a.78.78 0 0 1-.225.553z"/>
                <path fill="#F0EEEE" d="M42.943 45.775c-.002-1.303-1.051-2.36-2.34-2.36H40.6l-13.12.022a2.313 2.313 0 0 0-1.653.696 2.362 2.362 0 0 0-.682 1.673l.016 9.384c0 .19.075.372.208.506a.705.705 0 0 0 .5.209h.002l16.382-.029a.705.705 0 0 0 .5-.21.72.72 0 0 0 .207-.507l-.016-9.384z"/>
                <path fill="#D9D4D4" d="M42.943 45.775c-.002-1.303-1.051-2.36-2.34-2.36H40.6l-2.18.003a2.357 2.357 0 0 1 2.212 2.357l.016 9.384a.72.72 0 0 1-.207.507.705.705 0 0 1-.501.21l-14.143.025a.705.705 0 0 0 .072.004h.001l16.383-.029a.705.705 0 0 0 .5-.21.72.72 0 0 0 .207-.507l-.016-9.384z"/>
                <g fill="#484655">
                    <path d="M36.167 51.472a.704.704 0 0 1-.546-.26.722.722 0 0 1 .092-1.008l.656-.55-.657-.548a.722.722 0 0 1-.096-1.008.704.704 0 0 1 .998-.097l1.318 1.098a.72.72 0 0 1 .001 1.104l-1.314 1.103a.702.702 0 0 1-.452.166zM31.937 51.479a.701.701 0 0 1-.45-.164l-1.318-1.098a.72.72 0 0 1-.002-1.104l1.314-1.103a.704.704 0 0 1 .998.093.722.722 0 0 1-.092 1.009l-.656.55.658.548a.722.722 0 0 1 .095 1.008.705.705 0 0 1-.547.26zM33.283 52.515a.718.718 0 0 1-.666-.96l1.533-4.281a.707.707 0 0 1 .908-.43.718.718 0 0 1 .425.917l-1.533 4.281a.71.71 0 0 1-.667.473zM42.888 13.508c-.005-3.137-2.213-5.867-5.249-6.493a.708.708 0 0 0-.822.5c-.566 1.952-2.368 3.317-4.382 3.32l-12.384.022a1.86 1.86 0 0 0-1.757 1.287h-.566a5.63 5.63 0 0 0-4.025 1.694 5.752 5.752 0 0 0-1.662 4.074l.007 4.447c.001.395.318.715.71.715l2.744-.005c2.29-.004 4.393-1.277 5.501-3.252a6.92 6.92 0 0 0 4.224 1.426h.012l10.853-.02c3.755-.006 6.804-3.098 6.798-6.893l-.002-.822z"/>
                </g>
                <path fill="#35343F" d="M42.888 13.508c-.005-3.137-2.213-5.867-5.249-6.493a.708.708 0 0 0-.822.5l-.025.08c1.959 1.109 3.27 3.378 3.274 5.913v.822c.007 3.795-2.764 6.887-6.175 6.894l-8.767.017.103.002h.012l10.853-.02c3.755-.006 6.804-3.098 6.798-6.893l-.002-.822z"/>
            </g>
        </g>
    </g>
</svg>
