<svg xmlns="http://www.w3.org/2000/svg" width="38" height="32" viewBox="0 0 38 32">
    <g fill="none" fill-rule="evenodd">
        <path fill="#1FC39B" d="M36.033 20.416c.613.174.252 1.286-.104 2.143-.394.95-.893 1.842-1.591 2.815.964-.956 1.919-1.983 2.522-3.112.599-1.113 1.107-2.722.218-2.834-.441-.055-1.116.7-1.61 1.013-.731.46-1.477.576-2.1.642-.864.09-1.8-.09-2.916.717 1.097-.341 1.91-.058 2.988-.383.808-.242 1.971-1.176 2.593-1.001" opacity=".3"/>
        <path fill="#21AC89" d="M29.507 22.694c.826-.305 1.548-.313 2.242-.357.708-.044 1.696-.405 2.128-.085.432.314.423 1.038.133 1.913-.352 1.061-.997 2.016-1.89 3.1.446-.344.878-.692 1.315-1.065.295-.252.603-.54.903-.826.698-.973 1.197-1.864 1.591-2.815.356-.857.717-1.97.104-2.143-.622-.175-1.785.759-2.593 1.001-1.078.325-1.89.042-2.988.383a4.79 4.79 0 0 0-.385.316c-.204.183-.389.374-.56.578"/>
        <path fill="#604C8D" d="M28.443 27.369c.005.802.062 1.517.85 1.453.727-.058 1.91-.867 2.827-1.557.893-1.084 1.538-2.039 1.89-3.1.29-.875.3-1.599-.133-1.913-.432-.32-1.42.041-2.128.085-.694.044-1.415.052-2.242.357-1.401 1.748-1.074 3.464-1.064 4.675"/>
        <path fill="#1FC39B" d="M1.914 20.976c-.703.32-.403 1.48-.08 2.376.356.98.83 1.873 1.524 2.82-.997-.873-1.966-1.826-2.546-2.96-.584-1.147-.955-2.785.014-3.13.47-.167 1.207.561 1.725.807.793.381 1.615.35 2.303.305.917-.06 2.057-.482 3.212.242-1.217-.201-2.162.292-3.326.148-.869-.108-2.123-.927-2.826-.608" opacity=".3"/>
        <path fill="#21AC89" d="M9.034 22.256c-.902-.136-1.686-.059-2.484.03-.793.087-1.781-.094-2.384.317-1.373.936.004 3.567 1.5 5.237-.47-.296-.92-.597-1.372-.927-.309-.222-.627-.481-.936-.74a11.026 11.026 0 0 1-1.525-2.82c-.323-.897-.622-2.057.081-2.377.703-.32 1.957.5 2.827.608 1.163.144 2.109-.35 3.325-.148a4.255 4.255 0 0 1 .969.82"/>
        <path fill="#604C8D" d="M9.775 27.25c-.09.888-.213 1.696-1.101 1.776-.798.072-2.048-.598-3.007-1.186-1.497-1.67-2.874-4.3-1.501-5.237.603-.411 1.591-.23 2.384-.318.798-.088 1.582-.165 2.484-.03 1.42 1.706.87 3.648.741 4.995"/>
        <path fill="#23B691" d="M33.725 18.303c0 7.522-6.678 13.62-14.915 13.62-8.241 0-14.92-6.098-14.92-13.62 0-7.521 6.679-13.619 14.92-13.619 8.237 0 14.915 6.098 14.915 13.62"/>
        <path fill="#1FC39B" d="M22.354.072c.09.509-.086 1.792-1.33 3.189-.547.615-.5.49-.708.8-.21.31-.47.588-.784.828-.323.236-.432.375-.94.485-.09-.51-.157-.607-.19-1.239-.024-.393.066-.944.275-1.253.214-.31.447-.638.955-.98.323-.237 2.265-.971 2.721-1.83"/>
        <path fill="#FFFFFE" d="M6.811 15.637c0 3.432 2.518 6.214 5.63 6.214 3.106 0 5.623-2.782 5.623-6.214 0-3.433-2.517-6.213-5.624-6.213-3.111 0-5.628 2.78-5.628 6.213"/>
        <path fill="#3A2D56" d="M11.02 15.718c0 .997-.622 1.808-1.392 1.808-.764 0-1.387-.81-1.387-1.808 0-1 .623-1.81 1.387-1.81.77 0 1.392.81 1.392 1.81"/>
        <path fill="#FFFFFE" d="M9.253 15.132c0 .246-.152.446-.342.446-.19 0-.342-.2-.342-.446s.152-.446.342-.446c.19 0 .342.2.342.446"/>
        <path fill="#1FC39B" d="M23.484 1.685c.085.507-.551 2.427-1.226 3.164-.27.292-1.576 1.647-2.916 1.904-.085-.51-.195-1.335-.095-1.72.11-.379.399-.993 1.43-1.446 1.491-.655 2.123-1.044 2.807-1.902"/>
        <path fill="#FFFFFE" d="M18.895 15.737c0 3.432 2.518 6.215 5.63 6.215 3.106 0 5.623-2.783 5.623-6.215 0-3.433-2.517-6.213-5.624-6.213-3.111 0-5.629 2.78-5.629 6.213"/>
        <path fill="#3A2D56" d="M28.685 15.718c0 .997-.608 1.808-1.354 1.808-.745 0-1.353-.81-1.353-1.808 0-1 .608-1.81 1.353-1.81.746 0 1.354.81 1.354 1.81"/>
        <path fill="#FFFFFE" d="M26.966 15.132c0 .246-.152.446-.333.446-.185 0-.337-.2-.337-.446s.152-.446.337-.446c.18 0 .333.2.333.446"/>
        <path fill="#DF5431" d="M23.076 24.096c0 2.21-2.1 4-4.694 4-2.588 0-4.688-1.79-4.688-4s2.1-4.002 4.688-4.002c2.594 0 4.694 1.791 4.694 4.002"/>
        <path fill="#F19D49" d="M20.259 27.01s.18-.129.489-.341c.309-.213.741-.511 1.24-.852 2.973-2.475 8.711-4.055 8.232-8.793 0-.158-.09-1.07-.229-.786-.954 1.97-5.885 5.887-6.915.205-.305-1.67-1.079-5.112-2.095-5.593a16.204 16.204 0 0 0-1.463-.517c-.447-.13-.846-.205-1.16-.205v17.426c.685 0 1.378-.18 1.9-.545"/>
        <path fill="#EB8C30" d="M16.483 27.01l-.49-.341c-.309-.213-.74-.511-1.244-.852-2.969-2.475-8.707-4.055-8.227-8.793 0-.158.085-1.07.228-.786.955 1.97 5.885 5.887 6.916.205.299-1.67 1.078-5.112 2.095-5.593a16.204 16.204 0 0 1 1.463-.517c.446-.13.845-.205 1.159-.205v17.426c-.69 0-1.378-.18-1.9-.545"/>
    </g>
</svg>
