<svg xmlns="http://www.w3.org/2000/svg" width="210" height="36" viewBox="0 0 210 36">
    <g fill="none" fill-rule="evenodd">
        <text font-family="Nunito-SemiBold, Nunito" font-size="27.6" font-weight="500">
            <tspan x="56.4" y="29.127" fill="#FFF">Zippy</tspan> <tspan x="126.476" y="29.127" fill="#1FC39B" font-family="Nunito-Bold, Nunito" font-weight="bold">Crowd</tspan>
        </text>
        <path fill="#1FC39B" d="M43.24 23.014c.735.196.302 1.45-.125 2.416-.473 1.072-1.072 2.077-1.91 3.173 1.157-1.077 2.303-2.235 3.027-3.508.718-1.254 1.328-3.068.262-3.194-.53-.063-1.34.789-1.932 1.142-.878.517-1.773.65-2.52.723-1.037.102-2.16-.102-3.5.808 1.317-.384 2.292-.065 3.586-.43.969-.274 2.365-1.326 3.112-1.13" opacity=".3"/>
        <path fill="#21AC89" d="M35.408 25.582c.992-.343 1.859-.353 2.69-.402.85-.05 2.036-.456 2.554-.096.52.354.508 1.17.16 2.157-.422 1.196-1.197 2.272-2.269 3.494.536-.388 1.055-.78 1.58-1.201.353-.284.723-.609 1.082-.931.838-1.096 1.437-2.101 1.91-3.173.427-.966.86-2.22.125-2.416-.747-.196-2.143.856-3.112 1.13-1.294.365-2.269.046-3.585.43-.171.116-.32.238-.462.356a6.52 6.52 0 0 0-.673.652"/>
        <path fill="#604C8D" d="M34.132 30.852c.005.905.074 1.71 1.02 1.638.872-.065 2.291-.977 3.391-1.755 1.072-1.222 1.847-2.298 2.269-3.494.348-.987.36-1.803-.16-2.157-.518-.36-1.704.046-2.553.096-.832.05-1.699.059-2.69.402-1.682 1.97-1.289 3.905-1.277 5.27"/>
        <path fill="#1FC39B" d="M2.297 23.645c-.844.361-.484 1.669-.097 2.68.428 1.104.998 2.11 1.83 3.179-1.197-.985-2.36-2.06-3.055-3.338-.701-1.293-1.146-3.14.017-3.528.564-.188 1.448.633 2.069.91.952.43 1.938.394 2.764.343 1.1-.068 2.468-.543 3.854.273-1.46-.227-2.594.33-3.99.167-1.043-.122-2.548-1.045-3.392-.686" opacity=".3"/>
        <path fill="#21AC89" d="M10.841 25.088c-1.083-.153-2.023-.066-2.98.033-.953.1-2.138-.105-2.862.359-1.647 1.055.006 4.021 1.801 5.903a27.966 27.966 0 0 1-1.647-1.045c-.37-.25-.753-.542-1.123-.834-.832-1.068-1.402-2.075-1.83-3.18-.387-1.01-.747-2.318.097-2.679.844-.359 2.349.564 3.392.686 1.396.163 2.53-.394 3.99-.167.17.1.33.208.478.316.251.187.48.387.684.608"/>
        <path fill="#604C8D" d="M11.73 30.719c-.108 1-.256 1.91-1.322 2.002-.957.08-2.456-.675-3.608-1.338C5.005 29.5 3.352 26.535 5 25.48c.724-.464 1.91-.26 2.861-.359.958-.099 1.898-.186 2.981-.033 1.705 1.923 1.043 4.112.89 5.63"/>
        <path fill="#23B691" d="M40.47 20.633c0 8.479-8.014 15.352-17.898 15.352-9.89 0-17.904-6.873-17.904-15.352 0-8.48 8.014-15.353 17.904-15.353 9.884 0 17.898 6.874 17.898 15.353"/>
        <path fill="#1FC39B" d="M26.824.082c.108.573-.102 2.02-1.596 3.594-.655.693-.598.552-.85.902-.25.35-.563.663-.94.933-.387.266-.518.423-1.128.547-.108-.574-.188-.684-.228-1.397-.029-.443.08-1.064.33-1.412.257-.349.536-.72 1.146-1.106.388-.266 2.719-1.094 3.266-2.061"/>
        <path fill="#FFFFFE" d="M8.174 17.627c0 3.869 3.02 7.005 6.754 7.005 3.728 0 6.75-3.136 6.75-7.005 0-3.87-3.022-7.004-6.75-7.004-3.733 0-6.754 3.134-6.754 7.004"/>
        <path fill="#3A2D56" d="M13.224 17.718c0 1.125-.747 2.039-1.67 2.039-.918 0-1.665-.914-1.665-2.039 0-1.128.747-2.04 1.665-2.04.923 0 1.67.912 1.67 2.04"/>
        <path fill="#FFFFFE" d="M11.104 17.058c0 .278-.183.503-.41.503-.229 0-.411-.225-.411-.503s.182-.503.41-.503c.228 0 .41.225.41.503"/>
        <path fill="#1FC39B" d="M28.18 1.9c.103.571-.66 2.736-1.47 3.567-.325.328-1.892 1.856-3.5 2.145-.102-.574-.233-1.505-.114-1.938.131-.428.48-1.12 1.716-1.63 1.79-.739 2.548-1.178 3.369-2.145"/>
        <path fill="#FFFFFE" d="M22.675 17.74c0 3.869 3.02 7.005 6.754 7.005 3.728 0 6.749-3.136 6.749-7.005 0-3.87-3.021-7.004-6.749-7.004-3.733 0-6.754 3.134-6.754 7.004"/>
        <path fill="#3A2D56" d="M34.422 17.718c0 1.125-.73 2.039-1.624 2.039-.895 0-1.625-.914-1.625-2.039 0-1.128.73-2.04 1.625-2.04s1.624.912 1.624 2.04"/>
        <path fill="#FFFFFE" d="M32.359 17.058c0 .278-.183.503-.4.503-.221 0-.404-.225-.404-.503s.183-.503.405-.503c.216 0 .399.225.399.503"/>
        <path fill="#DF5431" d="M27.69 27.162c0 2.491-2.519 4.51-5.631 4.51-3.107 0-5.626-2.019-5.626-4.51 0-2.491 2.52-4.511 5.626-4.511 3.112 0 5.632 2.02 5.632 4.511"/>
        <path fill="#F19D49" d="M24.31 30.447s.217-.144.588-.384c.37-.24.889-.576 1.487-.96 3.568-2.79 10.454-4.57 9.878-9.912 0-.178-.108-1.207-.273-.886-1.146 2.22-7.063 6.636-8.3.23-.364-1.881-1.293-5.762-2.513-6.304a20.296 20.296 0 0 0-1.756-.583c-.535-.146-1.014-.232-1.39-.232v19.645c.82 0 1.652-.204 2.28-.614"/>
        <path fill="#EB8C30" d="M19.779 30.447s-.222-.144-.587-.384c-.37-.24-.89-.576-1.494-.96-3.562-2.79-10.448-4.57-9.872-9.912 0-.178.103-1.207.274-.886 1.145 2.22 7.062 6.636 8.299.23.359-1.881 1.294-5.762 2.514-6.304.62-.233 1.22-.438 1.755-.583.536-.146 1.015-.232 1.391-.232v19.645c-.826 0-1.653-.204-2.28-.614"/>
    </g>
</svg>
