<svg width="180" height="180" viewBox="0 0 180 180" fill="none" xmlns="http://www.w3.org/2000/svg">
<path fill-rule="evenodd" clip-rule="evenodd" d="M88.6065 180C50.0911 179.415 17.4422 154.635 5.18457 120.185L12.9713 117.655C24.1598 148.824 53.7272 171.234 88.6065 171.816V180Z" fill="#762FE6"/>
<path fill-rule="evenodd" clip-rule="evenodd" d="M91.879 179.991V171.807C126.777 171.02 156.281 148.382 167.248 117.037L175.033 119.566C162.998 154.193 130.413 179.202 91.879 179.991Z" fill="#C4C4C4"/>
<path fill-rule="evenodd" clip-rule="evenodd" d="M4.14384 117.082C1.45167 108.536 0 99.4401 0 90.005C0 60.7953 13.9136 34.8354 35.4744 18.3922L40.2853 25.0141C20.7677 39.9682 8.18182 63.5167 8.18182 90.005C8.18182 98.5574 9.49386 106.803 11.9276 114.552L4.14384 117.082Z" fill="#762FE6"/>
<path fill-rule="evenodd" clip-rule="evenodd" d="M176.051 116.456L168.266 113.927C170.576 106.36 171.818 98.3281 171.818 90.0057C171.818 63.4041 159.125 39.7675 139.464 24.8233L144.274 18.2019C165.978 34.6348 180 60.6827 180 90.0057C180 99.2107 178.618 108.093 176.051 116.456Z" fill="#762FE6"/>
<path fill-rule="evenodd" clip-rule="evenodd" d="M141.629 16.2733L136.819 22.8945C123.554 13.6219 107.412 8.18229 89.9998 8.18229C72.4743 8.18229 56.2358 13.6928 42.9222 23.0758L38.1122 16.455C52.7762 6.08982 70.6768 0 89.9998 0C109.21 0 127.014 6.0187 141.629 16.2733Z" fill="#762FE6"/>
</svg>
