<svg width="307" height="243" viewBox="0 0 307 243" fill="none" xmlns="http://www.w3.org/2000/svg">
<path opacity="0.2" d="M409.335 79.6799C411.3 79.2433 412.392 80.5531 413.483 81.8629C410.209 87.4296 406.934 93.1054 403.769 98.7813C402.895 100.309 402.35 102.056 401.695 103.584C401.695 119.847 401.695 136.002 401.695 152.702C409.554 152.702 417.085 152.702 424.616 152.702C434.986 152.702 445.464 152.702 456.161 152.702C456.161 144.188 456.161 136.111 456.161 128.034C456.161 127.488 456.161 127.051 456.161 126.506C456.161 121.703 456.27 116.9 456.161 111.988C456.161 109.151 455.833 106.422 455.615 103.584C455.615 103.256 455.506 103.038 455.397 102.711C452.996 98.563 450.703 94.5244 448.302 90.3767C448.848 89.9401 449.612 89.0669 450.049 89.176C454.415 90.4858 458.89 91.9048 463.256 93.542C465.002 94.1969 466.639 95.1793 468.386 96.0525C467.513 96.0525 466.53 95.9433 465.766 96.0525C463.147 96.7074 461.618 99.327 462.492 101.619C463.583 104.348 465.657 105.439 467.84 104.348C470.351 103.147 471.224 100.746 469.914 98.1264C469.477 97.3623 468.932 96.7074 468.386 95.9433C472.861 95.3976 475.917 98.8904 479.737 100.2C482.903 105.658 487.487 109.041 493.818 110.242C494.145 118.647 491.853 127.051 492.945 136.111C495.128 135.892 496.765 135.783 498.839 135.674C498.511 127.16 498.184 119.192 497.856 111.334C499.712 112.425 501.568 113.517 503.314 114.608C504.078 117.009 504.515 119.52 505.824 121.594C509.645 127.706 507.243 133.273 504.078 138.185C498.075 147.462 488.36 152.374 478.755 156.74C462.71 164.053 445.901 168.856 428.873 172.895C421.779 174.641 414.465 175.405 407.262 176.606C403.005 177.37 398.857 178.352 394.6 179.116C390.343 179.88 386.086 180.317 381.829 180.972C380.192 181.19 378.664 181.736 377.136 181.845C369.823 182.718 362.51 183.482 355.197 184.246C348.429 185.01 341.662 185.774 334.895 186.32C330.092 186.757 325.18 187.302 320.378 187.412C306.406 187.848 292.544 188.066 278.573 188.612C271.915 188.83 265.257 189.376 258.598 189.595C256.852 189.704 255.106 189.158 253.25 188.94C252.049 188.83 250.74 188.83 249.539 188.94C246.483 189.158 243.317 190.14 240.479 189.485C234.367 188.066 228.255 188.94 222.142 188.612C215.811 188.285 209.59 187.848 203.259 187.412C203.259 185.774 203.477 184.137 203.368 182.5C202.713 172.785 195.291 165.691 185.577 165.8C183.394 165.8 181.211 165.8 178.918 165.691C178.154 165.691 177.499 165.581 176.735 165.581C170.841 165.472 170.732 165.691 170.623 171.476C170.623 171.803 170.623 172.24 170.623 172.567C169.532 174.968 168.549 177.37 167.458 179.88C166.803 181.408 166.148 182.936 165.275 185.119C164.62 185.119 163.528 185.229 162.328 185.119C160.69 184.901 159.162 184.574 157.634 184.355C152.177 183.591 146.719 182.936 141.152 182.281C137.441 181.845 133.73 181.517 129.91 181.081C127.836 180.862 125.653 180.317 123.579 180.208C122.815 180.098 122.051 180.753 121.287 181.081C120.523 181.081 119.868 181.081 119.104 181.081C118.667 180.426 118.34 179.225 117.794 179.116C107.752 177.151 97.7104 175.514 87.7777 173.549C79.0457 171.803 70.3136 169.838 61.7999 167C56.3423 165.145 50.8848 163.508 45.5364 161.543C37.6776 158.596 29.8187 155.649 22.8331 150.846C21.7416 150.082 20.9776 149.973 20.1043 150.737C19.886 147.026 19.7769 143.315 19.5586 139.713C20.7593 139.385 21.9599 139.058 23.1606 138.621C36.2586 134.255 39.7515 118.428 29.9279 108.823C29.0547 107.95 28.0723 107.077 27.1991 106.203C27.3083 105.439 27.4174 104.566 27.5266 103.802C31.1286 101.51 34.7305 99.2179 38.3325 96.9257C40.5155 99.1087 42.1528 101.728 45.3181 100.419C48.3743 99.1087 48.3743 96.2708 48.3743 93.542C54.9234 91.5773 61.145 89.3943 67.4757 87.757C77.1901 85.2466 86.9045 83.0636 96.7281 80.9897C103.386 79.5707 110.154 78.6975 116.812 77.606C115.393 80.5531 113.865 83.391 112.446 86.3381C112.446 106.422 112.446 126.615 112.446 146.808C112.882 147.026 113.428 147.353 113.865 147.353C122.488 147.353 131.22 147.244 139.843 147.135C145.409 147.244 150.976 147.353 156.543 147.353C164.074 147.353 171.605 147.135 179.137 147.026C182.739 147.026 186.45 147.026 190.052 147.026C203.15 147.135 216.248 147.135 229.346 147.244C232.948 147.244 236.659 147.244 240.261 147.244C253.359 147.244 266.348 147.244 279.446 147.244C285.995 147.244 292.653 147.244 299.202 147.244C311.209 147.244 323.325 147.244 335.331 147.244C338.497 152.156 342.863 155.321 348.538 156.522C348.538 157.941 348.648 159.251 348.538 160.67C348.211 167.655 347.993 174.641 347.665 181.736C349.63 183.591 351.595 183.7 354.214 180.862C353.669 173.222 353.123 164.927 352.577 156.74C353.45 156.522 354.323 156.413 355.197 156.194C364.147 153.793 369.605 146.371 368.95 137.311C368.295 128.143 360.872 121.594 351.704 121.375C347.556 120.611 344.172 122.467 340.789 124.322C340.789 123.995 340.57 123.668 340.352 123.558C340.352 122.794 340.461 122.139 340.461 121.375C340.461 114.826 340.461 108.168 340.461 101.619C340.461 100.964 340.461 100.2 340.461 99.5453C340.461 98.7813 340.461 98.1264 340.57 97.3623C340.57 96.3799 340.57 95.2884 340.57 94.3061C340.57 92.778 340.57 91.2499 340.57 89.8309C340.789 89.5035 340.789 89.176 340.57 88.8486C340.57 88.0845 340.57 87.3204 340.57 86.5564C340.789 86.2289 340.789 85.9015 340.57 85.574C340.57 84.4825 340.57 83.391 340.57 82.1904C340.789 81.8629 340.789 81.5355 340.57 81.208C340.57 80.444 340.57 79.6799 340.57 78.9159C340.68 77.9335 340.68 76.9511 340.789 75.9688C340.789 75.423 340.789 74.9864 340.789 74.4407C340.789 73.4583 340.898 72.3668 340.898 71.3845C347.665 71.8211 354.542 72.1485 361.309 72.5851C361.855 72.5851 362.291 73.3492 362.837 73.7858C361.964 75.0956 361.091 76.5145 360.108 77.8243C355.415 84.9191 357.598 94.5244 362.401 99.1087C365.675 102.274 369.605 103.693 373.643 105.003C372.988 113.298 372.442 121.594 371.788 130.217C374.08 130.107 375.717 129.998 377.9 129.998C377.463 121.485 377.136 113.407 376.699 105.221C378.664 104.457 380.192 103.911 381.611 103.256C387.178 100.964 390.561 97.0348 392.308 91.2499C393.945 85.9015 392.308 81.3172 389.907 76.7328C394.6 77.3877 399.294 78.1518 403.987 78.8067C403.987 81.3172 403.987 83.7185 403.987 86.5564C406.279 86.4472 407.807 86.3381 409.663 86.2289C409.335 83.6093 409.335 81.6446 409.335 79.6799ZM66.6025 140.804C67.5849 140.477 68.6764 140.04 69.6587 139.822C81.1195 137.421 85.1581 125.632 81.9927 117.009C79.1548 109.151 73.3698 105.658 65.2927 105.221C63.6554 105.439 62.1273 105.549 60.4901 105.985C48.0469 109.26 43.5717 125.305 52.1946 134.801C55.2508 138.185 59.1803 139.713 63.4371 140.804C63.0005 149.1 62.4548 157.286 62.0182 165.581C64.6378 165.581 66.4933 165.581 67.8032 165.581C67.694 159.142 67.694 153.247 67.4757 147.244C67.4757 145.061 66.9299 142.987 66.6025 140.804ZM108.08 153.029C108.189 150.628 106.115 148.445 103.714 148.445C101.858 148.445 99.6751 150.3 99.4568 152.047C99.2385 154.011 101.749 156.959 103.605 156.959C105.569 157.068 107.971 154.994 108.08 153.029ZM99.3477 105.003C97.7104 105.003 95.0908 107.622 95.1999 109.26C95.3091 111.334 97.383 113.517 99.3477 113.517C101.749 113.517 103.823 111.443 103.714 109.041C103.605 107.077 101.422 105.003 99.3477 105.003ZM220.614 183.482C223.015 183.373 224.653 182.063 224.653 180.098C224.653 178.025 222.579 175.842 220.614 175.732C218.213 175.623 216.139 177.806 216.139 180.098C216.139 182.609 217.449 183.482 220.614 183.482ZM392.199 168.419C390.343 167.437 389.033 166.345 387.396 165.909C385.65 165.472 383.794 165.909 383.248 168.201C382.703 170.493 383.794 172.13 385.65 173.113C387.396 173.986 389.142 173.877 390.343 172.13C390.889 171.257 391.216 170.275 392.199 168.419ZM256.197 161.761C253.141 164.49 252.486 165.909 253.687 167.874C254.669 169.402 255.979 170.602 258.053 170.275C259.908 169.947 260.781 168.856 260.891 167C261.109 164.053 260.672 163.508 256.197 161.761ZM397.329 131.963C397.547 129.125 396.456 127.815 393.836 127.706C391.216 127.597 390.016 128.47 389.688 130.872C389.361 133.709 390.452 135.238 392.963 135.456C395.801 135.674 397.11 134.583 397.329 131.963ZM313.61 165.909C316.448 166.018 317.649 164.927 317.649 162.198C317.649 159.469 316.776 158.487 314.265 158.268C311.427 158.05 310.117 159.142 309.899 161.761C309.79 164.599 310.882 165.909 313.61 165.909Z" fill="#201B1D"/>
<path d="M167.239 180.098C168.331 177.697 169.313 175.296 170.404 172.785C173.133 170.493 175.862 168.201 178.591 166.018C180.774 166.018 182.957 166.018 185.249 166.127C185.249 177.697 185.249 189.376 185.249 200.946C184.376 201.055 183.612 201.055 182.738 201.164C171.605 198.436 167.021 192.214 167.239 180.098Z" fill="#242F3E"/>
<path d="M1.22096 128.689C0.238603 124.977 -0.525451 121.375 0.456904 117.555C2.42161 110.242 8.6432 104.239 17.3752 104.021C17.3752 115.809 17.3752 127.488 17.3752 139.276C16.8295 139.385 16.1746 139.494 15.6288 139.604C12.7909 138.512 10.0622 137.421 7.22424 136.329C6.35104 135.565 5.47783 134.801 4.60463 134.037L4.38632 134.255L4.60463 134.037C4.27717 133.6 3.94972 133.273 3.51312 132.836H3.62227C3.18567 132.181 2.74907 131.526 2.31246 130.872V130.981C1.98501 130.217 1.54841 129.453 1.22096 128.689Z" fill="#242F3E"/>
<path d="M185.249 200.837C185.249 189.267 185.249 177.588 185.249 166.018C194.854 165.909 202.386 173.004 203.041 182.718C203.15 184.355 203.041 185.993 202.931 187.63C202.277 188.831 201.512 190.031 200.858 191.341C197.801 197.126 193.217 200.728 186.45 201.055C186.013 200.946 185.576 200.946 185.249 200.837Z" fill="#6AB8AA"/>
<path d="M185.249 200.837C185.686 200.946 186.013 200.946 186.45 201.055C186.996 209.46 187.541 217.974 188.087 226.706C185.795 226.706 184.267 226.706 182.739 226.706C182.739 217.974 182.739 209.569 182.739 201.055C183.503 201.055 184.376 200.946 185.249 200.837Z" fill="#E7A444"/>
<path d="M15.6286 139.494C16.1744 139.385 16.8293 139.276 17.375 139.167C18.0299 139.276 18.6848 139.385 19.3397 139.604C19.558 143.315 19.6672 147.026 19.8855 150.628C19.8855 155.43 19.8855 160.124 19.8855 164.927C18.4665 164.817 16.8293 164.708 14.5371 164.49C14.8646 156.194 15.192 147.899 15.6286 139.494Z" fill="#E7A444"/>
<path d="M298.984 147.135C292.435 147.135 285.777 147.135 279.228 147.135C278.9 142.332 278.464 137.421 278.464 132.618C278.464 127.379 279.01 122.139 279.337 117.009C279.992 116.573 281.302 116.245 281.411 115.7C281.629 112.862 281.629 109.915 281.302 107.077C281.193 106.203 279.992 105.549 279.337 104.785C279.119 100.746 278.9 96.7074 278.682 92.6688C279.883 92.778 281.411 93.1054 281.52 91.2499C281.629 88.6303 281.847 85.9015 281.52 83.2819C281.193 80.5531 279.337 80.0074 276.062 80.9897C273.879 77.3877 271.696 73.7858 269.513 70.1838C269.623 61.3426 269.732 52.5014 269.95 43.6602C279.774 43.7694 289.488 43.7694 299.312 43.8785C299.312 53.7021 299.421 63.5256 299.421 73.24C299.312 73.5675 299.421 73.8949 299.53 74.2224C299.53 74.659 299.53 75.0956 299.53 75.423C299.312 75.7505 299.312 76.0779 299.312 76.4054C299.312 84.0459 299.312 91.6865 299.421 99.327C299.421 99.9819 299.421 100.637 299.421 101.292C299.421 107.95 299.421 114.608 299.421 121.266C299.421 121.921 299.421 122.576 299.421 123.231C299.202 131.199 299.093 139.167 298.984 147.135ZM287.087 92.1231C290.034 92.1231 292.217 92.1231 294.618 92.1231C294.618 89.0669 294.727 86.3381 294.618 83.7185C294.509 81.6446 293.308 80.3348 291.344 80.0074C289.27 79.6799 288.178 81.208 287.96 82.8453C287.414 85.6832 287.305 88.7394 287.087 92.1231ZM294.509 66.9093C293.745 62.7616 297.019 57.7406 291.562 54.7936C287.96 55.6668 287.305 58.0681 287.196 61.0152C286.978 67.6733 287.305 68.0008 294.509 66.9093ZM288.615 105.221C286.432 108.714 287.196 112.643 287.523 116.354C290.143 116.354 292.326 116.354 294.618 116.354C294.618 113.953 294.618 111.988 294.618 109.915C294.509 104.894 294.181 104.566 288.615 105.221ZM281.52 67.2367C280.647 62.7616 283.703 57.9589 278.791 54.7936C274.425 56.8674 273.989 58.5047 275.626 67.2367C277.263 67.2367 279.01 67.2367 281.52 67.2367Z" fill="#9A5472"/>
<path d="M189.943 146.917C186.341 146.917 182.63 146.917 179.028 146.917C179.464 137.202 178.154 127.379 179.137 117.664C181.211 117.664 183.285 117.664 185.686 117.664C185.686 115.154 185.795 113.189 185.686 111.224C185.468 105.985 184.376 105.33 179.464 107.513C179.355 103.256 179.355 98.9996 179.246 94.7427C181.32 94.7427 183.394 94.7427 185.795 94.7427C185.795 92.2323 185.795 90.2675 185.795 88.3028C185.795 86.5564 186.013 84.5917 184.049 83.6094C181.975 82.627 180.774 84.2643 179.355 85.3558C179.028 85.3558 178.591 85.2466 178.264 85.2466C175.644 80.6623 172.915 75.9688 170.296 71.3845C171.278 71.1662 172.369 70.9479 173.679 70.6204C173.679 68.11 173.679 65.8178 173.679 63.5256C173.679 61.3426 172.697 60.142 170.405 60.142C168.003 60.142 167.239 61.4518 167.239 63.6348C167.239 64.7263 167.13 65.8178 167.021 66.9093C165.493 64.2897 164.074 61.6701 162.546 59.0505C162.655 55.4485 162.764 51.8465 162.873 48.2446C164.729 48.572 166.694 49.2269 168.549 49.2269C175.753 49.3361 182.957 49.2269 190.161 49.3361C190.161 58.8322 190.27 68.3283 190.27 77.8244C190.27 78.4793 190.27 79.1342 190.27 79.7891C190.27 87.2113 190.27 94.6336 190.27 101.947C190.27 102.492 190.27 103.038 190.379 103.584C190.379 109.915 190.27 116.245 190.27 122.576C190.27 123.231 190.27 123.886 190.27 124.541C190.052 131.854 189.943 139.385 189.943 146.917ZM185.468 60.5786C179.683 59.8145 179.355 60.0328 179.137 64.6172C179.137 66.5819 179.137 68.4374 179.137 70.7296C181.429 70.7296 183.394 70.7296 185.468 70.7296C185.468 67.2368 185.468 64.0714 185.468 60.5786Z" fill="#BD4F46"/>
<path d="M299.202 73.1309C299.202 63.3073 299.093 53.4838 299.093 43.7694C299.42 43.6602 299.748 43.5511 300.075 43.3328C313.282 43.4419 326.49 43.4419 339.588 43.5511C339.806 44.97 340.243 46.2798 340.243 47.6988C340.243 54.7936 340.133 61.7792 340.024 68.874C339.478 70.5113 338.933 72.1485 338.278 73.7858C337.186 73.7858 335.986 73.7858 334.894 73.7858C334.567 73.7858 334.348 73.7858 334.021 73.7858C322.997 73.7858 312.082 73.7858 301.057 73.7858C300.512 73.5675 299.857 73.3492 299.202 73.1309ZM309.899 56.2125C304.332 55.3393 303.677 55.7759 303.459 60.2511C303.35 62.5433 303.459 64.8354 303.459 67.1276C306.078 67.1276 307.934 67.1276 309.899 67.1276C309.899 63.3073 309.899 59.9237 309.899 56.2125ZM322.778 67.3459C322.778 62.9799 322.778 59.4871 322.778 56.1034C317.43 55.3393 316.775 55.7759 316.666 60.142C316.557 62.2158 316.666 64.3988 316.666 67.0184C318.849 67.2367 320.705 67.2367 322.778 67.3459ZM336.204 66.5818C336.204 63.8531 336.204 61.3426 336.204 58.8321C336.204 56.6491 335.222 55.4485 332.929 55.4485C330.746 55.4485 329.655 56.7583 329.655 58.8321C329.546 61.3426 329.655 63.7439 329.655 66.4727C331.838 66.5818 333.584 66.5818 336.204 66.5818Z" fill="#D45280"/>
<path d="M300.075 43.3327C299.747 43.4419 299.42 43.6602 299.092 43.7693C289.269 43.6602 279.555 43.6602 269.731 43.551C275.843 33.1817 281.847 22.7033 288.068 12.4431C288.614 11.5699 290.033 10.6967 291.015 10.6967C300.184 10.6967 309.353 10.8059 318.63 10.915C317.976 11.7882 317.321 12.6614 316.775 13.5346C312.845 19.9745 308.807 26.3052 305.096 32.7451C303.24 36.1288 301.821 39.8399 300.075 43.3327Z" fill="#16191C"/>
<path d="M190.051 77.6061C190.051 68.1099 189.942 58.6139 189.942 49.1178C190.27 48.7903 190.597 48.4628 191.034 48.0262C191.798 48.3537 192.562 49.0086 193.326 49.0086C201.621 49.1178 209.917 49.1178 218.321 49.0086C221.596 49.0086 224.87 48.4628 228.254 48.1354C228.582 49.6635 228.909 51.0825 229.346 52.6106C229.673 53.7021 230.001 54.7936 230.437 55.7759C230.11 57.5223 229.455 59.1596 229.455 60.906C229.346 66.4727 229.346 71.9302 229.346 77.4969C216.138 77.4969 203.04 77.4969 190.051 77.6061ZM213.737 70.8387C213.519 67.7825 213.41 65.272 213.191 62.8707C212.973 61.0152 212.1 59.8145 210.026 59.9237C207.843 60.0328 206.642 61.0152 206.642 63.3073C206.642 65.8178 206.642 68.2191 206.642 70.9479C209.044 70.8387 211.008 70.8387 213.737 70.8387ZM225.634 70.8387C225.634 67.7825 225.744 65.272 225.634 62.7616C225.525 60.906 224.325 59.9237 222.469 59.9237C220.504 59.9237 219.413 61.0152 219.413 62.8707C219.304 65.4903 219.413 68.11 219.413 70.8387C221.596 70.8387 223.342 70.8387 225.634 70.8387ZM194.308 71.057C196.819 70.9479 198.674 70.8387 200.748 70.7296C200.748 67.8917 200.748 65.4903 200.748 63.1982C200.748 61.0152 199.657 59.8145 197.474 59.8145C195.291 59.8145 194.308 61.1243 194.308 63.3073C194.308 65.7086 194.308 68.0008 194.308 71.057Z" fill="#D35645"/>
<path d="M112.227 86.1198C113.646 83.1727 115.174 80.3348 116.593 77.3877C121.177 69.8564 125.871 62.325 130.455 54.7936C139.733 54.7936 148.901 54.7936 158.179 54.7936C154.686 60.5786 151.084 66.3635 147.81 72.2577C145.299 76.7328 143.116 81.5355 140.715 86.1198C140.388 86.1198 139.951 86.1198 139.624 86.1198C130.564 86.2289 121.395 86.2289 112.227 86.1198Z" fill="#BF7447"/>
<path d="M190.925 48.0263C190.598 48.3537 190.27 48.6812 189.834 49.1178C182.63 49.1178 175.426 49.2269 168.222 49.0086C166.366 49.0086 164.401 48.3537 162.546 48.0263C168.44 37.8753 174.443 27.7242 180.337 17.5732C189.943 17.5732 199.22 17.5732 208.498 17.5732C205.115 23.2491 201.731 28.9249 198.456 34.6007C195.946 39.0759 193.436 43.5511 190.925 48.0263Z" fill="#BF7447"/>
<path d="M300.076 43.3328C301.713 39.8399 303.132 36.1288 305.097 32.7452C308.808 26.1961 312.846 19.8654 316.776 13.5347C317.321 12.6614 317.976 11.7882 318.631 10.915C319.723 12.334 320.923 13.5347 321.906 15.0628C327.145 23.1399 332.275 31.217 337.405 39.2942C338.278 40.604 338.824 42.1321 339.588 43.5511C326.49 43.5511 313.283 43.4419 300.076 43.3328Z" fill="#242F3E"/>
<path d="M229.127 77.4969C229.127 71.9302 229.018 66.4727 229.237 60.906C229.237 59.1596 229.891 57.5224 230.219 55.776C230.765 55.4485 231.31 54.6844 231.856 54.6844C240.806 54.6844 249.757 54.7936 258.707 54.9028C256.524 58.5047 254.45 62.2158 252.267 65.8178C248.229 72.5851 244.19 79.2433 240.261 86.0107V86.1198C236.659 86.1198 232.948 86.1198 229.346 86.1198C229.346 83.9368 229.346 81.6446 229.237 79.4616C229.127 78.8067 229.127 78.1518 229.127 77.4969Z" fill="#BF7447"/>
<path d="M190.925 48.0263C193.436 43.5511 195.837 39.0759 198.456 34.6007C201.731 28.9249 205.115 23.2491 208.498 17.5732C209.481 18.7739 210.681 19.8654 211.445 21.1752C216.575 29.0341 221.706 36.8929 226.836 44.7517C227.491 45.7341 227.709 47.0439 228.145 48.2446C224.871 48.572 221.596 49.0086 218.213 49.1178C209.917 49.2269 201.622 49.2269 193.217 49.1178C192.453 49.0086 191.689 48.3537 190.925 48.0263Z" fill="#DF8A44"/>
<path d="M106.988 50.3184C106.988 58.3956 106.988 66.5819 106.988 75.0956C96.0725 75.0956 85.5941 75.0956 75.1156 75.0956C75.2248 66.8002 75.2247 58.5047 75.3339 50.3184C85.8124 50.2093 96.4 50.2093 106.988 50.3184ZM98.583 63.0891C100.875 62.9799 102.512 62.8708 104.477 62.7616C104.477 60.5786 104.477 58.8322 104.477 56.9766C104.477 54.9028 103.604 53.4838 101.312 53.4838C99.2379 53.593 98.8013 55.3394 98.583 56.8675C98.4738 58.723 98.583 60.5786 98.583 63.0891ZM94.1078 62.7616C94.1078 60.4694 94.2169 58.3956 94.1078 56.3217C93.9986 54.6845 93.2346 53.1564 91.4882 53.7021C90.3967 54.0296 89.196 55.4485 88.9777 56.6492C88.5411 58.5047 88.8686 60.4694 88.8686 62.7616C90.8333 62.7616 92.1431 62.7616 94.1078 62.7616ZM83.9568 62.8708C83.9568 60.3603 83.9568 58.2864 83.9568 56.3217C83.9568 54.5753 82.7561 53.3747 81.3372 53.7021C80.2457 53.9204 79.1542 55.3394 78.8267 56.54C78.3901 58.0681 78.7176 59.7054 78.7176 61.3426C78.7176 61.7792 79.045 62.325 79.2633 62.8708C80.6823 62.8708 82.1012 62.8708 83.9568 62.8708Z" fill="#6AB8AA"/>
<path d="M140.716 86.2289C143.008 81.6446 145.191 76.842 147.811 72.3668C151.085 66.4727 154.687 60.6877 158.18 54.9027C159.599 56.2125 160.909 57.5223 162.328 58.8321C163.856 61.4517 165.275 64.0714 166.803 66.691C167.894 68.2191 168.986 69.7472 170.077 71.2753C172.697 75.8596 175.426 80.5531 178.045 85.1374C176.626 85.4649 175.098 86.2289 173.679 86.2289C162.764 86.2289 151.74 86.2289 140.716 86.2289Z" fill="#DF8A44"/>
<path d="M240.151 86.1198C244.19 79.3525 248.229 72.6943 252.158 65.927C254.341 62.325 256.524 58.6139 258.598 55.0119C261.545 59.2688 264.383 63.4165 267.33 67.6734C267.985 68.5466 268.64 69.3106 269.404 70.0747C271.587 73.6766 273.77 77.2786 275.953 80.8806C276.717 82.7361 277.59 84.4826 278.354 86.3381C265.584 86.229 252.922 86.229 240.151 86.1198Z" fill="#DF8A44"/>
<path d="M53.067 24.8863C54.486 22.1576 55.6866 19.4288 57.3239 16.8092C60.5984 11.2425 63.9821 5.67583 67.4749 0C74.788 0 82.2102 0 89.5233 0C88.3227 2.40131 87.3403 4.80263 86.0305 7.20394C82.8651 13.2072 79.4815 19.1014 76.2069 24.9955C75.8795 25.1046 75.552 25.3229 75.2246 25.4321C67.8023 25.2138 60.4893 25.1046 53.067 24.8863Z" fill="#D6674B"/>
<path d="M75.2255 25.3229C75.5529 25.2137 75.8804 25.1046 76.2078 24.8863C86.3588 24.8863 96.619 24.8863 106.77 24.9954C106.77 32.7451 106.77 40.4948 106.879 48.1354C96.4007 48.1354 85.8131 48.0262 75.3346 48.0262C75.3346 40.4948 75.3346 32.9634 75.2255 25.3229ZM104.587 43.3327C104.587 41.0406 104.478 39.2942 104.587 37.5478C104.805 35.4739 103.386 34.1641 101.858 34.2732C100.658 34.2732 98.9111 35.8014 98.5837 37.002C98.1471 38.8576 98.5837 41.0406 98.6928 43.3327C100.876 43.3327 102.404 43.3327 104.587 43.3327ZM78.6091 43.7693C80.7921 43.551 82.3203 43.4419 83.9575 43.2236C83.9575 40.8223 84.1758 38.7484 83.8484 36.8929C83.6301 35.9105 82.5386 34.3824 81.7745 34.3824C80.2464 34.2732 78.6091 34.9281 78.6091 37.1112C78.7183 38.9667 78.6091 40.9314 78.6091 43.7693ZM93.8902 43.3327C93.8902 40.9314 94.1085 38.8576 93.7811 37.002C93.5628 36.0197 92.5804 34.4915 91.7072 34.3824C89.9608 34.0549 89.3059 35.583 89.3059 37.2203C89.3059 39.185 89.3059 41.1497 89.3059 43.3327C90.9432 43.3327 92.1438 43.3327 93.8902 43.3327Z" fill="#6AB8AA"/>
<path d="M22.5059 89.8309C14.1013 88.7394 8.42546 83.2819 7.55225 75.8596C6.13329 64.0714 13.0098 57.7407 19.668 55.8851C21.4144 55.3393 23.4882 55.5576 25.3438 55.4485C25.2346 57.7406 25.1255 60.0328 25.1255 62.325C25.1255 70.1838 25.1255 78.1518 25.1255 86.0107C25.1255 88.0845 24.798 89.6126 22.5059 89.8309Z" fill="#BD4F46"/>
<path d="M19.3403 139.604C18.6854 139.494 18.0305 139.385 17.3756 139.167C17.3756 127.379 17.3756 115.7 17.3756 103.911C18.6854 104.021 20.1044 104.13 21.4142 104.239C23.2697 104.894 25.0162 105.439 26.8717 106.094C27.7449 106.968 28.7273 107.841 29.6005 108.714C39.5332 118.319 35.9312 134.146 22.8331 138.512C21.7416 138.84 20.541 139.167 19.3403 139.604Z" fill="#33505A"/>
<path d="M22.5049 89.831C24.9062 89.6127 25.1245 88.0845 25.1245 86.0107C25.0153 78.1518 25.1245 70.1838 25.1245 62.325C25.1245 60.0328 25.2336 57.6315 25.3428 55.3394C33.3108 55.1211 38.3317 59.4871 41.2788 66.2544C44.335 73.3492 42.2611 79.7891 37.2402 85.3558C34.4023 88.6303 30.2546 89.7218 26.1069 90.595C25.0153 90.595 24.033 90.595 22.9415 90.595C22.7232 90.3767 22.614 90.1584 22.5049 89.831Z" fill="#D6674B"/>
<path d="M75.2249 50.2093C75.1158 58.5047 75.1158 66.8002 75.0066 74.9865C67.5844 74.9865 60.1622 74.9865 52.4125 74.9865C52.4125 66.4727 52.4125 58.3956 52.4125 50.3184C60.1622 50.3184 67.6936 50.3184 75.2249 50.2093ZM61.6903 62.6525C61.5811 60.0328 61.6903 57.7407 61.2537 55.4485C60.9262 53.7021 58.7432 52.9381 57.4334 53.9204C55.9053 55.1211 55.687 61.1243 57.3243 62.8708C58.5249 62.8708 59.8347 62.8708 61.6903 62.6525ZM71.9504 62.9799C71.9504 60.5786 72.0596 58.723 71.9504 56.9766C71.7321 53.7021 70.7498 53.2655 66.9295 54.4662C66.9295 57.3041 66.9295 60.0328 66.9295 62.9799C68.5668 62.9799 69.9857 62.9799 71.9504 62.9799Z" fill="#242F3E"/>
<path d="M75.2256 25.323C75.2256 32.8544 75.2256 40.4949 75.3348 48.0263V47.9171C67.6942 47.9171 60.0537 47.9171 52.4131 47.9171C52.4131 41.259 52.304 34.4916 52.4131 27.8334C52.4131 26.8511 52.8497 25.7596 53.068 24.7772C60.4903 25.1047 67.8034 25.2138 75.2256 25.323ZM71.7328 43.3328C71.7328 40.8224 72.0602 38.7485 71.6236 36.8929C71.4053 35.8014 69.7681 35.1465 68.7857 34.2733C68.0217 35.1465 66.821 35.9106 66.6027 36.8929C66.2753 38.6393 66.4936 40.4949 66.6027 42.2413C66.6027 42.5688 66.9302 42.8962 67.1485 43.3328C68.4583 43.3328 69.8772 43.3328 71.7328 43.3328ZM61.2543 43.3328C61.2543 40.7132 61.4726 38.5302 61.1452 36.4563C61.036 35.6923 59.6171 34.3825 59.1805 34.4916C58.1981 34.7099 56.8883 35.6923 56.67 36.5655C56.3426 38.421 56.5609 40.4949 56.5609 42.4596C56.5609 42.7871 56.8883 43.0054 57.2158 43.442C58.4164 43.3328 59.5079 43.3328 61.2543 43.3328Z" fill="#242F3E"/>
<path d="M106.879 25.1046C96.7281 25.1046 86.4679 25.1046 76.3169 24.9955C79.5914 19.1014 82.8659 13.2072 86.1404 7.20394C87.3411 4.80263 88.4326 2.40131 89.5241 0C92.1437 0 92.4712 2.40131 93.4535 3.92942C98.0379 10.9151 102.404 18.0098 106.879 25.1046Z" fill="#DF8A44"/>
<path d="M75.3346 48.1354C85.8131 48.1354 96.4007 48.2446 106.879 48.2446C106.879 48.8995 106.879 49.5544 106.879 50.3184C96.2915 50.3184 85.7039 50.3185 75.2255 50.2093L75.3346 50.3184C75.3346 49.5544 75.3346 48.7903 75.3346 48.1354Z" fill="#F2CA5D"/>
<path d="M22.942 90.595C24.0335 90.595 25.0159 90.595 26.1074 90.595C26.544 94.961 26.8714 99.327 27.3081 103.693C27.1989 104.457 27.0898 105.33 26.9806 106.094C25.125 105.439 23.3786 104.894 21.5231 104.239C21.9597 99.6545 22.3963 95.1793 22.942 90.595Z" fill="#E7A444"/>
<path d="M75.3346 48.0262C75.3346 48.7903 75.3346 49.4452 75.2255 50.2093C67.5849 50.2093 60.0535 50.3184 52.413 50.3184C52.413 49.5544 52.413 48.7903 52.3038 48.0262C60.0535 48.0262 67.6941 48.0262 75.3346 48.0262Z" fill="#6AB8AA"/>
<path d="M240.151 86.1198C252.922 86.1198 265.583 86.229 278.354 86.229C278.463 88.3028 278.572 90.3767 278.572 92.4505C278.791 96.4891 279.009 100.528 279.227 104.566C279.227 108.605 279.227 112.753 279.227 116.791C278.9 122.03 278.354 127.27 278.354 132.4C278.354 137.202 278.9 142.114 279.118 146.917C266.02 146.917 253.031 146.917 239.933 146.917C239.933 136.766 239.933 126.724 240.042 116.573C252.594 116.464 265.038 116.355 277.59 116.245C277.699 116.245 277.808 116.027 277.917 115.918C278.027 115.809 277.917 115.59 277.917 115.372C277.699 115.154 277.372 114.608 277.153 114.608C264.819 114.608 252.485 114.608 240.042 114.608C240.042 105.112 239.933 95.6159 239.933 86.1198H240.151ZM276.062 108.496C275.734 104.894 275.625 102.056 274.97 99.327C274.752 98.4538 272.896 97.4715 271.696 97.4715C270.932 97.4715 269.622 98.8904 269.513 99.8728C269.076 102.602 269.076 105.439 268.858 108.496C271.478 108.496 273.333 108.496 276.062 108.496ZM250.848 108.496C250.848 105.439 250.848 102.929 250.848 100.419C250.739 98.2355 249.538 97.144 247.464 97.144C245.5 97.2532 244.517 98.4538 244.517 100.309C244.517 102.929 244.517 105.658 244.517 108.496C246.591 108.496 248.338 108.496 250.848 108.496ZM263.073 108.714C263.073 105.767 263.073 103.256 263.073 100.746C263.073 98.6721 262.2 97.2532 260.017 97.144C257.834 97.0349 256.742 98.3447 256.742 100.528C256.742 103.038 256.742 105.439 256.742 107.841C257.615 108.277 258.052 108.714 258.598 108.714C259.798 108.823 260.999 108.714 263.073 108.714ZM250.957 131.636C250.957 128.579 251.285 126.069 250.848 123.558C250.63 122.576 248.992 121.485 247.792 121.266C246.919 121.157 244.954 122.249 244.845 122.904C244.517 126.178 243.426 129.671 245.609 132.727C247.464 132.4 248.992 132.072 250.957 131.636ZM263.073 131.963C263.073 129.016 263.182 126.506 263.073 123.995C262.964 122.03 261.763 121.157 259.908 121.157C257.943 121.157 256.633 122.03 256.742 123.995C256.742 126.615 256.087 129.343 257.397 131.963C258.925 131.963 260.562 131.963 263.073 131.963ZM275.079 131.854C275.079 129.125 275.298 126.615 274.97 124.213C274.752 123.122 273.551 121.594 272.569 121.375C270.713 120.939 269.622 122.358 269.622 124.323C269.513 126.833 269.622 129.234 269.622 131.963C271.587 131.854 273.115 131.854 275.079 131.854Z" fill="#D35645"/>
<path d="M112.227 86.1198C121.395 86.1198 130.564 86.229 139.624 86.229C139.733 95.7251 139.733 105.221 139.842 114.717C139.842 115.372 139.842 116.027 139.842 116.573C139.842 126.724 139.733 136.875 139.733 146.917C131.11 147.026 122.378 147.026 113.755 147.135C113.318 147.135 112.773 146.698 112.336 146.589C112.227 126.396 112.227 106.313 112.227 86.1198ZM123.251 131.963C123.251 129.343 123.251 126.833 123.251 124.323C123.251 122.14 122.16 121.048 119.976 121.048C117.684 121.048 116.811 122.358 116.811 124.541C116.811 126.942 116.811 129.453 116.811 131.963C119.212 131.963 120.959 131.963 123.251 131.963ZM123.251 107.95C123.251 105.112 123.251 102.711 123.251 100.419C123.251 98.2355 122.05 97.0349 119.867 97.144C117.903 97.2532 116.92 98.3447 116.811 100.309C116.702 102.82 116.811 105.221 116.811 107.95C119.103 107.95 120.85 107.95 123.251 107.95ZM135.367 108.168C135.367 105.221 135.367 102.711 135.367 100.2C135.367 98.2355 134.166 97.2532 132.201 97.2532C130.237 97.2532 129.036 98.2355 128.927 100.091C128.818 102.711 128.927 105.33 128.927 108.059C131.219 108.168 132.856 108.168 135.367 108.168ZM135.258 131.963C135.258 129.125 135.367 126.506 135.258 123.777C135.148 121.703 133.839 121.048 131.983 121.048C130.128 121.157 128.927 122.03 128.927 123.995C128.927 126.615 128.927 129.234 128.927 131.963C131.328 131.963 133.075 131.963 135.258 131.963Z" fill="#BD4F46"/>
<path d="M139.733 147.026C139.733 136.875 139.842 126.724 139.842 116.682C152.831 116.682 165.82 116.682 178.809 116.682C179.027 117.009 179.027 117.337 179.027 117.664C178.045 127.379 179.355 137.202 178.918 146.917C171.387 147.026 163.855 147.244 156.324 147.244C150.866 147.244 145.3 147.135 139.733 147.026ZM156.106 131.745C158.616 131.745 160.472 131.745 162.655 131.745C162.655 128.798 162.655 126.287 162.655 123.777C162.655 123.122 162.436 122.358 162.327 121.812C156.761 120.939 156.215 121.266 156.106 126.069C156.106 127.815 156.106 129.562 156.106 131.745ZM175.644 131.854C175.644 128.798 175.753 126.506 175.644 124.104C175.534 122.14 174.443 121.157 172.478 121.157C170.623 121.157 169.204 121.921 169.095 123.886C168.985 126.506 169.095 129.125 169.095 131.854C171.605 131.854 173.351 131.854 175.644 131.854ZM144.099 132.181C146.719 132.072 148.574 131.963 150.648 131.854C150.648 128.907 150.648 126.615 150.648 124.213C150.648 122.249 149.557 121.157 147.592 121.157C145.409 121.048 144.099 122.14 144.099 124.323C143.99 126.724 144.099 129.016 144.099 132.181Z" fill="#D35645"/>
<path d="M189.942 146.917C189.942 139.385 190.051 131.854 190.051 124.323C203.04 124.323 216.029 124.323 229.018 124.432C229.127 126.942 229.127 129.562 229.236 132.072C229.236 137.093 229.236 142.114 229.236 147.135C216.138 147.026 203.04 146.917 189.942 146.917Z" fill="#D35645"/>
<path d="M298.984 147.135C299.093 139.167 299.093 131.199 299.202 123.231C312.846 123.231 326.381 123.34 340.025 123.34C340.243 123.558 340.461 123.777 340.461 124.104C336.532 127.379 333.585 131.308 333.476 136.547C333.476 140.04 334.458 143.533 335.113 147.135C323.106 147.135 311.1 147.135 298.984 147.135Z" fill="#D45280"/>
<path d="M299.202 99.327C299.202 91.6865 299.202 84.0459 299.093 76.4054C301.603 76.1871 304.005 75.9688 306.515 75.7505C315.684 75.7505 324.961 75.7505 334.13 75.7505C334.894 75.9688 335.767 76.5145 336.422 76.4054C338.278 76.1871 339.26 77.1694 340.133 78.5884C340.133 79.3525 340.133 80.1165 340.133 80.8806C340.024 80.9897 339.806 81.0989 339.806 81.208C339.915 81.4263 340.024 81.6446 340.133 81.9721C340.133 83.0636 340.133 84.1551 340.133 85.3557C340.024 85.4649 339.806 85.574 339.806 85.6832C339.915 85.9015 340.024 86.1198 340.133 86.4472C340.133 87.2113 340.133 87.9754 340.133 88.7394C340.024 88.8486 339.806 88.9577 339.806 89.0669C339.915 89.2852 340.024 89.5035 340.133 89.7218C340.133 91.2499 340.133 92.778 340.133 94.1969C340.133 95.1793 340.133 96.2708 340.133 97.2531C340.133 98.0172 340.133 98.6721 340.024 99.4362C326.49 99.327 312.846 99.327 299.202 99.327ZM310.117 92.4505C310.117 89.2852 310.117 86.4472 310.117 83.7185C310.117 81.7538 309.571 79.8982 307.279 79.8982C305.096 80.0074 303.677 81.5355 303.568 83.7185C303.459 86.5564 303.568 89.3943 303.568 92.3414C305.751 92.4505 307.497 92.4505 310.117 92.4505ZM316.557 91.2499C322.997 93.2146 323.215 93.1054 323.215 87.1021C323.215 86.0106 323.106 84.9191 323.215 83.8276C323.433 81.5355 322.124 80.444 320.268 79.8982C318.74 79.4616 316.775 81.5355 316.557 83.7185C316.448 86.1198 316.557 88.5211 316.557 91.2499ZM330.092 91.9048C332.275 91.7956 334.13 91.6865 336.204 91.5773C335.44 87.1021 338.278 82.2995 332.929 79.7891C329 82.8453 329 82.8453 330.092 91.9048Z" fill="#D45280"/>
<path d="M299.202 121.266C299.202 114.608 299.202 107.95 299.202 101.292C312.845 101.292 326.38 101.292 340.024 101.401C340.024 107.95 340.024 114.608 340.024 121.157C326.489 121.157 312.845 121.157 299.202 121.266ZM322.778 116.464C322.778 112.534 322.778 108.932 322.778 105.33C317.321 104.457 316.666 104.894 316.666 109.26C316.666 111.661 315.902 114.281 317.211 116.464C319.176 116.464 320.923 116.464 322.778 116.464ZM303.458 116.245C305.641 116.245 307.606 116.245 310.117 116.245C310.117 113.407 310.226 110.788 310.117 108.059C310.007 105.985 309.134 104.566 306.733 104.675C304.441 104.785 303.458 106.094 303.458 108.168C303.458 110.788 303.458 113.298 303.458 116.245ZM336.204 116.464C336.204 113.189 336.204 110.46 336.204 107.732C336.204 105.767 335.112 104.785 333.147 104.675C331.183 104.566 329.873 105.549 329.764 107.404C329.545 110.351 329.764 113.407 329.764 116.464C332.165 116.464 333.911 116.464 336.204 116.464Z" fill="#D45280"/>
<path d="M229.237 147.026C229.237 142.005 229.237 136.984 229.237 131.963C231.31 131.963 233.384 131.963 235.24 131.963C235.458 131.09 235.676 130.762 235.676 130.435C235.676 129.016 235.786 127.597 235.676 126.069C235.567 121.375 235.458 121.266 230.219 121.157C228.145 116.9 229.455 112.316 229.127 107.95C231.201 107.95 233.275 107.95 235.567 107.95C235.567 105.658 235.567 103.802 235.567 102.056C235.458 97.0349 234.148 96.2708 229.237 98.4538C229.237 94.4152 229.127 90.2675 229.127 86.2289C232.729 86.2289 236.441 86.2289 240.043 86.2289C240.043 95.725 240.152 105.221 240.152 114.717C240.152 115.372 240.152 116.027 240.152 116.791C240.152 126.942 240.152 136.984 240.043 147.135C236.441 147.026 232.839 147.026 229.237 147.026Z" fill="#BD4F46"/>
<path d="M63.5457 140.804C59.2889 139.713 55.3594 138.185 52.3032 134.801C43.5712 125.305 48.1555 109.26 60.5987 105.985C62.1268 105.549 63.764 105.439 65.4013 105.221C65.4013 117.009 65.4013 128.798 65.5105 140.586C64.7464 140.586 64.2006 140.695 63.5457 140.804Z" fill="#9A5472"/>
<path d="M65.4013 140.586C65.4013 128.798 65.4013 117.009 65.2921 105.221C73.3693 105.658 79.1542 109.151 81.9922 117.009C85.0484 125.741 81.1189 137.421 69.6581 139.822C68.5666 140.04 67.5843 140.477 66.6019 140.804C66.1653 140.695 65.8379 140.695 65.4013 140.586Z" fill="#D96CA6"/>
<path d="M65.4018 140.586C65.8384 140.695 66.1659 140.804 66.6025 140.804C66.9299 142.878 67.4757 145.061 67.5848 147.135C67.8031 153.138 67.8031 159.032 67.9123 165.472C66.4933 165.472 64.7469 165.472 62.1273 165.472C62.5639 157.177 63.1097 148.991 63.5463 140.695C64.2012 140.695 64.7469 140.586 65.4018 140.586Z" fill="#E7A444"/>
<path d="M340.134 101.401C326.49 101.401 312.955 101.401 299.311 101.292C299.311 100.637 299.311 99.9819 299.311 99.327C312.955 99.327 326.599 99.327 340.134 99.2179C340.134 99.9819 340.134 100.637 340.134 101.401Z" fill="#E7A444"/>
<path d="M299.202 121.266C312.846 121.266 326.49 121.157 340.024 121.157C340.024 121.921 339.915 122.576 339.915 123.34C326.271 123.34 312.737 123.231 299.093 123.231C299.202 122.576 299.202 121.921 299.202 121.266Z" fill="#E7A444"/>
<path d="M334.13 75.6413C324.962 75.6413 315.684 75.6413 306.515 75.6413C304.114 75.5322 301.713 75.423 299.311 75.3139C299.311 74.8773 299.311 74.4407 299.311 74.1132C299.857 74.0041 300.512 73.8949 301.058 73.7858C312.082 73.7858 322.997 73.7858 334.021 73.7858L334.458 74.0041L334.894 73.7858C335.986 73.7858 337.187 73.7858 338.278 73.7858C338.933 73.8949 339.588 73.8949 340.243 74.0041C340.243 74.5498 340.243 74.9864 340.243 75.5322C338.278 75.5322 336.204 75.6413 334.13 75.6413Z" fill="#F2CA5D"/>
<path d="M287.086 92.1231C287.305 88.6303 287.414 85.6832 287.85 82.7362C288.069 81.0989 289.16 79.5708 291.234 79.8983C293.199 80.2257 294.509 81.5355 294.509 83.6094C294.618 86.3381 294.509 89.0669 294.509 92.014C292.216 92.1231 290.033 92.1231 287.086 92.1231Z" fill="#242F3E"/>
<path d="M294.509 66.9093C287.305 67.8916 286.977 67.6733 287.195 61.0152C287.305 58.0681 287.96 55.6668 291.561 54.7936C297.019 57.7406 293.744 62.7616 294.509 66.9093Z" fill="#242F3E"/>
<path d="M288.615 105.221C294.182 104.675 294.509 104.894 294.618 109.915C294.618 111.879 294.618 113.844 294.618 116.354C292.326 116.354 290.143 116.354 287.523 116.354C287.196 112.534 286.432 108.714 288.615 105.221Z" fill="#242F3E"/>
<path d="M281.519 67.2367C279.009 67.2367 277.262 67.2367 275.625 67.2367C273.988 58.5047 274.424 56.7583 278.79 54.7936C283.702 57.9589 280.646 62.7616 281.519 67.2367Z" fill="#242F3E"/>
<path d="M278.572 92.4506C278.463 90.3767 278.354 88.3029 278.354 86.229C277.59 84.3734 276.717 82.627 275.953 80.7715C279.227 79.68 281.083 80.3349 281.41 83.0636C281.738 85.6832 281.519 88.412 281.41 91.0316C281.301 92.9963 279.773 92.5597 278.572 92.4506Z" fill="#242F3E"/>
<path d="M279.337 116.791C279.337 112.753 279.337 108.605 279.337 104.566C279.992 105.33 281.302 106.094 281.302 106.858C281.52 109.696 281.52 112.643 281.411 115.481C281.302 116.027 280.101 116.464 279.337 116.791Z" fill="#242F3E"/>
<path d="M299.311 75.423C301.712 75.5322 304.114 75.6413 306.515 75.7505C304.005 75.9688 301.603 76.1871 299.093 76.4054C299.093 76.0779 299.202 75.7505 299.311 75.423Z" fill="#D5548F"/>
<path d="M301.057 73.7858C300.512 73.8949 299.857 74.0041 299.311 74.1132C299.093 73.7858 299.093 73.4583 299.202 73.1309C299.857 73.3492 300.512 73.5675 301.057 73.7858Z" fill="#D5548F"/>
<path d="M139.843 114.717C139.733 105.221 139.733 95.7251 139.624 86.229C139.952 86.229 140.388 86.229 140.716 86.229C151.74 86.229 162.655 86.3381 173.679 86.229C175.098 86.229 176.626 85.4649 178.045 85.1375C178.373 85.1375 178.809 85.2466 179.137 85.2466C179.137 88.412 179.137 91.5773 179.137 94.7427C179.246 98.9996 179.246 103.256 179.355 107.513C179.137 109.915 179.028 112.316 178.809 114.717C165.82 114.717 152.831 114.717 139.843 114.717ZM150.539 108.496C150.539 105.33 150.539 103.038 150.539 100.637C150.539 98.4538 149.557 97.144 147.265 97.2532C145.3 97.2532 144.318 98.4538 144.209 100.419C144.099 103.038 144.209 105.767 144.209 108.605C146.61 108.496 148.356 108.496 150.539 108.496ZM175.535 108.496C175.535 105.658 175.644 103.147 175.535 100.746C175.426 98.7813 174.334 97.2532 172.151 97.2532C169.859 97.2532 169.095 98.7813 169.095 100.855C169.095 103.475 169.204 106.094 169.204 108.932C171.605 108.714 173.352 108.605 175.535 108.496ZM156.87 107.404C158.726 108.823 160.581 108.277 162.764 108.059C162.764 105.33 162.873 102.82 162.764 100.309C162.655 98.4538 161.782 97.2532 159.817 97.2532C157.852 97.2532 156.979 98.563 156.979 100.419C156.87 102.711 156.87 105.112 156.87 107.404Z" fill="#D35645"/>
<path d="M229.236 86.2289C229.236 90.2675 229.345 94.4152 229.345 98.4538C229.236 99.4362 229.127 100.528 229.018 101.51C216.029 101.51 203.04 101.619 190.051 101.619C190.051 94.1969 190.051 86.7747 190.051 79.4616C203.04 79.4616 216.138 79.4616 229.127 79.4616C229.127 81.7538 229.236 83.9368 229.236 86.2289ZM219.303 94.7427C221.705 94.8518 224.433 95.8342 225.088 93.7603C225.852 91.0316 225.416 87.8662 224.979 84.9191C224.87 84.1551 222.578 83.0636 221.596 83.2819C220.722 83.5002 219.631 85.2466 219.522 86.4472C219.085 88.9577 219.303 91.4682 219.303 94.7427ZM200.748 94.7427C200.202 90.3767 202.712 85.6832 197.582 83.0636C193.544 86.3381 193.435 86.6655 194.854 94.7427C196.6 94.7427 198.346 94.7427 200.748 94.7427ZM212.863 94.7427C212.863 91.5773 212.863 89.0669 212.863 86.5564C212.863 84.7008 212.209 83.1727 210.244 83.1727C207.952 83.0636 207.297 84.81 207.297 86.8838C207.297 89.0669 207.297 91.2499 207.406 93.4329C207.406 93.8695 207.843 94.4152 208.061 94.8518C209.48 94.7427 210.899 94.7427 212.863 94.7427Z" fill="#D35645"/>
<path d="M229.236 107.95C229.564 112.316 228.145 116.9 230.328 121.157C230 121.485 229.564 121.921 229.236 122.249C216.138 122.249 203.149 122.249 190.051 122.249C190.051 115.918 190.16 109.587 190.16 103.256C203.149 103.038 216.138 102.711 229.127 102.492C229.127 104.348 229.236 106.204 229.236 107.95ZM225.743 117.555C225.743 114.826 225.852 112.316 225.743 109.806C225.634 107.841 224.433 106.204 222.469 106.313C220.504 106.313 219.303 107.732 219.303 109.915C219.303 112.425 219.303 114.826 219.303 117.555C221.377 117.555 223.124 117.555 225.743 117.555ZM200.748 117.555C200.748 114.826 200.748 112.534 200.748 110.242C200.748 108.059 199.656 106.749 197.692 106.313C196.054 105.985 194.417 107.841 194.308 110.351C194.199 112.643 194.308 115.045 194.308 117.555C196.491 117.555 198.237 117.555 200.748 117.555ZM212.973 117.555C212.973 114.608 213.082 111.989 212.973 109.369C212.863 107.404 211.663 106.422 209.807 106.531C208.279 106.64 207.188 107.623 207.188 109.369C207.188 111.989 207.188 114.717 207.188 117.555C209.262 117.555 210.899 117.555 212.973 117.555Z" fill="#D35645"/>
<path d="M190.051 122.358C203.149 122.358 216.138 122.358 229.236 122.358C229.127 123.013 229.127 123.777 229.018 124.432C216.029 124.432 203.04 124.432 190.051 124.323C190.051 123.668 190.051 123.013 190.051 122.358Z" fill="#E7A444"/>
<path d="M229.127 79.5708C216.138 79.5708 203.04 79.5708 190.051 79.5708C190.051 78.9159 190.051 78.261 190.051 77.6061C203.149 77.6061 216.138 77.6061 229.236 77.6061C229.127 78.1518 229.127 78.8067 229.127 79.5708Z" fill="#E7A444"/>
<path d="M178.809 114.717C179.027 112.316 179.136 109.915 179.354 107.513C184.266 105.33 185.467 105.985 185.576 111.224C185.685 113.189 185.576 115.154 185.576 117.664C183.175 117.664 181.101 117.664 179.027 117.664C179.027 117.337 178.918 117.009 178.809 116.682C178.809 116.027 178.809 115.372 178.809 114.717Z" fill="#242F3E"/>
<path d="M179.136 94.6335C179.136 91.4682 179.136 88.3028 179.136 85.1374C180.555 84.0459 181.756 82.4087 183.829 83.391C185.794 84.3734 185.576 86.3381 185.576 88.0845C185.576 90.0492 185.576 92.0139 185.576 94.5244C183.284 94.6335 181.21 94.6335 179.136 94.6335Z" fill="#242F3E"/>
<path d="M185.467 60.5786C185.467 64.0714 185.467 67.2367 185.467 70.6204C183.393 70.6204 181.537 70.6204 179.136 70.6204C179.136 68.4374 179.136 66.4727 179.136 64.508C179.245 60.0328 179.682 59.8145 185.467 60.5786Z" fill="#242F3E"/>
<path d="M170.077 71.2753C168.985 69.7472 167.894 68.2191 166.802 66.691C166.911 65.5995 167.02 64.508 167.02 63.4165C167.13 61.3426 167.894 59.9236 170.186 59.9236C172.478 59.9236 173.46 61.1243 173.46 63.3073C173.46 65.5995 173.46 68.0008 173.46 70.4021C172.15 70.8387 171.168 71.057 170.077 71.2753Z" fill="#242F3E"/>
<path d="M229.127 102.601C216.138 102.82 203.149 103.147 190.16 103.366C190.16 102.82 190.16 102.274 190.051 101.728C203.04 101.728 216.029 101.619 229.018 101.619C229.236 101.947 229.236 102.274 229.127 102.601Z" fill="#F2CA5D"/>
<path d="M98.5835 63.089C98.5835 60.4694 98.4744 58.723 98.5835 56.9766C98.6927 55.3393 99.1293 53.5929 101.312 53.5929C103.604 53.4838 104.478 54.9027 104.478 57.0857C104.478 58.8321 104.478 60.6877 104.478 62.8707C102.513 62.8707 100.876 62.9799 98.5835 63.089Z" fill="#E7A444"/>
<path d="M94.1081 62.7616C92.1434 62.7616 90.8336 62.7616 88.8689 62.7616C88.8689 60.5786 88.5414 58.5047 88.978 56.6492C89.1963 55.4485 90.397 54.0295 91.4885 53.7021C93.2349 53.1563 94.1081 54.6844 94.1081 56.3217C94.2172 58.3956 94.1081 60.4694 94.1081 62.7616Z" fill="#DF8A44"/>
<path d="M83.9567 62.8707C81.992 62.8707 80.6822 62.8707 79.1541 62.8707C78.9358 62.325 78.6083 61.7792 78.6083 61.3426C78.4992 59.7054 78.2809 57.959 78.7175 56.54C79.0449 55.4485 80.2456 53.9204 81.228 53.7021C82.7561 53.3746 83.8476 54.5753 83.8476 56.3217C83.9567 58.2864 83.9567 60.2511 83.9567 62.8707Z" fill="#E7A444"/>
<path d="M61.6908 62.6524C59.8352 62.7616 58.5254 62.8707 57.4339 62.9799C55.6875 61.2335 56.015 55.2302 57.5431 54.0295C58.8529 53.0472 61.0359 53.8112 61.3633 55.5576C61.6908 57.7407 61.5816 60.142 61.6908 62.6524Z" fill="#E7A444"/>
<path d="M71.9508 62.9799C69.986 62.9799 68.5671 62.9799 66.8207 62.9799C66.8207 60.0328 66.8207 57.1949 66.8207 54.4661C70.6409 53.2655 71.6233 53.7021 71.8416 56.9766C72.0599 58.8321 71.9508 60.5786 71.9508 62.9799Z" fill="#BF7447"/>
<path d="M71.7321 43.3328C69.8765 43.3328 68.4576 43.3328 67.2569 43.3328C67.0386 42.787 66.7112 42.5687 66.7112 42.2412C66.602 40.4948 66.3837 38.6393 66.7112 36.8929C66.9295 35.9105 68.1301 35.1465 68.8942 34.2733C69.8765 35.1465 71.4046 35.8014 71.7321 36.8929C72.0595 38.7484 71.7321 40.7131 71.7321 43.3328Z" fill="#DF8A44"/>
<path d="M61.2542 43.3327C59.5078 43.3327 58.3071 43.3327 57.2156 43.3327C56.8882 42.8961 56.5607 42.6778 56.5607 42.3504C56.4516 40.3857 56.2333 38.421 56.6699 36.4563C56.8882 35.583 58.198 34.6007 59.1803 34.3824C59.7261 34.2732 61.0359 35.583 61.1451 36.3471C61.4725 38.5301 61.2542 40.604 61.2542 43.3327Z" fill="#E7A444"/>
<path d="M240.151 116.791C240.151 116.136 240.151 115.481 240.151 114.717C252.486 114.717 264.82 114.717 277.263 114.717C277.481 114.717 277.699 115.154 278.027 115.481C278.027 115.59 278.027 115.809 278.027 116.027C278.027 116.136 277.808 116.354 277.699 116.354C265.147 116.464 252.704 116.573 240.151 116.791Z" fill="#E7A444"/>
<path d="M250.957 131.636C248.993 132.072 247.464 132.4 245.718 132.727C243.535 129.671 244.627 126.178 244.954 122.904C245.063 122.249 246.919 121.157 247.901 121.266C249.102 121.485 250.739 122.576 250.957 123.558C251.285 126.069 250.957 128.579 250.957 131.636Z" fill="#DF8A44"/>
<path d="M263.073 131.963C260.671 131.963 259.034 131.963 257.288 131.963C256.087 129.343 256.633 126.615 256.633 123.995C256.633 122.03 257.943 121.157 259.798 121.157C261.763 121.157 262.964 122.03 262.964 123.995C263.073 126.506 263.073 129.016 263.073 131.963Z" fill="#DF8A44"/>
<path d="M275.08 131.854C273.115 131.854 271.587 131.854 269.513 131.854C269.513 129.125 269.513 126.724 269.513 124.213C269.513 122.358 270.605 120.83 272.461 121.266C273.443 121.485 274.753 123.013 274.862 124.104C275.298 126.615 275.08 129.125 275.08 131.854Z" fill="#DF8A44"/>
<path d="M178.808 114.717C178.808 115.372 178.808 116.027 178.808 116.682C165.82 116.682 152.831 116.682 139.842 116.682C139.842 116.027 139.842 115.372 139.842 114.826C152.831 114.717 165.82 114.717 178.808 114.717Z" fill="#E7A444"/>
<path d="M123.251 131.963C120.959 131.963 119.213 131.963 116.811 131.963C116.811 129.453 116.811 127.051 116.811 124.541C116.811 122.358 117.685 121.157 119.977 121.048C122.16 121.048 123.251 122.14 123.251 124.323C123.251 126.833 123.251 129.343 123.251 131.963Z" fill="#242F3E"/>
<path d="M123.251 107.95C120.85 107.95 119.104 107.95 116.811 107.95C116.811 105.221 116.811 102.82 116.811 100.309C116.811 98.4538 117.903 97.2531 119.868 97.144C122.051 97.0348 123.251 98.2355 123.251 100.419C123.251 102.82 123.251 105.112 123.251 107.95Z" fill="#242F3E"/>
<path d="M135.367 108.168C132.857 108.168 131.328 108.168 128.927 108.168C128.927 105.439 128.818 102.82 128.927 100.2C129.036 98.3446 130.128 97.2531 132.202 97.3623C134.166 97.3623 135.258 98.3446 135.367 100.309C135.367 102.711 135.367 105.221 135.367 108.168Z" fill="#242F3E"/>
<path d="M135.258 131.963C132.966 131.963 131.219 131.963 128.818 131.963C128.818 129.343 128.818 126.724 128.818 123.995C128.818 122.03 130.128 121.157 131.874 121.048C133.73 120.939 135.04 121.703 135.149 123.777C135.367 126.506 135.258 129.125 135.258 131.963Z" fill="#242F3E"/>
<path d="M156.106 131.745C156.106 129.562 156.106 127.815 156.106 126.069C156.215 121.375 156.76 120.939 162.327 121.812C162.436 122.467 162.545 123.122 162.655 123.777C162.655 126.287 162.655 128.798 162.655 131.745C160.472 131.745 158.616 131.745 156.106 131.745Z" fill="#DF8A44"/>
<path d="M175.643 131.854C173.351 131.854 171.605 131.854 169.094 131.854C169.094 129.234 168.985 126.506 169.094 123.886C169.204 121.921 170.513 121.048 172.478 121.157C174.443 121.157 175.534 122.14 175.643 124.104C175.753 126.506 175.643 128.798 175.643 131.854Z" fill="#DF8A44"/>
<path d="M144.099 132.181C144.099 129.016 144.099 126.724 144.099 124.323C144.099 122.03 145.409 121.048 147.592 121.157C149.557 121.266 150.539 122.358 150.648 124.213C150.648 126.506 150.648 128.907 150.648 131.854C148.574 131.963 146.609 132.072 144.099 132.181Z" fill="#DF8A44"/>
<path d="M229.018 124.323C229.127 123.668 229.127 122.904 229.236 122.249C229.564 121.921 230 121.485 230.328 121.157C235.567 121.375 235.676 121.375 235.785 126.069C235.785 127.488 235.785 128.907 235.785 130.435C235.785 130.762 235.567 131.09 235.349 131.963C233.493 131.963 231.419 131.963 229.345 131.963C229.127 129.453 229.127 126.942 229.018 124.323Z" fill="#242F3E"/>
<path d="M310.118 92.4506C307.498 92.4506 305.752 92.4506 303.459 92.4506C303.459 89.3943 303.35 86.5564 303.459 83.8277C303.569 81.6447 304.988 80.0074 307.171 80.0074C309.463 79.8982 310.008 81.863 310.008 83.8277C310.118 86.4473 310.118 89.2852 310.118 92.4506Z" fill="#DF8A44"/>
<path d="M229.128 102.601C229.237 102.274 229.237 101.947 229.128 101.619C229.237 100.637 229.346 99.5453 229.455 98.5629C234.367 96.3799 235.677 97.144 235.786 102.165C235.786 103.911 235.786 105.767 235.786 108.059C233.494 108.059 231.42 108.059 229.346 108.059C229.237 106.203 229.128 104.348 229.128 102.601Z" fill="#242F3E"/>
<path d="M219.304 94.7427C219.304 91.5773 219.086 88.9577 219.413 86.4472C219.522 85.2466 220.614 83.5002 221.487 83.2819C222.469 83.0636 224.762 84.1551 224.871 84.9191C225.307 87.757 225.853 91.0315 224.98 93.7603C224.543 95.8342 221.705 94.8518 219.304 94.7427Z" fill="#DF8A44"/>
<path d="M200.748 94.7427C198.238 94.7427 196.601 94.7427 194.854 94.7427C193.435 86.5564 193.544 86.3381 197.583 83.0636C202.713 85.6832 200.312 90.3767 200.748 94.7427Z" fill="#DF8A44"/>
<path d="M212.864 94.7427C210.899 94.7427 209.48 94.7427 207.952 94.7427C207.734 94.197 207.406 93.7604 207.297 93.3238C207.188 91.1407 207.297 88.9577 207.188 86.7747C207.188 84.7009 207.734 83.0636 210.135 83.0636C212.1 83.1727 212.755 84.7009 212.755 86.4473C212.864 89.0669 212.864 91.5773 212.864 94.7427Z" fill="#DF8A44"/>
</svg>
