<svg width="30" height="30" viewBox="0 0 30 30" fill="none" xmlns="http://www.w3.org/2000/svg">
<path fill-rule="evenodd" clip-rule="evenodd" d="M15 30C23.2843 30 30 23.2843 30 15C30 6.71573 23.2843 0 15 0C6.71573 0 0 6.71573 0 15C0 23.2843 6.71573 30 15 30Z" fill="#4D17BC"/>
<mask id="mask0" mask-type="alpha" maskUnits="userSpaceOnUse" x="22" y="15" width="5" height="5">
<path fill-rule="evenodd" clip-rule="evenodd" d="M22.2114 15.8037H26.4732V19.4035H22.2114V15.8037Z" fill="white"/>
</mask>
<g mask="url(#mask0)">
<path fill-rule="evenodd" clip-rule="evenodd" d="M25.5585 16.4033C25.9273 16.5084 25.7086 17.1814 25.4956 17.7003C25.2592 18.2756 24.961 18.8151 24.542 19.4035C25.1213 18.8256 25.6924 18.2039 26.0549 17.5206C26.4124 16.847 26.7191 15.8733 26.186 15.8055C25.9205 15.7719 25.5169 16.229 25.2196 16.4184C24.7827 16.6964 24.3347 16.767 23.9607 16.8069C23.4441 16.8615 22.883 16.7522 22.2114 17.2406C22.8713 17.0344 23.3569 17.2059 24.0043 17.0094C24.4888 16.8621 25.1871 16.2973 25.5585 16.4033Z" fill="#67A183"/>
</g>
<path fill-rule="evenodd" clip-rule="evenodd" d="M21.647 17.7818C22.1428 17.5978 22.5732 17.5924 22.9913 17.5662C23.4156 17.5391 24.0066 17.3209 24.2675 17.5146C24.5244 17.7046 24.5193 18.1429 24.3458 18.6724C24.1351 19.3146 23.7474 19.8925 23.2114 20.5484C23.4806 20.3399 23.7403 20.1297 24.0024 19.9033C24.1786 19.7512 24.3641 19.5769 24.5421 19.4035C24.9613 18.8151 25.2595 18.2756 25.4959 17.7003C25.7089 17.1817 25.9274 16.5084 25.5586 16.4033C25.1874 16.2973 24.4891 16.8621 24.0043 17.0094C23.357 17.2062 22.8717 17.0344 22.2115 17.2409C22.1286 17.3024 22.0525 17.3682 21.9822 17.432C21.8603 17.5425 21.7478 17.6582 21.647 17.7818Z" fill="#7CC68E"/>
<path fill-rule="evenodd" clip-rule="evenodd" d="M21.0072 20.6111C21.0109 21.0967 21.0439 21.5291 21.5187 21.4909C21.9547 21.4556 22.6636 20.9657 23.2116 20.5482C23.7476 19.8926 24.1352 19.3144 24.346 18.6721C24.5194 18.1427 24.5246 17.7046 24.2677 17.5144C24.0068 17.3207 23.4158 17.5392 22.9914 17.5662C22.5733 17.5921 22.143 17.5976 21.6471 17.7815C20.8052 18.8396 21.0015 19.8786 21.0072 20.6111Z" fill="#B6382E"/>
<mask id="mask1" mask-type="alpha" maskUnits="userSpaceOnUse" x="4" y="16" width="5" height="4">
<path fill-rule="evenodd" clip-rule="evenodd" d="M4.09082 16.1865H8.7891V19.8872H4.09082V16.1865Z" fill="white"/>
</mask>
<g mask="url(#mask1)">
<path fill-rule="evenodd" clip-rule="evenodd" d="M5.10167 16.7421C4.6793 16.936 4.85901 17.6378 5.05382 18.1804C5.26629 18.7736 5.5511 19.3139 5.96863 19.8872C5.36968 19.3584 4.7881 18.7816 4.44091 18.0952C4.08974 17.4009 3.86816 16.4097 4.44803 16.2015C4.72971 16.1001 5.17401 16.5407 5.48246 16.6897C5.95781 16.9201 6.45224 16.9016 6.86322 16.8742C7.41291 16.8378 8.09759 16.5823 8.78911 17.0206C8.06142 16.899 7.49294 17.1978 6.79515 17.1101C6.27367 17.0446 5.52205 16.549 5.10167 16.7421Z" fill="#67A183"/>
</g>
<path fill-rule="evenodd" clip-rule="evenodd" d="M9.37081 17.5164C8.82853 17.4344 8.35945 17.4814 7.88182 17.5344C7.40676 17.5876 6.81436 17.4777 6.45236 17.7266C5.62727 18.2937 6.45521 19.8858 7.35236 20.8963C7.07068 20.7174 6.79983 20.5351 6.52784 20.3352C6.34442 20.201 6.15217 20.0441 5.96875 19.8872C5.55122 19.3141 5.26641 18.7736 5.05394 18.1803C4.85913 17.6377 4.67913 16.936 5.10179 16.742C5.5216 16.5492 6.27379 17.0448 6.79527 17.11C7.49277 17.1977 8.06125 16.899 8.78923 17.0206C8.8761 17.0738 8.95527 17.1322 9.02818 17.1903C9.15436 17.2906 9.2697 17.3979 9.37081 17.5164Z" fill="#7CC68E"/>
<path fill-rule="evenodd" clip-rule="evenodd" d="M9.81368 20.5398C9.76213 21.0767 9.68666 21.566 9.15492 21.6144C8.67473 21.6583 7.92567 21.2524 7.35207 20.8964C6.45492 19.8859 5.62726 18.2935 6.45207 17.7268C6.81435 17.4778 7.40675 17.5878 7.88181 17.5345C8.35944 17.4815 8.82824 17.4345 9.37052 17.5166C10.2212 18.5493 9.892 19.7241 9.81368 20.5398Z" fill="#B6382E"/>
<path fill-rule="evenodd" clip-rule="evenodd" d="M24.1759 15.1242C24.1759 19.6764 20.1712 23.3666 15.2312 23.3666C10.2911 23.3666 6.28613 19.6764 6.28613 15.1242C6.28613 10.5721 10.2911 6.88184 15.2312 6.88184C20.1712 6.88184 24.1759 10.5721 24.1759 15.1242Z" fill="#1AB169"/>
<path fill-rule="evenodd" clip-rule="evenodd" d="M17.3584 4.09082C17.4103 4.39842 17.3063 5.17566 16.5604 6.02041C16.2317 6.39294 16.2613 6.31718 16.1357 6.50459C16.0098 6.69256 15.8543 6.86088 15.6647 7.00585C15.4716 7.14883 15.4072 7.23285 15.101 7.29949C15.0483 6.99133 15.0085 6.93237 14.9868 6.54987C14.9737 6.31148 15.0264 5.97826 15.1531 5.79114C15.2802 5.60402 15.4206 5.40522 15.7253 5.19759C15.9187 5.05462 17.0836 4.61031 17.3584 4.09082Z" fill="#1AB169"/>
<path fill-rule="evenodd" clip-rule="evenodd" d="M8.03857 13.5108C8.03857 15.588 9.54778 17.272 11.4124 17.272C13.2751 17.272 14.7843 15.588 14.7843 13.5108C14.7843 11.4331 13.2751 9.75049 11.4124 9.75049C9.54778 9.75049 8.03857 11.4331 8.03857 13.5108Z" fill="#FEFEFE"/>
<path fill-rule="evenodd" clip-rule="evenodd" d="M9.9917 13.5597C9.9917 14.1635 9.61774 14.6545 9.15806 14.6545C8.69781 14.6545 8.32471 14.1635 8.32471 13.5597C8.32471 12.9544 8.69781 12.4648 9.15806 12.4648C9.61774 12.4648 9.9917 12.9544 9.9917 13.5597Z" fill="#221E1F"/>
<path fill-rule="evenodd" clip-rule="evenodd" d="M8.93198 13.2053C8.93198 13.3542 8.8397 13.4753 8.72634 13.4753C8.61299 13.4753 8.521 13.3542 8.521 13.2053C8.521 13.0563 8.61299 12.9355 8.72634 12.9355C8.8397 12.9355 8.93198 13.0563 8.93198 13.2053Z" fill="#FEFEFE"/>
<path fill-rule="evenodd" clip-rule="evenodd" d="M18.0343 5.06641C18.087 5.37343 17.7051 6.53574 17.2995 6.98175C17.1386 7.15834 16.3548 7.97887 15.5519 8.1341C15.4992 7.82565 15.4354 7.32609 15.4955 7.09312C15.559 6.86356 15.7328 6.49188 16.3508 6.21789C17.2465 5.82144 17.6259 5.5859 18.0343 5.06641Z" fill="#1AB169"/>
<path fill-rule="evenodd" clip-rule="evenodd" d="M15.2837 13.0016C15.2837 15.0787 16.7929 16.7628 18.6576 16.7628C20.5202 16.7628 22.0294 15.0787 22.0294 13.0016C22.0294 10.9239 20.5202 9.24121 18.6576 9.24121C16.7929 9.24121 15.2837 10.9239 15.2837 13.0016Z" fill="#FEFEFE"/>
<path fill-rule="evenodd" clip-rule="evenodd" d="M21.7231 13.5597C21.7231 14.1635 21.3592 14.6545 20.9117 14.6545C20.4634 14.6545 20.1006 14.1635 20.1006 13.5597C20.1006 12.9544 20.4634 12.4648 20.9117 12.4648C21.3592 12.4648 21.7231 12.9544 21.7231 13.5597Z" fill="#221E1F"/>
<path fill-rule="evenodd" clip-rule="evenodd" d="M20.6912 13.2053C20.6912 13.3542 20.6015 13.4753 20.491 13.4753C20.3804 13.4753 20.291 13.3542 20.291 13.2053C20.291 13.0563 20.3804 12.9355 20.491 12.9355C20.6015 12.9355 20.6912 13.0563 20.6912 13.2053Z" fill="#FEFEFE"/>
<path fill-rule="evenodd" clip-rule="evenodd" d="M17.7899 18.9147C17.7899 20.2522 16.5305 21.3367 14.9771 21.3367C13.4235 21.3367 12.1641 20.2522 12.1641 18.9147C12.1641 17.5772 13.4235 16.4927 14.9771 16.4927C16.5305 16.4927 17.7899 17.5772 17.7899 18.9147Z" fill="#F05A2A"/>
<path fill-rule="evenodd" clip-rule="evenodd" d="M16.0997 20.3938C16.0997 20.3938 16.2105 20.3166 16.3945 20.1876C16.5799 20.0586 16.8388 19.8783 17.1381 19.6721C18.919 18.174 22.3601 17.2182 22.0736 14.3507C22.0736 14.255 22.02 13.7025 21.9372 13.8745C21.3636 15.067 18.4075 17.4375 17.79 13.9987C17.6083 12.9885 17.1429 10.9051 16.5326 10.6137C16.223 10.4887 15.9245 10.3788 15.656 10.3007C15.3874 10.2224 15.1487 10.1763 14.9604 10.1763V20.7236C15.3726 20.7236 15.787 20.614 16.0997 20.3938Z" fill="#FAAF41"/>
<path fill-rule="evenodd" clip-rule="evenodd" d="M13.8366 20.3938C13.8366 20.3938 13.7261 20.3166 13.5419 20.1876C13.3567 20.0586 13.0978 19.8783 12.7982 19.6721C11.0173 18.174 7.57651 17.2182 7.86303 14.3507C7.86303 14.255 7.91657 13.7025 7.99945 13.8745C8.57306 15.067 11.5288 17.4375 12.1466 13.9987C12.328 12.9885 12.7934 10.9051 13.4037 10.6137C13.7133 10.4887 14.0118 10.3788 14.2807 10.3007C14.5489 10.2224 14.7879 10.1763 14.9762 10.1763V20.7236C14.5638 20.7236 14.1494 20.614 13.8366 20.3938Z" fill="#F69420"/>
</svg>
