<svg xmlns="http://www.w3.org/2000/svg" width="36" height="36" viewBox="0 0 36 36">
    <g fill="none" fill-rule="evenodd">
        <circle cx="18" cy="18" r="18" fill="#F1F5F9"/>
        <path fill="#4267B2" d="M21.665 9.253l-2.132-.003c-2.395 0-3.943 1.606-3.943 4.091v1.887h-2.144a.337.337 0 0 0-.335.339V18.3c0 .188.15.34.335.34h2.144v6.896c0 .187.15.339.335.339h2.797a.337.337 0 0 0 .335-.339v-6.897h2.507a.337.337 0 0 0 .335-.339l.001-2.733a.341.341 0 0 0-.098-.24.333.333 0 0 0-.237-.1h-2.508V13.63c0-.769.182-1.16 1.172-1.16h1.436A.337.337 0 0 0 22 12.13V9.592a.337.337 0 0 0-.335-.339z"/>
    </g>
</svg>
