<svg width="30" height="30" viewBox="0 0 30 30" fill="none" xmlns="http://www.w3.org/2000/svg">
<path fill-rule="evenodd" clip-rule="evenodd" d="M15 30C23.2843 30 30 23.2843 30 15C30 6.71573 23.2843 0 15 0C6.71573 0 0 6.71573 0 15C0 23.2843 6.71573 30 15 30Z" fill="#0084FF"/>
<path fill-rule="evenodd" clip-rule="evenodd" d="M15.9088 17.0662L14.0107 15.0292L10.3069 17.0662L14.381 12.7144L16.3255 14.7514L19.9829 12.7144L15.9088 17.0662ZM15.1681 7.71436C11.0515 7.71436 7.71436 10.8235 7.71436 14.6588C7.71436 16.8442 8.79824 18.7936 10.4921 20.0665V22.7144L13.03 21.3128C13.7074 21.5014 14.4249 21.6032 15.1681 21.6032C19.2846 21.6032 22.6218 18.4941 22.6218 14.6588C22.6218 10.8235 19.2846 7.71436 15.1681 7.71436Z" fill="white"/>
</svg>
