<svg width="31" height="28" viewBox="0 0 31 28" fill="none" xmlns="http://www.w3.org/2000/svg">
<path fill-rule="evenodd" clip-rule="evenodd" d="M26.375 1C27.3568 1 28.2064 1.32669 28.9238 1.98009C29.6413 2.63349 30 3.40723 30 4.30136V19.1575C30 20.0516 29.6413 20.8253 28.9238 21.4787C28.2064 22.1321 27.3568 22.4588 26.375 22.4588H18.2188L11.1387 27.3077C10.9121 27.4452 10.6761 27.4538 10.4307 27.3335C10.1852 27.2131 10.0625 27.0326 10.0625 26.7918V22.4588H4.625C3.64322 22.4588 2.79362 22.1321 2.07617 21.4787C1.35872 20.8253 1 20.0516 1 19.1575V4.30136C1 3.40723 1.35872 2.63349 2.07617 1.98009C2.79362 1.32669 3.64322 1 4.625 1H26.375Z" fill="#1FC39B" stroke="#B0BAC5"/>
<path fill-rule="evenodd" clip-rule="evenodd" d="M24.1355 4.61375L25.5617 3.1875C28.983 6.73125 28.9742 12.0337 25.5617 15.4375L24.1355 14.0112C26.5592 11.2288 26.5592 7.25625 24.1355 4.61375ZM19.3755 9.3125C19.3755 11.2463 17.8092 12.8125 15.8755 12.8125C13.9417 12.8125 12.3755 11.2463 12.3755 9.3125C12.3755 7.37875 13.9417 5.8125 15.8755 5.8125C17.8092 5.8125 19.3755 7.37875 19.3755 9.3125ZM17.6255 9.3125C17.6255 8.35 16.838 7.5625 15.8755 7.5625C14.913 7.5625 14.1255 8.35 14.1255 9.3125C14.1255 10.275 14.913 11.0625 15.8755 11.0625C16.838 11.0625 17.6255 10.275 17.6255 9.3125ZM15.8755 14.5625C13.5392 14.5625 8.87549 15.735 8.87549 18.0625V19.8125H22.8755V18.0625C22.8755 15.735 18.2117 14.5625 15.8755 14.5625ZM15.8755 16.3125C13.5217 16.3125 10.818 17.4325 10.6255 18.0625H21.1255C20.9505 17.4412 18.238 16.3125 15.8755 16.3125ZM21.1955 7.60625C21.9305 8.63875 21.9305 9.9775 21.1955 11.01L22.6655 12.4888C24.433 10.7213 24.433 8.0525 22.6655 6.1275L21.1955 7.60625Z" fill="white"/>
</svg>
