<svg width="30" height="30" viewBox="0 0 30 30" fill="none" xmlns="http://www.w3.org/2000/svg">
<path fill-rule="evenodd" clip-rule="evenodd" d="M15 30C23.2843 30 30 23.2843 30 15C30 6.71573 23.2843 0 15 0C6.71573 0 0 6.71573 0 15C0 23.2843 6.71573 30 15 30Z" fill="#3ACE01"/>
<path fill-rule="evenodd" clip-rule="evenodd" d="M20.4716 9.89419C19.0678 8.48926 17.201 7.71515 15.212 7.71436C11.1138 7.71436 7.77834 11.0485 7.7767 15.1467C7.77617 16.4567 8.11854 17.7355 8.76918 18.8626L7.71436 22.7144L11.6559 21.6808C12.7419 22.2729 13.9646 22.585 15.209 22.5855H15.212C15.2123 22.5855 15.2118 22.5855 15.2121 22.5855C19.3098 22.5855 22.6456 19.2509 22.6472 15.1527C22.648 13.1666 21.8754 11.2991 20.4716 9.89419ZM15.2121 21.3301H15.2095C14.1006 21.3297 13.013 21.0319 12.0642 20.469L11.8385 20.3351L9.49952 20.9485L10.1238 18.6688L9.97686 18.435C9.35825 17.4514 9.03153 16.3145 9.03202 15.1472C9.03335 11.741 11.8057 8.96972 15.2144 8.96972C16.8651 8.97034 18.4167 9.61382 19.5835 10.7815C20.7503 11.9492 21.3925 13.5014 21.3919 15.1522C21.3905 18.5587 18.6182 21.3301 15.2121 21.3301ZM17.3324 16.099C17.1621 16.037 17.0382 16.006 16.9143 16.1919C16.7905 16.3779 16.4345 16.7962 16.3261 16.9201C16.2177 17.0441 16.1094 17.0596 15.9236 16.9666C15.7378 16.8737 15.1392 16.6775 14.4296 16.0448C13.8773 15.5524 13.5044 14.9442 13.3961 14.7582C13.2877 14.5723 13.3846 14.4718 13.4776 14.3792C13.5611 14.296 13.6633 14.1623 13.7562 14.0538C13.8491 13.9454 13.8801 13.8679 13.942 13.744C14.0039 13.62 13.973 13.5115 13.9265 13.4186C13.8801 13.3256 13.5085 12.4115 13.3537 12.0396C13.2029 11.6775 13.0497 11.7265 12.9357 11.7208C12.8274 11.7154 12.7035 11.7143 12.5796 11.7143C12.4558 11.7143 12.2545 11.7607 12.0842 11.9467C11.9139 12.1326 11.434 12.5819 11.434 13.496C11.434 14.4102 12.0997 15.2933 12.1926 15.4172C12.2855 15.5412 13.5026 17.4171 15.3662 18.2216C15.8095 18.4129 16.1555 18.5272 16.4254 18.6128C16.8704 18.7541 17.2754 18.7342 17.5955 18.6864C17.9525 18.6331 18.6947 18.2371 18.8495 17.8033C19.0043 17.3695 19.0043 16.9976 18.9579 16.9202C18.9114 16.8427 18.7876 16.7962 18.6018 16.7032C18.416 16.6103 17.5027 16.1609 17.3324 16.099Z" fill="white"/>
</svg>
